<svg xmlns="http://www.w3.org/2000/svg" fill-rule="evenodd" stroke-linejoin="round" stroke-miterlimit="1.41421" clip-rule="evenodd" viewBox="0 0 1004 837">
  <ellipse cx="713.5" cy="826.66" fill="#0452b5" fill-opacity=".1" rx="102.56" ry="10.11"/>
  <path fill="#0452b5" fill-opacity=".1" fill-rule="nonzero" d="M439.53 12.24C484.7-4.55 539.69 9.89 586.65 30.95c147.49 66.16 254.94 191.75 340.31 319.7 30.91 46.33 60.27 94.7 71.89 146.42 23.66 105.27-38.05 214.25-143 252.44-35.69 13-74.9 18.33-114.17 21.3-69.83 5.29-142.13 3.19-211.4-16.4-49.4-14-96.13-36.52-140.95-61.4-125.17-69.52-239.48-159.8-321.79-270.08C31.44 374.56.9 320.03.02 264.22c-.88-55.81 35.49-111.89 95.33-121.38 24.74-3.92 50.91.16 76.44 4.36 37.59 6.19 75.69 12.7 112.85 10 38.39-2.81 88.32-17.81 95.32-54.46 7.41-39.35 14.46-73.73 59.57-90.5z"/>
  <path fill="#00c190" fill-rule="nonzero" d="M244.02 768.81s48.26-2.91 42.57 30.91c0 0 1.13 6-4.29 8.69 0 0-.08-2.51-4.95-1.66-1.73.297-3.489.385-5.24.26-2.367-.164-4.618-1.094-6.41-2.65-1.792-1.556-13.57-5.6-18.84-27.78 0 0-3.91-4.83-3.75-6.08l8.14 3.48s-2.78 5.88-.59 10.76c0 0 .26-10.54 1.83-10.3.31.05 4.23 2 4.23 2s-4.79 10.23-1.18 17.67c0 0-1.37-12.61 2.67-16.93l5.74 3.35s-5.6 10.57-1.8 19.19c0 0-1-13.23 3-18.38l5.2 4s-5.26 10.42-2.05 17.58c0 0 .41-15.41 3.17-16.57 0 0 4.55 4 5.24 5.66 0 0-3.6 7.56-1.37 11.55 0 0 1.37-10.26 2.5-10.31 0 0 4.52 6.8 5 11.46 0 0-.2-6.93-3.91-12.11 0 0 4.38.75 6.94 3.59 0 0-.71-4.81-8.05-5.23 0 0-3.74-5.15-4.75-5.47 0 0 7.31-.61 11.74 1.36 0 0-3.9-4.54-13.08-2.48l-5.13-4.18s9.63-1.32 13.7.14c0 0-4.69-4-15.08-1.09l-5.58-3.34s8.2-1.77 13.09-1.13c0 0-5.16-2.78-14.73.23l-4-1.79s6-1.18 7.77-1.37c1.77-.19 1.85-.67 1.85-.67-3.806-.638-7.716-.205-11.29 1.25-3.574 1.455-8.46-3.03-8.31-3.61z"/>
  <ellipse cx="277.26" cy="811.36" fill="#0452b5" fill-opacity=".1" rx="34.16" ry="5.77"/>
  <path fill="#00c190" fill-rule="nonzero" d="M179.37 746.06s27.21-1.64 24 17.43c.347 1.978-.631 3.967-2.41 4.9-1.779.933-.05-1.41-2.79-.93-.974.167-1.965.214-2.95.14-1.338-.082-2.612-.607-3.62-1.49s-7.64-3.17-10.64-15.67c0 0-2.2-2.73-2.12-3.43l4.6 2s-1.57 3.32-.34 6.07c0 0 .15-5.95 1-5.81.18 0 2.39 1.15 2.39 1.15s-2.7 5.77-.66 10c0 0-.78-7.11 1.5-9.55l3.23 1.89s-3.15 6-1 10.82c0 0-.55-7.46 1.69-10.36l2.93 2.28s-3 5.87-1.15 9.91c0 0 .23-8.69 1.79-9.34 0 0 2.56 2.26 2.95 3.19 0 0-2 4.26-.77 6.51 0 0 .77-5.78 1.41-5.81 0 0 2.55 3.83 2.81 6.46-.128-2.429-.886-4.783-2.2-6.83 1.471.269 2.831.965 3.91 2 1.079 1.035-.39-2.71-4.54-2.95 0 0-2.11-2.91-2.67-3.08 0 0 4.12-.35 6.62.76 0 0-2.2-2.56-7.38-1.4l-2.89-2.36s5.43-.74 7.73.08c0 0-2.65-2.26-8.51-.61l-3.14-1.89c2.419-.528 4.896-.74 7.37-.63 2.474.11-2.9-1.57-8.3.13l-2.25-1s3.39-.67 4.38-.77c.99-.1 1.05-.38 1.05-.38-2.148-.356-4.353-.11-6.37.71-2.017.82-4.74-1.81-4.66-2.14z"/>
  <ellipse cx="198.11" cy="770.04" fill="#0452b5" fill-opacity=".1" rx="19.26" ry="3.26"/>
  <path fill="#00c190" fill-rule="nonzero" d="M848.78 764.39s32.85-2 29 21c.403 2.39-.778 4.785-2.92 5.92-2.142 1.135-.06-1.71-3.37-1.13-1.179.201-2.378.258-3.57.17-1.611-.105-3.144-.737-4.36-1.8-1.216-1.063-9.24-3.81-12.83-18.91 0 0-2.66-3.29-2.55-4.13l5.54 2.36s-1.89 4-.4 7.33c0 0 .18-7.18 1.24-7 .22 0 2.88 1.38 2.88 1.38s-3.26 7-.8 12c0 0-.93-8.58 1.82-11.52l3.9 2.27s-3.81 7.2-1.22 13.07c0 0-.67-9 2-12.51l3.54 2.76s-3.58 7.09-1.4 12c0 0 .29-10.48 2.17-11.28 0 0 3.09 2.73 3.56 3.85 0 0-2.45 5.15-.93 7.87 0 0 .93-7 1.7-7 0 0 3.08 4.63 3.4 7.8-.149-2.931-1.063-5.772-2.65-8.24 1.777.336 3.418 1.185 4.72 2.44 1.302 1.255-.48-3.27-5.49-3.56 0 0-2.54-3.51-3.22-3.72 0 0 5-.42 8 .92 0 0-2.66-3.08-8.91-1.68l-3.49-2.85s6.55-.9 9.33.09c0 0-3.2-2.73-10.27-.74l-3.8-2.27s5.58-1.2 8.91-.77c0 0-3.51-1.89-10 .16l-2.72-1.22s4.09-.81 5.29-.93c1.2-.12 1.26-.46 1.26-.46-2.589-.432-5.248-.138-7.68.85-2.432.988-5.78-2.14-5.68-2.52z"/>
  <ellipse cx="871.4" cy="793.36" fill="#0452b5" fill-opacity=".1" rx="23.25" ry="3.93"/>
  <path fill="url(#_Linear1)" fill-rule="nonzero" d="M816.05 521.62c-.63-3.521-.994-7.084-1.09-10.66 0-4.29-5.83-8.09-5.83-8.09s-3.6-8.33-6-9.56c-2.4-1.23-9.81-12.13-9.81-12.13-.085-2.15-.868-4.214-2.23-5.88-2.22-2.918-4.248-5.978-6.07-9.16-1-1.22-.5-2.08-2-9.19-.08-.37-.17-.73-.28-1.07 0-.16-.1-.3-.16-.46 3.243-3.253 4.345-8.094 2.83-12.43-.269-.846-.76-1.606-1.42-2.2-1.69-1.38-4.39-.81-6.13-2.12l1.85-8.18c.44-2 .67-4.53-1.08-5.61-.657-.312-1.348-.543-2.06-.69-3-1-4.74-4.17-5.52-7.22-.75-2.938-.953-5.989-.6-9 .34-2.9 1.19-5.72 1.5-8.63.564-5.381-.732-10.797-3.67-15.34-1.143-1.961-2.827-3.551-4.85-4.58-1.85-.83-4-1-5.73-2-3.72-2.37-3.53-8-6.5-11.23-2.97-3.23-8.23-3.22-12.56-2.11-4.33 1.11-8.64 3-13.08 2.53-2.86-.32-5.54-1.62-8.41-1.92-.821-.078-1.649-.041-2.46.11v-.09c-2.12.38-4.07 1.56-4.57 3.57-.112.478-.159.969-.14 1.46 0 1.17.28 2.39.3 3.51.075.899-.218 1.79-.81 2.47-.57.61-1.41.93-2 1.56-.486.487-.75 1.153-.73 1.84 0 1.78 2.22 3.35 3.71 4.07h.06c-.4.4-.8.82-1.17 1.25-4.27 4.823-6.627 11.048-6.62 17.49.074 10.616 6.472 20.221 16.24 24.38l-.21.65c-.421 1.286-.912 2.548-1.47 3.78-2.093-.704-4.393-.447-6.28.7-2.86 2-8.45 1.84-9.94 1.47-1.49-.37-17-2.33-18.25-1.84s-3.72-1.71-5.33 1.23c-1.61 2.94-2.36 4.53-4 5.27-1.64.74-4.47 3.06-4.09 3.55.38.49-4.1 3.43-4.1 3.43s-3.85 4-6.08 4.53c-2.23.53-6.95 3.56-6.95 3.56l-5.47 4.28s-4.09.62-2.85-2.2c1.24-2.82-2.24-6.37-2.24-6.37s-6.95-14.09-6.95-17-5.71-15.32-5.71-15.32l-.7-.07-.32-.91c-1.05-2.95-2.41-6.57-3.45-8.69-2-4.05-3.23-4.47-3.23-4.47s-24.08-18.08-39.72-12.57c-15.64 5.51 28.55 21.93 32.52 23.65 1.39.6 2.39 2.54 3.09 4.81-3.522 1.699-6.489 4.367-8.55 7.69-2.061 3.323 9.56 21.19 9.81 26.46s6.58 20 6.58 20 2.36 10.91 15.14 10.29c0 0 17.63 3.24 21.48 0 3.85-3.24 7.32-5.78 9.19-6.15 1.375-.452 2.584-1.305 3.47-2.45.886-1.145-5.83 36.75-8.69 39.94-2.86 3.19-28.13 44.45-19.06 51.83 7.183 5.562 14.775 10.576 22.71 15 .77.38 3.08-3.47 6.38-6.2v2.13c.06 14.68 2 37 4.68 42 4 7.35 2.36 21.56 2.36 21.56 2.103.99 4.387 1.538 6.71 1.61.12.48.26 1 .39 1.5 2.19 8.27 5.74 21.06 7.55 24.46 2.73 5.15 4.71 21.45 4.71 21.45s1.62 16 1 18.25c-.24.85.81 7.51 2.46 16-1 11.49-2.9 33.64-3.22 41.65v.58c.005.09.005.18 0 .27v.49c-.031.504-.011 1.01.06 1.51.124.763.066 1.544-.17 2.28-.708 2.214-1.608 4.363-2.69 6.42-.456 1.011-.857 2.046-1.2 3.1-1 .44-2.22 1.51-2.9 4.12-1.24 4.78-3.1 18-3.1 18s-.75 8.09-2.23 9.93c-1.48 1.84-3 13.35 7.57 14.82 10.57 1.47 15.14-5.6 15.14-5.6l-.37-32.08v-.06c.214-.27.398-.561.55-.87v-.08c.07-.15.15-.31.22-.49l.09-.24.16-.39c-.006-.046-.006-.094 0-.14 1.026-3.073 1.334-6.34.9-9.55V776.41v-.75-.19c0-.213.02-.433.06-.66.04-.227 0-.08 0-.12l.06-.39v-.17c0-.13 0-.26.08-.4-.004-.033-.004-.067 0-.1.1-.46.22-1 .35-1.44v-.11l.15-.48c.15-.51.32-1 .5-1.54v-.1c0-.16.11-.32.17-.47v-.06c.18-.49.37-1 .55-1.42l.05-.13.16-.4.05-.12.38-.89 2.93 9.05s1.62 6.74.75 8.33c-.87 1.59 1 8.21 2.23 8.33l-1.15 8.33c-.622 4.593-.992 9.217-1.11 13.85-.08.53-.16 1-.22 1.32-.8 4.27 1.12 10.89 1.12 10.89 9.8 11.59 21.48.9 21.48.9s1.36-6.13 0-7.35c-1.36-1.22-.75-5.64-.75-5.64s.62-10.91.74-18.87c.12-7.96-6.51-15-6.51-15l-.37.33c-1.21-3.12-2.59-6.76-2.3-8.39.5-2.82-1.37-32.59-1.37-32.59.691-7.981.838-15.999.44-24 .16-1.35.31-2.68.46-4 .75-6.4 1.36-11.87 1.6-14.74v-.34c.06-.77.09-1.32.08-1.58 0-1 0-2.14.1-3.39.23-3.44.77-7.27.77-7.27l2.6-15.81s2-7.72 4.85-12l.34-.54c.11-.19.22-.4.34-.62l.05-.09c.11-.21.23-.43.34-.66l.05-.09c.4-.79.83-1.7 1.28-2.7 0-.08.07-.15.1-.23l.34-.76c0-.1.08-.2.13-.3.05-.1.21-.51.32-.76.049-.101.093-.204.13-.31.13-.3.27-.61.4-.93l.19-.46c.09-.23.19-.46.29-.69l.24-.61c.07-.15.13-.3.19-.45l.27-.69c0-.1.09-.21.13-.31.71-1.77 1.39-3.52 2-5.11.19-.5.38-1 .55-1.44 6.36.39 10.68.74 10.68.74s2-14.33 1.36-23.76c-.42-6.44.78-14.54 1.57-19 .09-.49.17-.93.25-1.33l.17.14c3.11 2.45 5.34-5.64 5.34-5.64s-.84-7.55-2-16.7l-.12-.91c1.792.382 3.605.659 5.43.83 1.825.171 1-.09 2.37-.26 3.79 2.194 7.79 4.003 11.94 5.4l6.61-12.2c1.242-2.529 2.697-4.948 4.35-7.23 2-2.45 9.06-10.29 8.94-11.76-.12-1.47 2.36-9.93 4.84-13.73 2.48-3.8 3.47-11.44 3.35-12.05zm-27.56 9.31c-2.61 1.1-5.09 7.23-5.21 9.07-.12 1.84-2.86 9.92-5.71 10.9-2.63.9-7.65 5.52-8.45 6.26-.82.07-1.75.18-2.72.34-1.09-7.73-2.17-14.13-2.86-15.42-2-3.68 2.19-15.44 2.19-15.44s.41-11.88 3-14.7c2.59-2.82 2-9.93 2-9.93s.62-2.94.87-4.28c.25-1.34 3.69 0 3.72 0 .03 0 6.7 3.67 7.7 9.18s8.32 15.07 8.32 15.07-1.12 3.31 0 5-.24 2.85-2.85 3.95z"/>
  <path fill="#4c4981" fill-rule="nonzero" d="M608.96 426.22c4.159-6.861 12.062-10.582 20-9.42v14.31h-8.69l-6.8-1.72-4.51-3.17z"/>
  <path fill-opacity=".1" fill-rule="nonzero" d="M608.96 426.22c4.159-6.861 12.062-10.582 20-9.42v14.31h-8.69l-6.8-1.72-4.51-3.17z"/>
  <path fill="#f9b4b8" fill-rule="nonzero" d="M629.61 420.59l-10.65 7.46s-.09-1.49-.36-3.53c-.53-3.86-1.72-9.65-4.29-10.77-3.91-1.72-47.44-18.1-32-23.61 15.44-5.51 39.13 12.55 39.13 12.55s1.22.42 3.17 4.45c1 2.12 2.37 5.73 3.4 8.68.95 2.66 1.6 4.77 1.6 4.77z"/>
  <path fill="#4c4981" fill-rule="nonzero" d="M714.69 432.08l1.21-.57 3.4 3.88-2.78 5.93-4.74-1.9 1.1-4.74 1.81-2.6z"/>
  <path fill="#444053" fill-rule="nonzero" d="M698.58 779.39s-3.06-.36-4.28 4.41c-1.22 4.77-3.06 18-3.06 18s-.73 8.07-2.2 9.91c-1.47 1.84-2.93 13.33 7.46 14.79 10.39 1.46 14.92-5.59 14.92-5.59l-.37-32.07-12.47-9.45zM734.84 780.83s6.54 7 6.42 14.94c-.12 7.94-.74 18.83-.74 18.83s-.6 4.41.74 5.63c1.34 1.22 0 7.34 0 7.34s-11.5 10.67-21.16-.9c0 0-1.88-6.61-1.1-10.87.78-4.26 2.96-23.41 2.96-23.41l12.88-11.56z"/>
  <path fill="#f9b4b8" fill-rule="nonzero" d="M751.04 634.6s-6.6 18.46-9.42 22.74c-2.82 4.28-4.76 12-4.76 12l-2.57 15.77c-.502 3.526-.789 7.079-.86 10.64.12 3.55-6.36 55.27-6.36 55.27l-10.27 13.09s-4.52 9.17-3.79 13c.73 3.83-.49 9.91-2 11.74 0 0-.24 12-.61 14.67s1.35 10.28 0 11.62c-1.35 1.34-19.32.74-19.81-1.47-.49-2.21 2.2-12.84 2.2-12.84l1.59-10.27s3.18-5.62 2.45-7.46c-.73-1.84 1.34-6.11 1.46-6.48.12-.37 3.43-6.36 2.82-8.68-.61-2.32 3.85-51.66 3.85-51.66l12.59-88.41 33.49 6.73z"/>
  <path fill-opacity=".1" fill-rule="nonzero" d="M751.04 634.6s-1 2.78-2.37 6.43c-2.18 5.76-5.32 13.69-7.05 16.31-2.81 4.28-4.77 12-4.77 12l-2.57 15.78c-.497 3.526-.781 7.079-.85 10.64 0 1.4-.94 10.33-2.14 20.62-1.85 15.73-4.22 34.65-4.22 34.65l-10.27 13.09s-.52 1-1.17 2.58c-1.29 3-3.11 7.87-2.62 10.38.73 3.79-.49 9.9-2 11.74 0 0-.25 12-.61 14.67s1.35 10.27 0 11.62c-1.35 1.35-19.32.74-19.81-1.46-.49-2.2 2.2-12.84 2.2-12.84l1.59-10.28s3.18-5.62 2.44-7.46c-.74-1.84 1.35-6.11 1.47-6.48.12-.37 3.43-6.36 2.82-8.68-.47-1.77 2-30.74 3.15-44.48.39-4.32.64-7.13.64-7.13l10.83-76.06.88-6.13.88-6.22 33.55 6.71z"/>
  <path fill="#f9b4b8" fill-rule="nonzero" d="M740.04 818.51c.11 1.35-17.25 3.31-19.73 1.84-2.48-1.47 0-19.69 0-19.69l1.13-8.31c-1.21-.13-3.05-6.73-2.2-8.32.85-1.59-.73-8.31-.73-8.31l-2.88-9-1.76-5.51c-2.86-6.31-7-24.31-9.57-37.75-1.62-8.44-2.65-15.09-2.42-15.94.61-2.2-1-18.22-1-18.22s-2-16.27-4.64-21.4c-1.79-3.4-5.28-16.17-7.44-24.41-1.1-4.23-1.86-7.27-1.86-7.27s18.48-1.55 29.69-2.09c5.15-.25 8.77-.28 8.35.14-.42.42-.53 2.66-.51 5.9.05 8.39 1.22 23.15 2.46 27.12 1.71 5.5 3.42 22 2.69 23.6-.73 1.6-.49 12.23-.49 12.23 1.26 4.318 1.985 8.775 2.16 13.27.391 7.964.251 15.945-.42 23.89s1.83 29.72 1.34 32.53c-.49 2.81 3.91 11.62 3.91 13.33 0 1.71 1.22 13.33 1.22 13.33s2.62 17.7 2.7 19.04zM749.69 461.31l-2.1 2.27-1.37 1.48-8 8.6-20.67 2.33-11-2.94-2.72-.73s0-5.52.49-12.14c.7-8.49 2.37-18.8 6.36-21.61 1.998-1.564 3.593-3.584 4.65-5.89.798-1.59 1.467-3.242 2-4.94.08-.22.14-.43.21-.65.9-2.964 1.549-5.998 1.94-9.07s2.64-1.46 6.31-3.16c9.57-4.47 26.1-10.64 20.35 3.16-.845 2.021-1.566 4.091-2.16 6.2-.09.31-.17.62-.24.92-1.92 7.68-.65 12.34.78 14.91.242.445.519.87.83 1.27.391.537.859 1.012 1.39 1.41l2.38 15.11.2 1.25.37 2.22z"/>
  <path fill-opacity=".1" fill-rule="nonzero" d="M746.15 418.76c-1.09 2.62.53-2.14 0 0-4.36 3.1-14.63 11.93-20.4 11.93-3.9 0-5.07-.71-8.41-2.22 1.011-3.164 1.73-6.415 2.15-9.71.42-3.295 34.61-19.08 26.66 0z"/>
  <path fill="#f9b4b8" fill-rule="nonzero" d="M754.96 402.69c-.011 13.571-10.375 25.081-23.87 26.51-.92.09-1.85.15-2.79.15-14.625 0-26.66-12.035-26.66-26.66s12.035-26.66 26.66-26.66 26.66 12.035 26.66 26.66z"/>
  <path fill-opacity=".1" fill-rule="nonzero" d="M758.75 520.87l-3.8 9.91s-3.09.13-7.91.28c-16.27.52-52.12 1.18-53.72-3-.359-1.06-.548-2.171-.56-3.29-.21-6.37 2.76-16.15 2.76-16.15s1.71-19.57 1.71-20.42c0-.85-1.47-14.56-1.47-14.56l2.94-11 8.19-5.75s3.67 5.63 5.87 6.11c2.2.48 5.14 3.19 5.14 3.19s7.21 4.4 9.54 1.95c2.33-2.45 20.42-13.21 20.42-13.21l9.54 10.52 1.35 55.42z"/>
  <path fill="#fff" fill-rule="nonzero" d="M758.75 522.39l-3.8 9.9s-3.09.14-7.91.29h-.47c-2.08.07-4.46.14-7 .19-12.93.3-30.74.38-40.05-1-3.5-.5-5.79-1.22-6.17-2.2-.211-.589-.358-1.199-.44-1.82-.06-.46-.1-1-.12-1.47-.21-6.37 2.76-16.15 2.76-16.15s1.71-19.57 1.71-20.42c0-.85-1.47-14.56-1.47-14.56l2.94-11 5.63-3.94 2.56-1.8c.861 1.289 1.799 2.525 2.81 3.7.789 1.059 1.845 1.891 3.06 2.41 2.21.49 5.14 3.19 5.14 3.19s7.21 4.4 9.54 1.95c1.77-1.87 12.77-8.6 17.85-11.67 1.56-.95 2.57-1.54 2.57-1.54l1.28 1.42 8.26 9.1 1.32 55.42z"/>
  <path fill-opacity=".1" fill-rule="nonzero" d="M629.61 420.59l-10.65 7.46s-.09-1.49-.36-3.53c5.26-2.22 8.46-7.13 9.38-8.7.98 2.66 1.63 4.77 1.63 4.77z"/>
  <path fill="#006aa8" fill-rule="nonzero" d="M667.03 445.91l-2.32-.62s-3.8 4-6 4.53c-2.2.53-6.84 3.54-6.84 3.54l-5.39 4.28s-4 .62-2.81-2.2c1.19-2.82-2.2-6.36-2.2-6.36s-6.85-14.06-6.85-17c0-2.94-5.66-15.28-5.66-15.28s-7.1 13.82-20.06 9.42c0 0 9.42 21.15 9.66 26.41.24 5.26 6.48 19.93 6.48 19.93s2.33 10.89 14.92 10.28c0 0 17.37 3.23 21.16 0 3.79-3.23 7.21-5.77 9-6.14 1.79-.37 3.42-2.44 3.42-2.44v-14.54l-6.51-13.81z"/>
  <path fill-opacity=".1" fill-rule="nonzero" d="M645.26 459.72s3.06 11.38 1.1 12.6l-1.1-12.6zM747.04 532.53c-16.27.52-52.12 1.17-53.72-3-.359-1.06-.548-2.171-.56-3.29l53.15 2.8 1.13 3.49zM751.04 634.6s-1 2.78-2.37 6.43c-6.75-.41-15.69-.84-24.18-.9-3 0-5.94 0-8.72.1-5.9.18-11 .66-14.25 1.58-4.109 1.265-8.404 1.82-12.7 1.64-1.1-4.23-1.86-7.27-1.86-7.27s18.48-1.55 29.69-2.09l.88-6.22 33.51 6.73z"/>
  <path fill="#444053" fill-rule="nonzero" d="M765.35 589.84l-2.08 4.4s-.29 1.31-.66 3.39c-.78 4.48-2 12.56-1.54 19 .61 9.42-1.35 23.72-1.35 23.72s-45-3.79-58.2 0c-13.2 3.79-19.7 0-19.7 0s1.6-14.18-2.32-21.52c-2.67-5-4.55-27.32-4.61-42 0-6.77.34-11.9 1.19-12.94 2.69-3.3 14.18-36.32 14.18-36.32l2.62.14 7 .37 39.8 2.1 6.25.33.66 2 18.76 57.33z"/>
  <path fill="#4c4981" fill-rule="nonzero" d="M785.16 575.16l.37 3.92s-19.71-6.42-18.71-14.31c1-7.89 0-7 0-7l15.84 1.34 2.5 16.05z"/>
  <path fill-opacity=".1" fill-rule="nonzero" d="M785.16 575.16l.37 3.92s-19.71-6.42-18.71-14.31c1-7.89 0-7 0-7l15.84 1.34 2.5 16.05zM658.41 462.88c2.012 1.71 4.385 2.944 6.94 3.61-.74-.161-1.428-.504-2-1-1.41-1-2.75-2.09-4.11-3.15-1.1-.86-2.47-2.29-3.82-2.64.884 1.161 1.886 2.226 2.99 3.18zM658.71 468.03c.634.716 1.147 1.53 1.52 2.41.631 2.489.593 5.101-.11 7.57l-3.16-7.62c-.55-1.3-1.1-2.6-1.76-3.84-.29-.53-2.11-2.74-1.9-3.2.56-1.3 4.82 3.95 5.41 4.68zM746.88 510.23c2.154-.261 4.169-1.204 5.75-2.69-3.25.41-6.33 1.69-9.53 2.36-2.971.69-6.086.402-8.88-.82 3.68 1.8 8.74 1.86 12.66 1.15zM737.69 487.84c-.582.087-1.176-.061-1.65-.41-2.44-1.4-4.847-2.86-7.22-4.38-2.31-1.49-5.1-3-7.07-4.88 4.85 4.38 9.37 8.08 15.94 9.67zM744.47 513.78c1.281.058 2.565-.046 3.82-.31 1.269-.264 2.392-1.001 3.14-2.06-.454-.105-.931-.029-1.33.21-3.874 1.63-8.13 2.14-12.28 1.47 1.99.85 4.54.68 6.65.69zM721.31 570.56c-2.546.768-5.162 1.28-7.81 1.53-2.06.095-4.125.055-6.18-.12l-10-.63-5-.32c-.59 0-3 0-1.81-1.19.6-.58 3.94-.21 4.8-.24 1.66-.053 3.327-.083 5-.09 3.31 0 6.63 0 9.94.2 3.71.18 7.36.46 11.06.86zM709.72 575.51c-1.7-.07-3.89.94-5.64 1.16-1.958.231-3.93.308-5.9.23-3.897-.094-7.747-.879-11.37-2.32 7.63.39 15.28.62 22.91.93zM688.3 580.75c.74.149 1.468.35 2.18.6 4.22 1.2 8.71.14 13-.92-1.07 1.61-3 2.3-4.93 2.74-3.139.795-6.411.915-9.6.35-1-.2-3.51-.56-4-1.6-.82-1.53 2.41-1.32 3.35-1.17zM711.96 588.64c1.265.259 2.514.593 3.74 1 4.75 1.18 9.68-.44 14.45-1.53 5.734-1.302 11.614-1.847 17.49-1.62-1.05 0-2.72.92-3.75 1.23-1.35.41-2.72.79-4.09 1.13-2.69.66-5.42 1.2-8.17 1.59-5.552.803-11.17 1.047-16.77.73-2.56-.14-7 .12-9.19-1.17 1.893-1.125 4.102-1.602 6.29-1.36zM713.75 437.82s.24 11.26-1.59 16.4c-.58 1.6-1.48 4.55-2.46 7.86-1.07 3.67-2.24 7.78-3.14 11-.9 3.22-1.5 5.38-1.5 5.38s-4.13 33.64-5.2 49.67c0 .28 0 .57-.06.84-.06.9-.16 1.84-.31 2.81-2.38 15.92-16.11 40.47-20.72 42.43-1.438.66-2.75 1.563-3.88 2.67 0-6.77.34-11.9 1.19-12.94 2.69-3.3 14.18-36.32 14.18-36.32l2.62.14c-.06-.46-.1-1-.12-1.47-.21-6.37 2.76-16.15 2.76-16.15s1.71-19.57 1.71-20.42c0-.85-1.47-14.56-1.47-14.56l2.94-11 5.63-3.94c.7-8.49 2.37-18.8 6.36-21.61 1.998-1.564 3.593-3.584 4.65-5.89.79.11-.65-.59-.65-.59l-.94 5.69z"/>
  <path fill="#006aa8" fill-rule="nonzero" d="M715.9 431.51c-2.063-.705-4.337-.448-6.19.7-2.82 2-8.32 1.83-9.79 1.47-1.47-.36-16.75-2.33-18-1.84s-3.67-1.71-5.26 1.23c-1.59 2.94-2.32 4.52-3.91 5.25-1.59.73-4.41 3.06-4 3.55.41.49-4 3.42-4 3.42l8.92 29s-5.75 36.68-8.56 39.86c-2.81 3.18-27.76 44.39-18.83 51.73 7.07 5.559 14.551 10.573 22.38 15 1 .49 4.52-6.11 9.41-8.19 4.89-2.08 20.06-29.6 21-45.25.94-15.65 5.26-50.5 5.26-50.5s5.26-19.08 7.09-24.22c1.83-5.14 1.59-16.4 1.59-16.4l2.89-4.81z"/>
  <path fill-opacity=".1" fill-rule="nonzero" d="M765.35 589.84l-2.08 4.4s-.29 1.31-.66 3.39c-.371-.047-.719-.203-1-.45-3.06-2.45-21-20.91-21.89-37.3-.63-12.09-.33-22.51-.13-27.15.06-1.46.12-2.34.12-2.53 0-.19 13.94-16.88 12.35-22.86-1.59-5.98-5.26-38-5.26-38l-.54-4.2-.93-7.1-2.22-17.18 2.3.54c.391.537.859 1.012 1.39 1.41l2.38 15.11 8.26 9.1 1.35 55.4-3.8 9.9s-3.09.14-7.91.29h-.47l18.74 57.23z"/>
  <path fill="#006aa8" fill-rule="nonzero" d="M773.05 498.39s-3.42-1.35-3.66 0c-.24 1.35-.86 4.27-.86 4.27s.61 7.1-2 9.91c-2.61 2.81-3 14.67-3 14.67s-4.12 11.74-2.17 15.41c.71 1.33 1.81 8 2.91 16 .7 5 1.39 10.49 2 15.51 1.11 9.12 1.94 16.67 1.94 16.67s-2.21 8.07-5.27 5.62c-3.06-2.45-21-20.91-21.88-37.3-.6-11.51-.36-21.51-.16-26.44.08-2.09.16-3.27.16-3.27s13.94-16.88 12.35-22.87c-1.59-5.99-5.26-38-5.26-38l-.64-4.95-.69-5.32-.16-1.17-2.21-17c.39.09 14.11 3.19 15.92 5 1.81 1.81 13 4.4 13 4.4 3.433.931 6.097 3.665 6.94 7.12.11.34.19.7.27 1.07 1.47 7.1 1 7.95 2 9.18 1 1.23-9.53 31.49-9.53 31.49z"/>
  <path fill-opacity=".1" fill-rule="nonzero" d="M766.35 574.15c-5-1-12.42-3.31-12.25-8.41.15-4.77 5.89-6.49 10.24-7.1.7 4.98 1.39 10.49 2.01 15.51z"/>
  <path fill="#f9b4b8" fill-rule="nonzero" d="M781.86 571.61c-.2.43-1 .8-2.14 1.13-2.675.637-5.392 1.081-8.13 1.33-2.738.249-17-1.35-16.76-9.06.18-5.53 7.86-7 12.17-7.33.954-.089 1.912-.129 2.87-.12.958.009 12.72 12.47 11.99 14.05z"/>
  <path fill-opacity=".1" fill-rule="nonzero" d="M781.86 571.61c-.2.43-1 .8-2.14 1.13-4.43-5.93-10.61-13.54-13.64-14.21l.92-.85c.954-.089 1.912-.129 2.87-.12.958.009 12.72 12.47 11.99 14.05z"/>
  <path fill="#006aa8" fill-rule="nonzero" d="M777.58 466.08l5 .74c1.805 3.18 3.809 6.243 6 9.17 1.343 1.67 2.115 3.728 2.2 5.87.085 2.142 7.34 10.88 9.66 12.1 2.32 1.22 5.87 9.54 5.87 9.54s5.75 3.79 5.75 8.07c.102 3.569.47 7.126 1.1 10.64.13.61-.85 8.2-3.3 12-2.45 3.8-4.9 12.18-4.77 13.68.13 1.5-6.85 9.3-8.8 11.74-1.628 2.282-3.059 4.697-4.28 7.22l-6.48 12.23s-13.7-20.18-18.71-21.28c0 0 5.62-5.38 8.43-6.36 2.81-.98 5.51-9 5.63-10.88.12-1.88 2.57-7.95 5.13-9 2.56-1.05 3.92-2.2 2.82-3.92-1.1-1.72 0-5 0-5s-7.22-9.54-8.2-15c-.98-5.46-7.58-9.17-7.58-9.17l-3.79-9.3 8.32-23.09z"/>
  <path fill-opacity=".1" fill-rule="nonzero" d="M795.77 511.73c2.766-2.336 6.25-3.656 9.87-3.74-2.32.4-4.76.91-6.46 2.53-.668.701-1.267 1.465-1.79 2.28-.58.83-5.3 6.83-6 5.88-1.17-1.39 3.43-6.14 4.38-6.95zM784.69 505.94c1.522-.131 2.86-1.078 3.49-2.47.596-1.378.964-2.844 1.09-4.34.358-2.504.862-4.985 1.51-7.43.394-.979.316-2.086-.21-3-.268-.781-.631-1.527-1.08-2.22-.9 1-1.16 3.33-1.53 4.67-.46 1.66-.88 3.33-1.28 5-.21.8-1.87 9.79-1.99 9.79zM780.36 456.57c-.493.645-1.06 1.229-1.69 1.74-2 1.59-4.65 2.93-4.9 5.44.07.815-.033 1.637-.3 2.41-.64 1.1-2.21 1-3.46.79-1.055-.095-2.066-.468-2.93-1.08-1.31-1.12-1.43-3.12-2.43-4.53-1.231-1.474-3.082-2.292-5-2.21-1.87-.06-3.73.36-5.6.44-1.202.061-2.407-.02-3.59-.24-.391-.06-.778-.14-1.16-.24-.836-.206-1.652-.483-2.44-.83-.408-.162-.805-.349-1.19-.56-1.252-.643-2.412-1.45-3.45-2.4-1.83-1.68-3.35-4-3.2-6.49.09-1.53.78-2.94 1-4.45.75-4.32-2.12-8.4-5.23-11.49-1.24-1.23-2.56-2.42-3.8-3.67-1.931-1.781-3.455-3.957-4.47-6.38-.834-2.579-1.107-5.307-.8-8 .281-2.73.358-5.478.23-8.22-.92-9.72-9.22-17.17-17.52-21.22l-.37-.19c5.058-5.805 12.392-9.142 20.092-9.142 14.62 0 26.65 12.03 26.65 26.65 0 8.483-4.05 16.476-10.892 21.492-.09.31-.17.62-.24.92-1.92 7.68-.65 12.34.78 14.91.39.09 14.11 3.19 15.92 5 1.81 1.81 13 4.4 13 4.4 3.46.921 6.148 3.67 6.99 7.15z"/>
  <path fill="#97a5b2" fill-rule="nonzero" d="M706.3 378.14c.55-.63 1.38-.95 1.94-1.56 1.73-1.88 0-4.95.63-7.43.68-2.75 4.06-3.95 6.88-3.66 2.82.29 5.46 1.59 8.28 1.91 4.38.49 8.62-1.41 12.89-2.52 4.27-1.11 9.43-1.17 12.37 2.1 2.94 3.27 2.74 8.84 6.4 11.21 1.69 1.09 3.82 1.21 5.65 2 2.002 1.028 3.664 2.616 4.78 4.57 2.896 4.549 4.172 9.946 3.62 15.31-.31 2.9-1.15 5.72-1.49 8.62-.345 3.012-.142 6.061.6 9 .77 3 2.44 6.24 5.43 7.2.691.152 1.362.384 2 .69 1.73 1.08 1.5 3.62 1.06 5.6l-1.78 8.21c1.71 1.3 4.37.74 6 2.11.653.597 1.136 1.356 1.4 2.2 1.642 4.69.209 9.937-3.59 13.14-2 1.59-4.65 2.93-4.9 5.43.076.816-.026 1.638-.3 2.41-.63 1.1-2.21 1-3.46.79-1.051-.097-2.059-.469-2.92-1.08-1.32-1.12-1.43-3.12-2.43-4.53-1.233-1.472-3.082-2.289-5-2.21-1.88-.06-3.73.36-5.61.45-4.334.178-8.57-1.353-11.79-4.26-1.84-1.69-3.35-4-3.21-6.5.09-1.52.78-2.94 1-4.45.74-4.31-2.12-8.4-5.23-11.49-3.11-3.09-6.76-5.94-8.28-10.05-1.9-5.09-.06-10.77-.57-16.17-.92-9.73-9.21-17.17-17.52-21.23-1.85-.95-5-3.36-2.85-5.81z"/>
  <path fill-opacity=".1" fill-rule="nonzero" d="M771.7 462.12c-1.32-1.13-1.43-3.12-2.43-4.53-1.233-1.473-3.081-2.293-5-2.22-1.88-.06-3.74.36-5.61.45-4.35.191-8.605-1.345-11.83-4.27-1.84-1.68-3.34-4-3.2-6.49.09-1.53.78-2.95 1-4.45.75-4.32-2.12-8.41-5.23-11.5-3.11-3.09-6.75-5.94-8.28-10.05-1.89-5.08 0-10.76-.56-16.17-.93-9.73-9.22-17.17-17.52-21.23-1.94-.95-5.09-3.36-2.94-5.81.54-.63 1.37-.95 1.93-1.56 1.73-1.87 0-4.95.64-7.42.123-.492.337-.956.63-1.37-2.09.39-4 1.57-4.51 3.57-.61 2.48 1.1 5.55-.63 7.43-.56.61-1.39.93-1.94 1.55-2.15 2.45 1 4.87 2.94 5.81 8.31 4.06 16.6 11.51 17.52 21.23.51 5.41-1.33 11.09.57 16.18 1.52 4.1 5.17 7 8.28 10.05 3.11 3.05 6 7.17 5.23 11.49-.421 1.462-.755 2.948-1 4.45-.14 2.49 1.37 4.81 3.21 6.49 3.221 2.927 7.472 4.463 11.82 4.27 1.88-.09 3.73-.5 5.61-.45 1.919-.072 3.767.748 5 2.22 1 1.41 1.11 3.41 2.43 4.53.862.607 1.87.976 2.92 1.07 1.25.23 2.83.31 3.46-.78.224-.445.321-.943.28-1.44-1.006-.099-1.969-.461-2.79-1.05z"/>
  <path fill="#0452b5" fill-rule="nonzero" d="M626.13 402.69h-69.17v-68.16h69.22l-.05 68.16zm-1-102.77h-67.17c0-105.92 100.68-99.73 100.68-166.74 0-36.91-30.21-66.48-67.12-66.48-36.91 0-67.11 31.88-67.11 67.53h-67.12V134c0-73.51 60.49-134 134-134h.23c74.14 0 134.23 59.15 134.23 133.18 0 83.79-100.67 93.33-100.67 166.74h.05z"/>
  <path fill="#0452b5" fill-opacity=".1" fill-rule="nonzero" d="M281.14 382.39H263.3v-17.62h17.84v17.62zm-.27-26.5h-17.3c0-27.3 25.95-25.71 25.95-43-.038-9.42-7.8-17.15-17.22-17.15h-.08c-9.437.218-17.118 7.962-17.26 17.4h-17.3c.238-18.82 15.786-34.172 34.607-34.172 18.72 0 34.22 15.187 34.603 33.902-.05 21.6-26 24.06-26 42.98v.04zM416.22 504.8h-17.84v-17.57h17.84v17.57zm-.26-26.49h-17.3c0-27.31 25.95-25.71 25.95-43-.038-9.415-7.795-17.14-17.21-17.14h-.09c-9.479.171-17.217 7.941-17.35 17.42h-17.3c.238-18.82 15.786-34.172 34.607-34.172 18.72 0 34.22 15.187 34.603 33.902.03 21.6-25.91 24.07-25.91 42.99zM498.36 288.1h-12.93v-12.71h12.93v12.71zm-.19-19.21h-12.54c0-19.78 18.81-18.63 18.81-31.15-.033-6.824-5.656-12.42-12.48-12.42h-.06c-6.856.139-12.445 5.763-12.54 12.62h-12.54v-.1c0-13.759 11.321-25.08 25.08-25.08 13.721 0 25.025 11.259 25.08 24.98-.02 15.65-18.81 17.44-18.81 31.15zM719.2 306.04h-7.31v-7.2h7.31v7.2zm-.11-10.85h-7.13c0-11.18 10.63-10.53 10.63-17.61 0-3.841-3.16-7-7-7h-.08c-3.874.08-7.032 3.256-7.09 7.13h-7.09c.171-7.657 6.517-13.863 14.176-13.863 7.618 0 13.944 6.139 14.174 13.753.04 8.79-10.59 9.84-10.59 17.59zM830.96 633.51h-7.31v-7.2h7.31v7.2zm-.11-10.85h-7.09c0-11.19 10.64-10.53 10.64-17.61-.027-3.864-3.226-7.022-7.09-7-3.876.075-7.037 3.254-7.09 7.13h-7.09c.171-7.657 6.517-13.863 14.176-13.863 7.618 0 13.944 6.139 14.174 13.753.04 8.83-10.59 9.84-10.59 17.59h-.04z"/>
  <defs>
    <linearGradient id="_Linear1" x2="1" gradientTransform="matrix(0 -468.75 468.75 0 697.2 832.05)" gradientUnits="userSpaceOnUse">
      <stop offset="0" stop-color="gray" stop-opacity=".247059"/>
      <stop offset=".54" stop-color="gray" stop-opacity=".117647"/>
      <stop offset="1" stop-color="gray" stop-opacity=".0980392"/>
    </linearGradient>
  </defs>
</svg>
