<svg
  xmlns="http://www.w3.org/2000/svg"
  fill-rule="evenodd"
  stroke-miterlimit="10"
  clip-rule="evenodd"
  viewBox="0 0 1052 698"
>
  <path
    fill="none"
    d="M602.01 132.97c-64.72-2.25-126.36-23.14-185.22-46S299.6 38.78 236.45 26.67c-40.63-7.79-87.09-8.89-119.83 12.89-31.5 21-41.68 57.15-47.16 90.73-4.11 25.26-6.53 51.84 4.75 75.49 7.83 16.42 21.74 30.22 31.36 45.95 33.46 54.72 9.81 122.2-26.46 175.63-17 25.07-36.74 49-49.87 75.66-13.13 26.66-19.2 57.25-7.72 84.47 11.39 27 38.52 47.24 67.91 61.49 59.68 28.95 130 37.23 198.61 41.92 151.82 10.39 304.46 5.89 456.68 1.39 56.34-1.67 112.93-3.36 168.35-12.07 30.77-4.84 62.55-12.51 84.89-31.05 28.36-23.53 35.39-63.38 16.39-92.88-31.88-49.49-120-61.78-142.31-114.9-12.27-29.23.33-61.79 18.15-88.91 38.24-58.16 102.33-109.19 105.71-175.67 2.32-45.67-28.49-91.39-76.13-113-49.94-22.64-119.18-19.8-156 17.69-37.96 38.6-104.62 53.45-161.76 51.47z"
  />
  <path
    fill="none"
    stroke="#535461"
    stroke-width="2"
    d="M258.34 245.71s-27.49-48.69-68.88-62.72c-17.377-5.786-32.42-17.052-42.86-32.1-4.908-7.187-9.145-14.809-12.66-22.77"
  />
  <path
    fill="#3ebd93"
    fill-rule="nonzero"
    d="M107.86 119.12c4.71 4.58 26.68 9.31 26.68 9.31s-5.39-21.81-10.11-26.39c-2.232-2.236-5.264-3.494-8.423-3.494-6.529 0-11.9 5.372-11.9 11.9 0 3.284 1.359 6.426 3.753 8.674zm12.42 39.5c6.45 1.28 27.46-6.69 27.46-6.69s-16.38-15.38-22.83-16.66c-.762-.151-1.538-.227-2.315-.227-6.529 0-11.902 5.373-11.902 11.902 0 5.659 4.036 10.574 9.587 11.675zm45.25 42.69c6.21-2.15 20.33-19.63 20.33-19.63s-21.91-5-28.12-2.86c-4.78 1.656-8.005 6.186-8.005 11.245 0 6.528 5.372 11.9 11.9 11.9 1.326 0 2.642-.221 3.895-.655zm41.51 24.62c6.49-1.07 23.36-15.92 23.36-15.92s-20.74-8.64-27.23-7.57c-5.725.943-9.968 5.942-9.968 11.745 0 6.53 5.373 11.903 11.903 11.903.648 0 1.295-.053 1.935-.158zm-40.98-91.07c0 6.58-11.89 25.64-11.89 25.64s-11.91-19-11.91-25.63c0-6.528 5.372-11.9 11.9-11.9 6.528 0 11.9 5.372 11.9 11.9v-.01zm48.19 29.4c-2 6.28-19 20.91-19 20.91s-5.66-21.75-3.7-28c1.55-4.953 6.17-8.348 11.36-8.348 6.53 0 11.903 5.373 11.903 11.903 0 1.206-.183 2.404-.543 3.555l-.02-.02zm42.91 35c-.87 6.52-15.21 23.83-15.21 23.83s-9.26-20.48-8.38-27c.79-5.88 5.862-10.316 11.795-10.316 6.529 0 11.901 5.372 11.901 11.901 0 .53-.035 1.06-.106 1.585z"
  />
  <path
    fill="#3ebd93"
    fill-opacity=".247059"
    fill-rule="nonzero"
    d="M107.86 119.12c4.71 4.58 26.68 9.31 26.68 9.31s-5.39-21.81-10.11-26.39c-2.232-2.236-5.264-3.494-8.423-3.494-6.529 0-11.9 5.372-11.9 11.9 0 3.284 1.359 6.426 3.753 8.674zm12.42 39.5c6.45 1.28 27.46-6.69 27.46-6.69s-16.38-15.38-22.83-16.66c-.762-.151-1.538-.227-2.315-.227-6.529 0-11.902 5.373-11.902 11.902 0 5.659 4.036 10.574 9.587 11.675zm45.25 42.69c6.21-2.15 20.33-19.63 20.33-19.63s-21.91-5-28.12-2.86c-4.78 1.656-8.005 6.186-8.005 11.245 0 6.528 5.372 11.9 11.9 11.9 1.326 0 2.642-.221 3.895-.655zm41.51 24.62c6.49-1.07 23.36-15.92 23.36-15.92s-20.74-8.64-27.23-7.57c-5.725.943-9.968 5.942-9.968 11.745 0 6.53 5.373 11.903 11.903 11.903.648 0 1.295-.053 1.935-.158zm-40.98-91.07c0 6.58-11.89 25.64-11.89 25.64s-11.91-19-11.91-25.63c0-6.528 5.372-11.9 11.9-11.9 6.528 0 11.9 5.372 11.9 11.9v-.01zm48.19 29.4c-2 6.28-19 20.91-19 20.91s-5.66-21.75-3.7-28c1.55-4.953 6.17-8.348 11.36-8.348 6.53 0 11.903 5.373 11.903 11.903 0 1.206-.183 2.404-.543 3.555l-.02-.02zm42.91 35c-.87 6.52-15.21 23.83-15.21 23.83s-9.26-20.48-8.38-27c.79-5.88 5.862-10.316 11.795-10.316 6.529 0 11.901 5.372 11.901 11.901 0 .53-.035 1.06-.106 1.585z"
  />
  <path
    fill="none"
    stroke="#535461"
    stroke-width="2"
    d="M256.76 244.75s-5.4-55.66-37.56-85.26c-13.561-12.329-22.764-28.731-26.22-46.73-1.586-8.559-2.382-17.245-2.38-25.95"
  />
  <path
    fill="#3ebd93"
    fill-rule="nonzero"
    d="M170.48 68.03c2.46 6.1 20.62 19.33 20.62 19.33s3.92-22.13 1.46-28.23c-1.812-4.494-6.194-7.453-11.04-7.453-6.53 0-11.903 5.373-11.903 11.903 0 1.525.293 3.036.863 4.45zm-4.63 41.13c5.37 3.78 27.81 5 27.81 5s-8.74-20.7-14.12-24.48c-2.004-1.409-4.395-2.166-6.845-2.166-6.528 0-11.901 5.373-11.901 11.901 0 3.871 1.889 7.508 5.056 9.735v.01zm24.05 57.39c6.55.55 26.55-9.72 26.55-9.72s-18-13.45-24.55-14c-.333-.028-.666-.042-1-.042-6.529 0-11.902 5.373-11.902 11.902 0 6.153 4.771 11.343 10.902 11.86zm27.98 39.32c6.37 1.65 27.81-5.09 27.81-5.09s-15.47-16.3-21.83-18c-1.158-.365-2.366-.551-3.581-.551-6.528 0-11.9 5.371-11.9 11.9 0 5.618 3.98 10.509 9.481 11.651l.02.09zm-.56-99.86c-2.66 6-21.26 18.62-21.26 18.62s-3.17-22.24-.51-28.25c1.902-4.301 6.182-7.087 10.885-7.087 6.529 0 11.902 5.373 11.902 11.902 0 1.658-.346 3.298-1.017 4.815zm32.14 46.41c-4.34 4.93-25.86 11.4-25.86 11.4s3.63-22.17 8-27.11c2.259-2.572 5.521-4.049 8.945-4.049 6.531 0 11.904 5.373 11.904 11.904 0 2.89-1.052 5.683-2.959 7.855h-.03zm25.04 49.38c-3.44 5.6-23.55 15.62-23.55 15.62s-.17-22.47 3.27-28.08c2.163-3.52 6.009-5.671 10.14-5.671 6.529 0 11.901 5.372 11.901 11.901 0 2.199-.61 4.356-1.761 6.23z"
  />
  <path
    fill="#fff"
    fill-rule="nonzero"
    stroke="#33313f"
    stroke-width="3"
    d="M147.36 165.86s147 6 167 0c0 0-11 246-7 254 0 0-163 9-175 0s15-254 15-254zm22 46s68 108 91 118m0-118s-65 85-75 114"
  />
  <path
    fill="#fff"
    fill-rule="nonzero"
    stroke="#33313f"
    stroke-width="3"
    d="M254.36 370.86h-79c-6 0-6 28-6 28h85v-28zm169-205s141-7 167 0c0 0-11 246-7 254 0 0-180.16 14.09-175 0 11-30 15-254 15-254zm54.95 18.76s31.38 49.85 42 54.46m0-54.46s-30 39.23-34.62 52.62"
  />
  <path
    fill="#fff"
    fill-rule="nonzero"
    stroke="#33313f"
    stroke-width="3"
    d="M556.12 270.86h-106c-8 0-8 28-8 28h114v-28zm-14.47 89h-79c-6 0-6 28-6 28h85v-28zm14.47-48c8.05 0-96.62 9-106 0-4.94-4.73-8 28-8 28h114v-28z"
  />
  <path
    fill="#fff"
    fill-rule="nonzero"
    stroke="#33313f"
    stroke-width="3"
    d="M488.87 373.36l6 6 11-15m186.49-196.5s140 17 167 0c0 0-11 246-7 254 0 0-185.8 10.41-175 0 27-26 15-254 15-254zm19.45 43.5s20.17 32 27 35m0-35s-19.28 25.26-22.21 33.82"
  />
  <path
    fill="#fff"
    fill-rule="nonzero"
    stroke="#33313f"
    stroke-width="3"
    d="M827.12 277.36h-106c-8 0-8 14.82-8 14.82h114v-14.82zm-57.79 44h55.21c8 0 8 14.82 8 14.82h.24m-5.66-37.13c8.05 0-96.62 4.76-106 0-4.94-2.5-8 14.81-8 14.81h114v-14.81zM693.2 186.62s155.2 11.47 165.18 3.85"
  />
  <path
    fill="#fff"
    fill-rule="nonzero"
    stroke="#33313f"
    stroke-width="2"
    d="M838.85 179.53c2.12-.45 4.3.19 6.45.52 2.15.33 4.59.29 6.15-1.21m-13.67 4.63c4.481.789 9.04 1.041 13.58.75m-13.6 4.84c3.842-.652 7.719-1.086 11.61-1.3m-147.44-6.14c1.877.868 3.933 1.283 6 1.21 1.303.178 2.628-.109 3.74-.81 1.31-1.06 1.42-3 1.42-4.69.038-.513-.037-1.029-.22-1.51-.252-.461-.621-.847-1.07-1.12-2.47-1.72-7.06-2.42-9.95-1.25-3.96 1.6-3.32 6.32.08 8.17z"
  />
  <path
    fill="#fff"
    fill-rule="nonzero"
    stroke="#33313f"
    stroke-width="3"
    d="M746.18 205.1c-.58 7.4 1.19 14.75 2.38 22.08 1.501 9.253 2.098 18.631 1.78 28-15.78.96-31.58 1.19-47.4.69 1.47.05 1.1-33.44 1.24-36.52.18-3.94-.66-10.72 3.91-12.2 4.8-1.57 11.56-.6 16.6-.84 7.16-.333 14.323-.737 21.49-1.21z"
  />
  <path
    fill="none"
    stroke="#33313f"
    stroke-width="3"
    d="M337.36 280.86s39-2 46 0m0-21s17 17 17 21-22 18-22 18m229-18s39-2 46 0"
  />
  <path
    fill="none"
    stroke="#33313f"
    stroke-width="3"
    d="M653.36 259.86s17 17 17 21-22 18-22 18"
  />
  <circle
    cx="377.32"
    cy="21.63"
    r="21.63"
    fill="#0452b5"
    fill-opacity=".0941176"
  />
  <circle
    cx="706.43"
    cy="51.49"
    r="21.63"
    fill="#0452b5"
    fill-opacity=".0941176"
  />
  <circle
    cx="937.58"
    cy="371.93"
    r="21.63"
    fill="#0452b5"
    fill-opacity=".0941176"
  />
  <circle
    cx="1014.95"
    cy="275.5"
    r="36.25"
    fill="#0452b5"
    fill-opacity=".0941176"
  />
  <circle
    cx="966.96"
    cy="451.42"
    r="36.25"
    fill="#0452b5"
    fill-opacity=".0941176"
  />
  <circle
    cx="36.25"
    cy="338.07"
    r="36.25"
    fill="#0452b5"
    fill-opacity=".0941176"
  />
  <path
    fill="#006aa8"
    fill-rule="nonzero"
    d="M868.09 386.76c-.03-1.209-.18-2.411-.45-3.59-.91-3.37-2.93-7.46-6.28-8.48-3.445-1.058-6.772-2.465-9.93-4.2-.61-10.72 1.86-21.69-.83-32.08-1-3.8-2.64-7.44-3.09-11.34-.55-4.83.78-10-1.15-14.46-1.52-3.51-4.86-6-8.46-7.3-3.6-1.3-7.46-1.64-11.27-2-4.8-.4-20.34-2.24-25.75 2.06-.376.288-.712.624-1 1-.125.163-.235.337-.33.52.003.027.003.053 0 .08-.102.211-.192.428-.27.65-.078.241-.132.489-.16.74-.005.083-.005.167 0 .25-.01.177-.01.353 0 .53v1.03c.07.89.21 1.8.21 2.69.01.443-.03.886-.12 1.32-.335 1.175-.899 2.273-1.66 3.23l-.18.26-.33.48-.26.41-.22.36c-.1.17-.18.34-.27.52l-.15.28c-.121.276-.221.56-.3.85-.214.87-.214 1.78 0 2.65.27 1.123.73 2.192 1.36 3.16.25.41.53.81.81 1.21.28.4.46.63.7.94-.139.93-.213 1.869-.22 2.81 0 6.34 2.921 12.339 7.91 16.25.391 4.223.347 8.476-.13 12.69-.1.89-.2 1.77-.32 2.65-.12.88-.22 1.47-.33 2.2-1.467.206-2.962.09-4.38-.34-.653-.292-1.32-.549-2-.77-2.92-.72-5.89 2.18-8.76 1.3 0 .13-.09.26-.13.4-.603-.37-1.293-.574-2-.59-1.7-.08-3.1-1.32-4.34-2.49l-3.8-3.59c-.251-.217-.473-.466-.66-.74-.207-.388-.362-.801-.46-1.23-.808-2.023-2.071-3.833-3.69-5.29-.287-.359-.668-.633-1.1-.79-.162-.03-.328-.03-.49 0-.11-.14-.21-.28-.33-.41-.27-.29-.55-.57-.84-.83-1.81-1.68-2-3.12-3.58-5-1.377-1.792-2.624-3.68-3.73-5.65-.14-1-.32-2.12-.54-3.22-.5-2.492-1.229-4.933-2.18-7.29l1.37-1.5v-1.49l2.44-2.85-.17-.15 3-2.82-3-.11-1.4 1.94-.11-.1-2.5 2.5-1.75.2-.23.24c-1.45-2.16-3-3.34-4.38-3.06-2.33.48-3.49 5-3.12 10.91l-6.93 7.25-.78.82-3.58 4.59 2.81 2.7 4.31-4 .69-.75 4.29-4.65c0 .15.07.3.1.45-.138.712-.212 1.435-.22 2.16 0 .85.79 1.46 1.19 2.22.665 1.012 1.014 2.199 1 3.41 0 .42-.18.83-.19 1.26.049.936.372 1.837.93 2.59 1.673 2.8 3.34 5.6 5 8.4.34.59.7 1.18 1 1.76.003.03.003.06 0 .09.316.611.776 1.136 1.34 1.53.196 2.106.754 4.163 1.65 6.08.18.37.37.74.57 1.1 1.341 2.206 2.921 4.259 4.71 6.12l2.39 2.67c2.34 2.63 4.69 5.25 7.24 7.68.916.969 2.022 1.739 3.25 2.26 1.213.495 2.604.296 3.63-.52v3.71c.714.124 1.347.537 1.75 1.14.267.709.205 1.501-.17 2.16-2.09 5.39-4.21 10.82-7.4 15.66 2.246 1.323 4.327 2.907 6.2 4.72 1.223 1.349 2.308 2.816 3.24 4.38.08.73.15 1.47.2 2.2.74 11.92-3.87 23.75-8 35.11-1.18 3.21-2.49 6.59-2.38 9.93-.785.489-1.537 1.03-2.25 1.62.82 2.13.5 4 .42 6.33-.033 1.373-.318 2.729-.84 4-.39.89-1 1.72-1.43 2.57-2.59 4.57-3.17 10-3.69 15.21-.31 3.16.92 7-.52 9.82-2.46 4.85-4.65 10-5.05 15.38-.014 1.213-.165 2.421-.45 3.6-.31 1-.87 1.85-1.15 2.83-.286 1.313-.35 2.665-.19 4 .188 4.794-.528 9.581-2.11 14.11-1.25 3.58-2.62 7.4-1.64 11.07-2.414 2.528-3.905 5.799-4.23 9.28-.029.892-.14 1.779-.33 2.65-.304.893-.703 1.752-1.19 2.56-2.012 3.666-2.958 7.824-2.73 12-3 4.06-4.49 9.09-5.38 14.08-.89 4.99-1.29 10.07-2.43 15-1.51 6.53-4.26 13.12-4.81 19.79-3.24 2.08-4.63 6.09-5.26 9.88-.63 3.79-.72 7.76-2.3 11.27-.82 1.82-2 3.45-2.78 5.3-.554 1.48-.959 3.01-1.21 4.57-.48 2.45-.9 5.16-.3 7.5-.847.902-1.837 1.659-2.93 2.24.15-.62.29-1.25.39-1.88-2.58 2.35-7.25 1.53-9.32 4.34-1.267 1.874-.822 4.449 1 5.79.649.392 1.349.691 2.08.89 4.95 1.59 10.14 3.21 15.27 2.36.608-.07 1.196-.261 1.73-.56.673-.487 1.225-1.124 1.61-1.86l2.31-3.66c1.842.553 3.715.994 5.61 1.32.187 1.593.317 3.193.39 4.8 1 .2 2.34.25 2.81-.67.145-.351.207-.731.18-1.11 0-.72.09-1.66.16-2.62h.2c3.052.12 6.088-.497 8.85-1.8-1.08-8.85 2.45-17.51 5.52-25.89 3.23-8.82 6-17.81 8.78-26.79 2-6.31 4.22-12.44 6.17-18.76 2.48-8 4.957-16 7.43-24 1.09-3.52 2.17-7 3.42-10.5 2.609-7.084 5.703-13.981 9.26-20.64 1-1.88 2-3.75 2.83-5.72 1-2.39 1.71-4.89 2.5-7.35 1.749-5.071 3.851-10.013 6.29-14.79l.18-.37c.81 3.31 1.63 6.68 2.16 10 .736 4.083.793 8.259.17 12.36-.48 2.79-1.39 5.55-1.27 8.37.15 3.92 2.23 7.46 3.26 11.24.662 2.822 1.041 5.703 1.13 8.6.27 4.49 2.72 9.54 1 13.71-5.34 13.21-2.75 28.13-5.81 42-1.56 7.12-6.37 13.82-6 21.1.267 5.167.72 10.32 1.36 15.46.112 1.569.48 3.11 1.09 4.56.409.772.866 1.517 1.37 2.23-.43.18-.81.63-1.12 1.58-.938 2.558-.021 5.45 2.22 7 .901.484 1.873.821 2.88 1 1.361.381 2.767.576 4.18.58.441-.022.879-.078 1.31-.17 1.548.652 3.13 1.22 4.74 1.7 0 .413.04.823.12 1.23 0 .436.194.851.53 1.13.247.126.524.178.8.15h5.43v-1.36c1.258.133 2.515-.278 3.45-1.13.487-.605.829-1.313 1-2.07 1.48-5.027 2.953-10.05 4.42-15.07.674-2.123 1.192-4.292 1.55-6.49.63-3.536.828-7.136.59-10.72-1.92-18.43 2.32-36.92.94-55.4-.836-11.104-.264-22.269 1.7-33.23.45-2.48 1-5 1.2-7.47.43-4.66-.1-9.37.22-14 .12-1.62.34-3.23.54-4.84 1.434-9.992 2.216-20.067 2.34-30.16-.022-3.342-.225-6.68-.61-10 1.035-.276 1.976-.829 2.72-1.6.9-1.17.67-2.79.66-4.27 0-3.54 1.49-6.89 2.68-10.23 1.537-4.588 2.802-9.263 3.79-14 1.032-3.835 1.596-7.78 1.68-11.75 0-.4 0-.8-.06-1.21.375-.26.687-.602.91-1 .264-.585.427-1.21.48-1.85.37-2.56.73-5.11 1.1-7.67.26-1.833.523-3.667.79-5.5 1.06-7.387 2.117-14.78 3.17-22.18.28-1.93.55-3.85.83-5.78l.82-5.73c.1-.68.19-1.36.27-2.05 2.48-3.95.14-9.4-.11-14.04zm-26.49 83.08c-1.19-2.79-2.29-5.66-2-8.69h-.1c.255-.931.206-1.919-.14-2.82-.31-.74-.84-1.36-1.17-2.08-.356-.894-.539-1.848-.54-2.81-.247-6.078.23-12.164 1.42-18.13.13-.71.27-1.41.41-2.12.414-.241.794-.537 1.13-.88.525-.6.96-1.274 1.29-2 1.127-2.267 2.167-4.577 3.12-6.93.31-.77.76-1.64 1.53-1.83-.16 5.85.44 11.82-2 17.1-.454.851-.791 1.759-1 2.7-.22 1.48.4 3 .18 4.48-.11.76-.44 1.48-.58 2.23-.196.76.029 1.57.59 2.12.127.098.269.176.42.23-.06.4-.11.81-.14 1.2-.09.82-.12 1.59-.17 2.07-.233 2.443-.327 4.897-.28 7.35 0 2.65.11 5.31.06 8 .041.775-.089 1.55-.38 2.27-.197.372-.454.71-.76 1-.28-.89-.6-1.68-.89-2.46z"
  />
  <path
    fill="#33313f"
    fill-rule="nonzero"
    d="M766.01 324.14l3.36-3.13-3-.11-1.57 2.4 1.21.84z"
  />
  <path
    fill="#65617d"
    fill-rule="nonzero"
    d="M741.84 346.06l3.56-4.57.79-.82 10.9-11.41 3.71-3.89 1.74-.2 2.5-2.49 1.47 1.29-2.43 2.84.05 1.49-3.8 4.12-10.7 11.61-.69.74-4.3 3.98-2.8-2.69z"
  />
  <path
    fill="#33313f"
    fill-rule="nonzero"
    d="M746.19 340.67l10.9-11.41 3.24 3.16-10.7 11.61-3.44-3.36z"
  />
  <path
    fill="#fbbebe"
    d="M756.212 322.522c3.049-.625 6.962 5.878 8.731 14.513 1.769 8.634.73 16.152-2.32 16.777-3.049.625-6.961-5.878-8.731-14.513-1.769-8.635-.73-16.152 2.32-16.777z"
  />
  <path
    fill="#3f3d56"
    fill-rule="nonzero"
    d="M809.22 675.24c-.909 2.539 0 5.394 2.21 6.94.902.481 1.874.818 2.88 1 1.354.381 2.753.576 4.16.58 1.74-.09 3.4-.76 5.12-1 .201-.043.411-.011.59.09.174.185.258.438.23.69.018.987.092 1.972.22 2.95-.007.052-.011.105-.011.158 0 .62.51 1.13 1.13 1.13.067 0 .135-.006.201-.018h5.41c.127-4.763-.401-9.521-1.57-14.14-.073-.354-.209-.693-.4-1-.452-.508-1.055-.859-1.72-1-1.329-.551-2.763-.8-4.2-.73-1.74.22-3.21 1.36-4.7 2.3-1.49.94-3.52 1.77-5.33 1.28s-3.3-2.01-4.22.77z"
  />
  <path
    fill="#fbbebe"
    fill-rule="nonzero"
    d="M729.6 670.85c-1.52 1.629-3.386 2.897-5.46 3.71l-.93.45c-.13.039-.238.129-.3.25-.038.156-.005.321.09.45 1.573 2.42 4.58 3.514 7.34 2.67.598-.149 1.153-.437 1.62-.84.759-.91 1.195-2.046 1.24-3.23.292-1.217.24-2.491-.15-3.68-1.36-3.14-1.87-1.72-3.45.22z"
  />
  <path
    fill="#3f3d56"
    fill-rule="nonzero"
    d="M750.42 683.17c.032.379-.03.76-.18 1.11-.46.92-1.78.86-2.8.67-.151-3.396-.558-6.776-1.22-10.11-1.94-.09-3.35 1.76-4.38 3.4l-2.68 4.26c-.389.731-.94 1.364-1.61 1.85-.531.297-1.116.488-1.72.56-5.12.84-10.29-.77-15.23-2.36-.727-.198-1.423-.494-2.07-.88-1.826-1.334-2.271-3.91-1-5.78 2.06-2.8 6.72-2 9.29-4.32-.265 1.633-.707 3.233-1.32 4.77 3.46-.52 5.77-3.68 8.56-5.79.693-.603 1.536-1.007 2.44-1.17.675-.053 1.353.022 2 .22 3.206.805 6.206 2.281 8.8 4.33 1.05.83 2.69 2 3.15 3.28.49 1.53-.04 4.33-.03 5.96z"
  />
  <circle cx="819.21" cy="332.56" r="20.66" fill="#fbbebe" />
  <path
    fill="#006aa8"
    fill-rule="nonzero"
    d="M859.91 454.55c-.083 3.957-.648 7.889-1.68 11.71-.974 4.738-2.233 9.413-3.77 14-1.19 3.33-2.69 6.67-2.68 10.2 0 1.47.24 3.09-.65 4.26-.808.811-1.821 1.388-2.93 1.67-1.115.297-2.026 1.107-2.45 2.18-.944-1.398-1.65-2.942-2.09-4.57-1.787-5.493-3.453-11.017-5-16.57-.289-.647-.24-1.396.13-2 .255-.224.555-.391.88-.49 1.022-.422 1.958-1.029 2.76-1.79.38-.332.696-.732.93-1.18.291-.72.421-1.495.38-2.27 0-2.64 0-5.29-.06-7.93-.045-2.446.045-4.894.27-7.33 0-.49.09-1.25.17-2.07.15-1.58.45-3.39 1.31-4 1.26-.86 5.06.29 6.51.48 2.48.35 4.95.75 7.41 1.22.352 1.468.54 2.971.56 4.48zm-83.43-98.85c-.8 1.6-2.72 2.36-4.2 3.38l-5.07 3.48c-.684.61-1.585.92-2.5.86-.833-.308-1.508-.939-1.87-1.75l-.06-.09-1-1.75-5-8.38c-.553-.756-.876-1.655-.93-2.59 0-.42.15-.83.2-1.25.005-1.206-.342-2.388-1-3.4-.4-.76-1.21-1.37-1.18-2.21-.043-1.107.148-2.211.56-3.24.524-.947 1.273-1.751 2.18-2.34.47-.34 1-.66 1.45-1 .269-.178.567-.31.88-.39.82-.17 1.64.51 2.48.54 3.62 2.42 5 7 7.85 10.31 1.6 1.87 1.76 3.31 3.57 5 .294.259.571.536.83.83.366.386.673.824.91 1.3.32.85 2.32 1.87 1.9 2.69z"
  />
  <path
    fill="#fbbebe"
    fill-rule="nonzero"
    d="M811.94 353.28c1.49 3.15 2.65 6.61 2.22 10.07-.086.936-.38 1.842-.86 2.65-1.44 2.21-4.46 2.6-7.1 2.74-1.115-.09-2.222.27-3.07 1-.727 1.045-.649 2.462.19 3.42.839.909 1.89 1.597 3.06 2 4.16 1.84 8.64 3.35 13.17 2.92 2.1-.2 4.14-.8 6.23-1.11 2.265-.241 4.542-.357 6.82-.35 2.72-.1 5.43-.37 8.14-.64l7.17-.71c.393.008.774-.132 1.07-.39.54-.62-.15-1.53-.8-2-3.82-2.83-8.67-4.76-10.83-9-1-2-1.32-4.37-2.06-6.54s-1.92-4.1-2.37-6.31c-.246-1.927-.356-3.868-.33-5.81.032-1.962-.683-3.865-2-5.32-1.42-1.33-3.49-1.67-5.44-1.76-4.78-.2-9.86.94-13.26 4.31-.91.91-1.68 1.95-2.63 2.82-.95.87-2.21 1.06-1.59 2.14.62 1.08 1.83 1.74 2.49 2.7.678 1.007 1.274 2.067 1.78 3.17z"
  />
  <path
    fill="#006aa8"
    fill-rule="nonzero"
    d="M852.68 382.32c-1.255 7.697-3.292 15.246-6.08 22.53-1.416 3.289-2.619 6.666-3.6 10.11-.78 3.1-.62 6.42-1.34 9.53-.88 3.86-1.76 7.75-2.47 11.65-1.19 5.949-1.667 12.018-1.42 18.08.002.959.185 1.909.54 2.8.33.72.87 1.34 1.17 2.07.48 1.311.382 2.766-.27 4-.514 1.147-1.21 2.204-2.06 3.13-9.33 2.78-19.29 1.86-29 2.45-9 .55-18 2.39-26.82.85-1-4 .66-8.18 2.1-12.08 4.14-11.33 8.74-23.13 8-35-.081-1.381-.241-2.757-.48-4.12-1.44-8.41.13-17.12 2.66-25.28 1.58-5.07 1.51-10.49 1.14-15.78-.178-1.714-.202-3.441-.07-5.16.152-1.756.805-3.433 1.88-4.83l.15-.21c.11-.17.44-.07.74 0 .16.067.34.067.5 0 .029-.033.067-.058.11-.07.089-.054.201-.054.29 0 .23.15.35.62.85.71.739.115 1.483.188 2.23.22.898.026 1.79.154 2.66.38h.12c1.301.215 2.634.102 3.88-.33.828-.208 1.628-.517 2.38-.92.614-.247 1.241-.458 1.88-.63.92-.56.72-3.14.91-4.19.102-1.063.351-2.106.74-3.1.921-1.49 2.529-2.425 4.28-2.49 1.726-.051 3.451.103 5.14.46 3.72.53 7.54.43 11.21 1.29 1.84.43 3.84 1.09 5.54.25.45.1.52.51.52 1-.034.467-.128.927-.28 1.37-.63 2.76 1.54 5.29 3.53 7.3.863.944 1.877 1.738 3 2.35 1 .46 2 .65 3 1.15.814.426 1.503 1.057 2 1.83.582.878.971 1.87 1.14 2.91.191 1.932.056 3.883-.4 5.77z"
  />
  <path
    fill="#33313f"
    fill-rule="nonzero"
    d="M849.02 506.27c-.055 10.059-.766 20.104-2.13 30.07-.2 1.6-.42 3.21-.53 4.83-.33 4.66.2 9.36-.23 14-.24 2.5-.75 5-1.2 7.45-1.956 10.931-2.524 22.066-1.69 33.14 1.37 18.43-2.85 36.87-.94 55.25.237 3.574.042 7.163-.58 10.69-.361 2.191-.879 4.353-1.55 6.47-1.473 5.013-2.94 10.013-4.4 15-.176.755-.518 1.462-1 2.07-1.028.899-2.397 1.308-3.75 1.12-5.77-.19-11.19-2.67-16.43-5.11-.606-.231-1.165-.57-1.65-1-1.09-1.13-1-2.92-1.48-4.4-.48-1.48-1.79-2.89-2.53-4.43-.599-1.447-.967-2.979-1.09-4.54-.667-5.127-1.12-10.267-1.36-15.42-.37-7.26 4.42-13.94 6-21 3.05-13.88.47-28.76 5.8-41.94 1.67-4.15-.76-9.19-1-13.67-.081-2.891-.456-5.765-1.12-8.58-1-3.77-3.1-7.3-3.25-11.2-.12-2.82.79-5.57 1.27-8.36.614-4.089.556-8.25-.17-12.32-.53-3.36-1.35-6.72-2.16-10l-.18.37c-2.436 4.762-4.532 9.691-6.27 14.75-.79 2.45-1.5 4.94-2.5 7.33-.82 2-1.82 3.82-2.81 5.7-3.552 6.638-6.64 13.515-9.24 20.58-1.24 3.46-2.32 7-3.41 10.47-2.46 8-4.927 16-7.4 24-1.95 6.31-4.2 12.41-6.15 18.71-2.77 9-5.54 17.92-8.76 26.71-3.06 8.36-6.58 17-5.51 25.83-2.754 1.294-5.779 1.908-8.82 1.79-5.154-.46-10.211-1.691-15-3.65-1.966-.55-3.751-1.613-5.17-3.08-2.23-2.71-1.67-6.68-1-10.12.25-1.557.655-3.084 1.21-4.56.75-1.85 1.95-3.48 2.77-5.29 1.58-3.5 1.68-7.45 2.3-11.24.62-3.79 2-7.78 5.24-9.85.54-6.65 3.29-13.23 4.8-19.73 1.14-4.93 1.52-10 2.41-15 .89-5 2.36-10 5.38-14-.24-4.175.7-8.334 2.71-12 .489-.804.888-1.659 1.19-2.55.191-.868.301-1.752.33-2.64.325-3.471 1.808-6.734 4.21-9.26-1-3.66.4-7.46 1.64-11 1.582-4.515 2.295-9.29 2.1-14.07-.152-1.335-.084-2.687.2-4 .28-1 .83-1.85 1.14-2.82.296-1.174.447-2.379.45-3.59.4-5.4 2.58-10.5 5-15.33 1.43-2.82.21-6.65.52-9.8.52-5.22 1.09-10.61 3.67-15.17.525-.829 1.003-1.687 1.43-2.57.526-1.269.807-2.626.83-4 .09-2.28.41-4.19-.41-6.31 5.35-4.46 12.66-5.7 19.61-5.95 6.95-.25 14 .33 20.81-1.16 2-.44 4-1.07 6.11-1.37 4.8-.7 9.65.4 14.38 1.48-.33 3 .77 5.88 1.95 8.67 4.787 11.264 7.305 23.362 7.41 35.6z"
  />
  <path
    fill="#97a5b2"
    fill-rule="nonzero"
    d="M799.41 308.91c-.66 2.09.37 4.4-.1 6.55-.52 2.36-2.73 4-3.36 6.37-1 3.61 2.06 6.9 4.29 9.9 8.3 11.13 7.21 26.55 4.37 40.15-2.28 10.904-5.441 21.606-9.45 32-1.24 3.22-2.63 6.51-5.08 8.93 4.6-1.32 9.48-2.65 14.1-1.37 5.84 1.62 10.88 7.29 16.79 6 3.57-.8 6.06-4 9.27-5.7 6-3.23 13.22-1.2 19.92-.17 1.441.35 2.952.273 4.35-.22 1.068-.574 1.975-1.406 2.64-2.42 2.981-3.831 4.766-8.459 5.13-13.3.328-4.877-1.463-9.665-4.91-13.13-1.41-1.34-3.11-2.42-4.2-4-1.067-1.842-1.636-3.931-1.65-6.06-.8-11 1.88-22.22-.87-32.86-1-3.79-2.64-7.42-3.08-11.31-.55-4.82.77-10-1.15-14.42-1.52-3.5-4.85-6-8.43-7.27-3.639-1.173-7.42-1.845-11.24-2-5.48-.48-25.05-2.82-27.34 4.33z"
  />
  <path
    fill="#97a5b2"
    fill-rule="nonzero"
    d="M804.6 371.88c-2.274 10.858-5.417 21.516-9.4 31.87.69-1.37 1.28-2.81 1.83-4.24 4.009-10.394 7.169-21.096 9.45-32 2.84-13.59 3.93-29-4.37-40.15-2-2.65-4.57-5.53-4.47-8.66-.743.945-1.318 2.01-1.7 3.15-1 3.61 2.06 6.9 4.29 9.9 8.31 11.11 7.22 26.53 4.37 40.13zm-5.17-57.44c.797-1 1.394-2.144 1.76-3.37.154-1.486.114-2.985-.12-4.46-.771.583-1.35 1.384-1.66 2.3-.56 1.77.09 3.71.02 5.53zm59.6 90.08c-.668 1.017-1.579 1.852-2.65 2.43-1.394.494-2.903.57-4.34.22-6.7-1-14-3.07-19.92.17-3.21 1.74-5.71 4.9-9.27 5.69-5.92 1.32-11-4.34-16.8-6-4.13-1.15-8.49-.2-12.67 1-.825 1.77-1.94 3.389-3.3 4.79 4.6-1.32 9.48-2.65 14.1-1.37 5.84 1.62 10.88 7.29 16.79 6 3.56-.8 6.06-4 9.27-5.7 6-3.23 13.22-1.2 19.92-.17 1.441.35 2.952.273 4.35-.22 1.068-.574 1.975-1.406 2.64-2.42 1.803-2.396 3.201-5.072 4.14-7.92-.67 1.219-1.425 2.388-2.26 3.5z"
  />
  <path
    fill="#3ebd93"
    fill-rule="nonzero"
    d="M916.89 575.54s5.93 7.76-2.73 19.47c-8.66 11.71-15.82 21.61-12.93 28.89 0 0 13.08-21.75 23.72-22 10.64-.25 3.65-13.28-8.06-26.36z"
  />
  <path
    fill-opacity=".0941176"
    fill-rule="nonzero"
    d="M916.89 575.54c.52.75.927 1.572 1.21 2.44 10.39 12.2 15.92 23.58 5.94 23.87-9.3.27-20.45 16.89-23.13 21.09.09.33.2.64.32 1 0 0 13.08-21.75 23.72-22 10.64-.25 3.65-13.32-8.06-26.4z"
  />
  <path
    fill="#ffd037"
    fill-rule="nonzero"
    d="M927.92 585.43c0 2.73-.31 4.94-.69 4.94-.38 0-.68-2.21-.68-4.94 0-2.73.38-1.45.76-1.45s.61-1.28.61 1.45z"
  />
  <path
    fill="#ffd037"
    fill-rule="nonzero"
    d="M931.7 588.69c-2.4 1.3-4.49 2.09-4.67 1.76-.18-.33 1.62-1.66 4-3s1.46-.35 1.64 0c.18.35 1.43-.07-.97 1.24z"
  />
  <path
    fill="#3ebd93"
    fill-rule="nonzero"
    d="M885.6 575.54s-5.93 7.76 2.74 19.47c8.67 11.71 15.81 21.59 12.92 28.89 0 0-13.08-21.75-23.72-22-10.64-.25-3.68-13.28 8.06-26.36z"
  />
  <path
    fill-opacity=".0941176"
    fill-rule="nonzero"
    d="M885.6 575.54c-.52.75-.927 1.572-1.21 2.44-10.39 12.2-15.92 23.58-5.94 23.87 9.3.27 20.46 16.89 23.13 21.09-.09.33-.2.64-.32 1 0 0-13.08-21.75-23.72-22-10.64-.25-3.68-13.32 8.06-26.4z"
  />
  <path
    fill="#ffd037"
    fill-rule="nonzero"
    d="M874.6 585.43c0 2.73.3 4.94.68 4.94.38 0 .68-2.21.68-4.94 0-2.73-.38-1.45-.76-1.45s-.6-1.28-.6 1.45z"
  />
  <path
    fill="#ffd037"
    fill-rule="nonzero"
    d="M870.76 588.69c2.4 1.3 4.49 2.09 4.67 1.76.18-.33-1.62-1.66-4-3s-1.45-.35-1.64 0c-.19.35-1.42-.07.97 1.24z"
  />
  <path
    fill="#444053"
    fill-rule="nonzero"
    d="M933.14 613.45l-.29 2.42-.42 3.42-.17 1.42-.42 3.43-.18 1.42-.41 3.42-4.75 38.9c-.42 3.47-6.1 6.18-12.94 6.18H888.9c-6.84 0-12.51-2.71-12.93-6.18l-4.75-38.9-.42-3.42-.17-1.42-.43-3.43-.17-1.42-.41-3.42-.3-2.42c-.24-2 2.83-3.63 6.7-3.63h50.42c3.87 0 6.95 1.66 6.7 3.63z"
  />
  <path
    fill="#9d9cb5"
    fill-rule="nonzero"
    d="M932.85 615.87l-.42 3.41h-62.4l-.41-3.41h63.23zm-.59 4.84l-.42 3.42h-61.21l-.42-3.42h62.05zm-.6 4.85l-.41 3.42h-60.03l-.42-3.42h60.86z"
  />
  <path
    fill="#0967d2"
    fill-opacity=".1"
    fill-rule="nonzero"
    d="M862.651 346.686c-.137.81-.275 1.62-.427 2.429-4.903 27.582-12.908 54.172-24.811 78.586-.391.81-.788 1.62-1.193 2.43-7.639 15.393-17.02 29.86-27.958 43.114-5.929 7.152-12.394 13.943-20.082 18.846-10.775 6.87-23.372 9.661-35.752 11.946-12.865 2.379-25.897 4.339-38.899 6.509-4.609.752-9.189 1.54-13.74 2.364-12.561 2.271-25.028 4.896-37.199 8.375-15.049 4.338-29.65 9.928-43.39 17.847-1.099.627-2.186 1.27-3.261 1.931-1.078.651-2.169 1.316-3.218 1.996-1.049.68-2.104 1.352-3.146 2.039l-1.605 1.085c-.528.347-1.049.723-1.569 1.07-1.548 1.056-3.074 2.17-4.6 3.24l-.058.043c-1.005.723-2.003 1.447-3.001 2.17-5.633 4.172-11.144 8.54-16.632 12.922l-3.464 2.77c-1.789 1.418-3.577 2.833-5.366 4.245-1.049.832-2.112 1.656-3.167 2.481-.767.6-1.526 1.2-2.307 1.793-3.913 3.016-7.875 5.966-11.918 8.786-.962.673-1.938 1.345-2.893 2.003-8.091 5.535-16.698 10.277-25.701 14.16l-.115.05c-4.434 1.89-8.997 3.464-13.653 4.708-2.669.723-5.337 1.295-8.042 1.743-7.205 1.246-14.559 1.373-21.803.376-14.239-2.018-27.581-8.678-41.784-10.905-29.302-4.549-57.759 10.124-85.333 21.644-6.749 2.825-13.573 5.477-20.472 7.955-4.57 1.648-9.162 3.218-13.776 4.707-28.108 9.092-57.072 15.288-86.439 18.492-11.99 1.308-24.493 1.93-36.7.99-4.61-.339-9.197-.935-13.74-1.786-15.454-2.893-29.881-9.032-41.502-20.248-9.654-9.177-16.466-21.174-21.659-33.692-2.087-5.029-3.926-10.173-5.517-15.432-2.501-8.244-4.379-16.663-5.619-25.188-.282-1.923-.536-3.854-.724-5.785-.376-3.312-.655-6.639-.838-9.98-1.013-17.756.721-35.563 5.141-52.79 4.925-19.084 13.14-37.358 16.756-56.623.152-.81.289-1.62.426-2.43.483-2.893.849-5.838 1.1-8.837 1.822-23.56-5.229-46.622-10.797-69.72-.195-.809-.391-1.619-.579-2.429-.602-2.56-1.174-5.123-1.713-7.688-5.157-24.428-6.567-50.57-1.989-74.947.144-.81.311-1.628.477-2.43 3.088-15.1 8.541-29.462 16.893-42.254 8.569-13.133 19.822-24.06 31.819-33.663 5.858-4.677 11.915-9.052 18.173-13.126 4.498-2.921 9.078-5.686 13.74-8.294 37.669-20.972 80.646-31.219 123.139-28.926 2.251.115 4.498.27 6.74.462 2.352.203 4.698.444 7.036.724 27.357 3.16 53.976 10.992 80.437 19.561 8.866 2.893 17.71 5.785 26.554 8.678 3.934 1.282 7.866 2.548 11.795 3.796 19.272 6.082 38.862 11.571 58.633 15.707 4.585.965 9.165 1.844 13.74 2.64 15.906 2.849 32.002 4.507 48.155 4.961 6.268.154 12.535.089 18.802-.195 3.168-.145 6.338-.357 9.51-.637 32.766-2.806 64.361-12.214 96.086-21.051 4.584-1.28 9.176-2.553 13.74-3.782 6.031-1.62 12.069-3.189 18.129-4.635 37.734-9.062 71.361-3.855 106.441 14.831 7.955 4.245 15.91 9.365 20.827 17.291 4.918 7.926 6.111 17.739 7.022 27.184 1.287 13.436 2.17 27.06 2.452 40.742 0 .81 0 1.62.05 2.43.637 27.704-1.048 55.618-5.662 82.621z"
  />
</svg>
