<svg
  xmlns="http://www.w3.org/2000/svg"
  fill-rule="evenodd"
  stroke-linejoin="round"
  stroke-miterlimit="1.41421"
  clip-rule="evenodd"
  viewBox="0 0 1150 628"
>
  <path
    fill="#0452b5"
    fill-opacity=".0980392"
    fill-rule="nonzero"
    d="M1137.81 582.145c-4.463 11.013-9.958 21.58-16.41 31.56-3.026 4.758-6.346 9.324-9.94 13.67-.032.044-.069.084-.11.12H0l.15-.12c1-.78 6.87-5.53 16-13.67 6.55-5.83 14.77-13.41 24-22.53 75.49-74.25 220.5-250 99.73-411-112.27-149.67 8.61-176.83 88.35-180 30.636-1.201 61.201 3.796 89.86 14.69 36.84 14 104.17 35.46 191.89 45.3 2.88.32 5.78.64 8.72.93 46.442 4.728 93.197 5.578 139.78 2.54 1.37-.08 2.75-.18 4.14-.28 46.082-3.236 91.814-10.311 136.72-21.15 2.91-.71 5.78-1.38 8.64-2.05 149.63-34.62 287.57 83.37 253.08 216.71-12.75 49.32-9.51 101.89 33 144.42 69.6 69.42 61.17 137.79 43.75 180.86z"
  />
  <path
    fill="#454b69"
    fill-rule="nonzero"
    d="M1137.81 582.145c-4.463 11.013-9.958 21.58-16.41 31.56-3.026 4.758-6.346 9.324-9.94 13.67H.15c1-.78 6.87-5.53 16-13.67 6.55-5.83 14.77-13.41 24-22.53l117.13-24.2c1.513-.313 3.055-.47 4.6-.47l124.87-.18h.13l61.85-.08h.14l52.2-.06h69.17l143.42-.2h61.71l24.63-.28h8.14l71.64-.1h33.88l82.75-.11h24.64l78.38-.11 66.16-.08c1.843.001 3.679.219 5.47.65l66.75 16.19z"
  />
  <path
    fill="none"
    d="M16.15 613.705H1121.4c-3.026 4.758-6.346 9.324-9.94 13.67H.15c.98-.83 6.85-5.58 16-13.67z"
  />
  <path
    fill-opacity=".4"
    fill-rule="nonzero"
    d="M16.15 613.705H1121.4c-3.026 4.758-6.346 9.324-9.94 13.67H.15c.98-.83 6.85-5.58 16-13.67z"
  />
  <path
    fill="#9aa5b1"
    fill-rule="nonzero"
    d="M733.22 302.705l-2.22.43-100.36 19.28c-29.15 5.6-58.72 11.23-88.33 9.08-21.45-1.56-41.49-7.92-62.1-13.5-11.65-3.16-24-4.42-27.95-17.46-5.45-18 3.42-44.65 5.51-62.89 2-17.9 3.18-36.25-.38-53.94-.791-3.976-1.833-7.897-3.12-11.74-3.57-10.59-9.18-21.6-6.15-32.35 2.39-8.53 9.68-14.62 16.5-20.26 13.36-11 27-23.33 32.3-39.82 2.6-8 3.09-16.61 5.89-24.55 5.31-15.1 18.65-26.39 33.49-32.37 14.84-5.98 31.16-7.25 47.17-7.25 14.137 0 28.258.939 42.27 2.81 15.28 2 30.7 5.29 44.13 12.87 13.43 7.58 24.75 20 27.88 35.14 4.43 21.41-7.87 44.21-1.27 65 3.32 10.51 11 19 16.33 28.62 8.777 16.252 10.583 35.393 5 53-6.38 19.77-22 39.77-14 58.94 5.09 12.19 18.09 18.7 27.15 28.36.807.866 1.56 1.733 2.26 2.6z"
  />
  <path
    fill-opacity=".0980392"
    fill-rule="nonzero"
    d="M731 300.185v2.95l-100.36 19.28c-29.15 5.6-58.72 11.23-88.33 9.08-21.45-1.56-41.49-7.92-62.1-13.5-11.65-3.16-24-4.42-27.95-17.46-5.45-18 3.42-44.65 5.51-62.89 2-17.9 32.79-83.25 29.23-100.94l184 8c1.24 9.77 49.87 58.81 46.84 68.18-6.38 19.77-22 39.77-14 58.94 5.1 12.19 18.1 18.7 27.16 28.36z"
  />
  <path
    fill="#efb7b9"
    fill-rule="nonzero"
    d="M543 250.705c1.09 6.19 1.67 13-1.49 18.4-4.21 7.24-13.39 9.55-21.6 11.19l-28.5 5.7c-1.94.39-4 .83-5.45 2.16-1.71 1.53-2.29 3.95-2.54 6.23-1.15 10.32 2.5 20.49 5.83 30.32 6.73 19.91 12.38 40.24 20.89 59.45s20.19 37.55 36.86 50.39c16.67 12.84 38.73 19.68 59.14 14.66 17.78-4.37 32.36-16.92 44.93-30.23 10.37-11 20.07-23 25.1-37.27 3.47-9.8 4.6-20.24 5.69-30.58 1.687-15.854 3.373-31.707 5.06-47.56.79-7.44 1.31-15.81-3.52-21.52-2.12-2.51-5-4.18-7.94-5.73-10.94-5.81-22.46-10.61-32.64-17.61s-19.21-16.64-22.3-28.6c-1.85-7.18-1.52-15-4.67-21.69-3.52-7.5-11-12.58-19-14.81-8-2.23-16.44-1.93-24.68-1-8.24.93-40 3.31-43.41 12.6-1.83 5 5.76 15.73 7.56 20.65 2.963 8.067 5.198 16.384 6.68 24.85z"
  />
  <path
    fill-opacity=".0980392"
    fill-rule="nonzero"
    d="M543 250.705c1.09 6.19 1.67 13-1.49 18.4-4.21 7.24-13.39 9.55-21.6 11.19l-28.5 5.7c-1.94.39-4 .83-5.45 2.16-1.71 1.53-2.29 3.95-2.54 6.23-1.15 10.32 2.5 20.49 5.83 30.32 6.73 19.91 12.38 40.24 20.89 59.45s20.19 37.55 36.86 50.39c16.67 12.84 38.73 19.68 59.14 14.66 17.78-4.37 32.36-16.92 44.93-30.23 10.37-11 20.07-23 25.1-37.27 3.47-9.8 4.6-20.24 5.69-30.58 1.687-15.854 3.373-31.707 5.06-47.56.79-7.44 1.31-15.81-3.52-21.52-2.12-2.51-5-4.18-7.94-5.73-10.94-5.81-22.46-10.61-32.64-17.61s-19.21-16.64-22.3-28.6c-1.85-7.18-1.52-15-4.67-21.69-3.52-7.5-11-12.58-19-14.81-8-2.23-16.44-1.93-24.68-1-8.24.93-40 3.31-43.41 12.6-1.83 5 5.76 15.73 7.56 20.65 2.963 8.067 5.198 16.384 6.68 24.85z"
  />
  <path
    fill="#fff"
    fill-rule="nonzero"
    d="M611.59 359.445l16.71-35.38c7.83-16.58 15.83-34 15-52.31-.16-3.64-.2-8.19 3-9.84 1.389-.568 2.903-.761 4.39-.56 17.592.899 34.952 4.411 51.51 10.42 3.21 1.16 6.5 2.5 8.75 5.06 2.25 2.56 3.16 6 3.93 9.3 2.623 11.157 4.537 22.47 5.73 33.87 3 28.22 1.51 56.69 0 85l-4.44 86.43c.024 1.226-.225 2.442-.73 3.56-1.1 2-3.58 2.67-5.81 3.05-8.59 1.47-17.37 1.17-26.07.84-61.2-2.32-122.72-5.88-183.52 1.54.273-8.994.13-17.994-.43-27-2.41-38.89-12.49-76.83-22.39-114.51-5.77-22-11.36-46-2.07-66.73 1.366-3.274 3.33-6.265 5.79-8.82 3.95-3.87 9.34-5.91 14.68-7.37 9.211-2.506 18.752-3.585 28.29-3.2l63.05 137.27c2.88 6.28 5.25 12.89 8.12 19.09 2.58-10.71-.52-23.26 2.58-34.87 3.34-12.05 8.6-23.58 13.93-34.84z"
  />
  <path
    fill="#0452b5"
    fill-rule="nonzero"
    d="M605 453.895c11.28.71 22.24-5.07 30-13.24 7.76-8.17 12.88-18.53 17.21-29 6.225-14.925 11.172-30.35 14.79-46.11 3-13.4 5.13-27.27 3.06-40.85-2.86-18.75-13.47-35.79-15.28-54.67-.31-3.3-.11-7.16 2.54-9.15 1.64-1.23 3.8-1.4 5.84-1.52 18.86-1.12 39.58-.91 54.19 11.06 4.45 3.64 8.06 8.19 12.41 11.94 10.36 9 25 13.58 31.65 25.53 2.32 4.16 3.43 8.87 5.05 13.35 3.82 10.6 10.43 19.92 17 29.09-6.37 26.88-13.69 53.78-20.06 80.66-3.73 15.77-7.49 31.6-13.35 46.7-3.84 9.9-8.67 20-7.49 30.6.47 4.17 1.86 8.16 3.07 12.18 4.242 14.109 6.229 28.8 5.89 43.53l-285.34.7c13.67-19.6 17.68-43.64 16.29-67.49-.67-11.43-3.25-22.93-9-32.82-9.06-15.5-25-25.6-40.71-34.25-11-6-22.81 27.76-34.7 23.89 1.92-13.58 2.8-66 2-79.67-.26-4.48-.66-9.08.72-13.36.94-2.93 2.67-5.55 3.84-8.4 4.69-11.41.22-26 7.8-35.71 5.24-6.75 14.43-8.67 21.9-12.83 7.67-4.28 13.6-11 20.28-16.74 13.106-11.129 29.125-18.281 46.16-20.61 4.97 7.838 7.991 16.754 8.81 26 .51 5.81.14 11.7.95 17.48 1.11 7.83 4.35 15.18 7.56 22.42 13.37 30.19 26.79 60.47 43.73 88.82 4.79 8 10 16 16.94 22.23 6.94 6.23 16.93 10.68 26.25 10.24z"
  />
  <path
    fill-opacity=".0980392"
    fill-rule="nonzero"
    d="M605 453.895c11.28.71 22.24-5.07 30-13.24 7.76-8.17 12.88-18.53 17.21-29 6.225-14.925 11.172-30.35 14.79-46.11 3-13.4 5.13-27.27 3.06-40.85-2.86-18.75-13.47-35.79-15.28-54.67-.31-3.3-.11-7.16 2.54-9.15 1.64-1.23 3.8-1.4 5.84-1.52 18.86-1.12 39.58-.91 54.19 11.06 4.45 3.64 8.06 8.19 12.41 11.94 10.36 9 25 13.58 31.65 25.53 2.32 4.16 3.43 8.87 5.05 13.35 3.82 10.6 10.43 19.92 17 29.09-6.37 26.88-13.69 53.78-20.06 80.66-3.73 15.77-7.49 31.6-13.35 46.7-3.84 9.9-8.67 20-7.49 30.6.47 4.17 1.86 8.16 3.07 12.18 4.242 14.109 6.229 28.8 5.89 43.53l-285.34.7c13.67-19.6 17.68-43.64 16.29-67.49-.67-11.43-3.25-22.93-9-32.82-9.06-15.5-25-25.6-40.71-34.25-11-6-22.81 27.76-34.7 23.89 1.92-13.58 2.8-66 2-79.67-.26-4.48-.66-9.08.72-13.36.94-2.93 2.67-5.55 3.84-8.4 4.69-11.41.22-26 7.8-35.71 5.24-6.75 14.43-8.67 21.9-12.83 7.67-4.28 13.6-11 20.28-16.74 13.106-11.129 29.125-18.281 46.16-20.61 4.97 7.838 7.991 16.754 8.81 26 .51 5.81.14 11.7.95 17.48 1.11 7.83 4.35 15.18 7.56 22.42 13.37 30.19 26.79 60.47 43.73 88.82 4.79 8 10 16 16.94 22.23 6.94 6.23 16.93 10.68 26.25 10.24z"
  />
  <circle cx="589.91" cy="162.715" r="85.72" fill="#efb7b9" />
  <path
    fill="#9aa5b1"
    fill-rule="nonzero"
    d="M544.93 276.945c2.35-22.18-6.87-43.88-17.31-63.59-5-9.42-10.36-18.81-12.87-29.16-2.51-10.35-1.79-22.07 4.63-30.58 5.46-7.24 14.12-11.15 22.13-15.4 22.61-12 43.28-29.64 53.22-53.23-5.62 3.06-4.16 12.19.8 16.22 4.96 4.03 11.72 4.81 17.82 6.73 22.24 7 35.58 29.18 46.28 49.9 1.75 3.38 3.53 6.95 3.51 10.76-.02 3.81-1.76 7.19-3.58 10.43-5.28 9.4-11.74 18.43-14.14 28.94-2.75 12 .15 24.62 3.92 36.39 4 12.52 9.31 25.14 18.91 34.12 9.6 8.98 24.49 13.44 36.3 7.64-11.79-20.27-24-42.92-19.4-65.9 2.22-11 8.19-21 10.73-31.94 4.84-20.87-3.22-42.34-11.13-62.26l-23.64-59.45c-3.61-9.09-7.72-18.79-16-23.94-5.6-3.47-12.38-4.37-18.94-5-21.12-1.88-43-1.26-62.66 6.6-35.82 14.31-58.28 49.59-76.1 83.81-5.34 10.25-10.61 21.14-10.39 32.7.12 6.34 1.89 12.51 3.33 18.69 5.86 25.16 6.18 51.23 6.48 77.06.23 19.82-.8 38.5-9.47 56.55 11.88 2.36 29.11 8.73 40.87 4.07 15.33-6.06 24.77-24.73 26.7-40.16z"
  />
  <path
    fill="#8b95a0"
    fill-rule="nonzero"
    d="M486.78 256.065c.04-2.82.04-5.667 0-8.54-.3-25.83-.62-51.9-6.48-77.06-1.309-4.897-2.331-9.865-3.06-14.88-.206 1.722-.296 3.456-.27 5.19.12 6.34 1.89 12.51 3.33 18.69 5.83 25.01 6.19 50.92 6.48 76.6z"
  />
  <path
    fill="#9aa5b1"
    fill-rule="nonzero"
    d="M695.88 188.275c1.313-5.843 1.751-11.849 1.3-17.82-.196 2.97-.631 5.919-1.3 8.82-2.54 11-8.51 20.91-10.73 31.94-.957 4.865-1.226 9.84-.8 14.78.159-1.94.426-3.87.8-5.78 2.22-11.03 8.19-20.98 10.73-31.94zm-33.52-24.27c.488-1.421.751-2.909.78-4.41 0-3.81-1.76-7.38-3.51-10.76-10.7-20.72-24-42.88-46.28-49.9-6.1-1.92-12.85-2.7-17.82-6.73-2.583-2.225-4.163-5.399-4.38-8.8-10.84 19.9-29.46 35.12-49.64 45.81-8 4.25-16.67 8.16-22.13 15.4-5.13 6.8-6.62 15.65-5.73 24.21.504-5.494 2.485-10.75 5.73-15.21 5.46-7.24 14.12-11.15 22.13-15.4 20.18-10.69 38.8-25.91 49.64-45.81.217 3.401 1.797 6.575 4.38 8.8 5 4 11.72 4.81 17.82 6.73 22.24 7 35.58 29.18 46.28 49.9 1.085 1.974 1.998 4.039 2.73 6.17z"
  />
  <path
    fill="#8b95a0"
    fill-rule="nonzero"
    d="M668.25 269.475c-9.6-9-14.89-21.6-18.91-34.12-2.412-7.033-4.022-14.316-4.8-21.71-.93 10.27 1.62 20.78 4.8 30.71 4 12.52 9.31 25.14 18.91 34.12 9.6 8.98 24.49 13.44 36.3 7.64-1.42-2.43-2.83-4.9-4.23-7.39-10.97 3.09-23.57-1.31-32.07-9.25zm-123.32-1.53c-1.93 15.43-11.37 34.1-26.74 40.2-10.67 4.23-25.86-.63-37.45-3.32-.997 2.807-2.139 5.56-3.42 8.25 11.88 2.36 29.11 8.73 40.87 4.07 15.37-6.1 24.81-24.77 26.74-40.2.398-3.861.471-7.748.22-11.62-.06.87-.15 1.75-.22 2.62z"
  />
  <path
    fill="#fff"
    fill-rule="nonzero"
    d="M666.1 515.885c-15.45-2.45-31.13-7.18-46.45-4-8.88 1.84-17 6.26-24.38 11.6 4.06 3.25 8.8 6.15 11.38 10.67 1.601 3.127 2.804 6.443 3.58 9.87 1.62 6 3.25 12.12 3.5 18.36s-1 12.74-4.72 17.77c19.48 1.92 38.36-2.88 57.36-7.57 2.173-.382 4.241-1.217 6.07-2.45 3-2.36 3.88-6.56 3.9-10.39 0-6.84-1.92-13.51-3.87-20.07-2.32-7.87-4.04-15.97-6.37-23.79z"
  />
  <path
    fill="#0452b5"
    fill-rule="nonzero"
    d="M770.42 347.215c7.67 1 13.62 7.19 18 13.55 12.29 17.7 17.59 39.16 23.49 59.89 7.333 25.78 15.957 51.153 25.87 76.12 2.134 5.765 4.729 11.35 7.76 16.7 2.47 4.13 5.47 8.1 6.56 12.79 2.64 11.34-6.71 22-16.46 28.32-5.197 3.503-10.872 6.238-16.85 8.12-5.82 1.74-11.89 2.4-17.92 3.06l-55.51 6c-25.55 2.78-51.33 5.56-76.89 2.88-1.61-5.6 1.55-9.56 1.32-15.39-.16-4.17-2-8.05-3.64-11.89-3.024-6.84-5.022-14.088-5.93-21.51-.29-2.73-.39-5.53-1.43-8.07s-3.27-4.82-6-5c15-1.49 26.39-4.32 41.39-5.82 5.57-.56 11.36-1.19 16.11-4.15 5.89-3.67 9.19-10.29 11.81-16.71 6.49-15.9 10.67-33.42 7.26-50.26-2.8-13.81-10.61-26.67-10.57-40.76 0-8.39 2.86-16.52 6.24-24.2 3.58-8.12 8.25-16.42 16.11-20.54 7.86-4.12 20.41-4.33 29.28-3.13z"
  />
  <path
    fill-opacity=".0784314"
    fill-rule="nonzero"
    d="M770.42 347.215c7.67 1 13.62 7.19 18 13.55 12.29 17.7 17.59 39.16 23.49 59.89 7.333 25.78 15.957 51.153 25.87 76.12 2.134 5.765 4.729 11.35 7.76 16.7 2.47 4.13 5.47 8.1 6.56 12.79 2.64 11.34-6.71 22-16.46 28.32-5.197 3.503-10.872 6.238-16.85 8.12-5.82 1.74-11.89 2.4-17.92 3.06l-55.51 6c-25.55 2.78-51.33 5.56-76.89 2.88-1.61-5.6 1.55-9.56 1.32-15.39-.16-4.17-2-8.05-3.64-11.89-3.024-6.84-5.022-14.088-5.93-21.51-.29-2.73-.39-5.53-1.43-8.07s-3.27-4.82-6-5c15-1.49 26.39-4.32 41.39-5.82 5.57-.56 11.36-1.19 16.11-4.15 5.89-3.67 9.19-10.29 11.81-16.71 6.49-15.9 10.67-33.42 7.26-50.26-2.8-13.81-10.61-26.67-10.57-40.76 0-8.39 2.86-16.52 6.24-24.2 3.58-8.12 8.25-16.42 16.11-20.54 7.86-4.12 20.41-4.33 29.28-3.13z"
  />
  <path
    fill="#efb7b9"
    fill-rule="nonzero"
    d="M422.81 334.225c3.63-8.62 7.32-17.52 7.42-26.87.11-10.11-4-19.71-7.14-29.31-3.883-11.746-6.468-23.882-7.71-36.19-.258-1.179-.08-2.412.5-3.47.83-1.17 2.43-1.41 3.84-1.72 6.92-1.58 12.15-7.17 16.47-12.8 6.702-8.695 12.361-18.147 16.86-28.16 3.31-7.37 7.79-16.36 15.87-16.43-3.253 15.279-7.285 30.382-12.08 45.25 8.45-2.16 16.48-5.3 24.93-7.46 1.654-.523 3.387-.753 5.12-.68 5.06.53 8.16 7.38 5.22 11.53 4.13 4.84 11 6.14 16.4 9.46 5.4 3.32 9.28 11.54 4.48 15.71-.94.81-2.13 1.38-2.81 2.42-2.32 3.58 3.36 7.69 2.89 11.93-.38 3.47-4.83 5.09-8.2 4.17-3.37-.92-6-3.44-9-5.29s-6.92-3-9.83-1.08c-.78 9.41-1.62 19-5.69 27.57-1.49 3.13-3.4 6.06-4.6 9.31-1.148 3.543-1.86 7.214-2.12 10.93l-3.63 33.19c-17.32 3.47-32.85-1.72-47.19-12.01z"
  />
  <path
    fill="#fff"
    fill-rule="nonzero"
    d="M418.58 363.975l-3.19-21.59c-.305-1.758-.475-3.537-.51-5.32 0-5 2.2-9.77 4.33-14.32 17.65 8.24 36.73 11.17 56.2 11.18 2.57 0 5.5-.24 7.1-2.25 3.31 3.81 3.41 9.94 2 14.78-1.41 4.84-4.12 9.2-5.92 13.92-.91 2.39-1.65 5-3.39 6.84-2.7 2.91-7.08 3.41-11.06 3.39-4.187-.027-8.363-.425-12.48-1.19-10.66-1.98-22.42-7.35-33.08-5.44z"
  />
  <path
    fill="#0452b5"
    fill-rule="nonzero"
    d="M484.41 363.095c-13.7-1.56-27.31-3.76-40.83-6.6-6.63-1.39-13.32-2.94-20.08-2.67-4.4.18-9.13 1.06-13-1.12 3.77 12.83 4 26.35-.51 38.94-2.67 7.5-6.74 14.49-8.7 22.21-4.08 16.15 1.52 33.76-3.58 49.62-.539 2.072-1.6 3.972-3.08 5.52-1.56 1.43-3.69 2.17-5.13 3.72-2.12 2.28-2.25 5.71-2.26 8.82l-.09 27.55c-.06 17.54.17 36.14 9.43 51 10.56 17 32.79 25.81 52.14 20.64 5.145-1.316 9.965-3.675 14.16-6.93 6.72-5.34 11-13.06 15.19-20.58 5-9 10-18.2 11.61-28.33 1.14-7.17.5-14.49-.32-21.7-4.52-40-14.33-79.66-12.22-119.81.316-7.339 2.851-14.412 7.27-20.28z"
  />
  <path
    fill="#efb7b9"
    fill-rule="nonzero"
    d="M541.67 529.095c-6.95.4-13.95.8-20.87 0-5-.6-9.88-1.83-14.84-2.67-27.397-4.425-55.402 3.356-76.59 21.28-3.84 3.28-7.72 8.31-5.6 12.9 2.28 4.94 9.25 4.8 14.62 3.88-5.796 2.768-10.916 6.772-15 11.73-1.5 1.83-2.92 4-2.63 6.37.61 4.95 7.33 5.85 12.3 5.42-1.62 1.74-.53 4.82 1.53 6 2.06 1.18 4.62.94 6.95.51 5.151-.944 10.128-2.667 14.76-5.11-.94 2.45.69 5.32 3 6.54 2.31 1.22 5.12 1.13 7.71.71 12.22-2 22.42-10.5 34.34-13.84 19.06-5.33 39 3.17 58.81 3.77 6.2.19 12.56-.44 18.21-3 6.93-3.15 12.52-9.06 19.84-11.16 8.13-2.32 17.46.35 24.9-3.66 5.41-2.91.53-25.34-.85-29.66-2.53-7.9-5.07-13.14-13.5-13.94-21.33-2.09-45.6 2.69-67.09 3.93z"
  />
  <path
    fill="#fff"
    fill-rule="nonzero"
    d="M594.88 522.975s32.29 27.33 13.66 57.15l36-12.43v-26.09c0-1.24-13.67-19.87-13.67-19.87l-16.15-2.49-19.84 3.73z"
  />
  <path
    fill="#8b95a0"
    fill-rule="nonzero"
    d="M256.79 521.285h12.11c13.715 0 25 11.285 25 25v37.11h-62.11v-37.11c0-13.715 11.285-25 25-25z"
  />
  <path
    fill="#8b95a0"
    fill-opacity=".0980392"
    fill-rule="nonzero"
    d="M256.79 521.285h12.11c13.715 0 25 11.285 25 25v37.11h-62.11v-37.11c0-13.715 11.285-25 25-25z"
  />
  <circle cx="260.36" cy="529.975" r="4.97" fill="#3f3d56" />
  <circle cx="260.36" cy="523.765" r="4.97" fill="#3f3d56" />
  <circle cx="260.36" cy="517.555" r="4.97" fill="#3f3d56" />
  <circle cx="260.36" cy="511.345" r="4.97" fill="#3f3d56" />
  <circle cx="260.36" cy="505.135" r="4.97" fill="#3f3d56" />
  <circle cx="260.36" cy="498.925" r="4.97" fill="#3f3d56" />
  <circle cx="260.36" cy="492.705" r="4.97" fill="#3f3d56" />
  <circle cx="267.82" cy="495.195" r="4.97" fill="#3f3d56" />
  <circle cx="272.79" cy="492.705" r="4.97" fill="#3f3d56" />
  <circle cx="277.76" cy="490.225" r="4.97" fill="#3f3d56" />
  <circle cx="260.36" cy="486.495" r="4.97" fill="#3f3d56" />
  <circle cx="260.36" cy="480.285" r="4.97" fill="#3f3d56" />
  <circle cx="260.36" cy="474.075" r="4.97" fill="#3f3d56" />
  <circle cx="260.36" cy="467.865" r="4.97" fill="#3f3d56" />
  <path
    fill="#3ebd93"
    fill-rule="nonzero"
    d="M281 451.835c-1.24.18-2.48.31-3.72.39 1.153-1.006 2.223-2.103 3.2-3.28-.689-2.089-1.701-4.056-3-5.83-1.232.692-2.594 1.121-4 1.26-1.23.18-2.47.31-3.71.4 1.63-1.33 3.15-3.33 4.75-5-3.88-3.517-8.933-5.466-14.17-5.466-11.575 0-21.1 9.524-21.1 21.1 0 11.575 9.525 21.1 21.1 21.1 11.575 0 21.1-9.525 21.1-21.1v-.024c0-1.217-.107-2.432-.32-3.63l-.13.08zm16.57 24.69c-1.267.779-2.698 1.255-4.18 1.39-1.23.18-2.47.32-3.71.4 1.318-1.183 2.548-2.459 3.68-3.82-1.025-.268-2.079-.403-3.139-.403-6.824 0-12.44 5.616-12.44 12.44 0 6.825 5.616 12.44 12.44 12.44 6.825 0 12.44-5.615 12.44-12.44 0-3.963-1.893-7.696-5.091-10.037v.03z"
  />
  <circle cx="252.91" cy="495.195" r="4.97" fill="#3f3d56" />
  <circle cx="247.94" cy="492.705" r="4.97" fill="#3f3d56" />
  <circle cx="242.97" cy="490.225" r="4.97" fill="#3f3d56" />
  <path
    fill="#3ebd93"
    fill-rule="nonzero"
    d="M223.16 476.525c1.267.779 2.698 1.255 4.18 1.39 1.23.18 2.47.32 3.71.4-1.32-1.18-2.551-2.457-3.68-3.82 1.025-.268 2.079-.403 3.139-.403 6.824 0 12.44 5.616 12.44 12.44 0 6.825-5.616 12.44-12.44 12.44-6.825 0-12.44-5.615-12.44-12.44 0-3.963 1.893-7.696 5.091-10.037v.03z"
  />
  <path
    fill="#9c9ca0"
    fill-rule="nonzero"
    d="M256.79 524.965h12.11c13.715 0 25 11.285 25 25v32.87c0 2.326-1.914 4.24-4.24 4.24H236c-2.326 0-4.24-1.914-4.24-4.24v-32.87c0-13.715 11.285-25 25-25h.03z"
  />
  <path
    fill="#39aa85"
    fill-rule="nonzero"
    d="M281.34 453.195c-.503.537-1.037 1.045-1.6 1.52.57 0 1.13-.09 1.7-.15-.02-.46-.05-.92-.1-1.37zm-9.06-5.94c1.25-.08 2.48-.21 3.72-.39 1.112-.141 2.2-.438 3.23-.88-.506-1-1.088-1.96-1.74-2.87-.622.378-1.296.665-2 .85-.981 1.18-2.054 2.28-3.21 3.29zm-30.55 10.67v-.042c0-11.564 9.516-21.08 21.08-21.08 4.05 0 8.016 1.167 11.42 3.362l.32-.34c-3.862-3.437-8.856-5.337-14.026-5.337-11.575 0-21.1 9.525-21.1 21.1 0 6.128 2.669 11.961 7.306 15.967-3.233-3.804-5.007-8.638-5-13.63zm47.95 22.87c1.24-.08 2.48-.21 3.71-.39 1.483-.138 2.913-.618 4.18-1.4 2.838 2.09 4.657 5.292 5 8.8.049-.435.072-.873.07-1.31.019-3.936-1.84-7.654-5-10-1.267.779-2.698 1.255-4.18 1.39l-1 .13c-.853.997-1.783 1.926-2.78 2.78zm.5-4.24c.415.004.829.034 1.24.09.65-.69 1.29-1.43 1.94-2.15-1.044-.279-2.12-.42-3.2-.42-6.802 0-12.4 5.597-12.4 12.4v.02c0 .42 0 .83.06 1.24.634-6.316 6.012-11.181 12.36-11.18zm-59.13 4.24c-1.24-.08-2.48-.21-3.71-.39-1.483-.138-2.913-.618-4.18-1.4-2.838 2.09-4.657 5.292-5 8.8-.049-.435-.072-.873-.07-1.31-.019-3.936 1.84-7.654 5-10 1.267.779 2.698 1.255 4.18 1.39l1 .13c.848 1.002 1.778 1.932 2.78 2.78zm-.5-4.24c-.418.005-.835.035-1.25.09-.64-.69-1.28-1.43-1.93-2.15 1.044-.279 2.12-.42 3.2-.42 6.802 0 12.4 5.597 12.4 12.4v.02c0 .42 0 .83-.06 1.24-.634-6.316-6.012-11.181-12.36-11.18z"
  />
  <path
    fill="#0452b5"
    fill-rule="nonzero"
    d="M196.85 599.095h-97.7c-2.277 0-4.15-1.874-4.15-4.15V548.703c0-2.276 1.873-4.15 4.15-4.15.616 0 1.224.138 1.78.402 28.07 13.32 58.31 17.89 94 .21.572-.283 1.202-.429 1.84-.429 2.274 0 4.149 1.864 4.16 4.139v46c0 .023.001.047.001.07 0 2.251-1.831 4.112-4.081 4.15z"
  />
  <path
    fill-opacity=".0980392"
    fill-rule="nonzero"
    d="M196.85 599.095h-97.7c-2.277 0-4.15-1.874-4.15-4.15V548.703c0-2.276 1.873-4.15 4.15-4.15.616 0 1.224.138 1.78.402 28.07 13.32 58.31 17.89 94 .21.572-.283 1.202-.429 1.84-.429 2.274 0 4.149 1.864 4.16 4.139v46c0 .023.001.047.001.07 0 2.251-1.831 4.112-4.081 4.15z"
  />
  <ellipse cx="147.32" cy="556.375" fill="#3f3d56" rx="5.78" ry="7.57" />
  <ellipse cx="147.32" cy="547.125" fill="#3f3d56" rx="5.78" ry="7.57" />
  <ellipse cx="147.32" cy="537.865" fill="#3f3d56" rx="5.78" ry="7.57" />
  <ellipse cx="147.32" cy="528.615" fill="#3f3d56" rx="5.78" ry="7.57" />
  <ellipse cx="147.32" cy="519.355" fill="#3f3d56" rx="5.78" ry="7.57" />
  <ellipse cx="147.32" cy="510.095" fill="#3f3d56" rx="5.78" ry="7.57" />
  <ellipse cx="147.32" cy="500.845" fill="#3f3d56" rx="5.78" ry="7.57" />
  <path
    fill="#3ebd93"
    fill-rule="nonzero"
    d="M169 437.505c.785-1.009 1.503-2.068 2.15-3.17l-15.2-2.5 16.44.12c3.204-6.943 3.396-14.911.53-22l-22.05 11.44 20.34-15c-4.946-8.554-14.107-13.839-23.988-13.839-15.202 0-27.71 12.508-27.71 27.71 0 6.211 2.088 12.246 5.928 17.129-1.236 1.562-2.295 3.255-3.16 5.05l19.72 10.36-21-7.1c-2.987 8.857-1.304 18.649 4.47 26-3.841 4.883-5.93 10.918-5.93 17.131 0 15.201 12.509 27.71 27.71 27.71s27.71-12.509 27.71-27.71c0-6.213-2.089-12.248-5.93-17.131 7.879-10.018 7.879-24.242 0-34.26l-.03.06z"
  />
  <path
    fill-opacity=".0980392"
    fill-rule="nonzero"
    d="M119.49 454.635c-.009 6.213 2.081 12.251 5.93 17.13-3.841 4.883-5.93 10.918-5.93 17.131 0 15.201 12.509 27.71 27.71 27.71s27.71-12.509 27.71-27.71c0-6.213-2.089-12.248-5.93-17.131 3.71-4.71-49.49-20.24-49.49-17.13z"
  />
  <path
    fill="#0452b5"
    fill-rule="nonzero"
    d="M196.85 601.545h-97.7c-2.277 0-4.15-1.874-4.15-4.15v-48.692c0-2.276 1.873-4.15 4.15-4.15.616 0 1.224.138 1.78.402 28.07 13.32 50.33 28.85 94 .21 2.59-1.7 6 .62 6 3.71v48.5c.011 2.258-1.822 4.132-4.08 4.17z"
  />
  <path
    fill="#9c9ca1"
    fill-rule="nonzero"
    d="M921.83 587.775l-144.14 19.07-7.21.95-70.47-37.64v-8.81l220.22-24.02 1.6 50.45z"
  />
  <path
    fill="#939498"
    fill-rule="nonzero"
    d="M740.85 574.155L897 555.745l-1.6 28.83-121.63 8.92-32.92-19.34z"
  />
  <path
    fill-opacity=".4"
    fill-rule="nonzero"
    d="M777.69 597.375v9.46l-7.21 1-70.48-37.68v-8.81l67.27 36s8.82.83 10.42.03z"
  />
  <path
    fill="#3f3d56"
    fill-rule="nonzero"
    d="M805.36 447.225L773 597.275c-.145.668-.218 1.349-.218 2.033 0 5.255 4.324 9.58 9.58 9.58.421 0 .841-.028 1.258-.083l204.73-27.1c3.633-.479 6.686-3.003 7.84-6.48l44.17-133.2c.321-.972.484-1.988.484-3.011 0-5.266-4.333-9.6-9.6-9.6-.148 0-.296.004-.444.011l-216.52 10.28c-4.317.204-7.988 3.3-8.92 7.52z"
  />
  <path
    fill="#fff"
    d="M906.737 501.412c.501-4.775 3.4-8.39 6.468-8.068 3.069.323 5.152 4.461 4.65 9.237-.502 4.775-3.4 8.39-6.468 8.068-3.069-.323-5.152-4.461-4.65-9.237z"
  />
</svg>
