<svg xmlns="http://www.w3.org/2000/svg" fill-rule="evenodd" stroke-linejoin="round" stroke-miterlimit="1.41421" clip-rule="evenodd" viewBox="0 0 1587 424">
  <path fill="#1e4079" fill-rule="nonzero" d="M24.898 214.583c0-60.965 31.177-115.07 78.563-147.613 4.718-3.744 9.615-7.269 14.694-10.542-56.946 30.487-95.84 90.055-95.84 158.155 0 98.877 81.978 179.78 182.174 179.78.502 0 .997-.024 1.491-.024-99.693-.589-181.082-81.24-181.082-179.756z"/>
  <path fill="#007cc4" fill-rule="nonzero" d="M201.773 28.846c-99.591 0-181.074 80.408-181.074 178.688 0 .84.054 1.664.062 2.497 1.374-97.127 82.276-176.185 181.012-176.185 98.744 0 179.638 79.058 181.012 176.192.008-.832.063-1.664.063-2.496 0-98.28-81.483-178.696-181.075-178.696z"/>
  <ellipse cx="203.437" cy="401.325" fill="url(#_Radial1)" rx="203.437" ry="22.48"/>
  <g fill-rule="nonzero">
    <path fill="#1b4590" d="M204.159 390.618h-4.764c-98.281 0-178.689-80.407-178.689-178.688-.007-98.288 80.408-178.696 178.689-178.696h4.764c98.281 0 178.689 80.408 178.689 178.688 0 98.281-80.408 178.696-178.689 178.696z"/>
    <path fill="#1a4690" d="M204.434 389.575h-4.749c-97.919 0-178.037-80.118-178.037-178.037 0-97.92 80.118-178.037 178.037-178.037h4.749c97.92 0 178.037 80.117 178.037 178.037 0 97.919-80.117 178.037-178.037 178.037z"/>
    <path fill="#194691" d="M204.701 388.538h-4.733c-97.567 0-177.386-79.827-177.386-177.385 0-97.566 79.827-177.385 177.386-177.385h4.733c97.566 0 177.385 79.827 177.385 177.385 0 97.558-79.819 177.385-177.385 177.385z"/>
    <path fill="#184791" d="M204.976 387.494h-4.718c-97.205 0-176.734-79.528-176.734-176.733 0-97.206 79.529-176.734 176.734-176.734h4.718c97.205 0 176.734 79.528 176.734 176.734 0 97.205-79.529 176.733-176.734 176.733z"/>
    <path fill="#174791" d="M205.242 386.458h-4.693c-96.845 0-176.083-79.238-176.083-176.082S103.704 34.293 200.549 34.293h4.693c96.845 0 176.083 79.239 176.083 176.083s-79.238 176.082-176.083 176.082z"/>
    <path fill="#164892" d="M205.517 385.414h-4.678c-96.483 0-175.431-78.94-175.431-175.431 0-96.483 78.94-175.431 175.431-175.431h4.678c96.483 0 175.431 78.94 175.431 175.431 0 96.491-78.948 175.431-175.431 175.431z"/>
    <path fill="#154892" d="M205.784 384.378h-4.662c-96.13 0-174.78-78.649-174.78-174.779s78.65-174.78 174.78-174.78h4.662c96.13 0 174.78 78.65 174.78 174.78s-78.65 174.779-174.78 174.779z"/>
    <path fill="#144993" d="M206.059 383.342h-4.647c-95.769 0-174.12-78.359-174.12-174.12 0-95.769 78.359-174.12 174.12-174.12h4.647c95.769 0 174.12 78.359 174.12 174.12.008 95.761-78.351 174.12-174.12 174.12z"/>
    <path fill="#134993" d="M206.334 382.298h-4.632c-95.407 0-173.468-78.061-173.468-173.468 0-95.408 78.061-173.469 173.468-173.469h4.632c95.407 0 173.468 78.061 173.468 173.469 0 95.407-78.061 173.468-173.468 173.468z"/>
    <path fill="#124a93" d="M206.6 381.262h-4.607c-95.047 0-172.817-77.77-172.817-172.817 0-95.047 77.77-172.817 172.817-172.817h4.607c95.047 0 172.818 77.77 172.818 172.817 0 95.047-77.763 172.817-172.818 172.817z"/>
    <path fill="#114a94" d="M206.875 380.218h-4.592c-94.693 0-172.165-77.472-172.165-172.165 0-94.694 77.472-172.166 172.165-172.166h4.592c94.694 0 172.166 77.472 172.166 172.166 0 94.693-77.472 172.165-172.166 172.165z"/>
    <path fill="#0f4b94" d="M207.142 379.182h-4.576c-94.333 0-171.514-77.182-171.514-171.514 0-94.333 77.181-171.514 171.514-171.514h4.576c94.332 0 171.514 77.181 171.514 171.514 0 94.332-77.182 171.514-171.514 171.514z"/>
    <path fill="#0e4b95" d="M207.417 378.138h-4.561c-93.971 0-170.862-76.891-170.862-170.863 0-93.971 76.891-170.862 170.862-170.862h4.561c93.971 0 170.862 76.891 170.862 170.862 0 93.98-76.891 170.863-170.862 170.863z"/>
    <path fill="#0c4c95" d="M207.691 377.102h-4.544c-93.618 0-170.212-76.593-170.212-170.211 0-93.618 76.594-170.211 170.212-170.211h4.544c93.619 0 170.212 76.593 170.212 170.211-.008 93.618-76.601 170.211-170.212 170.211z"/>
    <path fill="#0a4c95" d="M207.958 376.066h-4.521c-93.257 0-169.56-76.303-169.56-169.56s76.303-169.56 169.56-169.56h4.521c93.257 0 169.56 76.303 169.56 169.56s-76.303 169.56-169.56 169.56z"/>
    <path fill="#094d96" d="M208.233 375.022h-4.505c-92.896 0-168.909-76.004-168.909-168.908 0-92.896 76.005-168.909 168.909-168.909h4.505c92.896 0 168.908 76.005 168.908 168.909-.008 92.904-76.012 168.908-168.908 168.908z"/>
    <path fill="#074e96" d="M208.5 373.986h-4.49c-92.535 0-168.249-75.714-168.249-168.249S111.475 37.488 204.01 37.488h4.49c92.535 0 168.249 75.714 168.249 168.249.008 92.535-75.706 168.249-168.249 168.249z"/>
    <path fill="#054e97" d="M208.775 372.942h-4.474c-92.182 0-167.598-75.424-167.598-167.597 0-92.182 75.424-167.598 167.598-167.598h4.474c92.181 0 167.597 75.424 167.597 167.598 0 92.181-75.416 167.597-167.597 167.597z"/>
    <path fill="#034f97" d="M209.042 371.906h-4.451c-91.821 0-166.946-75.125-166.946-166.946S112.77 38.014 204.591 38.014h4.451c91.82 0 166.945 75.125 166.945 166.946.008 91.821-75.117 166.946-166.945 166.946z"/>
    <path fill="#014f97" d="M209.316 370.862h-4.435c-91.459 0-166.294-74.835-166.294-166.295 0-91.459 74.835-166.294 166.294-166.294h4.435c91.46 0 166.295 74.835 166.295 166.294 0 91.468-74.835 166.295-166.295 166.295z"/>
    <path fill="#005098" d="M209.591 369.826h-4.419c-91.107 0-165.643-74.537-165.643-165.643 0-91.107 74.536-165.643 165.643-165.643h4.419c91.106 0 165.643 74.536 165.643 165.643 0 91.106-74.545 165.643-165.643 165.643z"/>
    <path fill="#005098" d="M209.858 368.79h-4.404c-90.745 0-164.991-74.246-164.991-164.992 0-90.745 74.246-164.991 164.991-164.991h4.404c90.745 0 164.991 74.246 164.991 164.991 0 90.746-74.246 164.992-164.991 164.992z"/>
    <path fill="#005199" d="M210.133 367.746h-4.388c-90.384 0-164.34-73.956-164.34-164.34s73.956-164.34 164.34-164.34h4.388c90.384 0 164.34 73.956 164.34 164.34-.008 90.392-73.956 164.34-164.34 164.34z"/>
    <path fill="#005199" d="M210.399 366.71h-4.364c-90.023 0-163.688-73.658-163.688-163.689 0-90.023 73.657-163.688 163.688-163.688h4.364c90.024 0 163.689 73.657 163.689 163.688 0 90.031-73.658 163.689-163.689 163.689z"/>
    <path fill="#005299" d="M210.674 365.666h-4.348c-89.67 0-163.029-73.367-163.029-163.029 0-89.67 73.367-163.03 163.029-163.03h4.348c89.67 0 163.029 73.367 163.029 163.03 0 89.669-73.359 163.029-163.029 163.029z"/>
    <path fill="#00529a" d="M210.949 364.63h-4.333c-89.309 0-162.378-73.069-162.378-162.378 0-89.309 73.069-162.378 162.378-162.378h4.333c89.309 0 162.378 73.069 162.378 162.378 0 89.309-73.069 162.378-162.378 162.378z"/>
    <path fill="#00539a" d="M211.216 363.586h-4.317c-88.948 0-161.727-72.779-161.727-161.727 0-88.947 72.779-161.726 161.727-161.726h4.317c88.948 0 161.726 72.779 161.726 161.726 0 88.956-72.778 161.727-161.726 161.727z"/>
    <path fill="#00539b" d="M211.49 362.55h-4.293c-88.595 0-161.075-72.481-161.075-161.075 0-88.595 72.48-161.075 161.075-161.075h4.293c88.595 0 161.075 72.48 161.075 161.075 0 88.587-72.488 161.075-161.075 161.075z"/>
    <path fill="#00549b" d="M211.757 361.513h-4.277c-88.234 0-160.424-72.189-160.424-160.423 0-88.233 72.19-160.423 160.424-160.423h4.277c88.234 0 160.424 72.19 160.424 160.423 0 88.226-72.19 160.423-160.424 160.423z"/>
    <path fill="#00549b" d="M212.032 360.469h-4.262c-87.873 0-159.772-71.899-159.772-159.771 0-87.873 71.899-159.772 159.772-159.772h4.262c87.873 0 159.772 71.899 159.772 159.772 0 87.872-71.899 159.771-159.772 159.771z"/>
    <path fill="#00559c" d="M212.299 359.433h-4.246c-87.512 0-159.121-71.601-159.121-159.12 0-87.511 71.601-159.12 159.121-159.12h4.246c87.511 0 159.12 71.601 159.12 159.12 0 87.512-71.601 159.12-159.12 159.12z"/>
    <path fill="#00559c" d="M212.574 358.389h-4.231c-87.158 0-158.469-71.31-158.469-158.468 0-87.159 71.311-158.469 158.469-158.469h4.231c87.158 0 158.468 71.31 158.468 158.469 0 87.158-71.31 158.468-158.468 158.468z"/>
    <path fill="#00569d" d="M212.848 357.353h-4.207c-86.797 0-157.809-71.012-157.809-157.809S121.844 41.735 208.641 41.735h4.207c86.798 0 157.81 71.012 157.81 157.809 0 86.789-71.012 157.809-157.81 157.809z"/>
    <path fill="#00569d" d="M213.115 356.309h-4.191c-86.436 0-157.158-70.721-157.158-157.158 0-86.436 70.722-157.157 157.158-157.157h4.191c86.436 0 157.158 70.721 157.158 157.157.008 86.437-70.722 157.158-157.158 157.158z"/>
    <path fill="#00579e" d="M213.39 355.273h-4.176c-86.083 0-156.506-70.431-156.506-156.506 0-86.083 70.431-156.507 156.506-156.507h4.176c86.083 0 156.506 70.432 156.506 156.507S299.465 355.273 213.39 355.273z"/>
    <path fill="#00579e" d="M213.657 354.237h-4.16c-85.722 0-155.855-70.133-155.855-155.855S123.775 42.527 209.497 42.527h4.16c85.722 0 155.855 70.133 155.855 155.855 0 85.714-70.133 155.855-155.855 155.855z"/>
    <path fill="#00589e" d="M213.932 353.193h-4.145c-85.361 0-155.203-69.843-155.203-155.203 0-85.361 69.842-155.204 155.203-155.204h4.145c85.36 0 155.203 69.843 155.203 155.204 0 85.36-69.843 155.203-155.203 155.203z"/>
    <path fill="#00589f" d="M214.206 352.157h-4.121c-84.999 0-154.551-69.544-154.551-154.552 0-85 69.544-154.552 154.551-154.552h4.121c85 0 154.552 69.545 154.552 154.552-.008 85-69.552 154.552-154.552 154.552z"/>
    <path fill="#00599f" d="M214.473 351.113h-4.105c-84.646 0-153.9-69.254-153.9-153.9 0-84.647 69.254-153.901 153.9-153.901h4.105c84.647 0 153.901 69.254 153.901 153.901 0 84.646-69.254 153.9-153.901 153.9z"/>
    <path fill="#0059a0" d="M214.748 350.077h-4.09c-84.285 0-153.249-68.964-153.249-153.249S126.373 43.579 210.658 43.579h4.09c84.285 0 153.249 68.964 153.249 153.249-.008 84.285-68.964 153.249-153.249 153.249z"/>
    <path fill="#005aa0" d="M215.015 349.033h-4.074c-83.924 0-152.59-68.665-152.59-152.59 0-83.924 68.666-152.589 152.59-152.589h4.074c83.924 0 152.589 68.665 152.589 152.589.008 83.925-68.657 152.59-152.589 152.59z"/>
    <path fill="#005aa1" d="M215.29 347.997h-4.051c-83.571 0-151.938-68.375-151.938-151.938 0-83.571 68.375-151.938 151.938-151.938h4.051c83.571 0 151.938 68.375 151.938 151.938 0 83.563-68.375 151.938-151.938 151.938z"/>
    <path fill="#005ba1" d="M215.556 346.961h-4.034c-83.21 0-151.287-68.077-151.287-151.287 0-83.21 68.077-151.286 151.287-151.286h4.034c83.21 0 151.287 68.076 151.287 151.286.008 83.202-68.077 151.287-151.287 151.287z"/>
    <path fill="#005ba1" d="M215.831 345.917h-4.019c-82.849 0-150.635-67.786-150.635-150.635 0-82.849 67.786-150.635 150.635-150.635h4.019c82.849 0 150.635 67.786 150.635 150.635 0 82.849-67.786 150.635-150.635 150.635z"/>
    <path fill="#005ba2" d="M216.106 344.881h-4.003c-82.488 0-149.984-67.496-149.984-149.984 0-82.488 67.496-149.984 149.984-149.984h4.003c82.488 0 149.984 67.496 149.984 149.984 0 82.488-67.496 149.984-149.984 149.984z"/>
    <path fill="#005ca2" d="M216.373 343.837h-3.988c-82.134 0-149.332-67.198-149.332-149.332 0-82.135 67.198-149.333 149.332-149.333h3.988c82.134 0 149.332 67.198 149.332 149.333 0 82.134-67.198 149.332-149.332 149.332z"/>
    <path fill="#005ca3" d="M216.647 342.801h-3.963c-81.774 0-148.681-66.907-148.681-148.681 0-81.774 66.907-148.681 148.681-148.681h3.963c81.774 0 148.681 66.907 148.681 148.681 0 81.774-66.907 148.681-148.681 148.681z"/>
    <path fill="#005da3" d="M216.914 341.757h-3.948c-81.412 0-148.029-66.609-148.029-148.029 0-81.413 66.609-148.03 148.029-148.03h3.948c81.413 0 148.03 66.609 148.03 148.03 0 81.42-66.609 148.029-148.03 148.029z"/>
    <path fill="#005da4" d="M217.189 340.721h-3.932c-81.06 0-147.378-66.319-147.378-147.378 0-81.059 66.318-147.378 147.378-147.378h3.932c81.059 0 147.378 66.319 147.378 147.378-.008 81.059-66.326 147.378-147.378 147.378z"/>
    <path fill="#005ea4" d="M217.464 339.677h-3.917c-80.698 0-146.718-66.028-146.718-146.719 0-80.698 66.028-146.718 146.718-146.718h3.917c80.698 0 146.718 66.028 146.718 146.718 0 80.699-66.028 146.719-146.718 146.719z"/>
    <path fill="#005ea4" d="M217.731 338.641h-3.894c-80.337 0-146.066-65.73-146.066-146.067S133.5 46.507 213.837 46.507h3.894c80.337 0 146.067 65.73 146.067 146.067s-65.73 146.067-146.067 146.067z"/>
    <path fill="#005fa5" d="M218.005 337.605h-3.877c-79.984 0-145.423-65.44-145.423-145.424 0-79.976 65.439-145.415 145.415-145.415h3.878c79.976 0 145.415 65.439 145.415 145.415.008 79.984-65.432 145.424-145.408 145.424z"/>
    <path fill="#005fa5" d="M218.272 336.561h-3.862c-79.622 0-144.764-65.141-144.764-144.764S134.788 47.033 214.41 47.033h3.862c79.623 0 144.764 65.141 144.764 144.764s-65.141 144.764-144.764 144.764z"/>
    <path fill="#0060a6" d="M218.547 335.525h-3.846c-79.262 0-144.113-64.851-144.113-144.113S135.439 47.3 214.701 47.3h3.846c79.262 0 144.112 64.85 144.112 144.112s-64.85 144.113-144.112 144.113z"/>
    <path fill="#0060a6" d="M218.814 334.481h-3.831c-78.9 0-143.461-64.561-143.461-143.461 0-78.901 64.561-143.461 143.461-143.461h3.831c78.901 0 143.461 64.56 143.461 143.461 0 78.908-64.553 143.461-143.461 143.461z"/>
    <path fill="#0061a7" d="M219.089 333.444h-3.807c-78.548 0-142.81-64.261-142.81-142.809s64.262-142.809 142.81-142.809h3.807c78.547 0 142.809 64.261 142.809 142.809s-64.262 142.809-142.809 142.809z"/>
    <path fill="#0061a7" d="M219.363 332.4h-3.791c-78.186 0-142.158-63.971-142.158-142.157 0-78.187 63.972-142.158 142.158-142.158h3.791c78.187 0 142.158 63.971 142.158 142.158-.008 78.194-63.979 142.157-142.158 142.157z"/>
    <path fill="#0062a7" d="M219.63 331.364h-3.775c-77.826 0-141.499-63.673-141.499-141.498 0-77.826 63.673-141.499 141.499-141.499h3.775c77.826 0 141.499 63.673 141.499 141.499.008 77.825-63.673 141.498-141.499 141.498z"/>
    <path fill="#0062a8" d="M219.905 330.328h-3.76c-77.464 0-140.847-63.382-140.847-140.847 0-77.464 63.383-140.847 140.847-140.847h3.76c77.464 0 140.847 63.383 140.847 140.847 0 77.465-63.383 140.847-140.847 140.847z"/>
    <path fill="#0062a8" d="M220.172 329.284h-3.744c-77.111 0-140.196-63.092-140.196-140.195 0-77.111 63.092-140.196 140.196-140.196h3.744c77.111 0 140.195 63.092 140.195 140.196.008 77.111-63.084 140.195-140.195 140.195z"/>
    <path fill="#0063a9" d="M220.446 328.248h-3.72c-76.75 0-139.544-62.794-139.544-139.544 0-76.75 62.794-139.544 139.544-139.544h3.72c76.751 0 139.545 62.794 139.545 139.544 0 76.75-62.794 139.544-139.545 139.544z"/>
    <path fill="#0063a9" d="M220.721 327.204h-3.705c-76.389 0-138.892-62.503-138.892-138.892S140.627 49.419 217.016 49.419h3.705c76.389 0 138.893 62.504 138.893 138.893-.008 76.396-62.504 138.892-138.893 138.892z"/>
    <path fill="#0064aa" d="M220.988 326.168h-3.689c-76.036 0-138.241-62.205-138.241-138.241 0-76.036 62.205-138.241 138.241-138.241h3.689c76.036 0 138.241 62.205 138.241 138.241 0 76.036-62.205 138.241-138.241 138.241z"/>
    <path fill="#0064aa" d="M221.263 325.124h-3.674C141.915 325.124 80 263.209 80 187.535c0-75.667 61.915-137.582 137.589-137.582h3.674c75.675 0 137.59 61.915 137.59 137.589-.008 75.675-61.923 137.582-137.59 137.582z"/>
    <path fill="#0065ab" d="M221.53 324.088h-3.65c-75.314 0-136.938-61.624-136.938-136.938S142.566 50.212 217.88 50.212h3.65c75.313 0 136.938 61.624 136.938 136.938 0 75.321-61.625 136.938-136.938 136.938z"/>
    <path fill="#0065ab" d="M221.804 323.052h-3.634c-74.952 0-136.279-61.326-136.279-136.279 0-74.952 61.327-136.279 136.279-136.279h3.634c74.953 0 136.279 61.327 136.279 136.279 0 74.953-61.326 136.279-136.279 136.279z"/>
    <path fill="#0066ab" d="M222.071 322.008h-3.618c-74.6 0-135.628-61.036-135.628-135.627 0-74.6 61.036-135.628 135.628-135.628h3.618c74.6 0 135.628 61.036 135.628 135.628.008 74.591-61.028 135.627-135.628 135.627z"/>
    <path fill="#0066ac" d="M222.346 320.972h-3.603c-74.238 0-134.976-60.738-134.976-134.976S144.505 51.02 218.743 51.02h3.603c74.238 0 134.976 60.738 134.976 134.976 0 74.231-60.738 134.976-134.976 134.976z"/>
    <path fill="#0067ac" d="M222.621 319.928h-3.587c-73.878 0-134.325-60.447-134.325-134.324 0-73.878 60.447-134.325 134.325-134.325h3.587c73.877 0 134.324 60.447 134.324 134.325 0 73.877-60.447 134.324-134.324 134.324z"/>
    <path fill="#0067ad" d="M222.888 318.892h-3.564c-73.516 0-133.673-60.149-133.673-133.673 0-73.516 60.149-133.673 133.673-133.673h3.564c73.516 0 133.673 60.149 133.673 133.673 0 73.516-60.149 133.673-133.673 133.673z"/>
    <path fill="#0068ad" d="M223.162 317.848h-3.548c-73.162 0-133.021-59.858-133.021-133.021 0-73.163 59.859-133.022 133.021-133.022h3.548c73.163 0 133.022 59.859 133.022 133.022 0 73.163-59.859 133.021-133.022 133.021z"/>
    <path fill="#0068ae" d="M223.429 316.812h-3.532c-72.802 0-132.37-59.568-132.37-132.37s59.568-132.37 132.37-132.37h3.532c72.802 0 132.37 59.568 132.37 132.37s-59.568 132.37-132.37 132.37z"/>
    <path fill="#0069ae" d="M223.704 315.776h-3.517c-72.44 0-131.718-59.27-131.718-131.719 0-72.441 59.27-131.718 131.718-131.718h3.517c72.441 0 131.718 59.27 131.718 131.718 0 72.441-59.277 131.719-131.718 131.719z"/>
    <path fill="#0069af" d="M223.971 314.732h-3.493c-72.088 0-131.059-58.98-131.059-131.059 0-72.088 58.979-131.059 131.059-131.059h3.493c72.087 0 131.059 58.979 131.059 131.059.008 72.079-58.972 131.059-131.059 131.059z"/>
    <path fill="#0069af" d="M224.246 313.696h-3.478c-71.726 0-130.407-58.681-130.407-130.408 0-71.726 58.681-130.408 130.407-130.408h3.478c71.726 0 130.407 58.682 130.407 130.408 0 71.719-58.681 130.408-130.407 130.408z"/>
    <path fill="#006ab0" d="M224.52 312.652h-3.461c-71.366 0-129.756-58.391-129.756-129.756 0-71.366 58.39-129.757 129.756-129.757h3.461c71.366 0 129.756 58.391 129.756 129.757 0 71.365-58.39 129.756-129.756 129.756z"/>
    <path fill="#006ab0" d="M224.787 311.616h-3.446c-71.004 0-129.104-58.101-129.104-129.105 0-71.004 58.1-129.105 129.104-129.105h3.446c71.005 0 129.105 58.101 129.105 129.105 0 71.004-58.093 129.105-129.105 129.105z"/>
    <path fill="#006bb1" d="M225.062 310.572h-3.43c-70.651 0-128.453-57.802-128.453-128.453 0-70.652 57.802-128.454 128.453-128.454h3.43c70.651 0 128.453 57.802 128.453 128.454 0 70.651-57.802 128.453-128.453 128.453z"/>
    <path fill="#006bb1" d="M225.329 309.536h-3.407c-70.29 0-127.802-57.512-127.802-127.802S151.632 53.932 221.922 53.932h3.407c70.29 0 127.801 57.512 127.801 127.802s-57.511 127.802-127.801 127.802z"/>
    <path fill="#006cb2" d="M225.603 308.499h-3.39c-69.929 0-127.151-57.213-127.151-127.15 0-69.929 57.214-127.15 127.151-127.15h3.39c69.93 0 127.151 57.213 127.151 127.15 0 69.929-57.221 127.15-127.151 127.15z"/>
    <path fill="#006cb2" d="M225.878 307.456h-3.375c-69.576 0-126.499-56.923-126.499-126.499S152.927 54.458 222.503 54.458h3.375c69.576 0 126.499 56.923 126.499 126.499-.008 69.576-56.931 126.499-126.499 126.499z"/>
    <path fill="#006db3" d="M226.145 306.419h-3.359c-69.215 0-125.848-56.632-125.848-125.847S153.571 54.725 222.786 54.725h3.359c69.215 0 125.847 56.632 125.847 125.847S295.36 306.419 226.145 306.419z"/>
    <path fill="#006db3" d="M226.42 305.375h-3.344c-68.854 0-125.188-56.334-125.188-125.187C97.888 111.334 154.222 55 223.076 55h3.344c68.853 0 125.188 56.334 125.188 125.188 0 68.853-56.335 125.187-125.188 125.187z"/>
    <path fill="#006eb4" d="M226.687 304.339h-3.321c-68.492 0-124.536-56.043-124.536-124.536S154.874 55.267 223.366 55.267h3.321c68.492 0 124.536 56.043 124.536 124.536.008 68.493-56.036 124.536-124.536 124.536z"/>
    <path fill="#006eb4" d="M226.961 303.295h-3.304c-68.14 0-123.885-55.745-123.885-123.884 0-68.14 55.745-123.885 123.885-123.885h3.304c68.14 0 123.885 55.745 123.885 123.885 0 68.139-55.745 123.884-123.885 123.884z"/>
    <path fill="#006fb4" d="M227.228 302.259h-3.289c-67.778 0-123.233-55.455-123.233-123.233S156.161 55.793 223.939 55.793h3.289c67.779 0 123.234 55.455 123.234 123.233.007 67.778-55.455 123.233-123.234 123.233z"/>
    <path fill="#006fb5" d="M227.503 301.223h-3.273c-67.417 0-122.582-55.164-122.582-122.582 0-67.417 55.165-122.582 122.582-122.582h3.273c67.417 0 122.582 55.165 122.582 122.582 0 67.418-55.165 122.582-122.582 122.582z"/>
    <path fill="#006fb5" d="M227.778 300.179h-3.25c-67.064 0-121.93-54.866-121.93-121.93 0-67.064 54.866-121.931 121.93-121.931h3.25c67.064 0 121.93 54.867 121.93 121.931-.008 67.064-54.874 121.93-121.93 121.93z"/>
    <path fill="#0070b6" d="M228.045 299.143h-3.234c-66.703 0-121.279-54.576-121.279-121.279S158.108 56.585 224.811 56.585h3.234c66.703 0 121.279 54.576 121.279 121.279s-54.576 121.279-121.279 121.279z"/>
    <path fill="#0070b6" d="M228.319 298.099h-3.218c-66.342 0-120.627-54.277-120.627-120.627 0-66.342 54.277-120.628 120.627-120.628h3.218c66.342 0 120.628 54.278 120.628 120.628-.008 66.35-54.286 120.627-120.628 120.627z"/>
    <path fill="#0071b7" d="M228.586 297.063h-3.202c-65.981 0-119.968-53.987-119.968-119.968S159.403 57.127 225.384 57.127h3.202c65.981 0 119.968 53.987 119.968 119.968.008 65.981-53.979 119.968-119.968 119.968z"/>
    <path fill="#0071b7" d="M228.861 296.019h-3.187c-65.628 0-119.317-53.697-119.317-119.316 0-65.628 53.697-119.317 119.317-119.317h3.187c65.628 0 119.317 53.697 119.317 119.317 0 65.627-53.689 119.316-119.317 119.316z"/>
    <path fill="#0072b8" d="M229.136 294.983h-3.164c-65.266 0-118.665-53.398-118.665-118.665S160.706 57.653 225.972 57.653h3.164c65.266 0 118.665 53.398 118.665 118.665s-53.399 118.665-118.665 118.665z"/>
    <path fill="#0072b9" d="M229.402 293.947h-3.147c-64.906 0-118.014-53.108-118.014-118.014 0-64.905 53.108-118.013 118.014-118.013h3.147c64.906 0 118.014 53.108 118.014 118.013 0 64.906-53.108 118.014-118.014 118.014z"/>
    <path fill="#0073b9" d="M229.677 292.903h-3.132c-64.552 0-117.362-52.81-117.362-117.362 0-64.552 52.81-117.362 117.362-117.362h3.132c64.553 0 117.362 52.81 117.362 117.362 0 64.552-52.817 117.362-117.362 117.362z"/>
    <path fill="#0073ba" d="M229.944 291.867h-3.116c-64.191 0-116.711-52.519-116.711-116.711 0-64.191 52.52-116.71 116.711-116.71h3.116c64.191 0 116.711 52.519 116.711 116.71 0 64.192-52.52 116.711-116.711 116.711z"/>
    <path fill="#0074ba" d="M230.219 290.823h-3.093c-63.83 0-116.059-52.229-116.059-116.059S163.296 58.705 227.126 58.705h3.093c63.83 0 116.059 52.229 116.059 116.059 0 63.838-52.229 116.059-116.059 116.059z"/>
    <path fill="#0074bb" d="M230.486 289.787h-3.077c-63.469 0-115.408-51.931-115.408-115.408 0-63.469 51.931-115.408 115.408-115.408h3.077c63.469 0 115.407 51.931 115.407 115.408 0 63.477-51.93 115.408-115.407 115.408z"/>
    <path fill="#0075bb" d="M230.76 288.743h-3.061c-63.116 0-114.748-51.64-114.748-114.748 0-63.116 51.64-114.749 114.748-114.749h3.061c63.116 0 114.749 51.641 114.749 114.749 0 63.115-51.633 114.748-114.749 114.748z"/>
    <path fill="#0075bc" d="M231.035 287.707h-3.045c-62.755 0-114.097-51.342-114.097-114.097 0-62.755 51.342-114.097 114.097-114.097h3.045c62.755 0 114.097 51.342 114.097 114.097 0 62.755-51.342 114.097-114.097 114.097z"/>
    <path fill="#0076bc" d="M231.302 286.671h-3.03c-62.394 0-113.445-51.052-113.445-113.446 0-62.393 51.051-113.445 113.445-113.445h3.03c62.394 0 113.445 51.052 113.445 113.445 0 62.394-51.051 113.446-113.445 113.446z"/>
    <path fill="#0076bd" d="M231.577 285.627h-3.007c-62.04 0-112.793-50.761-112.793-112.794 0-62.041 50.761-112.794 112.793-112.794h3.007c62.04 0 112.794 50.761 112.794 112.794 0 62.04-50.762 112.794-112.794 112.794z"/>
    <path fill="#0077be" d="M231.844 284.591h-2.991c-61.679 0-112.142-50.463-112.142-112.143 0-61.679 50.463-112.142 112.142-112.142h2.991c61.679 0 112.142 50.463 112.142 112.142 0 61.68-50.463 112.143-112.142 112.143z"/>
    <path fill="#0077be" d="M232.118 283.547h-2.975c-61.318 0-111.49-50.173-111.49-111.491 0-61.319 50.172-111.491 111.49-111.491h2.975c61.319 0 111.491 50.172 111.491 111.491 0 61.326-50.172 111.491-111.491 111.491z"/>
    <path fill="#0078bf" d="M232.393 282.511h-2.959c-60.957 0-110.84-49.875-110.84-110.84 0-60.957 49.875-110.839 110.84-110.839h2.959c60.957 0 110.839 49.874 110.839 110.839-.007 60.958-49.882 110.84-110.839 110.84z"/>
    <path fill="#0078bf" d="M232.66 281.467h-2.944c-60.604 0-110.187-49.584-110.187-110.188S169.112 61.091 229.716 61.091h2.944c60.604 0 110.188 49.584 110.188 110.188S293.264 281.467 232.66 281.467z"/>
    <path fill="#0079c0" d="M232.935 280.431h-2.92c-60.243 0-109.529-49.294-109.529-109.529 0-60.243 49.294-109.529 109.529-109.529h2.92c60.243 0 109.528 49.294 109.528 109.529s-49.285 109.529-109.528 109.529z"/>
    <path fill="#0079c1" d="M233.202 279.394h-2.905c-59.882 0-108.877-48.995-108.877-108.877S170.415 61.64 230.297 61.64h2.905c59.882 0 108.877 48.995 108.877 108.877.007 59.875-48.988 108.877-108.877 108.877z"/>
    <path fill="#007ac1" d="M233.476 278.35h-2.888c-59.529 0-108.226-48.704-108.226-108.225 0-59.529 48.705-108.226 108.226-108.226h2.888c59.529 0 108.226 48.705 108.226 108.226S292.997 278.35 233.476 278.35z"/>
    <path fill="#007ac2" d="M233.743 277.314h-2.873c-59.167 0-107.574-48.406-107.574-107.574 0-59.167 48.407-107.574 107.574-107.574h2.873c59.168 0 107.574 48.407 107.574 107.574.008 59.16-48.406 107.574-107.574 107.574z"/>
    <path fill="#007bc2" d="M234.018 276.27h-2.849c-58.807 0-106.923-48.116-106.923-106.922 0-58.807 48.116-106.923 106.923-106.923h2.849c58.807 0 106.922 48.116 106.922 106.923 0 58.806-48.115 106.922-106.922 106.922z"/>
    <path fill="#007bc3" d="M234.293 275.234h-2.834c-58.446 0-106.271-47.817-106.271-106.271 0-58.445 47.825-106.271 106.271-106.271h2.834c58.445 0 106.271 47.818 106.271 106.271-.008 58.446-47.826 106.271-106.271 106.271z"/>
    <path fill="#007cc4" d="M234.559 274.19h-2.817c-58.093 0-105.62-47.527-105.62-105.619 0-58.093 47.527-105.62 105.62-105.62h2.817c58.093 0 105.62 47.527 105.62 105.62 0 58.092-47.527 105.619-105.62 105.619z"/>
    <path fill="#007cc4" d="M234.834 273.154h-2.802c-57.731 0-104.968-47.237-104.968-104.968S174.301 63.218 232.032 63.218h2.802c57.731 0 104.968 47.237 104.968 104.968-.007 57.731-47.237 104.968-104.968 104.968z"/>
  </g>
  <path fill="url(#_Linear2)" fill-rule="nonzero" d="M212.456 372.848c-99.591 0-181.075-80.408-181.075-178.689 0-24.403 5.032-47.7 14.113-68.94-15.376 26.24-24.238 56.601-24.238 88.932 0 98.281 81.483 178.689 181.074 178.689 74.867 0 139.482-45.44 166.962-109.749-31.373 53.517-90 89.757-156.836 89.757z"/>
  <path fill="#fff" fill-opacity=".15" fill-rule="nonzero" d="M187.621 346.451c-17.166 1.405-34.804-1.657-50.981-8.156-16.248-6.452-31.036-16.381-43.485-28.579-6.162-6.162-11.79-12.857-16.68-20.039-4.811-7.229-9.066-14.843-12.292-22.873-6.585-15.965-9.686-33.375-8.257-50.321 1.413 16.915 5.895 33.233 13.1 48.218 3.666 7.456 7.826 14.67 12.732 21.373 4.827 6.751 10.227 13.101 16.185 18.901 11.79 11.719 25.651 21.397 40.808 28.54 15.189 7.127 31.727 11.546 48.87 12.936z"/>
  <g fill="#fff" fill-rule="nonzero" opacity=".05">
    <path d="M350.375 224.52c-4.568 40.236-25.989 75.071-56.271 98.328 0 0 2.763 1.68 4.662 5.903 1.657 3.689.628 7.833.628 7.833 35.346-25.549 59.992-65.07 65.055-111.059l-14.074-1.005zM357.581 219.222c-3.399-.102-6.397 2.198-7.206 5.283l14.082 1.02c-.353-3.438-3.258-6.193-6.876-6.303z"/>
  </g>
  <path fill="#08255e" fill-rule="nonzero" d="M202.111 395.32c99.583 0 181.059-80.4 181.059-178.673 0-.839-.055-1.664-.063-2.496-1.374 97.127-82.261 176.177-180.989 176.177-98.735 0-179.622-79.05-180.988-176.177-.008.832-.063 1.664-.063 2.496-.015 98.273 81.46 178.673 181.044 178.673z"/>
  <path fill="#fff" fill-opacity=".15" fill-rule="nonzero" d="M204.269 187.095c75.377 0 136.491 80.235 136.491 8.359 0-71.875-61.107-139.693-136.491-139.693-75.384 0-136.491 67.818-136.491 139.693 0 71.876 61.115-8.359 136.491-8.359z"/>
  <path fill="url(#_Linear3)" fill-rule="nonzero" d="M29.521 220.627c0-98.281 81.483-178.688 181.075-178.688 45.682 0 87.527 16.954 119.473 44.756C297.212 54.05 251.773 33.76 201.757 33.76c-99.591 0-181.074 80.407-181.074 178.688 0 53.202 23.909 101.13 61.601 133.94-32.567-32.355-52.763-76.837-52.763-125.761z"/>
  <g fill="#002159" fill-rule="nonzero">
    <path d="M525.922 128.807h-36.011l-5.419 17.387h-27.076l36.442-117.348h28.117l36.442 117.348h-27.076l-5.419-17.387zm-29.247-21.729h22.483l-11.251-36.335-11.232 36.335zM604.495 28.846c27.758 0 41.646 11.591 41.646 34.774h-26.036c0-8.685-5.203-13.045-15.61-13.045s-15.611 4.342-15.611 13.045c0 8.684 5.204 13.044 15.611 13.044 27.758 0 41.646 11.591 41.646 34.774 0 23.182-13.888 34.773-41.646 34.773-27.758 0-41.646-11.591-41.646-34.773h26.035c0 8.684 5.204 13.044 15.611 13.044s15.61-4.342 15.61-13.044c0-8.685-5.203-13.045-15.61-13.045-27.758 0-41.646-11.591-41.646-34.773 0-23.183 13.888-34.774 41.646-34.774zM701.692 28.846c27.758 0 41.646 11.591 41.646 34.774 0 23.182-13.888 34.773-41.646 34.773h-15.61v47.801h-26.036V28.846h41.646zm15.611 34.774c0-8.685-5.204-13.045-15.611-13.045h-15.61v26.071h15.61c10.407.018 15.611-4.342 15.611-13.026zM757.244 28.846h26.035v117.347h-26.035zM838.831 28.846c27.758 0 41.646 11.591 41.646 34.774 0 12.632-4.127 21.818-12.381 27.56l17.602 55.031h-26.035l-15.306-47.979c-1.812.107-3.642.179-5.526.179H823.22v47.8h-26.035V28.864h41.646v-.018zm15.61 34.774c0-8.685-5.203-13.045-15.61-13.045H823.22v26.071h15.611c10.407.018 15.61-4.342 15.61-13.026zM899.586 28.846h26.035v117.347h-26.035zM965.563 79.445v66.749h-26.036V28.846h28.117l34.361 66.748V28.846h26.017v117.348h-28.117l-34.342-66.749zM1083.57 28.846c27.758 0 41.646 11.591 41.646 34.774h-26.036c0-8.685-5.203-13.045-15.61-13.045s-15.611 4.342-15.611 13.045v47.8c0 8.684 5.204 13.044 15.611 13.044s15.61-4.342 15.61-13.044V98.375h-15.61V76.646h41.646v34.774c0 23.182-13.888 34.774-41.646 34.774-27.758 0-41.646-11.592-41.646-34.774v-47.8c0-23.183 13.888-34.774 41.646-34.774zM1160.89 94.033v52.161h-26.035V28.846h31.239l26.035 83.794 26.036-83.794h31.238v117.348h-26.035V94.033l-20.814 52.161h-20.814l-20.85-52.161zM1263.29 28.846h26.035v117.347h-26.035zM1329.27 79.445v66.749h-26.035V28.846h28.116l34.361 66.748V28.846h26.018v117.348h-28.117l-34.343-66.749zM1447.28 28.846c27.758 0 41.646 11.591 41.646 34.774v47.8c0 23.182-13.888 34.774-41.646 34.774h-41.646V28.846h41.646zm15.611 34.774c0-8.685-5.204-13.045-15.611-13.045h-15.61v73.889h15.61c10.407 0 15.611-4.342 15.611-13.044v-47.8zM1544.48 28.846c27.758 0 41.646 11.591 41.646 34.774h-26.036c0-8.685-5.203-13.045-15.61-13.045s-15.611 4.342-15.611 13.045c0 8.684 5.204 13.044 15.611 13.044 27.758 0 41.646 11.591 41.646 34.774 0 23.182-13.888 34.773-41.646 34.773-27.758 0-41.646-11.591-41.646-34.773h26.035c0 8.684 5.204 13.044 15.611 13.044s15.61-4.342 15.61-13.044c0-8.685-5.203-13.045-15.61-13.045-27.758 0-41.646-11.591-41.646-34.773 0-23.183 13.888-34.774 41.646-34.774z"/>
  </g>
  <g fill="#002159" fill-rule="nonzero">
    <path d="M497.657 224.887c3.425 3.588 5.149 9.017 5.149 16.264v33.344c0 1.095-.326 1.98-.955 2.633-.629.652-1.491 1.002-2.61 1.002-1.118 0-1.98-.326-2.61-1.002-.629-.653-.955-1.538-.955-2.633v-7.014c-1.654 3.519-4.078 6.222-7.223 8.132-3.169 1.911-6.804 2.866-10.905 2.866-3.705 0-7.107-.745-10.183-2.213-3.075-1.468-5.499-3.542-7.293-6.198-1.771-2.657-2.656-5.569-2.656-8.785 0-4.217 1.095-7.48 3.308-9.833 2.214-2.33 5.872-4.008 11.022-5.033 5.126-1.002 12.28-1.515 21.437-1.515h2.493v-4.334c0-5.149-1.072-8.924-3.192-11.301-2.144-2.376-5.499-3.565-10.066-3.565-5.849 0-11.418 1.515-16.707 4.567-.233.163-.839.559-1.841 1.235-.979.676-1.841 1.002-2.54 1.002-.792 0-1.444-.303-1.957-.885-.513-.583-.769-1.305-.769-2.167 0-1.725 1.375-3.402 4.148-5.033 2.772-1.562 5.848-2.773 9.25-3.635 3.402-.862 6.758-1.282 10.066-1.282 6.967 0 12.163 1.794 15.589 5.383zm-6.874 42.268c3.285-3.425 4.916-7.806 4.916-13.119v-3.868h-2.26c-7.573 0-13.398.303-17.429.932-4.031.63-6.874 1.701-8.528 3.216-1.655 1.515-2.493 3.728-2.493 6.618 0 3.285 1.258 5.988 3.798 8.132 2.516 2.143 5.638 3.215 9.367 3.215 5.149.023 9.367-1.701 12.629-5.126zM530.651 274.868c-4.031-2.424-7.153-5.849-9.367-10.3-2.214-4.45-3.309-9.553-3.309-15.332 0-5.848 1.119-11.021 3.379-15.518s5.406-7.969 9.484-10.486c4.077-2.493 8.737-3.751 14.05-3.751 3.006 0 5.919.396 8.761 1.165 2.843.769 5.36 1.957 7.573 3.518 1.422 1.026 2.424 1.934 3.029 2.75.583.815.886 1.701.886 2.633 0 .862-.233 1.561-.723 2.097-.466.536-1.071.816-1.77.816-.793 0-2.051-.653-3.798-1.981-2.051-1.491-4.101-2.656-6.152-3.519-2.05-.862-4.544-1.281-7.456-1.281-6.152 0-10.975 2.097-14.447 6.268-3.472 4.171-5.22 9.926-5.22 17.266 0 7.247 1.725 12.886 5.15 16.917 3.425 4.031 8.225 6.035 14.4 6.035 3.006 0 5.499-.42 7.526-1.282 2.004-.862 4.218-2.027 6.571-3.518.723-.466 1.398-.886 2.074-1.282.676-.396 1.212-.582 1.608-.582.792 0 1.421.279 1.887.815.466.536.723 1.212.723 1.981 0 .932-.28 1.747-.839 2.446-.559.699-1.631 1.608-3.192 2.703-2.144 1.561-4.731 2.796-7.76 3.682-3.052.885-6.058 1.351-9.064 1.351-5.313.024-9.973-1.188-14.004-3.611zM616.259 224.887c3.426 3.588 5.15 9.017 5.15 16.264v33.344c0 1.095-.326 1.98-.955 2.633-.629.652-1.492 1.002-2.61 1.002-1.118 0-1.981-.326-2.61-1.002-.629-.653-.955-1.538-.955-2.633v-7.014c-1.654 3.519-4.078 6.222-7.223 8.132-3.169 1.911-6.804 2.866-10.905 2.866-3.705 0-7.107-.745-10.183-2.213-3.076-1.468-5.499-3.542-7.293-6.198-1.771-2.657-2.657-5.569-2.657-8.785 0-4.217 1.096-7.48 3.309-9.833 2.214-2.33 5.872-4.008 11.022-5.033 5.126-1.002 12.279-1.515 21.437-1.515h2.493v-4.334c0-5.149-1.072-8.924-3.192-11.301-2.144-2.376-5.499-3.565-10.066-3.565-5.849 0-11.418 1.515-16.707 4.567-.233.163-.839.559-1.841 1.235-.979.676-1.841 1.002-2.54 1.002-.792 0-1.445-.303-1.957-.885-.513-.583-.769-1.305-.769-2.167 0-1.725 1.375-3.402 4.147-5.033 2.773-1.562 5.849-2.773 9.251-3.635 3.402-.862 6.757-1.282 10.066-1.282 6.967 0 12.163 1.794 15.588 5.383zm-6.873 42.268c3.285-3.425 4.916-7.806 4.916-13.119v-3.868h-2.26c-7.573 0-13.398.303-17.429.932-4.031.63-6.874 1.701-8.528 3.216-1.655 1.515-2.494 3.728-2.494 6.618 0 3.285 1.259 5.988 3.798 8.132 2.517 2.143 5.639 3.215 9.367 3.215 5.15.023 9.367-1.701 12.63-5.126zM688.19 195.574c.676.676 1.002 1.538 1.002 2.633v76.311c0 1.095-.326 1.981-1.002 2.633-.676.653-1.561 1.002-2.656 1.002-1.119 0-1.981-.326-2.61-1.002-.629-.652-.955-1.538-.955-2.633v-7.713c-1.748 3.822-4.311 6.734-7.713 8.715-3.402 1.981-7.433 2.983-12.093 2.983-5.057 0-9.53-1.235-13.398-3.682-3.868-2.447-6.874-5.918-8.995-10.416-2.143-4.473-3.192-9.693-3.192-15.635 0-5.848 1.072-10.975 3.192-15.402 2.144-4.404 5.127-7.829 8.995-10.229 3.868-2.423 8.341-3.635 13.398-3.635 4.66 0 8.691 1.002 12.093 2.983 3.402 1.98 5.965 4.893 7.713 8.714v-33.017c0-1.096.326-1.958.955-2.633.629-.653 1.491-1.002 2.61-1.002 1.095.023 1.98.372 2.656 1.025zm-11.138 70.579c3.286-4.008 4.917-9.74 4.917-17.15 0-7.409-1.608-13.141-4.847-17.196-3.239-4.054-7.852-6.081-13.864-6.081-6.082 0-10.789 2.003-14.097 6.035-3.309 4.031-4.987 9.693-4.987 17.033 0 7.409 1.655 13.165 4.987 17.266 3.308 4.101 7.969 6.151 13.98 6.151 5.989-.023 10.626-2.05 13.911-6.058zM754.062 266.386c.513.583.769 1.258.769 2.05 0 1.725-1.351 3.402-4.031 5.034-5.685 3.355-11.697 5.033-18.012 5.033-8.761 0-15.681-2.61-20.738-7.853-5.056-5.219-7.572-12.396-7.572-21.53 0-5.849 1.118-11.022 3.378-15.519 2.26-4.474 5.406-7.969 9.484-10.415 4.077-2.47 8.738-3.682 14.05-3.682 7.433 0 13.282 2.354 17.593 7.084 4.31 4.73 6.454 11.207 6.454 19.479 0 1.398-.326 2.447-.955 3.099-.629.676-1.655 1.002-3.076 1.002h-39.449c.233 7.177 2.144 12.63 5.686 16.381 3.565 3.752 8.575 5.616 15.052 5.616 3.402 0 6.245-.443 8.528-1.352 2.284-.885 4.731-2.097 7.34-3.565 1.748-1.165 2.96-1.747 3.682-1.747s1.305.302 1.817.885zm-35.953-35.884c-3.309 3.426-5.29 8.226-5.919 14.4h36.606c-.163-6.244-1.747-11.068-4.73-14.446-3.006-3.402-7.223-5.08-12.676-5.08-5.545-.023-9.973 1.701-13.281 5.126zM851.648 241.524v33.111c0 1.095-.327 1.98-.956 2.633-.629.652-1.491 1.002-2.61 1.002-1.118 0-2.003-.327-2.656-1.002-.676-.653-1.002-1.538-1.002-2.633V241.99c0-5.686-1.025-9.81-3.076-12.35-2.05-2.54-5.336-3.798-9.833-3.798-5.126 0-9.227 1.724-12.256 5.15-3.052 3.425-4.567 8.038-4.567 13.817v29.849c0 1.095-.326 1.98-.955 2.633-.63.652-1.492 1.002-2.61 1.002-1.119 0-2.004-.326-2.656-1.002-.676-.653-1.002-1.538-1.002-2.633v-32.645c0-5.685-1.026-9.81-3.076-12.35-2.051-2.539-5.336-3.798-9.833-3.798-5.126 0-9.227 1.725-12.257 5.15-3.052 3.425-4.567 8.039-4.567 13.817v29.849c0 1.095-.326 1.981-.955 2.633-.629.653-1.491 1.002-2.61 1.002-1.118 0-2.004-.326-2.656-1.002-.676-.652-1.002-1.538-1.002-2.633v-51.262c0-1.165.326-2.074 1.002-2.703.676-.629 1.561-.932 2.656-.932 1.095 0 1.958.303 2.54.932.583.629.886 1.491.886 2.563v7.014c1.654-3.519 4.054-6.175 7.176-8.016 3.123-1.841 6.734-2.75 10.835-2.75 9.088 0 14.96 3.752 17.663 11.232 1.654-3.519 4.194-6.268 7.572-8.249 3.402-1.981 7.317-2.983 11.721-2.983 12.722-.023 19.084 7.317 19.084 21.997zM870.172 205.104c-.979-.932-1.491-2.144-1.491-3.635 0-1.561.489-2.819 1.491-3.751.979-.932 2.26-1.399 3.845-1.399 1.584 0 2.866.467 3.844 1.399.979.932 1.492 2.19 1.492 3.751 0 1.491-.49 2.703-1.492 3.635-.978.932-2.26 1.398-3.844 1.398-1.562.023-2.843-.443-3.845-1.398zm1.188 72.234c-.675-.63-1.002-1.515-1.002-2.703v-51.263c0-1.165.327-2.074 1.002-2.703.676-.629 1.561-.932 2.657-.932 1.095 0 1.98.303 2.609.932s.956 1.515.956 2.703v51.263c0 1.165-.327 2.073-.956 2.703-.629.629-1.491.932-2.609.932-1.096 0-1.981-.327-2.657-.932zM905.66 274.868c-4.032-2.424-7.154-5.849-9.368-10.3-2.213-4.45-3.308-9.553-3.308-15.332 0-5.848 1.118-11.021 3.378-15.518 2.261-4.497 5.406-7.969 9.484-10.486 4.078-2.493 8.738-3.751 14.051-3.751 3.005 0 5.918.396 8.761 1.165 2.843.769 5.359 1.957 7.573 3.518 1.421 1.026 2.423 1.934 3.029 2.75.582.815.885 1.701.885 2.633 0 .862-.233 1.561-.722 2.097-.466.536-1.072.816-1.771.816-.792 0-2.05-.653-3.798-1.981-2.051-1.491-4.101-2.656-6.152-3.519-2.05-.862-4.543-1.281-7.456-1.281-6.151 0-10.975 2.097-14.447 6.268-3.472 4.171-5.219 9.926-5.219 17.266 0 7.247 1.724 12.886 5.149 16.917 3.426 4.031 8.226 6.035 14.401 6.035 3.005 0 5.499-.42 7.526-1.282 2.004-.862 4.217-2.027 6.571-3.518.722-.466 1.398-.886 2.074-1.282.675-.396 1.211-.582 1.607-.582.793 0 1.422.279 1.888.815.466.536.722 1.212.722 1.981 0 .932-.28 1.747-.839 2.446-.559.699-1.631 1.608-3.192 2.703-2.144 1.561-4.73 2.796-7.759 3.682-3.053.885-6.059 1.351-9.064 1.351-5.313.024-9.973-1.188-14.004-3.611zM982.623 205.104c-.978-.932-1.491-2.144-1.491-3.635 0-1.561.489-2.819 1.491-3.751.979-.932 2.26-1.399 3.845-1.399 1.584 0 2.866.467 3.845 1.399.978.932 1.491 2.19 1.491 3.751 0 1.491-.489 2.703-1.491 3.635-.979.932-2.261 1.398-3.845 1.398-1.585.023-2.866-.443-3.845-1.398zm1.189 72.234c-.676-.63-1.002-1.515-1.002-2.703v-51.263c0-1.165.326-2.074 1.002-2.703.675-.629 1.561-.932 2.656-.932 1.095 0 1.98.303 2.61.932.629.629.955 1.515.955 2.703v51.263c0 1.165-.326 2.073-.955 2.703-.63.629-1.492.932-2.61.932-1.095 0-1.981-.327-2.656-.932zM1056.74 241.524v33.111c0 1.095-.326 1.98-.955 2.633-.629.652-1.492 1.002-2.61 1.002-1.118 0-2.004-.327-2.656-1.002-.676-.653-1.002-1.538-1.002-2.633V241.99c0-5.616-1.142-9.717-3.426-12.28-2.283-2.563-5.918-3.868-10.904-3.868-5.686 0-10.253 1.724-13.678 5.15-3.425 3.425-5.15 8.038-5.15 13.817v29.849c0 1.095-.326 1.98-.955 2.633-.629.652-1.491 1.002-2.61 1.002-1.118 0-2.004-.326-2.656-1.002-.653-.676-1.002-1.538-1.002-2.633v-51.263c0-1.095.326-1.98 1.002-2.633.676-.652 1.561-1.002 2.656-1.002 1.025 0 1.864.303 2.493.932.63.63.956 1.492.956 2.564v7.386c1.817-3.588 4.45-6.338 7.876-8.249 3.425-1.91 7.409-2.866 11.906-2.866 13.795-.023 20.715 7.317 20.715 21.997zM1103.88 275.334c0 .932-.349 1.677-1.072 2.237-.699.535-1.864.768-3.425.699l-3.309-.233c-6.011-.397-10.439-2.214-13.328-5.43-2.889-3.238-4.334-8.178-4.334-14.796v-31.13h-8.994c-.955 0-1.701-.256-2.26-.769-.56-.513-.839-1.188-.839-2.051 0-.862.279-1.561.839-2.097.559-.536 1.305-.815 2.26-.815h8.994v-14.517c0-1.165.326-2.074.955-2.703.63-.629 1.492-.932 2.61-.932 1.095 0 2.004.303 2.657.932.675.629 1.001 1.515 1.001 2.703v14.517h14.331c1.025 0 1.817.279 2.376.815.56.536.839 1.259.839 2.097 0 .863-.279 1.538-.839 2.051-.559.513-1.351.769-2.376.769h-14.331v31.48c0 4.846.956 8.295 2.843 10.345 1.888 2.074 4.847 3.263 8.878 3.565l3.192.233c2.237.233 3.332 1.235 3.332 3.03zM1160.22 266.386c.513.583.769 1.258.769 2.05 0 1.725-1.351 3.402-4.031 5.034-5.685 3.355-11.697 5.033-18.012 5.033-8.761 0-15.681-2.61-20.738-7.853-5.056-5.219-7.572-12.396-7.572-21.53 0-5.849 1.118-11.022 3.378-15.519 2.26-4.474 5.406-7.969 9.484-10.415 4.078-2.47 8.738-3.682 14.05-3.682 7.433 0 13.282 2.354 17.593 7.084 4.31 4.73 6.454 11.207 6.454 19.479 0 1.398-.326 2.447-.955 3.099-.629.676-1.655 1.002-3.076 1.002h-39.449c.233 7.177 2.144 12.63 5.686 16.381 3.565 3.752 8.575 5.616 15.052 5.616 3.402 0 6.245-.443 8.528-1.352 2.284-.885 4.731-2.097 7.34-3.565 1.748-1.165 2.96-1.747 3.682-1.747.699 0 1.305.302 1.817.885zm-35.953-35.884c-3.309 3.426-5.29 8.226-5.919 14.4h36.606c-.163-6.244-1.747-11.068-4.73-14.446-3.006-3.402-7.223-5.08-12.676-5.08-5.545-.023-9.972 1.701-13.281 5.126zM1206.62 220.32c.629.466.955 1.258.955 2.33 0 1.957-1.188 3.052-3.565 3.285l-3.565.35c-5.615.536-9.786 2.54-12.513 5.965-2.726 3.425-4.077 7.456-4.077 12.047v30.314c0 1.165-.326 2.074-.956 2.703-.629.629-1.491.932-2.609.932-1.119 0-2.004-.303-2.657-.932-.652-.629-1.002-1.514-1.002-2.703v-51.262c0-1.165.327-2.074 1.002-2.703.676-.629 1.562-.932 2.657-.932 1.025 0 1.864.303 2.493.932.629.629.955 1.491.955 2.563v7.596c3.239-6.711 9.251-10.369 18.012-10.998l1.654-.116c1.515-.024 2.587.163 3.216.629zM1265.62 219.737c.863 0 1.655.303 2.377.932.722.629 1.072 1.375 1.072 2.214 0 .536-.117 1.048-.35 1.514l-23.464 50.913c-.396.862-.978 1.515-1.724 1.981-.746.466-1.561.699-2.423.699-.956 0-1.795-.233-2.54-.699-.746-.466-1.328-1.142-1.724-1.981l-23.581-50.913c-.233-.466-.35-.932-.35-1.398 0-.932.42-1.724 1.235-2.4.839-.652 1.725-1.002 2.657-1.002 1.491 0 2.516.699 3.075 2.097l21.321 47.278 21.32-47.161c.653-1.375 1.678-2.074 3.099-2.074zM1325.99 266.386c.512.583.769 1.258.769 2.05 0 1.725-1.352 3.402-4.031 5.034-5.686 3.355-11.698 5.033-18.012 5.033-8.761 0-15.682-2.61-20.738-7.853-5.057-5.219-7.573-12.396-7.573-21.53 0-5.849 1.118-11.022 3.379-15.519 2.26-4.474 5.405-7.969 9.483-10.415 4.078-2.47 8.738-3.682 14.051-3.682 7.433 0 13.281 2.354 17.592 7.084 4.311 4.73 6.454 11.207 6.454 19.479 0 1.398-.326 2.447-.955 3.099-.629.676-1.654 1.002-3.076 1.002h-39.448c.233 7.177 2.143 12.63 5.685 16.381 3.565 3.752 8.575 5.616 15.053 5.616 3.401 0 6.244-.443 8.528-1.352 2.283-.885 4.73-2.097 7.34-3.565 1.747-1.165 2.959-1.747 3.681-1.747.699 0 1.305.302 1.818.885zm-35.954-35.884c-3.309 3.426-5.289 8.226-5.918 14.4h36.606c-.163-6.244-1.748-11.068-4.731-14.446-3.005-3.402-7.223-5.08-12.675-5.08-5.546-.023-9.973 1.701-13.282 5.126zM1390.04 241.524v33.111c0 1.095-.326 1.98-.955 2.633-.629.652-1.491 1.002-2.61 1.002-1.118 0-2.003-.327-2.656-1.002-.676-.653-1.002-1.538-1.002-2.633V241.99c0-5.616-1.142-9.717-3.425-12.28-2.284-2.563-5.919-3.868-10.905-3.868-5.686 0-10.253 1.724-13.678 5.15-3.425 3.425-5.149 8.038-5.149 13.817v29.849c0 1.095-.327 1.98-.956 2.633-.629.652-1.491 1.002-2.609 1.002-1.119 0-2.004-.326-2.657-1.002-.652-.676-1.002-1.538-1.002-2.633v-51.263c0-1.095.326-1.98 1.002-2.633.676-.652 1.561-1.002 2.657-1.002 1.025 0 1.864.303 2.493.932.629.63.955 1.492.955 2.564v7.386c1.818-3.588 4.451-6.338 7.876-8.249 3.425-1.91 7.41-2.866 11.907-2.866 13.794-.023 20.714 7.317 20.714 21.997zM1437.2 275.334c0 .932-.35 1.677-1.072 2.237-.699.535-1.864.768-3.425.699l-3.309-.233c-6.012-.397-10.439-2.214-13.328-5.43-2.889-3.238-4.334-8.178-4.334-14.796v-31.13h-8.994c-.956 0-1.701-.256-2.261-.769-.559-.513-.838-1.188-.838-2.051 0-.862.279-1.561.838-2.097.56-.536 1.305-.815 2.261-.815h8.994v-14.517c0-1.165.326-2.074.955-2.703s1.491-.932 2.61-.932c1.095 0 2.004.303 2.656.932.676.629 1.002 1.515 1.002 2.703v14.517h14.33c1.026 0 1.818.279 2.377.815.559.536.839 1.259.839 2.097 0 .863-.28 1.538-.839 2.051-.559.513-1.351.769-2.377.769h-14.33v31.48c0 4.846.956 8.295 2.843 10.345 1.887 2.074 4.847 3.263 8.878 3.565l3.192.233c2.214.233 3.332 1.235 3.332 3.03zM1447.43 205.104c-.978-.932-1.491-2.144-1.491-3.635 0-1.561.489-2.819 1.491-3.751.979-.932 2.26-1.399 3.845-1.399 1.584 0 2.866.467 3.845 1.399.978.932 1.491 2.19 1.491 3.751 0 1.491-.49 2.703-1.491 3.635-.979.932-2.261 1.398-3.845 1.398-1.561.023-2.843-.443-3.845-1.398zm1.189 72.234c-.676-.63-1.002-1.515-1.002-2.703v-51.263c0-1.165.326-2.074 1.002-2.703.675-.629 1.561-.932 2.656-.932 1.095 0 1.98.303 2.61.932.629.629.955 1.515.955 2.703v51.263c0 1.165-.326 2.073-.955 2.703-.63.629-1.492.932-2.61.932-1.095 0-1.981-.327-2.656-.932zM1482.88 274.868c-3.984-2.424-7.083-5.849-9.297-10.3-2.214-4.45-3.309-9.623-3.309-15.565 0-5.941 1.095-11.114 3.309-15.565 2.214-4.45 5.313-7.876 9.297-10.299 3.985-2.423 8.622-3.635 13.911-3.635 5.219 0 9.833 1.212 13.864 3.635 4.031 2.423 7.13 5.849 9.297 10.299 2.167 4.451 3.262 9.647 3.262 15.565 0 5.919-1.095 11.115-3.262 15.565-2.167 4.451-5.266 7.876-9.297 10.3-4.031 2.423-8.645 3.635-13.864 3.635-5.289 0-9.926-1.212-13.911-3.635zm27.892-8.668c3.308-3.985 4.986-9.717 4.986-17.197 0-7.34-1.678-13.048-5.033-17.149-3.355-4.101-7.992-6.152-13.934-6.152-6.012 0-10.672 2.051-13.981 6.152-3.308 4.101-4.986 9.809-4.986 17.149 0 7.48 1.608 13.235 4.846 17.197 3.239 3.984 7.9 5.965 13.981 5.965 6.082 0 10.812-1.981 14.121-5.965zM1586.12 241.524v33.111c0 1.095-.327 1.98-.956 2.633-.629.652-1.491 1.002-2.61 1.002-1.118 0-2.003-.327-2.656-1.002-.676-.653-1.002-1.538-1.002-2.633V241.99c0-5.616-1.142-9.717-3.425-12.28-2.284-2.563-5.919-3.868-10.905-3.868-5.686 0-10.253 1.724-13.678 5.15-3.425 3.425-5.149 8.038-5.149 13.817v29.849c0 1.095-.327 1.98-.956 2.633-.629.652-1.491 1.002-2.609 1.002-1.119 0-2.004-.326-2.657-1.002-.652-.676-1.002-1.538-1.002-2.633v-51.263c0-1.095.327-1.98 1.002-2.633.676-.652 1.561-1.002 2.657-1.002 1.025 0 1.864.303 2.493.932.629.63.955 1.492.955 2.564v7.386c1.818-3.588 4.451-6.338 7.876-8.249 3.425-1.91 7.41-2.866 11.907-2.866 13.817-.023 20.715 7.317 20.715 21.997z"/>
  </g>
  <ellipse cx="317.95" cy="123.908" fill="url(#_Radial4)" rx="125.565" ry="123.908"/>
  <g fill="#869193" fill-rule="nonzero">
    <path d="M532.215 362.054v24.848c0 .83-.237 1.481-.711 1.985-.474.503-1.126.74-1.955.74-.829 0-1.51-.237-1.984-.74-.504-.504-.77-1.155-.77-1.985V362.38c0-4.265-.77-7.375-2.31-9.27-1.54-1.896-3.999-2.844-7.375-2.844-3.85 0-6.93 1.304-9.211 3.851-2.28 2.576-3.435 6.041-3.435 10.365v22.391c0 .829-.237 1.48-.711 1.984-.474.503-1.125.74-1.955.74-.829 0-1.51-.237-2.014-.74-.503-.504-.74-1.155-.74-1.984V362.35c0-4.265-.77-7.374-2.31-9.27-1.54-1.895-3.998-2.843-7.375-2.843-3.85 0-6.93 1.303-9.21 3.85-2.281 2.577-3.436 6.042-3.436 10.366v22.39c0 .829-.237 1.481-.711 1.984-.474.504-1.125.741-1.954.741-.83 0-1.511-.237-2.014-.741-.504-.503-.741-1.155-.741-1.984v-38.472c0-.888.237-1.54.741-2.014.503-.474 1.184-.711 2.014-.711.829 0 1.48.237 1.925.711.444.474.681 1.126.681 1.925v5.272c1.244-2.636 3.05-4.65 5.39-6.012 2.34-1.363 5.064-2.073 8.145-2.073 6.811 0 11.224 2.813 13.238 8.44 1.244-2.636 3.14-4.709 5.687-6.19 2.547-1.48 5.479-2.25 8.796-2.25 9.536.059 14.305 5.568 14.305 16.585zM557.418 387.08c-2.991-1.807-5.331-4.383-6.989-7.73-1.659-3.347-2.488-7.226-2.488-11.669 0-4.442.829-8.352 2.488-11.699 1.658-3.346 3.998-5.923 6.989-7.729 2.992-1.807 6.486-2.725 10.455-2.725 3.909 0 7.375.918 10.395 2.725 3.021 1.806 5.361 4.383 6.99 7.729 1.629 3.347 2.458 7.227 2.458 11.699 0 4.472-.829 8.352-2.458 11.669-1.629 3.347-3.969 5.923-6.99 7.73-3.02 1.807-6.486 2.725-10.395 2.725-3.969 0-7.463-.889-10.455-2.725zm20.939-6.486c2.488-2.991 3.732-7.286 3.732-12.913 0-5.509-1.274-9.803-3.791-12.883-2.517-3.08-6.012-4.62-10.455-4.62-4.501 0-7.996 1.54-10.484 4.62-2.488 3.08-3.732 7.374-3.732 12.883 0 5.627 1.215 9.922 3.643 12.913 2.429 2.991 5.924 4.472 10.485 4.472 4.59 0 8.115-1.481 10.602-4.472zM624.885 387.435c0 .711-.267 1.244-.8 1.659-.533.415-1.392.592-2.576.533l-2.488-.178c-4.502-.296-7.848-1.658-10.01-4.087-2.162-2.428-3.258-6.13-3.258-11.106v-23.368H599c-.711 0-1.273-.177-1.688-.562-.415-.385-.622-.889-.622-1.54 0-.652.207-1.185.622-1.57.415-.415.977-.622 1.688-.622h6.753v-10.899c0-.888.237-1.54.71-2.014.474-.474 1.126-.711 1.955-.711.829 0 1.511.237 2.014.711.504.474.77 1.126.77 2.014v10.899h10.751c.77 0 1.362.207 1.777.622.415.415.622.948.622 1.57 0 .622-.207 1.155-.622 1.54-.415.385-1.007.562-1.777.562h-10.751v23.635c0 3.642.711 6.219 2.133 7.759 1.421 1.54 3.642 2.458 6.663 2.666l2.399.177c1.659.208 2.488.978 2.488 2.31zM637.028 334.747c-.741-.71-1.126-1.599-1.126-2.724 0-1.155.356-2.103 1.126-2.814.74-.711 1.718-1.066 2.902-1.066 1.185 0 2.162.355 2.903 1.066.74.711 1.125 1.629 1.125 2.814 0 1.125-.355 2.014-1.125 2.724-.741.711-1.718 1.067-2.903 1.067-1.184 0-2.162-.385-2.902-1.067zm.888 54.199c-.503-.474-.74-1.155-.74-2.014V348.46c0-.889.237-1.54.74-2.014.504-.474 1.185-.711 2.014-.711.83 0 1.481.237 1.955.711s.711 1.125.711 2.014v38.472c0 .888-.237 1.54-.711 2.014-.474.474-1.125.711-1.955.711-.829 0-1.51-.267-2.014-.711zM695.313 345.706c.652 0 1.244.236 1.777.71.533.474.8 1.037.8 1.659 0 .414-.089.799-.267 1.155l-17.621 38.205c-.297.652-.741 1.126-1.304 1.481-.562.356-1.184.533-1.836.533-.711 0-1.362-.177-1.925-.533-.563-.355-1.007-.859-1.303-1.481l-17.711-38.205c-.177-.356-.266-.711-.266-1.066 0-.711.296-1.303.947-1.807.622-.503 1.274-.74 1.985-.74 1.125 0 1.895.533 2.31 1.569l16.022 35.481 15.993-35.392c.563-1.036 1.333-1.569 2.399-1.569zM738.939 349.585c2.576 2.695 3.879 6.753 3.879 12.202v25.026c0 .83-.236 1.481-.71 1.985-.474.503-1.126.74-1.955.74-.829 0-1.481-.237-1.955-.74-.474-.504-.711-1.155-.711-1.985v-5.271c-1.243 2.636-3.05 4.679-5.419 6.101-2.37 1.451-5.094 2.162-8.175 2.162-2.784 0-5.331-.563-7.641-1.659-2.31-1.125-4.146-2.665-5.479-4.65-1.332-1.984-2.014-4.176-2.014-6.575 0-3.169.83-5.627 2.488-7.374 1.659-1.747 4.413-3.021 8.263-3.791 3.85-.77 9.211-1.155 16.082-1.155h1.866v-3.258c0-3.85-.8-6.693-2.399-8.47-1.599-1.777-4.117-2.666-7.552-2.666-4.384 0-8.56 1.126-12.528 3.436-.178.118-.622.414-1.363.918-.74.503-1.392.74-1.925.74-.592 0-1.095-.207-1.48-.651-.385-.445-.593-.978-.593-1.629 0-1.303 1.037-2.547 3.11-3.791 2.073-1.185 4.383-2.073 6.93-2.725 2.547-.651 5.065-.977 7.553-.977 5.242 0 9.151 1.362 11.728 4.057zm-5.154 31.72c2.459-2.577 3.702-5.864 3.702-9.833v-2.902h-1.688c-5.686 0-10.04.236-13.09.71-3.021.474-5.154 1.274-6.397 2.429-1.244 1.155-1.866 2.784-1.866 4.976 0 2.458.947 4.501 2.843 6.101 1.895 1.599 4.235 2.428 7.019 2.428 3.85-.059 7.019-1.333 9.477-3.909zM782.653 387.435c0 .711-.267 1.244-.8 1.659-.533.415-1.392.592-2.576.533l-2.488-.178c-4.502-.296-7.849-1.658-10.011-4.087-2.162-2.428-3.258-6.13-3.258-11.106v-23.368h-6.752c-.711 0-1.274-.177-1.688-.562-.415-.385-.622-.889-.622-1.54 0-.652.207-1.185.622-1.57.414-.415.977-.622 1.688-.622h6.752v-10.899c0-.888.237-1.54.711-2.014.474-.474 1.126-.711 1.955-.711.829 0 1.51.237 2.014.711.503.474.77 1.126.77 2.014v10.899h10.751c.77 0 1.362.207 1.777.622.414.415.622.948.622 1.57 0 .622-.208 1.155-.622 1.54-.415.385-1.007.562-1.777.562H768.97v23.635c0 3.642.711 6.219 2.132 7.759 1.422 1.54 3.643 2.458 6.664 2.666l2.399.177c1.659.208 2.488.978 2.488 2.31zM829.388 380.712c.385.445.592.948.592 1.54 0 1.274-1.007 2.547-3.021 3.791-4.264 2.518-8.766 3.791-13.505 3.791-6.575 0-11.758-1.954-15.549-5.893-3.791-3.939-5.686-9.3-5.686-16.171 0-4.383.859-8.263 2.547-11.639 1.688-3.377 4.058-5.983 7.108-7.819 3.051-1.836 6.575-2.755 10.544-2.755 5.567 0 9.98 1.777 13.209 5.302 3.228 3.554 4.857 8.411 4.857 14.63 0 1.067-.237 1.837-.711 2.34-.474.504-1.244.741-2.31.741h-29.617c.178 5.39 1.599 9.477 4.265 12.29 2.665 2.814 6.427 4.206 11.284 4.206 2.547 0 4.679-.326 6.397-1.007 1.718-.681 3.554-1.57 5.509-2.665 1.303-.889 2.221-1.333 2.754-1.333.474 0 .948.207 1.333.651zm-26.981-26.921c-2.488 2.577-3.968 6.19-4.442 10.81h27.484c-.119-4.679-1.303-8.293-3.554-10.84-2.251-2.547-5.42-3.82-9.507-3.82-4.176 0-7.493 1.273-9.981 3.85zM845.914 388.442c-.8-.799-1.214-1.806-1.214-3.021 0-1.214.385-2.25 1.214-3.02.829-.771 1.807-1.185 2.991-1.185 1.126 0 2.103.385 2.903 1.185.799.799 1.214 1.806 1.214 3.02 0 1.215-.415 2.251-1.214 3.021-.8.8-1.777 1.185-2.903 1.185-1.184 0-2.191-.385-2.991-1.185zM931.476 380.712c.385.445.593.948.593 1.54 0 1.274-1.007 2.547-3.021 3.791-4.265 2.518-8.767 3.791-13.505 3.791-6.575 0-11.758-1.954-15.549-5.893-3.791-3.939-5.686-9.3-5.686-16.171 0-4.383.858-8.263 2.547-11.639 1.688-3.377 4.057-5.983 7.108-7.819 3.05-1.836 6.574-2.755 10.543-2.755 5.568 0 9.981 1.777 13.209 5.302 3.228 3.554 4.857 8.411 4.857 14.63 0 1.067-.237 1.837-.711 2.34-.473.504-1.243.741-2.31.741h-29.616c.177 5.39 1.599 9.477 4.265 12.29 2.665 2.814 6.426 4.206 11.283 4.206 2.547 0 4.68-.326 6.398-1.007 1.717-.681 3.554-1.57 5.508-2.665 1.303-.889 2.222-1.333 2.755-1.333.474 0 .947.207 1.332.651zm-26.98-26.921c-2.488 2.577-3.969 6.19-4.443 10.81h27.484c-.118-4.679-1.303-8.293-3.554-10.84-2.25-2.547-5.419-3.82-9.507-3.82-4.175 0-7.493 1.273-9.98 3.85zM984.224 327.58c.503.504.74 1.155.74 1.984v57.279c0 .829-.237 1.481-.74 1.984-.504.504-1.185.741-2.014.741-.83 0-1.481-.237-1.955-.741-.474-.503-.711-1.155-.711-1.984v-5.805c-1.303 2.873-3.228 5.065-5.775 6.545-2.547 1.481-5.568 2.251-9.063 2.251-3.791 0-7.137-.918-10.04-2.754-2.902-1.836-5.153-4.443-6.752-7.819-1.6-3.376-2.399-7.286-2.399-11.728 0-4.383.799-8.233 2.399-11.551 1.599-3.317 3.85-5.864 6.752-7.7 2.903-1.806 6.249-2.725 10.04-2.725 3.495 0 6.516.741 9.063 2.251 2.547 1.481 4.472 3.673 5.775 6.546v-24.76c0-.829.237-1.481.711-1.984.474-.504 1.125-.741 1.955-.741.829 0 1.481.208 2.014.711zm-8.382 52.955c2.458-3.021 3.702-7.316 3.702-12.854 0-5.538-1.214-9.862-3.643-12.913-2.428-3.05-5.893-4.561-10.395-4.561-4.561 0-8.085 1.511-10.573 4.532-2.488 3.02-3.732 7.285-3.732 12.794 0 5.568 1.244 9.892 3.732 12.972 2.488 3.08 5.982 4.62 10.484 4.62s7.967-1.569 10.425-4.59zM1037.83 346.476c.503.503.74 1.155.74 1.984v38.472c0 .829-.237 1.481-.74 1.984-.504.504-1.185.741-2.014.741-.77 0-1.392-.237-1.866-.741-.474-.503-.711-1.155-.711-1.984v-5.361c-1.362 2.695-3.317 4.739-5.834 6.161-2.518 1.421-5.391 2.102-8.589 2.102-5.094 0-8.944-1.392-11.521-4.176-2.577-2.784-3.88-6.9-3.88-12.35V348.46c0-.829.237-1.481.77-1.984.504-.504 1.155-.741 2.014-.741.829 0 1.481.237 1.955.741.474.503.711 1.155.711 1.984v24.522c0 4.147.859 7.227 2.547 9.182 1.688 1.954 4.353 2.932 7.967 2.932 4.146 0 7.493-1.303 10.01-3.91 2.517-2.606 3.791-6.071 3.791-10.395v-22.302c0-.829.237-1.48.711-1.984.474-.503 1.125-.74 1.954-.74.83 0 1.481.207 1.985.711zM1064.04 387.08c-3.02-1.807-5.36-4.383-7.019-7.73-1.658-3.347-2.487-7.167-2.487-11.521 0-4.383.858-8.263 2.547-11.639 1.688-3.376 4.057-5.983 7.108-7.849 3.05-1.865 6.574-2.813 10.543-2.813 2.251 0 4.443.296 6.575.888 2.132.593 4.028 1.452 5.686 2.636 1.067.77 1.837 1.451 2.281 2.073.444.622.681 1.274.681 1.985 0 .651-.178 1.184-.533 1.569-.355.415-.8.622-1.333.622-.592 0-1.54-.503-2.843-1.481-1.54-1.125-3.08-1.984-4.62-2.635-1.54-.652-3.406-.978-5.598-.978-4.62 0-8.233 1.57-10.839 4.709-2.607 3.14-3.91 7.464-3.91 12.943 0 5.449 1.274 9.684 3.88 12.705 2.577 3.021 6.19 4.532 10.81 4.532 2.251 0 4.146-.326 5.657-.978 1.51-.651 3.169-1.51 4.946-2.636.533-.355 1.066-.681 1.569-.977.504-.296.919-.444 1.215-.444.592 0 1.066.207 1.421.622.356.414.533.918.533 1.481 0 .71-.207 1.332-.622 1.836-.414.533-1.214 1.214-2.398 2.014-1.6 1.184-3.554 2.103-5.835 2.754-2.28.681-4.561 1.007-6.812 1.007-4.087.03-7.582-.859-10.603-2.695zM1132.72 349.585c2.577 2.695 3.88 6.753 3.88 12.202v25.026c0 .83-.237 1.481-.711 1.985-.473.503-1.125.74-1.954.74-.83 0-1.481-.237-1.955-.74-.474-.504-.711-1.155-.711-1.985v-5.271c-1.244 2.636-3.05 4.679-5.42 6.101-2.369 1.451-5.094 2.162-8.174 2.162-2.784 0-5.331-.563-7.641-1.659-2.31-1.125-4.146-2.665-5.479-4.65-1.333-1.984-2.014-4.176-2.014-6.575 0-3.169.829-5.627 2.488-7.374 1.658-1.747 4.413-3.021 8.263-3.791 3.85-.77 9.211-1.155 16.082-1.155h1.866v-3.258c0-3.85-.8-6.693-2.399-8.47-1.6-1.777-4.117-2.666-7.553-2.666-4.383 0-8.559 1.126-12.527 3.436-.178.118-.622.414-1.363.918-.74.503-1.392.74-1.925.74-.592 0-1.096-.207-1.481-.651-.385-.445-.592-.978-.592-1.629 0-1.303 1.037-2.547 3.11-3.791 2.073-1.185 4.383-2.073 6.93-2.725 2.547-.651 5.064-.977 7.552-.977 5.242 0 9.152 1.362 11.728 4.057zm-5.153 31.72c2.458-2.577 3.702-5.864 3.702-9.833v-2.902h-1.688c-5.686 0-10.04.236-13.09.71-3.021.474-5.154 1.274-6.398 2.429-1.244 1.155-1.866 2.784-1.866 4.976 0 2.458.948 4.501 2.844 6.101 1.895 1.599 4.235 2.428 7.019 2.428 3.85-.059 7.019-1.333 9.477-3.909zM1176.44 387.435c0 .711-.267 1.244-.8 1.659-.533.415-1.392.592-2.577.533l-2.487-.178c-4.502-.296-7.849-1.658-10.011-4.087-2.162-2.428-3.258-6.13-3.258-11.106v-23.368h-6.752c-.711 0-1.274-.177-1.688-.562-.415-.385-.622-.889-.622-1.54 0-.652.207-1.185.622-1.57.414-.415.977-.622 1.688-.622h6.752v-10.899c0-.888.237-1.54.711-2.014.474-.474 1.125-.711 1.955-.711.829 0 1.51.237 2.014.711.503.474.77 1.126.77 2.014v10.899h10.751c.77 0 1.362.207 1.777.622.414.415.622.948.622 1.57 0 .622-.208 1.155-.622 1.54-.415.385-1.007.562-1.777.562h-10.751v23.635c0 3.642.711 6.219 2.132 7.759 1.422 1.54 3.643 2.458 6.664 2.666l2.399.177c1.658.208 2.488.978 2.488 2.31zM1223.17 380.712c.385.445.592.948.592 1.54 0 1.274-1.007 2.547-3.021 3.791-4.265 2.518-8.766 3.791-13.505 3.791-6.575 0-11.758-1.954-15.549-5.893-3.791-3.939-5.686-9.3-5.686-16.171 0-4.383.859-8.263 2.547-11.639 1.688-3.377 4.057-5.983 7.108-7.819 3.05-1.836 6.575-2.755 10.543-2.755 5.568 0 9.981 1.777 13.209 5.302 3.229 3.554 4.857 8.411 4.857 14.63 0 1.067-.236 1.837-.71 2.34-.474.504-1.244.741-2.31.741h-29.617c.178 5.39 1.599 9.477 4.265 12.29 2.665 2.814 6.427 4.206 11.284 4.206 2.547 0 4.679-.326 6.397-1.007 1.718-.681 3.554-1.57 5.509-2.665 1.303-.889 2.221-1.333 2.754-1.333.474 0 .948.207 1.333.651zm-26.981-26.921c-2.488 2.577-3.969 6.19-4.443 10.81h27.485c-.119-4.679-1.303-8.293-3.554-10.84-2.251-2.547-5.42-3.82-9.507-3.82-4.176 0-7.493 1.273-9.981 3.85zM1239.7 388.442c-.8-.799-1.215-1.806-1.215-3.021 0-1.214.385-2.25 1.215-3.02.829-.771 1.806-1.185 2.991-1.185 1.125 0 2.103.385 2.902 1.185.8.799 1.215 1.806 1.215 3.02 0 1.215-.415 2.251-1.215 3.021-.799.8-1.777 1.185-2.902 1.185-1.185 0-2.162-.385-2.991-1.185zM1325.26 380.712c.385.445.593.948.593 1.54 0 1.274-1.007 2.547-3.021 3.791-4.265 2.518-8.767 3.791-13.506 3.791-6.574 0-11.757-1.954-15.548-5.893-3.791-3.939-5.687-9.3-5.687-16.171 0-4.383.859-8.263 2.547-11.639 1.688-3.377 4.058-5.983 7.108-7.819 3.051-1.836 6.575-2.755 10.544-2.755 5.568 0 9.981 1.777 13.209 5.302 3.228 3.554 4.857 8.411 4.857 14.63 0 1.067-.237 1.837-.711 2.34-.474.504-1.244.741-2.31.741h-29.617c.178 5.39 1.6 9.477 4.265 12.29 2.666 2.814 6.427 4.206 11.284 4.206 2.547 0 4.68-.326 6.397-1.007 1.718-.681 3.554-1.57 5.509-2.665 1.303-.889 2.221-1.333 2.754-1.333.504 0 .948.207 1.333.651zm-26.981-26.921c-2.487 2.577-3.968 6.19-4.442 10.81h27.484c-.118-4.679-1.303-8.293-3.554-10.84-2.251-2.547-5.42-3.82-9.507-3.82-4.176 0-7.493 1.273-9.981 3.85zM1342.79 388.946c-.503-.474-.74-1.155-.74-2.014v-57.368c0-.888.237-1.54.74-2.013.504-.474 1.185-.711 2.014-.711.77 0 1.422.237 1.925.711.504.473.77 1.155.77 2.013v57.368c0 .888-.266 1.54-.77 2.014-.503.474-1.155.711-1.925.711-.859-.03-1.51-.267-2.014-.711zM1400.66 380.712c.385.445.592.948.592 1.54 0 1.274-1.006 2.547-3.02 3.791-4.265 2.518-8.767 3.791-13.506 3.791-6.574 0-11.757-1.954-15.548-5.893-3.791-3.939-5.687-9.3-5.687-16.171 0-4.383.859-8.263 2.547-11.639 1.688-3.377 4.058-5.983 7.108-7.819 3.051-1.836 6.575-2.755 10.544-2.755 5.568 0 9.981 1.777 13.209 5.302 3.228 3.554 4.857 8.411 4.857 14.63 0 1.067-.237 1.837-.711 2.34-.474.504-1.244.741-2.31.741h-29.617c.178 5.39 1.6 9.477 4.265 12.29 2.666 2.814 6.427 4.206 11.284 4.206 2.547 0 4.68-.326 6.397-1.007 1.718-.681 3.554-1.57 5.509-2.665 1.303-.889 2.221-1.333 2.754-1.333.504 0 .948.207 1.333.651zm-26.981-26.921c-2.487 2.577-3.968 6.19-4.442 10.81h27.484c-.118-4.679-1.303-8.293-3.554-10.84-2.251-2.547-5.42-3.82-9.507-3.82-4.176 0-7.493 1.273-9.981 3.85zM1450.95 345.706c.652 0 1.244.236 1.777.71.533.474.8 1.037.8 1.659 0 .414-.089.799-.267 1.155l-17.622 38.205c-.296.652-.74 1.126-1.303 1.481-.562.356-1.184.533-1.836.533-.711 0-1.362-.177-1.925-.533-.563-.355-1.007-.859-1.303-1.481l-17.711-38.205c-.178-.356-.266-.711-.266-1.066 0-.711.296-1.303.947-1.807.622-.503 1.274-.74 1.985-.74 1.125 0 1.895.533 2.31 1.569l16.022 35.481 15.993-35.392c.563-1.036 1.333-1.569 2.399-1.569zM1494.58 349.585c2.577 2.695 3.88 6.753 3.88 12.202v25.026c0 .83-.237 1.481-.711 1.985-.473.503-1.125.74-1.954.74s-1.481-.237-1.955-.74c-.474-.504-.711-1.155-.711-1.985v-5.271c-1.244 2.636-3.05 4.679-5.42 6.101-2.369 1.451-5.094 2.162-8.174 2.162-2.784 0-5.331-.563-7.641-1.659-2.31-1.125-4.146-2.665-5.479-4.65-1.333-1.984-2.014-4.176-2.014-6.575 0-3.169.829-5.627 2.488-7.374 1.658-1.747 4.413-3.021 8.263-3.791 3.85-.77 9.211-1.155 16.082-1.155h1.866v-3.258c0-3.85-.8-6.693-2.399-8.47-1.6-1.777-4.117-2.666-7.553-2.666-4.383 0-8.559 1.126-12.527 3.436-.178.118-.622.414-1.363.918-.74.503-1.392.74-1.925.74-.592 0-1.096-.207-1.481-.651-.385-.445-.592-.978-.592-1.629 0-1.303 1.037-2.547 3.11-3.791 2.073-1.185 4.383-2.073 6.93-2.725 2.547-.651 5.065-.977 7.552-.977 5.272 0 9.152 1.362 11.728 4.057zm-5.153 31.72c2.458-2.577 3.702-5.864 3.702-9.833v-2.902h-1.688c-5.686 0-10.04.236-13.09.71-3.021.474-5.154 1.274-6.398 2.429-1.244 1.155-1.865 2.784-1.865 4.976 0 2.458.947 4.501 2.843 6.101 1.895 1.599 4.235 2.428 7.019 2.428 3.85-.059 7.019-1.333 9.477-3.909zM1538.29 387.435c0 .711-.267 1.244-.8 1.659-.533.415-1.392.592-2.577.533l-2.487-.178c-4.502-.296-7.849-1.658-10.011-4.087-2.162-2.428-3.258-6.13-3.258-11.106v-23.368h-6.752c-.711 0-1.274-.177-1.688-.562-.415-.385-.622-.889-.622-1.54 0-.652.207-1.185.622-1.57.414-.415.977-.622 1.688-.622h6.752v-10.899c0-.888.237-1.54.711-2.014.474-.474 1.126-.711 1.955-.711.829 0 1.51.237 2.014.711.503.474.77 1.126.77 2.014v10.899h10.751c.77 0 1.362.207 1.777.622.414.415.622.948.622 1.57 0 .622-.208 1.155-.622 1.54-.415.385-1.007.562-1.777.562h-10.751v23.635c0 3.642.711 6.219 2.132 7.759 1.422 1.54 3.643 2.458 6.664 2.666l2.399.177c1.658.208 2.488.978 2.488 2.31zM1585.03 380.712c.385.445.592.948.592 1.54 0 1.274-1.007 2.547-3.021 3.791-4.265 2.518-8.766 3.791-13.505 3.791-6.575 0-11.758-1.954-15.549-5.893-3.791-3.939-5.686-9.3-5.686-16.171 0-4.383.859-8.263 2.547-11.639 1.688-3.377 4.057-5.983 7.108-7.819 3.05-1.836 6.575-2.755 10.543-2.755 5.568 0 9.981 1.777 13.209 5.302 3.229 3.554 4.858 8.411 4.858 14.63 0 1.067-.237 1.837-.711 2.34-.474.504-1.244.741-2.31.741h-29.617c.178 5.39 1.599 9.477 4.265 12.29 2.665 2.814 6.427 4.206 11.284 4.206 2.547 0 4.679-.326 6.397-1.007 1.718-.681 3.554-1.57 5.509-2.665 1.303-.889 2.221-1.333 2.754-1.333.503 0 .948.207 1.333.651zm-26.981-26.921c-2.488 2.577-3.969 6.19-4.443 10.81h27.485c-.119-4.679-1.303-8.293-3.554-10.84-2.251-2.547-5.42-3.82-9.507-3.82-4.176 0-7.493 1.273-9.981 3.85z"/>
  </g>
  <defs>
    <radialGradient id="_Radial1" cx="0" cy="0" r="1" gradientTransform="matrix(203.439 0 0 22.4797 203.441 401.35)" gradientUnits="userSpaceOnUse">
      <stop offset="0" stop-color="#1b4590"/>
      <stop offset=".05" stop-color="#1c438a" stop-opacity=".945098"/>
      <stop offset=".38" stop-color="#1d356b" stop-opacity=".619608"/>
      <stop offset=".65" stop-color="#182a54" stop-opacity=".345098"/>
      <stop offset=".87" stop-color="#132246" stop-opacity=".12549"/>
      <stop offset="1" stop-color="#101e41" stop-opacity="0"/>
    </radialGradient>
    <linearGradient id="_Linear2" x2="1" gradientTransform="matrix(71.9742 -121.145 121.145 71.9742 108.961 371.348)" gradientUnits="userSpaceOnUse">
      <stop offset="0" stop-color="#194087"/>
      <stop offset=".11" stop-color="#1b3b7c" stop-opacity=".886275"/>
      <stop offset=".4" stop-color="#193062" stop-opacity=".603922"/>
      <stop offset=".65" stop-color="#15264f" stop-opacity=".34902"/>
      <stop offset=".86" stop-color="#112045" stop-opacity=".137255"/>
      <stop offset="1" stop-color="#0f1e41" stop-opacity="0"/>
    </linearGradient>
    <linearGradient id="_Linear3" x2="1" gradientTransform="rotate(-129.4314 138.68020433 53.00140336) scale(284.775)" gradientUnits="userSpaceOnUse">
      <stop offset="0" stop-color="#0f1e41" stop-opacity="0"/>
      <stop offset=".26" stop-color="#0f1e41" stop-opacity="0"/>
      <stop offset=".36" stop-color="#112045" stop-opacity=".137255"/>
      <stop offset=".5" stop-color="#15264f" stop-opacity=".34902"/>
      <stop offset=".68" stop-color="#193062" stop-opacity=".603922"/>
      <stop offset=".88" stop-color="#1b3b7c" stop-opacity=".886275"/>
      <stop offset=".96" stop-color="#194087"/>
      <stop offset="1" stop-color="#194087"/>
    </linearGradient>
    <radialGradient id="_Radial4" cx="0" cy="0" r="1" gradientTransform="matrix(125.563 0 0 123.909 317.96 123.914)" gradientUnits="userSpaceOnUse">
      <stop offset="0" stop-color="#fff"/>
      <stop offset="1" stop-color="#fff" stop-opacity="0"/>
    </radialGradient>
  </defs>
</svg>
