<svg xmlns="http://www.w3.org/2000/svg" fill-rule="evenodd" stroke-linejoin="round" stroke-miterlimit="1.41421" clip-rule="evenodd" viewBox="0 0 1390 290">
  <path fill="#1e4079" fill-rule="nonzero" d="M16.996 146.483c0-41.617 21.283-78.551 53.631-100.767 3.22-2.555 6.563-4.962 10.03-7.196-38.873 20.812-65.424 61.475-65.424 107.963 0 67.497 55.962 122.725 124.359 122.725.343 0 .681-.016 1.018-.016-68.054-.403-123.614-55.458-123.614-122.709z"/>
  <path fill="#007cc4" fill-rule="nonzero" d="M137.738 19.691c-67.984 0-123.608 54.89-123.608 121.98 0 .573.037 1.136.042 1.705.938-66.303 56.165-120.271 123.566-120.271 67.407 0 122.628 53.968 123.566 120.275.006-.568.043-1.136.043-1.704 0-67.089-55.623-121.985-123.609-121.985z"/>
  <ellipse cx="138.874" cy="273.96" fill="url(#_Radial1)" rx="138.874" ry="15.346"/>
  <path fill="#1b4590" fill-rule="nonzero" d="M139.367 266.651h-3.252c-67.091 0-121.98-54.889-121.98-121.979-.005-67.095 54.889-121.985 121.98-121.985h3.252c67.091 0 121.98 54.89 121.98 121.979 0 67.091-54.889 121.985-121.98 121.985z"/>
  <path fill="#1a4690" fill-rule="nonzero" d="M139.555 265.939h-3.242c-66.843 0-121.535-54.691-121.535-121.535S69.47 22.869 136.313 22.869h3.242c66.844 0 121.535 54.691 121.535 121.535s-54.691 121.535-121.535 121.535z"/>
  <path fill="#194691" fill-rule="nonzero" d="M139.737 265.232h-3.231c-66.603 0-121.091-54.494-121.091-121.091 0-66.602 54.493-121.09 121.091-121.09h3.231c66.602 0 121.09 54.493 121.09 121.09 0 66.597-54.488 121.091-121.09 121.091z"/>
  <path fill="#184791" fill-rule="nonzero" d="M139.925 264.519h-3.221c-66.356 0-120.646-54.289-120.646-120.645 0-66.357 54.29-120.646 120.646-120.646h3.221c66.356 0 120.645 54.289 120.645 120.646 0 66.356-54.289 120.645-120.645 120.645z"/>
  <path fill="#174791" fill-rule="nonzero" d="M140.106 263.812h-3.203c-66.111 0-120.202-54.091-120.202-120.201 0-66.11 54.091-120.201 120.202-120.201h3.203c66.111 0 120.202 54.091 120.202 120.201 0 66.11-54.091 120.201-120.202 120.201z"/>
  <path fill="#164892" fill-rule="nonzero" d="M140.294 263.099h-3.193c-65.863 0-119.756-53.888-119.756-119.756 0-65.863 53.887-119.756 119.756-119.756h3.193c65.863 0 119.756 53.887 119.756 119.756 0 65.868-53.893 119.756-119.756 119.756z"/>
  <path fill="#154892" fill-rule="nonzero" d="M140.476 262.392h-3.182c-65.622 0-119.312-53.689-119.312-119.311 0-65.623 53.69-119.312 119.312-119.312h3.182c65.623 0 119.312 53.689 119.312 119.312 0 65.622-53.689 119.311-119.312 119.311z"/>
  <path fill="#144993" fill-rule="nonzero" d="M140.664 261.685h-3.172c-65.376 0-118.861-53.491-118.861-118.862 0-65.375 53.491-118.861 118.861-118.861h3.172c65.376 0 118.861 53.491 118.861 118.861.006 65.371-53.485 118.862-118.861 118.862z"/>
  <path fill="#134993" fill-rule="nonzero" d="M140.852 260.972h-3.162c-65.129 0-118.416-53.288-118.416-118.416 0-65.13 53.287-118.417 118.416-118.417h3.162c65.128 0 118.416 53.287 118.416 118.417 0 65.128-53.288 118.416-118.416 118.416z"/>
  <path fill="#124a93" fill-rule="nonzero" d="M141.033 260.265h-3.145c-64.882 0-117.971-53.089-117.971-117.972S73.006 24.321 137.888 24.321h3.145c64.883 0 117.973 53.089 117.973 117.972s-53.084 117.972-117.973 117.972z"/>
  <path fill="#114a94" fill-rule="nonzero" d="M141.221 259.552h-3.135c-64.641 0-117.526-52.886-117.526-117.527 0-64.642 52.885-117.527 117.526-117.527h3.135c64.642 0 117.527 52.885 117.527 117.527 0 64.641-52.885 117.527-117.527 117.527z"/>
  <path fill="#0f4b94" fill-rule="nonzero" d="M141.403 258.845h-3.123c-64.396 0-117.083-52.688-117.083-117.083S73.884 24.68 138.28 24.68h3.123c64.395 0 117.083 52.687 117.083 117.082s-52.688 117.083-117.083 117.083z"/>
  <path fill="#0e4b95" fill-rule="nonzero" d="M141.591 258.132h-3.113c-64.149 0-116.638-52.489-116.638-116.638 0-64.148 52.489-116.637 116.638-116.637h3.113c64.148 0 116.637 52.489 116.637 116.637 0 64.155-52.489 116.638-116.637 116.638z"/>
  <path fill="#0c4c95" fill-rule="nonzero" d="M141.778 257.425h-3.102c-63.907 0-116.193-52.286-116.193-116.193S74.769 25.039 138.676 25.039h3.102c63.908 0 116.194 52.286 116.194 116.193-.006 63.907-52.291 116.193-116.194 116.193z"/>
  <path fill="#0a4c95" fill-rule="nonzero" d="M141.96 256.718h-3.086c-63.661 0-115.748-52.088-115.748-115.749 0-63.661 52.087-115.748 115.748-115.748h3.086c63.661 0 115.749 52.087 115.749 115.748S205.621 256.718 141.96 256.718z"/>
  <path fill="#094d96" fill-rule="nonzero" d="M142.148 256.005h-3.075c-63.415 0-115.304-51.883-115.304-115.303 0-63.415 51.884-115.304 115.304-115.304h3.075c63.415 0 115.303 51.884 115.303 115.304-.005 63.42-51.888 115.303-115.303 115.303z"/>
  <path fill="#074e96" fill-rule="nonzero" d="M142.33 255.298h-3.065c-63.168 0-114.853-51.686-114.853-114.854S76.097 25.591 139.265 25.591h3.065c63.168 0 114.854 51.685 114.854 114.853.005 63.168-51.68 114.854-114.854 114.854z"/>
  <path fill="#054e97" fill-rule="nonzero" d="M142.518 254.585h-3.054c-62.927 0-114.409-51.487-114.409-114.408 0-62.927 51.487-114.409 114.409-114.409h3.054c62.927 0 114.409 51.487 114.409 114.409 0 62.926-51.482 114.408-114.409 114.408z"/>
  <path fill="#034f97" fill-rule="nonzero" d="M142.7 253.878h-3.038c-62.681 0-113.964-51.283-113.964-113.964S76.981 25.95 139.662 25.95h3.038c62.68 0 113.964 51.283 113.964 113.964.005 62.681-51.278 113.964-113.964 113.964z"/>
  <path fill="#014f97" fill-rule="nonzero" d="M142.887 253.165h-3.027c-62.434 0-113.519-51.085-113.519-113.519 0-62.434 51.085-113.519 113.519-113.519h3.027c62.435 0 113.52 51.085 113.52 113.519 0 62.439-51.085 113.519-113.52 113.519z"/>
  <path fill="#005098" fill-rule="nonzero" d="M143.075 252.458h-3.016c-62.194 0-113.075-50.882-113.075-113.075 0-62.193 50.881-113.074 113.075-113.074h3.016c62.193 0 113.075 50.881 113.075 113.074s-50.888 113.075-113.075 113.075z"/>
  <path fill="#005098" fill-rule="nonzero" d="M143.257 251.751h-3.006c-61.946 0-112.629-50.684-112.629-112.63 0-61.947 50.683-112.63 112.629-112.63h3.006c61.947 0 112.63 50.683 112.63 112.63 0 61.946-50.683 112.63-112.63 112.63z"/>
  <path fill="#005199" fill-rule="nonzero" d="M143.445 251.038h-2.995c-61.7 0-112.185-50.485-112.185-112.185S78.75 26.668 140.45 26.668h2.995c61.7 0 112.185 50.485 112.185 112.185-.005 61.705-50.485 112.185-112.185 112.185z"/>
  <path fill="#005199" fill-rule="nonzero" d="M143.627 250.331h-2.979c-61.454 0-111.74-50.282-111.74-111.741 0-61.453 50.281-111.74 111.74-111.74h2.979c61.454 0 111.74 50.281 111.74 111.74 0 61.459-50.282 111.741-111.74 111.741z"/>
  <path fill="#005299" fill-rule="nonzero" d="M143.814 249.618h-2.968c-61.212 0-111.29-50.083-111.29-111.29 0-61.212 50.083-111.291 111.29-111.291h2.968c61.213 0 111.291 50.084 111.291 111.291 0 61.212-50.078 111.29-111.291 111.29z"/>
  <path fill="#00529a" fill-rule="nonzero" d="M144.002 248.911h-2.958c-60.966 0-110.845-49.88-110.845-110.846S80.078 27.22 141.044 27.22h2.958c60.966 0 110.846 49.879 110.846 110.845s-49.88 110.846-110.846 110.846z"/>
  <path fill="#00539a" fill-rule="nonzero" d="M144.184 248.198h-2.947c-60.719 0-110.401-49.682-110.401-110.401 0-60.719 49.682-110.401 110.401-110.401h2.947c60.72 0 110.401 49.682 110.401 110.401 0 60.725-49.681 110.401-110.401 110.401z"/>
  <path fill="#00539b" fill-rule="nonzero" d="M144.371 247.491h-2.93c-60.479 0-109.956-49.478-109.956-109.956 0-60.479 49.477-109.956 109.956-109.956h2.93c60.479 0 109.957 49.477 109.957 109.956 0 60.473-49.483 109.956-109.957 109.956z"/>
  <path fill="#00549b" fill-rule="nonzero" d="M144.554 246.783h-2.92c-60.232 0-109.512-49.279-109.512-109.511 0-60.231 49.28-109.511 109.512-109.511h2.92c60.232 0 109.512 49.28 109.512 109.511 0 60.227-49.28 109.511-109.512 109.511z"/>
  <path fill="#00549b" fill-rule="nonzero" d="M144.741 246.07h-2.909c-59.986 0-109.067-49.081-109.067-109.066S81.846 27.938 141.832 27.938h2.909c59.986 0 109.067 49.081 109.067 109.066S204.727 246.07 144.741 246.07z"/>
  <path fill="#00559c" fill-rule="nonzero" d="M144.924 245.363h-2.899c-59.739 0-108.622-48.877-108.622-108.621 0-59.739 48.878-108.622 108.622-108.622h2.899c59.738 0 108.621 48.878 108.621 108.622 0 59.739-48.877 108.621-108.621 108.621z"/>
  <path fill="#00559c" fill-rule="nonzero" d="M145.111 244.651h-2.888c-59.497 0-108.177-48.679-108.177-108.177 0-59.498 48.68-108.177 108.177-108.177h2.888c59.498 0 108.177 48.679 108.177 108.177 0 59.498-48.679 108.177-108.177 108.177z"/>
  <path fill="#00569d" fill-rule="nonzero" d="M145.299 243.943h-2.872c-59.251 0-107.727-48.475-107.727-107.726S83.176 28.49 142.427 28.49h2.872c59.251 0 107.727 48.476 107.727 107.727 0 59.245-48.476 107.726-107.727 107.726z"/>
  <path fill="#00569d" fill-rule="nonzero" d="M145.481 243.231h-2.861c-59.005 0-107.282-48.277-107.282-107.283 0-59.004 48.277-107.281 107.282-107.281h2.861c59.004 0 107.282 48.277 107.282 107.281.006 59.006-48.278 107.283-107.282 107.283z"/>
  <path fill="#00579e" fill-rule="nonzero" d="M145.669 242.523h-2.851c-58.764 0-106.837-48.079-106.837-106.837 0-58.763 48.079-106.838 106.837-106.838h2.851c58.763 0 106.837 48.08 106.837 106.838 0 58.758-48.079 106.837-106.837 106.837z"/>
  <path fill="#00579e" fill-rule="nonzero" d="M145.851 241.816h-2.84c-58.517 0-106.393-47.875-106.393-106.393 0-58.517 47.876-106.392 106.393-106.392h2.84c58.517 0 106.393 47.875 106.393 106.392 0 58.512-47.876 106.393-106.393 106.393z"/>
  <path fill="#00589e" fill-rule="nonzero" d="M146.039 241.104h-2.83c-58.271 0-105.948-47.678-105.948-105.948 0-58.271 47.677-105.949 105.948-105.949h2.83c58.27 0 105.947 47.678 105.947 105.949 0 58.27-47.677 105.948-105.947 105.948z"/>
  <path fill="#00589f" fill-rule="nonzero" d="M146.226 240.396h-2.814c-58.023 0-105.502-47.473-105.502-105.503 0-58.024 47.473-105.503 105.502-105.503h2.814c58.024 0 105.503 47.474 105.503 105.503-.006 58.024-47.479 105.503-105.503 105.503z"/>
  <path fill="#00599f" fill-rule="nonzero" d="M146.408 239.684h-2.802c-57.783 0-105.059-47.276-105.059-105.059 0-57.783 47.276-105.059 105.059-105.059h2.802c57.783 0 105.059 47.276 105.059 105.059 0 57.783-47.276 105.059-105.059 105.059z"/>
  <path fill="#0059a0" fill-rule="nonzero" d="M146.596 238.976h-2.792c-57.537 0-104.614-47.077-104.614-104.613 0-57.537 47.077-104.614 104.614-104.614h2.792c57.536 0 104.613 47.077 104.613 104.614-.005 57.536-47.077 104.613-104.613 104.613z"/>
  <path fill="#005aa0" fill-rule="nonzero" d="M146.778 238.264h-2.781c-57.29 0-104.164-46.874-104.164-104.164S86.707 29.936 143.997 29.936h2.781c57.29 0 104.163 46.874 104.163 104.164.006 57.29-46.868 104.164-104.163 104.164z"/>
  <path fill="#005aa1" fill-rule="nonzero" d="M146.966 237.557H144.2c-57.049 0-103.719-46.676-103.719-103.719 0-57.049 46.676-103.719 103.719-103.719h2.766c57.048 0 103.718 46.675 103.718 103.719 0 57.043-46.675 103.719-103.718 103.719z"/>
  <path fill="#005ba1" fill-rule="nonzero" d="M147.147 236.849h-2.754c-56.802 0-103.274-46.472-103.274-103.274 0-56.803 46.472-103.274 103.274-103.274h2.754c56.803 0 103.275 46.471 103.275 103.274.005 56.797-46.472 103.274-103.275 103.274z"/>
  <path fill="#005ba1" fill-rule="nonzero" d="M147.335 236.137h-2.744c-56.556 0-102.829-46.274-102.829-102.83S88.035 30.478 144.591 30.478h2.744c56.556 0 102.829 46.273 102.829 102.829 0 56.556-46.273 102.83-102.829 102.83z"/>
  <path fill="#005ba2" fill-rule="nonzero" d="M147.523 235.43h-2.733c-56.31 0-102.385-46.076-102.385-102.386 0-56.309 46.075-102.385 102.385-102.385h2.733c56.309 0 102.385 46.076 102.385 102.385 0 56.31-46.076 102.386-102.385 102.386z"/>
  <path fill="#005ca2" fill-rule="nonzero" d="M147.705 234.717h-2.723c-56.067 0-101.94-45.872-101.94-101.94 0-56.069 45.873-101.941 101.94-101.941h2.723c56.068 0 101.94 45.872 101.94 101.941 0 56.068-45.872 101.94-101.94 101.94z"/>
  <path fill="#005ca3" fill-rule="nonzero" d="M147.892 234.01h-2.705c-55.823 0-101.496-45.674-101.496-101.496 0-55.822 45.673-101.496 101.496-101.496h2.705c55.822 0 101.495 45.674 101.495 101.496 0 55.822-45.673 101.496-101.495 101.496z"/>
  <path fill="#005da3" fill-rule="nonzero" d="M148.074 233.297h-2.695c-55.575 0-101.05-45.47-101.05-101.051 0-55.575 45.47-101.051 101.05-101.051h2.695c55.576 0 101.051 45.47 101.051 101.051s-45.47 101.051-101.051 101.051z"/>
  <path fill="#005da4" fill-rule="nonzero" d="M148.262 232.59h-2.684c-55.335 0-100.606-45.272-100.606-100.606 0-55.334 45.271-100.606 100.606-100.606h2.684c55.334 0 100.606 45.272 100.606 100.606-.006 55.334-45.277 100.606-100.606 100.606z"/>
  <path fill="#005ea4" fill-rule="nonzero" d="M148.45 231.877h-2.674c-55.088 0-100.156-45.073-100.156-100.156 0-55.088 45.073-100.156 100.156-100.156h2.674c55.087 0 100.155 45.074 100.155 100.156 0 55.088-45.073 100.156-100.155 100.156z"/>
  <path fill="#005ea4" fill-rule="nonzero" d="M148.632 231.17h-2.658c-54.842 0-99.711-44.87-99.711-99.711 0-54.842 44.869-99.711 99.711-99.711h2.658c54.841 0 99.711 44.869 99.711 99.711 0 54.841-44.87 99.711-99.711 99.711z"/>
  <path fill="#005fa5" fill-rule="nonzero" d="M148.819 230.463h-2.647c-54.6 0-99.271-44.672-99.271-99.273 0-54.594 44.671-99.266 99.266-99.266h2.647c54.595 0 99.266 44.672 99.266 99.266.006 54.601-44.666 99.273-99.261 99.273z"/>
  <path fill="#005fa5" fill-rule="nonzero" d="M149.001 229.75h-2.636c-54.353 0-98.822-44.468-98.822-98.822s44.469-98.821 98.822-98.821h2.636c54.354 0 98.822 44.467 98.822 98.821s-44.468 98.822-98.822 98.822z"/>
  <path fill="#0060a6" fill-rule="nonzero" d="M149.189 229.043h-2.626c-54.107 0-98.377-44.27-98.377-98.378 0-54.107 44.27-98.376 98.377-98.376h2.626c54.107 0 98.376 44.269 98.376 98.376 0 54.108-44.269 98.378-98.376 98.378z"/>
  <path fill="#0060a6" fill-rule="nonzero" d="M149.371 228.33h-2.615c-53.86 0-97.932-44.072-97.932-97.932 0-53.861 44.072-97.932 97.932-97.932h2.615c53.861 0 97.932 44.071 97.932 97.932 0 53.866-44.066 97.932-97.932 97.932z"/>
  <path fill="#0061a7" fill-rule="nonzero" d="M149.559 227.622h-2.599c-53.62 0-97.488-43.867-97.488-97.487S93.34 32.648 146.96 32.648h2.599c53.619 0 97.487 43.867 97.487 97.487s-43.868 97.487-97.487 97.487z"/>
  <path fill="#0061a7" fill-rule="nonzero" d="M149.746 226.909h-2.588c-53.373 0-97.043-43.669-97.043-97.042 0-53.373 43.67-97.042 97.043-97.042h2.588c53.373 0 97.043 43.669 97.043 97.042-.006 53.379-43.675 97.042-97.043 97.042z"/>
  <path fill="#0062a7" fill-rule="nonzero" d="M149.928 226.202h-2.577c-53.127 0-96.593-43.465-96.593-96.592 0-53.127 43.466-96.593 96.593-96.593h2.577c53.127 0 96.593 43.466 96.593 96.593.005 53.127-43.466 96.592-96.593 96.592z"/>
  <path fill="#0062a8" fill-rule="nonzero" d="M150.116 225.495h-2.567c-52.88 0-96.148-43.267-96.148-96.148 0-52.88 43.268-96.147 96.148-96.147h2.567c52.88 0 96.148 43.267 96.148 96.147 0 52.881-43.268 96.148-96.148 96.148z"/>
  <path fill="#0062a8" fill-rule="nonzero" d="M150.298 224.782h-2.556c-52.639 0-95.703-43.069-95.703-95.702 0-52.639 43.069-95.704 95.703-95.704h2.556c52.639 0 95.703 43.069 95.703 95.704.005 52.639-43.064 95.702-95.703 95.702z"/>
  <path fill="#0063a9" fill-rule="nonzero" d="M150.485 224.075h-2.539c-52.393 0-95.258-42.866-95.258-95.258 0-52.393 42.865-95.258 95.258-95.258h2.539c52.394 0 95.259 42.865 95.259 95.258 0 52.392-42.865 95.258-95.259 95.258z"/>
  <path fill="#0063a9" fill-rule="nonzero" d="M150.673 223.362h-2.529c-52.146 0-94.813-42.667-94.813-94.813s42.667-94.814 94.813-94.814h2.529c52.146 0 94.814 42.668 94.814 94.814-.006 52.151-42.668 94.813-94.814 94.813z"/>
  <path fill="#0064aa" fill-rule="nonzero" d="M150.855 222.655h-2.518c-51.905 0-94.369-42.463-94.369-94.369 0-51.905 42.464-94.368 94.369-94.368h2.518c51.905 0 94.369 42.463 94.369 94.368 0 51.906-42.464 94.369-94.369 94.369z"/>
  <path fill="#0064aa" fill-rule="nonzero" d="M151.043 221.943h-2.508c-51.658 0-93.924-42.266-93.924-93.924 0-51.653 42.266-93.919 93.924-93.919h2.508c51.659 0 93.924 42.266 93.924 93.924-.005 51.658-42.271 93.919-93.924 93.919z"/>
  <path fill="#0065ab" fill-rule="nonzero" d="M151.225 221.235h-2.491c-51.413 0-93.48-42.067-93.48-93.479s42.067-93.479 93.48-93.479h2.491c51.412 0 93.48 42.067 93.48 93.479 0 51.417-42.068 93.479-93.48 93.479z"/>
  <path fill="#0065ab" fill-rule="nonzero" d="M151.412 220.528h-2.48c-51.166 0-93.03-41.863-93.03-93.029s41.864-93.03 93.03-93.03h2.48c51.166 0 93.03 41.864 93.03 93.03 0 51.166-41.864 93.029-93.03 93.029z"/>
  <path fill="#0066ab" fill-rule="nonzero" d="M151.595 219.815h-2.47c-50.925 0-92.585-41.665-92.585-92.584 0-50.925 41.665-92.585 92.585-92.585h2.47c50.924 0 92.585 41.666 92.585 92.585.005 50.919-41.661 92.584-92.585 92.584z"/>
  <path fill="#0066ac" fill-rule="nonzero" d="M151.782 219.108h-2.459c-50.678 0-92.14-41.462-92.14-92.14s41.462-92.14 92.14-92.14h2.459c50.678 0 92.14 41.462 92.14 92.14 0 50.673-41.462 92.14-92.14 92.14z"/>
  <path fill="#0067ac" fill-rule="nonzero" d="M151.97 218.396h-2.449c-50.432 0-91.695-41.264-91.695-91.695 0-50.432 41.263-91.696 91.695-91.696h2.449c50.431 0 91.695 41.264 91.695 91.696 0 50.431-41.264 91.695-91.695 91.695z"/>
  <path fill="#0067ad" fill-rule="nonzero" d="M152.152 217.688h-2.433c-50.185 0-91.25-41.06-91.25-91.25 0-50.185 41.06-91.251 91.25-91.251h2.433c50.185 0 91.251 41.06 91.251 91.251 0 50.185-41.06 91.25-91.251 91.25z"/>
  <path fill="#0068ad" fill-rule="nonzero" d="M152.339 216.976h-2.422c-49.943 0-90.805-40.862-90.805-90.806 0-49.944 40.862-90.806 90.805-90.806h2.422c49.944 0 90.806 40.862 90.806 90.806 0 49.944-40.862 90.806-90.806 90.806z"/>
  <path fill="#0068ae" fill-rule="nonzero" d="M152.522 216.268h-2.412c-49.697 0-90.361-40.663-90.361-90.361 0-49.697 40.664-90.361 90.361-90.361h2.412c49.697 0 90.361 40.664 90.361 90.361 0 49.698-40.664 90.361-90.361 90.361z"/>
  <path fill="#0069ae" fill-rule="nonzero" d="M152.709 215.561h-2.401c-49.45 0-89.916-40.46-89.916-89.916 0-49.451 40.461-89.916 89.916-89.916h2.401c49.451 0 89.916 40.46 89.916 89.916 0 49.451-40.465 89.916-89.916 89.916z"/>
  <path fill="#0069af" fill-rule="nonzero" d="M152.892 214.849h-2.385c-49.21 0-89.466-40.263-89.466-89.466 0-49.211 40.261-89.467 89.466-89.467h2.385c49.209 0 89.466 40.262 89.466 89.467.005 49.203-40.257 89.466-89.466 89.466z"/>
  <path fill="#0069af" fill-rule="nonzero" d="M153.079 214.141h-2.374c-48.963 0-89.021-40.058-89.021-89.021s40.058-89.022 89.021-89.022h2.374c48.963 0 89.021 40.059 89.021 89.022 0 48.958-40.058 89.021-89.021 89.021z"/>
  <path fill="#006ab0" fill-rule="nonzero" d="M153.266 213.429h-2.362c-48.718 0-88.577-39.86-88.577-88.577s39.859-88.577 88.577-88.577h2.362c48.718 0 88.577 39.86 88.577 88.577s-39.859 88.577-88.577 88.577z"/>
  <path fill="#006ab0" fill-rule="nonzero" d="M153.449 212.721h-2.353c-48.47 0-88.131-39.662-88.131-88.132 0-48.47 39.661-88.132 88.131-88.132h2.353c48.47 0 88.132 39.662 88.132 88.132 0 48.47-39.657 88.132-88.132 88.132z"/>
  <path fill="#006bb1" fill-rule="nonzero" d="M153.636 212.009h-2.341c-48.229 0-87.687-39.458-87.687-87.687 0-48.23 39.458-87.688 87.687-87.688h2.341c48.229 0 87.687 39.458 87.687 87.688 0 48.229-39.458 87.687-87.687 87.687z"/>
  <path fill="#006bb1" fill-rule="nonzero" d="M153.819 211.302h-2.326c-47.983 0-87.243-39.26-87.243-87.243s39.26-87.243 87.243-87.243h2.326c47.982 0 87.242 39.26 87.242 87.243s-39.26 87.243-87.242 87.243z"/>
  <path fill="#006cb2" fill-rule="nonzero" d="M154.006 210.594h-2.315c-47.736 0-86.798-39.056-86.798-86.798 0-47.736 39.057-86.798 86.798-86.798h2.315c47.737 0 86.798 39.056 86.798 86.798 0 47.736-39.061 86.798-86.798 86.798z"/>
  <path fill="#006cb2" fill-rule="nonzero" d="M154.193 209.882h-2.304c-47.495 0-86.353-38.858-86.353-86.354 0-47.495 38.858-86.353 86.353-86.353h2.304c47.496 0 86.354 38.858 86.354 86.353-.006 47.496-38.864 86.354-86.354 86.354z"/>
  <path fill="#006db3" fill-rule="nonzero" d="M154.376 209.174h-2.293c-47.249 0-85.909-38.659-85.909-85.908s38.66-85.909 85.909-85.909h2.293c47.248 0 85.908 38.66 85.908 85.909 0 47.249-38.66 85.908-85.908 85.908z"/>
  <path fill="#006db3" fill-rule="nonzero" d="M154.563 208.461h-2.282c-47.003 0-85.459-38.456-85.459-85.457 0-47.003 38.456-85.459 85.459-85.459h2.282c47.002 0 85.459 38.456 85.459 85.459 0 47.001-38.457 85.457-85.459 85.457z"/>
  <path fill="#006eb4" fill-rule="nonzero" d="M154.746 207.754h-2.267c-46.756 0-85.014-38.257-85.014-85.013 0-46.756 38.258-85.014 85.014-85.014h2.267c46.755 0 85.013 38.258 85.013 85.014.005 46.756-38.253 85.013-85.013 85.013z"/>
  <path fill="#006eb4" fill-rule="nonzero" d="M154.933 207.041h-2.256c-46.515 0-84.569-38.054-84.569-84.568 0-46.515 38.054-84.569 84.569-84.569h2.256c46.515 0 84.568 38.054 84.568 84.569 0 46.514-38.053 84.568-84.568 84.568z"/>
  <path fill="#006fb4" fill-rule="nonzero" d="M155.115 206.334h-2.245c-46.268 0-84.124-37.856-84.124-84.124 0-46.268 37.856-84.123 84.124-84.123h2.245c46.269 0 84.124 37.855 84.124 84.123.005 46.268-37.855 84.124-84.124 84.124z"/>
  <path fill="#006fb5" fill-rule="nonzero" d="M155.303 205.627h-2.235c-46.021 0-83.679-37.657-83.679-83.68 0-46.021 37.658-83.679 83.679-83.679h2.235c46.021 0 83.679 37.658 83.679 83.679 0 46.023-37.658 83.68-83.679 83.68z"/>
  <path fill="#006fb5" fill-rule="nonzero" d="M155.49 204.914h-2.218c-45.781 0-83.235-37.454-83.235-83.234 0-45.781 37.454-83.235 83.235-83.235h2.218c45.781 0 83.235 37.454 83.235 83.235-.006 45.78-37.46 83.234-83.235 83.234z"/>
  <path fill="#0070b6" fill-rule="nonzero" d="M155.673 204.207h-2.208c-45.534 0-82.79-37.256-82.79-82.79 0-45.534 37.256-82.79 82.79-82.79h2.208c45.534 0 82.789 37.256 82.789 82.79 0 45.534-37.255 82.79-82.789 82.79z"/>
  <path fill="#0070b6" fill-rule="nonzero" d="M155.86 203.494h-2.197c-45.288 0-82.345-37.051-82.345-82.345 0-45.287 37.052-82.345 82.345-82.345h2.197c45.287 0 82.345 37.052 82.345 82.345-.005 45.294-37.058 82.345-82.345 82.345z"/>
  <path fill="#0071b7" fill-rule="nonzero" d="M156.042 202.787h-2.186c-45.041 0-81.895-36.854-81.895-81.895s36.854-81.895 81.895-81.895h2.186c45.041 0 81.895 36.854 81.895 81.895.005 45.041-36.848 81.895-81.895 81.895z"/>
  <path fill="#0071b7" fill-rule="nonzero" d="M156.23 202.074h-2.176c-44.8 0-81.45-36.655-81.45-81.449 0-44.801 36.655-81.451 81.45-81.451h2.176c44.8 0 81.45 36.656 81.45 81.451 0 44.799-36.65 81.449-81.45 81.449z"/>
  <path fill="#0072b8" fill-rule="nonzero" d="M156.417 201.367h-2.16c-44.553 0-81.005-36.451-81.005-81.005 0-44.554 36.452-81.006 81.005-81.006h2.16c44.554 0 81.006 36.452 81.006 81.006s-36.452 81.005-81.006 81.005z"/>
  <path fill="#0072b9" fill-rule="nonzero" d="M156.599 200.66h-2.148c-44.308 0-80.561-36.254-80.561-80.561 0-44.307 36.253-80.561 80.561-80.561h2.148c44.307 0 80.561 36.254 80.561 80.561 0 44.307-36.254 80.561-80.561 80.561z"/>
  <path fill="#0073b9" fill-rule="nonzero" d="M156.787 199.947h-2.138c-44.066 0-80.116-36.05-80.116-80.116 0-44.065 36.05-80.116 80.116-80.116h2.138c44.066 0 80.116 36.051 80.116 80.116 0 44.066-36.055 80.116-80.116 80.116z"/>
  <path fill="#0073ba" fill-rule="nonzero" d="M156.969 199.24h-2.127c-43.82 0-79.672-35.852-79.672-79.672 0-43.819 35.852-79.67 79.672-79.67h2.127c43.819 0 79.672 35.851 79.672 79.67 0 43.82-35.853 79.672-79.672 79.672z"/>
  <path fill="#0074ba" fill-rule="nonzero" d="M157.157 198.527h-2.112c-43.573 0-79.226-35.653-79.226-79.226s35.653-79.227 79.226-79.227h2.112c43.573 0 79.226 35.654 79.226 79.227 0 43.578-35.653 79.226-79.226 79.226z"/>
  <path fill="#0074bb" fill-rule="nonzero" d="M157.339 197.82h-2.101c-43.326 0-78.782-35.45-78.782-78.782 0-43.326 35.451-78.782 78.782-78.782h2.101c43.326 0 78.781 35.45 78.781 78.782 0 43.332-35.449 78.782-78.781 78.782z"/>
  <path fill="#0075bb" fill-rule="nonzero" d="M157.526 197.107h-2.09c-43.085 0-78.331-35.251-78.331-78.331 0-43.086 35.251-78.332 78.331-78.332h2.09c43.085 0 78.332 35.252 78.332 78.332 0 43.085-35.247 78.331-78.332 78.331z"/>
  <path fill="#0075bc" fill-rule="nonzero" d="M157.714 196.4h-2.079c-42.839 0-77.887-35.048-77.887-77.887s35.048-77.887 77.887-77.887h2.079c42.839 0 77.887 35.048 77.887 77.887S200.553 196.4 157.714 196.4z"/>
  <path fill="#0076bc" fill-rule="nonzero" d="M157.896 195.693h-2.068c-42.593 0-77.443-34.85-77.443-77.443 0-42.592 34.85-77.442 77.443-77.442h2.068c42.593 0 77.442 34.85 77.442 77.442 0 42.593-34.849 77.443-77.442 77.443z"/>
  <path fill="#0076bd" fill-rule="nonzero" d="M158.084 194.98h-2.053c-42.351 0-76.997-34.651-76.997-76.997 0-42.352 34.651-76.998 76.997-76.998h2.053c42.351 0 76.997 34.651 76.997 76.998 0 42.351-34.652 76.997-76.997 76.997z"/>
  <path fill="#0077be" fill-rule="nonzero" d="M158.266 194.273h-2.042c-42.104 0-76.552-34.448-76.552-76.553s34.448-76.553 76.552-76.553h2.042c42.104 0 76.553 34.448 76.553 76.553s-34.449 76.553-76.553 76.553z"/>
  <path fill="#0077be" fill-rule="nonzero" d="M158.453 193.56h-2.031c-41.858 0-76.107-34.25-76.107-76.108 0-41.859 34.249-76.108 76.107-76.108h2.031c41.859 0 76.108 34.249 76.108 76.108 0 41.864-34.249 76.108-76.108 76.108z"/>
  <path fill="#0078bf" fill-rule="nonzero" d="M158.641 192.853h-2.02c-41.612 0-75.664-34.046-75.664-75.664 0-41.611 34.047-75.663 75.664-75.663h2.02c41.611 0 75.663 34.046 75.663 75.663-.005 41.613-34.052 75.664-75.663 75.664z"/>
  <path fill="#0078bf" fill-rule="nonzero" d="M158.823 192.141h-2.01c-41.37 0-75.218-33.848-75.218-75.219 0-41.371 33.848-75.219 75.218-75.219h2.01c41.371 0 75.219 33.848 75.219 75.219 0 41.371-33.848 75.219-75.219 75.219z"/>
  <path fill="#0079c0" fill-rule="nonzero" d="M159.011 191.433h-1.994c-41.124 0-74.768-33.65-74.768-74.768 0-41.125 33.65-74.769 74.768-74.769h1.994c41.124 0 74.768 33.65 74.768 74.769 0 41.118-33.644 74.768-74.768 74.768z"/>
  <path fill="#0079c1" fill-rule="nonzero" d="M159.193 190.725h-1.983c-40.878 0-74.324-33.445-74.324-74.323 0-40.878 33.446-74.324 74.324-74.324h1.983c40.878 0 74.324 33.446 74.324 74.324.005 40.873-33.441 74.323-74.324 74.323z"/>
  <path fill="#007ac1" fill-rule="nonzero" d="M159.38 190.013h-1.971c-40.637 0-73.88-33.247-73.88-73.879 0-40.637 33.248-73.879 73.88-73.879h1.971c40.637 0 73.879 33.248 73.879 73.879 0 40.632-33.248 73.879-73.879 73.879z"/>
  <path fill="#007ac2" fill-rule="nonzero" d="M159.562 189.306h-1.961c-40.39 0-73.434-33.044-73.434-73.435 0-40.389 33.044-73.434 73.434-73.434h1.961c40.391 0 73.435 33.045 73.435 73.434.005 40.385-33.044 73.435-73.435 73.435z"/>
  <path fill="#007bc2" fill-rule="nonzero" d="M159.75 188.593h-1.945c-40.144 0-72.99-32.846-72.99-72.989 0-40.144 32.846-72.99 72.99-72.99h1.945c40.144 0 72.989 32.846 72.989 72.99 0 40.143-32.845 72.989-72.989 72.989z"/>
  <path fill="#007bc3" fill-rule="nonzero" d="M159.938 187.886h-1.935c-39.897 0-72.545-32.642-72.545-72.545 0-39.897 32.648-72.545 72.545-72.545h1.935c39.897 0 72.545 32.643 72.545 72.545-.006 39.897-32.648 72.545-72.545 72.545z"/>
  <path fill="#007cc4" fill-rule="nonzero" d="M160.119 187.173h-1.923c-39.656 0-72.1-32.444-72.1-72.1 0-39.656 32.444-72.1 72.1-72.1h1.923c39.657 0 72.101 32.444 72.101 72.1 0 39.656-32.444 72.1-72.101 72.1z"/>
  <path fill="#007cc4" fill-rule="nonzero" d="M160.307 186.466h-1.913c-39.409 0-71.655-32.246-71.655-71.656 0-39.409 32.246-71.655 71.655-71.655h1.913c39.41 0 71.655 32.246 71.655 71.655-.004 39.41-32.245 71.656-71.655 71.656z"/>
  <path fill="url(#_Linear2)" fill-rule="nonzero" d="M145.031 254.521c-67.985 0-123.609-54.89-123.609-121.98 0-16.659 3.435-32.562 9.634-47.062-10.496 17.913-16.546 38.639-16.546 60.709 0 67.091 55.624 121.98 123.609 121.98 51.107 0 95.215-31.019 113.974-74.919-21.416 36.533-61.437 61.272-107.062 61.272z"/>
  <path fill="#fff" fill-opacity=".14902" fill-rule="nonzero" d="M128.078 236.501c-11.719.959-23.759-1.131-34.802-5.567-11.092-4.405-21.187-11.183-29.685-19.51-4.206-4.206-8.048-8.776-11.386-13.679-3.284-4.935-6.189-10.132-8.391-15.614-4.495-10.898-6.612-22.783-5.637-34.351.965 11.547 4.024 22.686 8.943 32.915 2.502 5.09 5.342 10.015 8.691 14.591 3.295 4.608 6.982 8.943 11.049 12.902 8.048 8 17.51 14.607 27.857 19.483 10.369 4.865 21.658 7.881 33.361 8.83z"/>
  <path fill="#fff" fill-opacity=".05" fill-rule="nonzero" d="M239.18 153.266c-3.118 27.467-17.741 51.247-38.413 67.123 0 0 1.886 1.147 3.183 4.03 1.131 2.518.428 5.347.428 5.347 24.129-17.441 40.953-44.42 44.409-75.814l-9.607-.686zm4.919-3.616c-2.32-.07-4.367 1.5-4.919 3.606l9.613.696c-.241-2.347-2.224-4.227-4.694-4.302z"/>
  <path fill="#08255e" fill-rule="nonzero" d="M137.969 269.861c67.979 0 123.598-54.884 123.598-121.969 0-.573-.037-1.136-.043-1.704-.938 66.303-56.155 120.265-123.55 120.265-67.401 0-122.617-53.962-123.55-120.265-.005.568-.043 1.136-.043 1.704-.01 67.085 55.608 121.969 123.588 121.969z"/>
  <path fill="#fff" fill-opacity=".14902" fill-rule="nonzero" d="M139.442 127.718c51.455 0 93.174 54.772 93.174 5.707s-41.714-95.36-93.174-95.36c-51.46 0-93.174 46.295-93.174 95.36s41.719-5.707 93.174-5.707z"/>
  <path fill="url(#_Linear3)" fill-rule="nonzero" d="M20.152 150.609c0-67.091 55.624-121.98 123.609-121.98 31.185 0 59.75 11.574 81.557 30.552-22.429-22.284-53.448-36.135-87.591-36.135-67.984 0-123.608 54.889-123.608 121.979 0 36.318 16.321 69.036 42.051 91.433-22.231-22.087-36.018-52.452-36.018-85.849z"/>
  <path fill="#002159" fill-rule="nonzero" d="M377.626 127.672h-34.365l-5.172 16.593H312.25l34.777-111.986h26.832l34.777 111.986h-25.839l-5.171-16.593zm-27.911-20.736h21.456l-10.737-34.675-10.719 34.675zm102.894-74.657c26.489 0 39.743 11.061 39.743 33.185h-24.847c0-8.288-4.965-12.449-14.896-12.449-9.932 0-14.898 4.144-14.898 12.449 0 8.287 4.966 12.448 14.898 12.448 26.489 0 39.743 11.061 39.743 33.185 0 22.123-13.254 33.184-39.743 33.184-26.49 0-39.743-11.061-39.743-33.184h24.845c0 8.287 4.966 12.448 14.898 12.448 9.931 0 14.896-4.144 14.896-12.448 0-8.288-4.965-12.449-14.896-12.449-26.49 0-39.743-11.061-39.743-33.184 0-22.124 13.253-33.185 39.743-33.185zm92.755 0c26.49 0 39.743 11.061 39.743 33.185 0 22.123-13.253 33.184-39.743 33.184h-14.896v45.617h-24.847V32.279h39.743zm14.898 33.185c0-8.288-4.966-12.449-14.898-12.449h-14.896v24.88h14.896c9.932.017 14.898-4.144 14.898-12.431zm38.116-33.185h24.845v111.985h-24.845V32.279zm77.859 0c26.489 0 39.743 11.061 39.743 33.185 0 12.055-3.939 20.821-11.815 26.301l16.797 52.516h-24.845L681.51 98.494c-1.729.102-3.475.171-5.273.171h-14.898v45.616h-24.845V32.296h39.743v-.017zm14.897 33.185c0-8.288-4.966-12.449-14.897-12.449h-14.898v24.88h14.898c9.931.017 14.897-4.144 14.897-12.431zm43.082-33.185h24.845v111.985h-24.845V32.279zm62.962 48.287v63.699h-24.846V32.279h26.832l32.791 63.698V32.279h24.828v111.986h-26.832l-32.773-63.699zm112.615-48.287c26.489 0 39.743 11.061 39.743 33.185h-24.847c0-8.288-4.965-12.449-14.896-12.449-9.932 0-14.898 4.144-14.898 12.449v45.616c0 8.287 4.966 12.448 14.898 12.448 9.931 0 14.896-4.144 14.896-12.448V98.631h-14.896V77.895h39.743v33.185c0 22.122-13.254 33.185-39.743 33.185-26.49 0-39.743-11.063-39.743-33.185V65.464c0-22.124 13.253-33.185 39.743-33.185zm73.787 62.208v49.778h-24.846V32.279h29.812l24.845 79.965 24.846-79.965h29.811v111.986h-24.845V94.487l-19.863 49.778h-19.863L983.58 94.487zm97.72-62.208h24.846v111.985H1081.3V32.279zm62.966 48.287v63.699h-24.846V32.279h26.831l32.791 63.698V32.279h24.829v111.986h-26.832l-32.773-63.699zm112.617-48.287c26.49 0 39.743 11.061 39.743 33.185v45.616c0 22.122-13.253 33.185-39.743 33.185h-39.743V32.279h39.743zm14.898 33.185c0-8.288-4.966-12.449-14.898-12.449h-14.897v70.513h14.897c9.932 0 14.898-4.144 14.898-12.448V65.464zm77.861-33.185c26.489 0 39.743 11.061 39.743 33.185h-24.847c0-8.288-4.965-12.449-14.896-12.449-9.932 0-14.898 4.144-14.898 12.449 0 8.287 4.966 12.448 14.898 12.448 26.489 0 39.743 11.061 39.743 33.185 0 22.123-13.254 33.184-39.743 33.184-26.49 0-39.743-11.061-39.743-33.184h24.845c0 8.287 4.966 12.448 14.898 12.448 9.931 0 14.896-4.144 14.896-12.448 0-8.288-4.965-12.449-14.896-12.449-26.49 0-39.743-11.061-39.743-33.184 0-22.124 13.253-33.185 39.743-33.185z"/>
  <path fill="#7b8794" fill-rule="nonzero" d="M350.653 204.267c3.268 3.424 4.914 8.605 4.914 15.521v31.82c0 1.045-.312 1.89-.912 2.513-.6.622-1.423.956-2.491.956-1.067 0-1.889-.311-2.49-.956-.601-.623-.912-1.468-.912-2.513v-6.693c-1.578 3.358-3.891 5.937-6.893 7.76-3.024 1.824-6.493 2.735-10.406 2.735-3.536 0-6.783-.711-9.718-2.112-2.935-1.401-5.248-3.38-6.96-5.915-1.69-2.535-2.535-5.314-2.535-8.383 0-4.024 1.045-7.138 3.157-9.384 2.113-2.223 5.604-3.825 10.519-4.803 4.891-.956 11.719-1.446 20.457-1.446h2.379v-4.136c0-4.913-1.023-8.516-3.046-10.784-2.046-2.268-5.248-3.402-9.606-3.402-5.582 0-10.896 1.445-15.944 4.358-.222.155-.8.533-1.757 1.178-.934.646-1.756.957-2.423.957-.756 0-1.378-.29-1.868-.845-.49-.556-.734-1.245-.734-2.068 0-1.646 1.312-3.246 3.959-4.803 2.645-1.491 5.58-2.646 8.827-3.469 3.247-.822 6.449-1.223 9.606-1.223 6.649 0 11.607 1.712 14.877 5.137zm-6.56 40.337c3.135-3.269 4.691-7.45 4.691-12.52v-3.691h-2.156c-7.227 0-12.786.289-16.633.889-3.847.601-6.56 1.623-8.139 3.069-1.579 1.446-2.379 3.558-2.379 6.316 0 3.135 1.201 5.714 3.625 7.76 2.401 2.045 5.38 3.068 8.939 3.068 4.914.022 8.939-1.623 12.052-4.891zm38.046 7.36c-3.847-2.313-6.826-5.582-8.939-9.829-2.113-4.247-3.158-9.117-3.158-14.632 0-5.581 1.068-10.517 3.225-14.809 2.157-4.291 5.159-7.605 9.051-10.007 3.89-2.379 8.338-3.579 13.408-3.579 2.868 0 5.648.378 8.361 1.112 2.713.733 5.115 1.867 7.227 3.357 1.357.979 2.313 1.845 2.89 2.624.557.778.846 1.623.846 2.513 0 .822-.223 1.49-.69 2.001-.445.512-1.022.779-1.689.779-.757 0-1.958-.623-3.625-1.891-1.957-1.423-3.914-2.534-5.871-3.358-1.956-.823-4.336-1.222-7.115-1.222-5.871 0-10.474 2.001-13.787 5.981-3.313 3.981-4.982 9.473-4.982 16.477 0 6.916 1.647 12.298 4.915 16.144 3.269 3.847 7.849 5.76 13.742 5.76 2.869 0 5.248-.401 7.182-1.224 1.913-.822 4.026-1.934 6.271-3.357.69-.445 1.334-.846 1.979-1.223.645-.378 1.157-.556 1.535-.556.756 0 1.356.266 1.801.778.444.511.69 1.157.69 1.89 0 .89-.268 1.668-.801 2.335s-1.557 1.534-3.046 2.579c-2.046 1.49-4.515 2.668-7.406 3.514-2.912.844-5.781 1.289-8.65 1.289-5.07.023-9.517-1.134-13.364-3.446zm81.697-47.697c3.269 3.424 4.915 8.605 4.915 15.521v31.82c0 1.045-.311 1.89-.912 2.513-.6.622-1.424.956-2.49.956-1.067 0-1.891-.311-2.491-.956-.6-.623-.912-1.468-.912-2.513v-6.693c-1.578 3.358-3.891 5.937-6.893 7.76-3.024 1.824-6.493 2.735-10.406 2.735-3.536 0-6.783-.711-9.718-2.112-2.936-1.401-5.248-3.38-6.96-5.915-1.69-2.535-2.535-5.314-2.535-8.383 0-4.024 1.045-7.138 3.157-9.384 2.113-2.223 5.604-3.825 10.519-4.803 4.892-.956 11.718-1.446 20.457-1.446h2.379v-4.136c0-4.913-1.023-8.516-3.046-10.784-2.046-2.268-5.248-3.402-9.606-3.402-5.582 0-10.896 1.445-15.944 4.358-.222.155-.8.533-1.756 1.178-.935.646-1.757.957-2.424.957-.756 0-1.379-.29-1.868-.845-.489-.556-.734-1.245-.734-2.068 0-1.646 1.312-3.246 3.958-4.803 2.646-1.491 5.581-2.646 8.828-3.469 3.247-.822 6.448-1.223 9.606-1.223 6.649 0 11.607 1.712 14.876 5.137zm-6.559 40.337c3.135-3.269 4.691-7.45 4.691-12.52v-3.691h-2.156c-7.227 0-12.786.289-16.633.889-3.847.601-6.56 1.623-8.138 3.069-1.58 1.446-2.38 3.558-2.38 6.316 0 3.135 1.201 5.714 3.624 7.76 2.402 2.045 5.381 3.068 8.939 3.068 4.915.022 8.939-1.623 12.053-4.891zm75.203-68.311c.646.645.957 1.468.957 2.513v72.824c0 1.045-.311 1.891-.957 2.513-.645.623-1.489.956-2.534.956-1.068 0-1.891-.311-2.491-.956-.6-.622-.911-1.468-.911-2.513v-7.36c-1.668 3.647-4.114 6.426-7.361 8.316-3.246 1.891-7.093 2.847-11.54 2.847-4.826 0-9.095-1.178-12.786-3.514-3.692-2.335-6.56-5.647-8.584-9.94-2.045-4.268-3.046-9.25-3.046-14.92 0-5.581 1.023-10.474 3.046-14.699 2.046-4.203 4.892-7.471 8.584-9.761 3.691-2.313 7.96-3.469 12.786-3.469 4.447 0 8.294.956 11.54 2.846 3.247 1.89 5.693 4.67 7.361 8.316v-31.508c0-1.046.311-1.869.911-2.513.6-.623 1.423-.956 2.491-.956 1.045.022 1.889.355 2.534.978zm-10.629 67.354c3.136-3.825 4.693-9.295 4.693-16.366s-1.535-12.541-4.626-16.41c-3.091-3.869-7.493-5.804-13.23-5.804-5.805 0-10.296 1.912-13.453 5.76-3.158 3.847-4.759 9.25-4.759 16.254 0 7.071 1.579 12.564 4.759 16.478 3.157 3.913 7.605 5.87 13.341 5.87 5.715-.022 10.14-1.957 13.275-5.782zm73.492.223c.489.556.734 1.2.734 1.956 0 1.646-1.29 3.247-3.847 4.804-5.425 3.202-11.163 4.803-17.189 4.803-8.361 0-14.965-2.491-19.791-7.494-4.825-4.981-7.226-11.83-7.226-20.546 0-5.582 1.067-10.519 3.224-14.81 2.157-4.27 5.159-7.605 9.051-9.94 3.89-2.357 8.338-3.513 13.408-3.513 7.093 0 12.675 2.246 16.789 6.76 4.113 4.514 6.159 10.695 6.159 18.589 0 1.334-.311 2.335-.911 2.957-.601.646-1.58.957-2.936.957h-37.646c.222 6.849 2.046 12.053 5.426 15.632 3.402 3.581 8.183 5.36 14.364 5.36 3.247 0 5.96-.423 8.138-1.291 2.18-.844 4.515-2.001 7.005-3.402 1.668-1.111 2.825-1.667 3.514-1.667.689 0 1.245.288 1.734.845zm-34.311-34.245c-3.157 3.27-5.048 7.85-5.648 13.742h34.933c-.155-5.958-1.667-10.562-4.513-13.786-2.869-3.246-6.893-4.848-12.097-4.848-5.292-.022-9.518 1.624-12.675 4.892zm127.438 10.519v31.598c0 1.045-.312 1.889-.912 2.513-.6.622-1.423.956-2.491.956-1.067 0-1.911-.312-2.535-.956-.645-.624-.956-1.468-.956-2.513v-31.154c0-5.426-.978-9.361-2.935-11.785-1.957-2.424-5.092-3.625-9.384-3.625-4.892 0-8.805 1.645-11.696 4.915-2.913 3.268-4.358 7.671-4.358 13.186v28.485c0 1.045-.311 1.889-.912 2.512s-1.424.957-2.49.957c-1.068 0-1.913-.311-2.535-.957-.645-.623-.956-1.467-.956-2.512V220.61c0-5.425-.979-9.362-2.936-11.785-1.957-2.423-5.092-3.625-9.383-3.625-4.892 0-8.806 1.646-11.697 4.915-2.913 3.268-4.359 7.671-4.359 13.185v28.486c0 1.045-.311 1.89-.911 2.512-.6.624-1.423.957-2.491.957-1.067 0-1.912-.311-2.535-.957-.645-.622-.956-1.467-.956-2.512v-48.92c0-1.112.311-1.979.956-2.58.646-.6 1.49-.889 2.535-.889 1.045 0 1.869.289 2.424.889.556.601.846 1.423.846 2.446v6.694c1.578-3.358 3.868-5.893 6.848-7.65 2.98-1.757 6.426-2.624 10.34-2.624 8.672 0 14.276 3.58 16.856 10.718 1.578-3.358 4.002-5.981 7.226-7.872 3.246-1.89 6.982-2.846 11.185-2.846 12.141-.022 18.212 6.982 18.212 20.992zm17.678-34.756c-.934-.89-1.423-2.046-1.423-3.469 0-1.49.467-2.69 1.423-3.58.934-.889 2.157-1.335 3.669-1.335s2.735.446 3.669 1.335c.934.89 1.423 2.09 1.423 3.58 0 1.423-.467 2.579-1.423 3.469-.934.889-2.157 1.334-3.669 1.334-1.49.022-2.713-.423-3.669-1.334zm1.134 68.933c-.645-.601-.957-1.445-.957-2.579v-48.921c0-1.112.312-1.979.957-2.58.645-.6 1.489-.889 2.535-.889 1.045 0 1.89.289 2.49.889.6.601.912 1.446.912 2.58v48.921c0 1.112-.312 1.978-.912 2.579-.6.601-1.423.89-2.49.89-1.046 0-1.89-.312-2.535-.89zm32.732-2.357c-3.847-2.313-6.827-5.582-8.94-9.829-2.111-4.247-3.156-9.117-3.156-14.632 0-5.581 1.067-10.517 3.223-14.809 2.158-4.291 5.159-7.605 9.051-10.007 3.892-2.379 8.339-3.579 13.409-3.579 2.868 0 5.648.378 8.361 1.112 2.713.733 5.114 1.867 7.227 3.357 1.356.979 2.312 1.845 2.89 2.624.556.778.845 1.623.845 2.513 0 .822-.223 1.49-.689 2.001-.445.512-1.023.779-1.69.779-.756 0-1.957-.623-3.625-1.891-1.957-1.423-3.913-2.534-5.871-3.358-1.956-.823-4.335-1.222-7.115-1.222-5.87 0-10.474 2.001-13.787 5.981-3.313 3.981-4.98 9.473-4.98 16.477 0 6.916 1.645 12.298 4.913 16.144 3.27 3.847 7.85 5.76 13.743 5.76 2.868 0 5.248-.401 7.182-1.224 1.913-.822 4.025-1.934 6.271-3.357.689-.445 1.334-.846 1.979-1.223.645-.378 1.156-.556 1.534-.556.757 0 1.357.266 1.802.778.444.511.689 1.157.689 1.89 0 .89-.267 1.668-.801 2.335-.533.667-1.556 1.534-3.046 2.579-2.046 1.49-4.514 2.668-7.405 3.514-2.913.844-5.782 1.289-8.649 1.289-5.071.023-9.518-1.134-13.365-3.446zm73.447-66.576c-.933-.89-1.423-2.046-1.423-3.469 0-1.49.467-2.69 1.423-3.58.934-.889 2.157-1.335 3.669-1.335s2.735.446 3.67 1.335c.933.89 1.423 2.09 1.423 3.58 0 1.423-.467 2.579-1.423 3.469-.935.889-2.158 1.334-3.67 1.334-1.512.022-2.735-.423-3.669-1.334zm1.135 68.933c-.645-.601-.957-1.445-.957-2.579v-48.921c0-1.112.312-1.979.957-2.58.644-.6 1.489-.889 2.534-.889 1.045 0 1.89.289 2.491.889.6.601.911 1.446.911 2.58v48.921c0 1.112-.311 1.978-.911 2.579-.601.601-1.424.89-2.491.89-1.045 0-1.89-.312-2.534-.89zm69.596-34.177v31.598c0 1.045-.311 1.889-.912 2.513-.6.622-1.424.956-2.49.956-1.067 0-1.913-.312-2.535-.956-.645-.624-.956-1.468-.956-2.513v-31.154c0-5.359-1.09-9.273-3.27-11.719-2.178-2.445-5.647-3.691-10.406-3.691-5.426 0-9.784 1.645-13.053 4.915-3.268 3.268-4.914 7.671-4.914 13.186v28.485c0 1.045-.311 1.889-.912 2.512-.6.623-1.423.957-2.49.957-1.067 0-1.913-.311-2.535-.957-.623-.645-.956-1.467-.956-2.512v-48.921c0-1.045.311-1.89.956-2.513.645-.622 1.49-.956 2.535-.956.978 0 1.778.289 2.379.889.601.602.912 1.424.912 2.447v7.049c1.734-3.424 4.247-6.049 7.516-7.872 3.269-1.823 7.071-2.735 11.362-2.735 13.165-.022 19.769 6.982 19.769 20.992zm44.986 32.265c0 .889-.333 1.6-1.023 2.135-.667.51-1.779.733-3.269.667l-3.157-.223c-5.737-.378-9.963-2.112-12.72-5.182-2.757-3.09-4.135-7.804-4.135-14.12v-29.707h-8.584c-.911 0-1.623-.245-2.156-.734-.535-.49-.801-1.134-.801-1.957 0-.823.266-1.49.801-2.002.533-.511 1.245-.777 2.156-.777h8.584v-13.854c0-1.112.311-1.979.911-2.58.601-.6 1.424-.889 2.491-.889 1.045 0 1.912.289 2.535.889.644.601.955 1.446.955 2.58v13.854h13.677c.978 0 1.734.266 2.267.777.535.512.801 1.202.801 2.002 0 .823-.266 1.467-.801 1.957-.533.489-1.289.734-2.267.734h-13.677v30.041c0 4.625.913 7.917 2.714 9.873 1.801 1.979 4.625 3.114 8.472 3.402l3.046.222c2.135.223 3.18 1.179 3.18 2.892zm53.766-8.539c.489.556.734 1.2.734 1.956 0 1.646-1.29 3.247-3.847 4.804-5.425 3.202-11.163 4.803-17.189 4.803-8.361 0-14.965-2.491-19.791-7.494-4.825-4.981-7.226-11.83-7.226-20.546 0-5.582 1.067-10.519 3.224-14.81 2.157-4.27 5.159-7.605 9.051-9.94 3.891-2.357 8.338-3.513 13.408-3.513 7.093 0 12.675 2.246 16.789 6.76 4.113 4.514 6.159 10.695 6.159 18.589 0 1.334-.311 2.335-.911 2.957-.601.646-1.58.957-2.936.957h-37.646c.222 6.849 2.046 12.053 5.426 15.632 3.402 3.581 8.183 5.36 14.364 5.36 3.247 0 5.96-.423 8.138-1.291 2.18-.844 4.515-2.001 7.005-3.402 1.668-1.111 2.825-1.667 3.514-1.667.667 0 1.245.288 1.734.845zm-34.311-34.245c-3.157 3.27-5.048 7.85-5.648 13.742h34.933c-.155-5.958-1.667-10.562-4.514-13.786-2.868-3.246-6.893-4.848-12.096-4.848-5.292-.022-9.517 1.624-12.675 4.892zm78.591-9.717c.6.445.911 1.201.911 2.224 0 1.868-1.134 2.913-3.402 3.135l-3.402.334c-5.359.511-9.339 2.424-11.941 5.692-2.602 3.269-3.891 7.116-3.891 11.497v28.929c0 1.112-.311 1.979-.912 2.579-.601.601-1.423.89-2.49.89-1.068 0-1.913-.289-2.536-.89-.622-.6-.956-1.444-.956-2.579v-48.92c0-1.112.312-1.979.956-2.579.645-.601 1.491-.89 2.536-.89.978 0 1.779.289 2.379.89.6.6.911 1.422.911 2.445v7.249c3.091-6.404 8.829-9.895 17.189-10.495l1.579-.111c1.445-.023 2.469.156 3.069.6zm56.304-.556c.824 0 1.579.289 2.269.889.689.601 1.023 1.313 1.023 2.113 0 .512-.112 1-.334 1.445l-22.392 48.587c-.378.823-.934 1.446-1.646 1.89-.712.445-1.489.668-2.312.668-.912 0-1.713-.223-2.424-.668-.712-.444-1.267-1.089-1.645-1.89l-22.504-48.587c-.222-.445-.334-.889-.334-1.334 0-.889.401-1.645 1.179-2.29.8-.623 1.646-.957 2.535-.957 1.423 0 2.401.668 2.935 2.002l20.347 45.118 20.346-45.007c.623-1.312 1.601-1.979 2.957-1.979zm57.612 44.518c.488.556.734 1.2.734 1.956 0 1.646-1.291 3.247-3.847 4.804-5.426 3.202-11.164 4.803-17.189 4.803-8.361 0-14.966-2.491-19.791-7.494-4.826-4.981-7.227-11.83-7.227-20.546 0-5.582 1.067-10.519 3.225-14.81 2.157-4.27 5.158-7.605 9.05-9.94 3.891-2.357 8.338-3.513 13.409-3.513 7.093 0 12.674 2.246 16.788 6.76 4.114 4.514 6.159 10.695 6.159 18.589 0 1.334-.311 2.335-.911 2.957-.601.646-1.579.957-2.936.957h-37.645c.222 6.849 2.045 12.053 5.425 15.632 3.402 3.581 8.183 5.36 14.365 5.36 3.246 0 5.959-.423 8.138-1.291 2.179-.844 4.514-2.001 7.005-3.402 1.667-1.111 2.824-1.667 3.513-1.667.667 0 1.245.288 1.735.845zm-34.311-34.245c-3.158 3.27-5.048 7.85-5.648 13.742h34.933c-.155-5.958-1.668-10.562-4.514-13.786-2.868-3.246-6.893-4.848-12.096-4.848-5.293-.022-9.518 1.624-12.675 4.892zm95.434 10.519v31.598c0 1.045-.311 1.889-.911 2.513-.6.622-1.423.956-2.491.956-1.067 0-1.911-.312-2.534-.956-.645-.624-.957-1.468-.957-2.513v-31.154c0-5.359-1.089-9.273-3.268-11.719-2.18-2.445-5.649-3.691-10.407-3.691-5.426 0-9.784 1.645-13.053 4.915-3.268 3.268-4.914 7.671-4.914 13.186v28.485c0 1.045-.312 1.889-.912 2.512-.6.623-1.423.957-2.49.957-1.068 0-1.912-.311-2.535-.957-.623-.645-.957-1.467-.957-2.512v-48.921c0-1.045.312-1.89.957-2.513.645-.622 1.489-.956 2.535-.956.978 0 1.779.289 2.379.889.601.602.912 1.424.912 2.447v7.049c1.735-3.424 4.247-6.049 7.516-7.872 3.268-1.823 7.071-2.735 11.363-2.735 13.164-.022 19.767 6.982 19.767 20.992zm45.006 32.265c0 .889-.334 1.6-1.023 2.135-.667.51-1.779.733-3.269.667l-3.158-.223c-5.737-.378-9.962-2.112-12.719-5.182-2.757-3.09-4.136-7.804-4.136-14.12v-29.707h-8.583c-.912 0-1.623-.245-2.157-.734-.534-.49-.8-1.134-.8-1.957 0-.823.266-1.49.8-2.002.534-.511 1.245-.777 2.157-.777h8.583v-13.854c0-1.112.311-1.979.912-2.58.6-.6 1.423-.889 2.49-.889 1.045 0 1.913.289 2.535.889.645.601.956 1.446.956 2.58v13.854h13.676c.979 0 1.735.266 2.268.777.533.512.801 1.202.801 2.002 0 .823-.268 1.467-.801 1.957-.533.489-1.289.734-2.268.734h-13.676v30.041c0 4.625.913 7.917 2.713 9.873 1.801 1.979 4.626 3.114 8.473 3.402l3.046.222c2.113.223 3.18 1.179 3.18 2.892zm9.762-67.021c-.933-.89-1.423-2.046-1.423-3.469 0-1.49.467-2.69 1.423-3.58.935-.889 2.157-1.335 3.67-1.335 1.511 0 2.735.446 3.669 1.335.933.89 1.423 2.09 1.423 3.58 0 1.423-.468 2.579-1.423 3.469-.934.889-2.158 1.334-3.669 1.334-1.49.022-2.713-.423-3.67-1.334zm1.135 68.933c-.645-.601-.956-1.445-.956-2.579v-48.921c0-1.112.311-1.979.956-2.58.644-.6 1.49-.889 2.535-.889 1.045 0 1.889.289 2.49.889.601.601.912 1.446.912 2.58v48.921c0 1.112-.311 1.978-.912 2.579-.601.601-1.423.89-2.49.89-1.045 0-1.891-.312-2.535-.89zm32.696-2.357c-3.802-2.313-6.76-5.582-8.873-9.829-2.112-4.247-3.157-9.184-3.157-14.854s1.045-10.606 3.157-14.854c2.113-4.247 5.071-7.516 8.873-9.828 3.803-2.313 8.228-3.469 13.275-3.469 4.981 0 9.384 1.156 13.231 3.469 3.846 2.312 6.804 5.581 8.872 9.828 2.068 4.248 3.113 9.206 3.113 14.854s-1.045 10.607-3.113 14.854-5.026 7.516-8.872 9.829c-3.847 2.312-8.25 3.469-13.231 3.469-5.047 0-9.472-1.157-13.275-3.469zm26.617-8.272c3.157-3.803 4.758-9.273 4.758-16.411 0-7.005-1.601-12.452-4.803-16.366-3.201-3.913-7.626-5.87-13.297-5.87-5.737 0-10.184 1.957-13.342 5.87-3.157 3.914-4.758 9.361-4.758 16.366 0 7.138 1.534 12.63 4.624 16.411 3.091 3.802 7.539 5.693 13.342 5.693 5.805 0 10.318-1.891 13.476-5.693zm71.906-23.548v31.598c0 1.045-.312 1.889-.913 2.513-.6.622-1.423.956-2.49.956-1.067 0-1.912-.312-2.535-.956-.645-.624-.956-1.468-.956-2.513v-31.154c0-5.359-1.09-9.273-3.269-11.719-2.179-2.445-5.648-3.691-10.407-3.691-5.426 0-9.784 1.645-13.053 4.915-3.268 3.268-4.913 7.671-4.913 13.186v28.485c0 1.045-.312 1.889-.913 2.512-.6.623-1.423.957-2.489.957-1.068 0-1.913-.311-2.536-.957-.622-.645-.956-1.467-.956-2.512v-48.921c0-1.045.312-1.89.956-2.513.645-.622 1.49-.956 2.536-.956.978 0 1.778.289 2.379.889.6.602.911 1.424.911 2.447v7.049c1.735-3.424 4.248-6.049 7.516-7.872 3.269-1.823 7.072-2.735 11.363-2.735 13.186-.022 19.769 6.982 19.769 20.992z"/>
  <ellipse cx="217.045" cy="84.585" fill="url(#_Radial4)" rx="85.716" ry="84.585"/>
  <defs>
    <radialGradient id="_Radial1" cx="0" cy="0" r="1" gradientTransform="matrix(138.876 0 0 15.3455 138.877 273.977)" gradientUnits="userSpaceOnUse">
      <stop offset="0" stop-color="#1b4590"/>
      <stop offset=".05" stop-color="#1c438a" stop-opacity=".941176"/>
      <stop offset=".38" stop-color="#1d356b" stop-opacity=".619608"/>
      <stop offset=".65" stop-color="#182a54" stop-opacity=".341176"/>
      <stop offset=".87" stop-color="#132246" stop-opacity=".121569"/>
      <stop offset="1" stop-color="#101e41" stop-opacity="0"/>
    </radialGradient>
    <linearGradient id="_Linear2" x2="1" gradientTransform="matrix(49.1325 -82.6984 82.6984 49.1325 10429.8 6405.81)" gradientUnits="userSpaceOnUse">
      <stop offset="0" stop-color="#194087"/>
      <stop offset=".11" stop-color="#1b3b7c" stop-opacity=".886275"/>
      <stop offset=".4" stop-color="#193062" stop-opacity=".603922"/>
      <stop offset=".65" stop-color="#15264f" stop-opacity=".34902"/>
      <stop offset=".86" stop-color="#112045" stop-opacity=".137255"/>
      <stop offset="1" stop-color="#0f1e41" stop-opacity="0"/>
    </linearGradient>
    <linearGradient id="_Linear3" x2="1" gradientTransform="matrix(-123.473 -150.151 150.151 -123.473 5195.94 -4036.17)" gradientUnits="userSpaceOnUse">
      <stop offset="0" stop-color="#0f1e41" stop-opacity="0"/>
      <stop offset=".26" stop-color="#0f1e41" stop-opacity="0"/>
      <stop offset=".36" stop-color="#112045" stop-opacity=".137255"/>
      <stop offset=".5" stop-color="#15264f" stop-opacity=".34902"/>
      <stop offset=".68" stop-color="#193062" stop-opacity=".603922"/>
      <stop offset=".88" stop-color="#1b3b7c" stop-opacity=".886275"/>
      <stop offset=".96" stop-color="#194087"/>
      <stop offset="1" stop-color="#194087"/>
    </linearGradient>
    <radialGradient id="_Radial4" cx="0" cy="0" r="1" gradientTransform="matrix(85.7143 0 0 84.5852 217.052 84.5886)" gradientUnits="userSpaceOnUse">
      <stop offset="0" stop-color="#fff"/>
      <stop offset="1" stop-color="#fff" stop-opacity="0"/>
    </radialGradient>
  </defs>
</svg>
