<svg
  viewBox="0 0 20 20"
  xmlns="http://www.w3.org/2000/svg"
  fill-rule="evenodd"
  clip-rule="evenodd"
  stroke-linejoin="round"
  stroke-miterlimit="1.414"
>
  <path
    d="M2 0h4c.473 0 .885.336.98.8l1 5c.065.326-.036.664-.27.9L5.19 9.22a12.052 12.052 0 0 0 5.59 5.59l2.51-2.52c.236-.234.574-.335.9-.27l5 1c.47.1.81.5.81.98v4c0 1.097-.903 2-2 2h-2C7.223 20 0 12.777 0 4V2C0 .9.9 0 2 0z"
    fill="#fff"
    fill-rule="nonzero"
  />
  <path
    d="M12.7 8.7a1 1 0 0 1-1.4-1.4L15.58 3H13c-.549 0-1-.451-1-1 0-.549.451-1 1-1h5c.549 0 1 .451 1 1v5c0 .549-.451 1-1 1-.549 0-1-.451-1-1V4.41l-4.3 4.3V8.7z"
    fill="#bae3ff"
    fill-rule="nonzero"
  />
</svg>
