<svg xmlns="http://www.w3.org/2000/svg" fill-rule="evenodd" stroke-miterlimit="10" clip-rule="evenodd" viewBox="0 0 1084 434">
  <ellipse cx="545.104" cy="398.352" fill="#f2f2f2" rx="527.5" ry="34.922"/>
  <path fill="#2f2e41" fill-rule="nonzero" d="M524.887 16.053c-85.944 0-147.651 55.139-147.651 183.798 0 145.813 61.707 184.41 147.651 184.41 85.944 0 151.327-42.273 151.327-184.41 0-151.94-65.383-183.798-151.327-183.798zm.565 319.808c-59.527 0-90.626-34.923-90.626-135.916 0-89.112 32.372-136.105 91.899-136.105s91.899 30.868 91.899 136.105c0 98.447-33.646 135.916-93.172 135.916z"/>
  <path fill="#0967d2" fill-rule="nonzero" d="M325.772 282.56h-35.534V177.92c0-11.496-9.46-20.955-20.956-20.956h-8.326c-11.496 0-20.956 9.46-20.956 20.956v104.64H139.77c-6.563 0-11.963-5.401-11.963-11.964 0-1.947.475-3.866 1.385-5.588L235.275 64.227c1.594-3.016 2.427-6.377 2.427-9.789 0-8.094-4.689-15.493-12.008-18.95l-6.262-2.957c-10.04-4.741-22.195-.722-27.429 9.07L62.621 283.634c-2.203 4.121-3.356 8.723-3.356 13.396 0 15.588 12.828 28.416 28.416 28.416H240v66.167c0 13.78 11.339 25.119 25.119 25.119s25.119-11.339 25.119-25.119v-66.167h35.534c11.764 0 21.443-9.68 21.443-21.443 0-11.763-9.679-21.443-21.443-21.443zM983.769 282.56h-35.534V177.92c0-11.496-9.46-20.956-20.956-20.956h-8.327c-11.496 0-20.956 9.46-20.956 20.956v104.64h-100.23c-6.563 0-11.963-5.401-11.963-11.964 0-1.947.476-3.866 1.386-5.588L893.271 64.227c1.594-3.016 2.427-6.377 2.427-9.789 0-8.094-4.689-15.493-12.007-18.95l-6.263-2.957c-10.04-4.741-22.194-.722-27.429 9.07L720.618 283.634c-2.203 4.121-3.356 8.723-3.356 13.396 0 15.588 12.827 28.416 28.416 28.416h152.318v66.167c0 13.78 11.34 25.119 25.119 25.119 13.78 0 25.119-11.339 25.119-25.119v-66.167h35.535c11.763 0 21.443-9.68 21.443-21.443 0-11.763-9.68-21.443-21.443-21.443z"/>
  <path fill="none" stroke="#3f3d56" d="M335.575 270.307h-35.534v-104.64c0-11.496-9.46-20.956-20.956-20.956h-8.327c-11.496 0-20.956 9.46-20.956 20.956v104.64h-100.23c-6.562 0-11.963-5.401-11.963-11.964 0-1.948.476-3.866 1.386-5.588L245.077 51.974c1.594-3.017 2.427-6.377 2.427-9.789 0-8.094-4.689-15.494-12.007-18.95l-6.263-2.957c-10.04-4.741-22.194-.722-27.429 9.07L72.424 271.381c-2.203 4.121-3.356 8.723-3.356 13.396 0 15.588 12.827 28.416 28.416 28.416h152.318v66.167c0 13.78 11.34 25.119 25.119 25.119h.001c13.779 0 25.119-11.339 25.119-25.119v-66.167h35.534c11.763 0 21.443-9.68 21.443-21.443 0-11.764-9.68-21.443-21.443-21.444v.001zM1002.15 270.307h-35.535v-104.64c0-11.496-9.459-20.956-20.956-20.956h-8.326c-11.496 0-20.956 9.46-20.956 20.956v104.64h-100.23c-6.563 0-11.963-5.401-11.963-11.964 0-1.948.476-3.866 1.386-5.588L911.652 51.974c1.594-3.017 2.427-6.377 2.427-9.789 0-8.094-4.689-15.494-12.007-18.95l-6.263-2.957c-10.04-4.741-22.195-.722-27.429 9.07L738.998 271.381c-2.203 4.121-3.355 8.723-3.355 13.396 0 15.588 12.827 28.416 28.415 28.416h152.319v66.167c0 13.78 11.339 25.119 25.119 25.119s25.119-11.339 25.119-25.119v-66.167h35.535c11.763 0 21.443-9.68 21.443-21.443 0-11.764-9.68-21.443-21.443-21.444v.001zM544.492 5.025c-85.944 0-147.651 55.139-147.651 183.798 0 145.813 61.707 184.41 147.651 184.41 85.944 0 151.327-42.273 151.327-184.41 0-151.94-65.383-183.798-151.327-183.798zm.565 319.808c-59.527 0-90.626-34.923-90.626-135.916 0-89.112 32.372-136.105 91.899-136.105s91.899 30.868 91.899 136.105c0 98.447-33.645 135.916-93.172 135.916z"/>
  <path fill="#57b894" fill-rule="nonzero" d="M1011.32 268.593c2.279.828 4.686 1.252 7.111 1.252 11.417 0 20.812-9.395 20.812-20.812 0-11.418-9.395-20.813-20.812-20.813-1.459 0-2.913.153-4.34.457l.521 10.713-5.068-9.181c-4.972 2.336-8.817 6.556-10.683 11.723-.663 1.81-1.067 3.706-1.198 5.63-.655 9.246 4.943 17.868 13.657 21.031z"/>
  <path fill="none" stroke="#3f3d56" d="M1036.4 392.836c-1.789-9.11 5.963-17.187 13.621-22.436 7.658-5.25 16.605-10.408 19.218-19.317 3.755-12.804-7.43-24.53-16.136-34.642-6.459-7.504-12.005-15.748-16.523-24.557-1.812-3.533-3.476-7.226-3.953-11.167-.686-5.675 1.137-11.323 2.974-16.736 6.12-18.035 12.663-35.918 19.629-53.65"/>
  <path fill="none" stroke="#3f3d56" d="M1012.18 265.835c2.279.828 4.686 1.252 7.111 1.252 11.417 0 20.812-9.395 20.812-20.812 0-11.418-9.395-20.813-20.812-20.813-1.459 0-2.913.153-4.339.457l.52 10.713-5.068-9.181c-4.972 2.337-8.817 6.556-10.683 11.723-.663 1.81-1.066 3.706-1.197 5.63-.656 9.246 4.943 17.868 13.656 21.031z"/>
  <path fill="#57b894" fill-rule="nonzero" d="M1033.86 206.631c2.414-6.659 8.07-11.642 14.98-13.197l1.714 10.183 3.177-10.695c11.298.167 20.501 9.508 20.501 20.807 0 11.416-9.394 20.81-20.81 20.81-11.416 0-20.81-9.394-20.81-20.81 0-2.42.423-4.822 1.248-7.098z"/>
  <path fill="none" stroke="#3f3d56" d="M1035 202.954c2.414-6.659 8.07-11.643 14.98-13.198l1.714 10.184 3.177-10.696c11.298.168 20.501 9.509 20.501 20.808 0 11.416-9.394 20.81-20.81 20.81-11.416 0-20.81-9.394-20.81-20.81 0-2.421.422-4.823 1.248-7.098z"/>
  <path fill="#57b894" fill-rule="nonzero" d="M1049.45 316.647c2.275.826 4.676 1.248 7.096 1.248 11.416 0 20.81-9.394 20.81-20.81 0-7.045-3.577-13.627-9.487-17.46l-2.441 8.219-1.732-10.304c-.017-.008-.034-.015-.053-.02-2.278-.828-4.684-1.252-7.108-1.252-11.417 0-20.811 9.395-20.811 20.811 0 8.741 5.507 16.592 13.726 19.568z"/>
  <path fill="none" stroke="#3f3d56" d="M1050.44 312.923c2.275.825 4.676 1.247 7.096 1.247 11.416 0 20.81-9.394 20.81-20.81 0-7.044-3.577-13.627-9.487-17.46l-2.441 8.219-1.731-10.304c-.017-.008-.035-.014-.053-.02-2.279-.828-4.685-1.251-7.109-1.251-11.416 0-20.811 9.394-20.811 20.811 0 8.741 5.507 16.592 13.726 19.568z"/>
  <path fill="#57b894" fill-rule="nonzero" d="M1027.78 351.21c1.741 9.906 10.429 17.201 20.487 17.201 11.411 0 20.801-9.39 20.801-20.802 0-11.411-9.39-20.801-20.801-20.801-6.447 0-12.541 2.998-16.477 8.105l9.273 13.956-12.67-7.408c-.982 3.154-1.193 6.497-.613 9.749z"/>
  <path fill="none" stroke="#3f3d56" d="M1028.64 348.452c1.741 9.906 10.429 17.201 20.487 17.201 11.412 0 20.802-9.39 20.802-20.801 0-11.412-9.39-20.802-20.802-20.802-6.447 0-12.541 2.998-16.476 8.105l9.272 13.956-12.67-7.407c-.982 3.153-1.192 6.496-.613 9.748z"/>
  <path fill="#57b894" fill-rule="nonzero" d="M13.468 319.292c1.498.544 3.079.823 4.672.823 7.502 0 13.675-6.173 13.675-13.675 0-7.501-6.173-13.674-13.675-13.674-.958 0-1.913.101-2.851.301l.343 7.038-3.33-6.032c-3.267 1.535-5.793 4.307-7.02 7.702-.435 1.19-.7 2.435-.786 3.699-.431 6.075 3.248 11.74 8.972 13.818z"/>
  <path fill="none" stroke="#3f3d56" d="M29.945 400.922c-1.176-5.986 3.918-11.292 8.949-14.741s10.91-6.838 12.626-12.692c2.467-8.412-4.881-16.116-10.601-22.76-4.244-4.93-7.888-10.346-10.856-16.135-1.291-2.273-2.17-4.757-2.597-7.336-.451-3.729.747-7.44 1.954-10.996 4.02-11.849 8.319-23.599 12.896-35.25"/>
  <path fill="none" stroke="#3f3d56" d="M14.032 317.48c1.497.544 3.078.823 4.672.823 7.501 0 13.674-6.173 13.674-13.675 0-7.501-6.173-13.674-13.674-13.674-.959 0-1.914.101-2.851.301l.342 7.038-3.33-6.032c-3.267 1.535-5.793 4.307-7.019 7.702-.436 1.19-.701 2.435-.787 3.699-.43 6.075 3.248 11.74 8.973 13.818z"/>
  <path fill="#57b894" fill-rule="nonzero" d="M28.273 278.582c1.586-4.375 5.302-7.649 9.842-8.671l1.126 6.691 2.088-7.027c7.423.11 13.47 6.247 13.47 13.671 0 7.5-6.172 13.672-13.673 13.672s-13.673-6.172-13.673-13.672c0-1.591.278-3.169.82-4.664z"/>
  <path fill="none" stroke="#3f3d56" d="M29.024 276.166c1.586-4.375 5.302-7.649 9.842-8.671l1.126 6.691 2.088-7.027c7.423.11 13.469 6.247 13.469 13.671 0 7.5-6.172 13.672-13.672 13.672-7.501 0-13.673-6.172-13.673-13.672 0-1.591.278-3.169.82-4.664z"/>
  <path fill="#57b894" fill-rule="nonzero" d="M38.519 350.865c1.494.542 3.072.819 4.662.819 7.5 0 13.672-6.172 13.672-13.672 0-4.629-2.35-8.954-6.233-11.472l-1.604 5.4-1.137-6.77c-.011-.005-.023-.009-.035-.013-1.498-.544-3.079-.823-4.673-.823-7.501 0-13.673 6.172-13.673 13.673 0 5.744 3.619 10.903 9.021 12.858z"/>
  <path fill="none" stroke="#3f3d56" d="M39.169 348.417c1.495.543 3.073.82 4.662.82 7.501 0 13.673-6.172 13.673-13.673 0-4.628-2.35-8.953-6.233-11.471l-1.604 5.4-1.137-6.77c-.012-.005-.023-.009-.035-.013-1.495-.542-3.073-.82-4.663-.82-7.501 0-13.673 6.173-13.673 13.674 0 5.74 3.614 10.896 9.01 12.853z"/>
  <path fill="#57b894" fill-rule="nonzero" d="M24.283 373.573c1.144 6.508 6.852 11.301 13.461 11.301 7.497 0 13.666-6.169 13.666-13.667 0-7.497-6.169-13.667-13.666-13.667-4.236 0-8.24 1.97-10.826 5.325l6.092 9.17-8.324-4.867c-.645 2.072-.784 4.269-.403 6.405z"/>
  <path fill="none" stroke="#3f3d56" d="M24.846 371.761c1.144 6.508 6.852 11.301 13.461 11.301 7.497 0 13.667-6.169 13.667-13.667 0-7.497-6.17-13.667-13.667-13.667-4.236 0-8.24 1.97-10.826 5.325l6.092 9.17-8.324-4.867c-.645 2.072-.784 4.269-.403 6.405z"/>
</svg>
