<svg clip-rule="evenodd" fill-rule="evenodd" stroke-linejoin="round" stroke-miterlimit="1.41421" viewBox="0 0 2835 2363" xmlns="http://www.w3.org/2000/svg" xmlns:xlink="http://www.w3.org/1999/xlink"><linearGradient id="a"><stop offset="0" stop-color="#808080" stop-opacity=".247059"/><stop offset=".54" stop-color="#808080" stop-opacity=".113725"/><stop offset="1" stop-color="#808080" stop-opacity=".094118"/></linearGradient><linearGradient id="b" gradientTransform="matrix(46.6382 .88606 -.88606 46.6382 2060.07 1221.82)" gradientUnits="userSpaceOnUse" x2="1" xlink:href="#a"/><linearGradient id="c" gradientTransform="matrix(165.782 1.90976 -1.90976 165.782 1994.22 1121.23)" gradientUnits="userSpaceOnUse" x2="1" xlink:href="#a"/><linearGradient id="d" gradientTransform="matrix(701.689 0 0 701.689 1628.33 1716.19)" gradientUnits="userSpaceOnUse" x2="1" xlink:href="#a"/><path d="m2098.95 1197.2c0 1.3-5.8 28.3 5.5 52.5s-41.7 11.9-41.7 11.9l-3.1-21.9 5.6-40 10.9-19.9 19.5 5.6z" fill="url(#b)" fill-rule="nonzero"/><path d="m2005.64 1105.7c-3.4-1-7.3-1.2-9.4-4.5-1.2-1.9-1.4-4.5-1.5-6.9-.5-10.4-.2-21.5 4.5-30.4 7.8-14.7 24.9-18.3 39.3-15.9s28.1 9.3 42.6 9.6c10.7.2 21.6-3.1 32.1-1 8.3 1.7 15.7 6.7 22.9 11.8 6.7 4.7 13.5 9.8 17.9 17.4 6.1 10.6 6.9 20.9 5.5 39.3-1.2 16-3.7 32.4-11.4 45.9-11.2 19.5-33.1 29.8-52.2 24.5-2.6-.6-5-1.8-7-3.7-1.9-2.1-3.3-4.7-4.1-7.5-3.3-9.5-4.5-20.1-9.5-28.4s-16.3-12.7-22.6-5.2c-3.4 4.1-4.5 10.7-8.7 13.3-5.1 3.2-11.1-1.6-14.4-7.1-9.6-16-3.2-45.2-24-51.2z" fill="url(#c)" fill-rule="nonzero"/><ellipse cx="2009.64" cy="2333.9" fill="#0967d2" fill-opacity=".098039" rx="289.6" ry="28.5"/><path d="m1240.94 46.7c127.5-47.4 282.8-6.6 415.4 52.8 416.4 186.8 719.8 541.4 960.8 902.7 87.3 130.8 170.2 267.4 203 413.4 66.8 297.2-107.4 604.9-403.7 712.7-100.8 36.7-211.5 51.8-322.3 60.1-197.2 14.9-401.3 9-596.9-46.3-139.5-39.5-271.4-103.1-398-173.4-353.4-196.3-676.1-451.2-908.5-762.5-102-136.5-188.2-290.5-190.7-448-2.5-157.6 100.2-316 269.2-342.7 69.8-11.1 143.7.5 215.8 12.3 106.1 17.4 213.7 35.8 318.6 28.2 108.4-7.9 249.4-50.3 269.1-153.8 20.9-111.1 40.8-208.1 168.2-255.5z" fill="#0967d2" fill-opacity=".098039" fill-rule="nonzero"/><path d="m684.145 2170.6s136.3-8.2 120.2 87.3c0 0 3.2 16.9-12.1 24.5 0 0-.2-7.1-14-4.7-4.9.8-9.9 1.1-14.8.7-6.7-.5-13-3.1-18.1-7.5s-38.3-15.8-53.2-78.4c0 0-11-13.6-10.6-17.2l23 9.8s-7.8 16.6-1.7 30.4c0 0 .7-29.8 5.2-29.1.9.1 11.9 5.6 11.9 5.6s-13.5 28.9-3.3 49.9c0 0-3.9-35.6 7.5-47.8l16.2 9.5s-15.8 29.8-5.1 54.2c0 0-2.8-37.4 8.5-51.9l14.7 11.3s-14.9 29.4-5.8 49.6c0 0 1.2-43.5 9-46.8 0 0 12.8 11.3 14.8 16 0 0-10.2 21.3-3.9 32.6 0 0 3.9-29 7.1-29.1 0 0 12.8 19.2 14.1 32.4 0 0-.6-19.6-11-34.2 0 0 12.4 2.1 19.6 10.1 0 0-2-13.6-22.7-14.8 0 0-10.6-14.5-13.4-15.4 0 0 20.6-1.7 33.1 3.8 0 0-11-12.8-36.9-7l-14.5-11.8s27.2-3.7 38.7.4c0 0-13.2-11.3-42.6-3.1l-15.8-9.4s23.2-5 37-3.2c0 0-14.6-7.8-41.6.6l-11.3-5.1s16.9-3.3 21.9-3.9c5-.5 5.2-1.9 5.2-1.9-10.7-1.8-21.8-.6-31.9 3.5-10.1 4.4-23.9-8.3-23.4-9.9z" fill="#3ebd93" fill-rule="nonzero"/><ellipse cx="777.945" cy="2290.7" fill="#0967d2" fill-opacity=".098039" rx="96.4" ry="16.3"/><path d="m501.545 2106.3s76.8-4.6 67.8 49.2c1 5.6-1.8 11.2-6.8 13.8s-.1-4-7.9-2.6c-2.7.5-5.5.6-8.3.4-3.8-.2-7.4-1.7-10.2-4.2s-21.6-8.9-30-44.2c0 0-6.2-7.7-6-9.7l13 5.6s-4.4 9.4-1 17.1c0 0 .4-16.8 2.8-16.4.5 0 6.7 3.2 6.7 3.2s-7.6 16.3-1.9 28.2c0 0-2.2-20.1 4.2-27l9.1 5.3s-8.9 16.9-2.8 30.5c0 0-1.6-21.1 4.8-29.2l8.3 6.4s-8.5 16.6-3.2 28c0 0 .6-24.5 5.1-26.4 0 0 7.2 6.4 8.3 9 0 0-5.6 12-2.2 18.4 0 0 2.2-16.3 4-16.4 0 0 7.2 10.8 7.9 18.2-.4-6.9-2.5-13.5-6.2-19.3 4.2.8 8 2.7 11 5.6s-1.1-7.7-12.8-8.3c0 0-6-8.2-7.5-8.7 0 0 11.6-1 18.7 2.1 0 0-6.2-7.2-20.8-4l-8.2-6.7s15.3-2.1 21.8.2c0 0-7.5-6.4-24-1.7l-8.9-5.3c6.8-1.5 13.8-2.1 20.8-1.8s-8.2-4.4-23.4.4l-6.4-2.8s9.6-1.9 12.4-2.2 3-1.1 3-1.1c-6.1-1-12.3-.3-18 2-5.7 2.8-13.4-4.6-13.2-5.6z" fill="#3ebd93" fill-rule="nonzero"/><ellipse cx="554.445" cy="2174" fill="#0967d2" fill-opacity=".098039" rx="54.4" ry="9.2"/><path d="m2391.55 2158.1s92.7-5.6 81.9 59.3c1.1 6.7-2.2 13.5-8.2 16.7s-.2-4.8-9.5-3.2c-3.3.6-6.7.7-10.1.5-4.5-.3-8.9-2.1-12.3-5.1s-26.1-10.8-36.2-53.4c0 0-7.5-9.3-7.2-11.7l15.6 6.7s-5.3 11.3-1.1 20.7c0 0 .5-20.3 3.5-19.8.6 0 8.1 3.9 8.1 3.9s-9.2 19.8-2.3 33.9c0 0-2.6-24.2 5.1-32.5l11 6.4s-10.8 20.3-3.4 36.9c0 0-1.9-25.4 5.6-35.3l10 7.8s-10.1 20-4 33.9c0 0 .8-29.6 6.1-31.8 0 0 8.7 7.7 10.1 10.9 0 0-6.9 14.5-2.6 22.2 0 0 2.6-19.8 4.8-19.8 0 0 8.7 13.1 9.6 22-.4-8.3-3-16.3-7.5-23.3 5 .9 9.7 3.3 13.3 6.9 3.7 3.5-1.4-9.2-15.5-10.1 0 0-7.2-9.9-9.1-10.5 0 0 14.1-1.2 22.6 2.6 0 0-7.5-8.7-25.2-4.7l-9.9-8s18.5-2.5 26.3.3c0 0-9-7.7-29-2.1l-10.7-6.4s15.8-3.4 25.2-2.2c0 0-9.9-5.3-28.2.5l-7.7-3.4s11.5-2.3 14.9-2.6 3.6-1.3 3.6-1.3c-7.3-1.2-14.8-.4-21.7 2.4-6.7 2.6-16.2-6.2-15.9-7.3z" fill="#3ebd93" fill-rule="nonzero"/><ellipse cx="2455.45" cy="2239.9" fill="#0967d2" fill-opacity=".098039" rx="65.6" ry="11.1"/><g fill-rule="nonzero"><path d="m2204.64 1284.7c-1.6-3.5-3.8-6.6-6.5-9.3-1-1-1.6-2.3-3.1-3.8-1.7-1.5-3-3.3-4.1-5.1-.2-.3-.5-.6-.8-.7-10.7-4-21-8.8-32-11.9-3.4-1-7.3-1.2-10.6-2.4-.1 0-.3-.1-.4-.1-.4 0-.9-.1-1.3-.1-.2 0-.4-.1-.6-.1-8-3.7-20.7-8.1-41.1-12-28.7-5.5-21.4 6.9-11.7 17.2 1.1 1.2.1 3-1.5 2.7-5.4-1.1-11.3-3.9-14.4-7.6-10.1-12.1-13.7-25.4-14.3-41-.1-1.5-.1-2.9-.1-4.4 0-.4-.2-.8-.4-1.1-1.2-1.3-2.2-2.7-3.2-4.2-2.7-4.4-4.5-9.4-5.4-14.5-.1-.5-.1-.9-.2-1.4 0-.2-.1-.4-.2-.6-.3-.4-.5-.8-.7-1.2-6.1-10.8-8.8-22-10.5-33.8-.1-.6-.5-1.1-1.1-1.3-11-3.5-17.5-14.8-18.2-25.9-.3-5 .2-10 .4-15 0-.5-.2-.9-.5-1.2-3.6-3.5-6.7-8.3-7.4-12.5-.2-.9-.3-1.8-.4-2.6-.1-.5-.4-1-.9-1.2-2.7-1.2-5.3-2.5-7.9-3.9-.2-.1-.5-.3-.8-.5-.5-.2-1.2-.5-1.7-.8-.5-.2-1.1-.3-1.6-.5-.6-.2-1.3-.1-1.8.4-.4.4-.8.9-1.2 1.3-12.1 13.6-18.7 31.2-18.7 49.4.2 29.5 17.7 56.2 44.5 68.2.8.3 1.2 1.2.9 2l-.1.4c-1 3.2-2.2 6.3-3.6 9.4-.3.7-1.1 1.1-1.9.9-5.5-1.5-11.4-.6-16.4 2.3 0 0-.1 0-.1.1-8.1 5.6-23.8 5.2-28 4.1-4.2-1-48-6.6-51.5-5.2s-10.5-4.8-15 3.5-6.7 12.8-11.3 14.9-12.6 8.6-11.5 10c1 1.3-10 8.7-11.4 9.6-.1.1-.2.1-.3.2-1.2 1.2-11.1 11.3-17 12.7-6 1.4-18.6 9.4-19.6 10l-.1.1-15 11.8c-.2.2-.5.3-.8.3-2.1.2-10.7.7-7.6-6.3 3.2-7.4-4.9-16.5-6.2-17.8-.1-.1-.2-.2-.3-.4-1.6-3.2-19.5-39.9-19.5-47.8 0-7.5-13.3-37-15.7-42.4-.2-.5-.7-.9-1.3-.9-.6-.1-1.2-.5-1.4-1.1l-.6-1.6c-3-8.3-6.8-18.5-9.7-24.5-5.6-11.4-9.1-12.6-9.1-12.6s-68-51-112.1-35.5c-44.2 15.6 80.6 61.9 91.8 66.8 3.6 1.6 6.3 6.4 8.3 12.2.3.8-.1 1.6-.8 2-9.4 4.8-17.3 12.1-22.9 21.1-5.8 9.4 27 59.8 27.7 74.7.7 14.4 17.4 53.8 18.5 56.3 0 .1.1.2.1.3.5 2.1 7.9 30.5 42.5 28.9h.3c3.1.6 50 8.8 60.5 0 10.9-9.1 20.7-16.3 25.9-17.4 3.9-1.3 7.3-3.7 9.8-6.9s-16.5 103.8-24.5 112.8c-8.1 9-79.4 125.5-53.8 146.3 20.3 15.7 41.7 29.9 64.1 42.4 2 1 7.4-7.7 15.2-15 1.1-1 2.8-.3 2.8 1.2v2.4c.2 41.4 5.6 104.5 13.2 118.6 10.2 18.7 7.4 53 6.8 59.7-.1.7.3 1.4 1 1.7 5.3 2.3 10.9 3.7 16.7 4 .7 0 1.3.5 1.5 1.2.3 1 .5 2.1.8 3.1 6.2 23.3 16.2 59.5 21.3 69.1 7.7 14.5 13.3 60.6 13.3 60.6s4.6 45.2 2.8 51.5c-.7 2.4 2.3 21.1 6.9 44.9v.5c-2.8 32.5-8.2 94.8-9.1 117.4v3.8c-.1 1.4 0 2.9.2 4.3.4 2.2.2 4.4-.5 6.4-2 6.2-4.5 12.3-7.6 18.1v.1c-1.2 2.6-2.2 5.3-3.2 8.1-.1.4-.4.7-.8.9-2.7 1.4-5.8 4.5-7.6 11.4-3.5 13.5-8.8 50.8-8.8 50.8s-2.1 22.8-6.3 28-8.5 37.7 21.4 41.8c27.1 3.8 40.3-12.4 42.4-15.4.2-.3.3-.6.3-1l-1-90v-.2c.6-.8 1.1-1.6 1.6-2.5v-.2c.2-.4.4-.9.6-1.4l.3-.7.5-1.1v-.4c2.9-8.6 3.8-17.8 2.6-26.9v-3.9c0-.6.1-1.2.2-1.9.1-.6 0-.2 0-.3l.2-1.1v-.5c0-.4 0-.7.2-1.1v-.3c.3-1.3.6-2.8 1-4.1v-.3l.4-1.4c.4-1.4.9-2.8 1.4-4.3v-.3c0-.5.3-.9.5-1.3v-.2c.5-1.4 1-2.8 1.6-4l.1-.4.5-1.1.1-.3 1.1-2.5 8.3 25.5v.1c.3 1.2 4.5 19.1 2.1 23.5-2.3 4.2 2.1 20.5 5.5 23.1.5.4.7.9.7 1.5l-3.1 22.4c-1.8 12.9-2.8 26-3.1 39v.2c-.2 1.5-.4 2.7-.6 3.6-2.1 11.1 2.3 27.7 3.1 30.4.1.2.2.5.3.6 25.8 30.1 56.1 6 60 2.6.3-.2.5-.6.5-.9.6-3 3.3-17.1-.1-20.2-3.7-3.3-2.2-15-2.1-15.9v-.1c.1-1.5 1.8-31.3 2.1-53.2.3-22.5-18.4-42.4-18.4-42.4l-1 .9c-3.4-8.8-7.3-19.1-6.5-23.7 1.4-7.8-3.6-88.5-3.9-91.9v-.2c1.9-22.5 2.4-45 1.2-67.5v-.3c.4-3.8.9-7.5 1.3-11.2 2.1-18.1 3.8-33.5 4.5-41.6v-1c.2-2.2.3-3.7.2-4.5 0-2.8 0-6 .3-9.6.6-9.7 2.2-20.5 2.2-20.5l7.3-44.6v-.1c.4-1.3 5.9-22.1 13.7-33.8l1-1.5c.3-.5.6-1.1 1-1.8l.1-.3c.3-.6.6-1.2 1-1.9l.1-.3c1.1-2.2 2.3-4.8 3.6-7.6 0-.2.2-.4.3-.6l1-2.1c0-.3.2-.6.4-.8s.6-1.4.9-2.1c.1-.3.3-.6.4-.9.4-.8.8-1.7 1.1-2.6l.5-1.3c.3-.6.5-1.3.8-1.9l.7-1.7c.2-.4.4-.8.5-1.3l.8-1.9c0-.3.3-.6.4-.9 2-5 3.9-9.9 5.6-14.4.5-1.3-8.9 204.2-9.4 224.4 0 .9.7 1.6 1.5 1.7 12.4.8 19.8 1.5 22.9 1.8.9.1 1.7-.6 1.8-1.5 1.7-22.8 20.4-270 18.7-295.4-1.2-18.2 2.2-41.1 4.4-53.6.3-1.4.5-2.6.7-3.8l.5.4c8.2 6.4 14.2-12.9 15-15.6.1-.2.1-.4.1-.6-.3-2.7-2.6-22.8-5.6-46.8v-.3c-.1-1.1.8-2 1.9-1.8 4.3.8 8.7 1.5 13.1 1.9 4.9.5 3.1-.2 6.1-.7.4-.1.7 0 1.1.2 10.2 5.8 20.8 10.7 31.9 14.5.8.3 1.6-.1 2-.8l18-33.2c3.5-7.1 7.6-13.9 12.2-20.4 0 0 0-.1.1-.1 5.7-7 25.5-29 25.2-33.2s6.7-28 13.7-38.8c7-10.7 9.8-32.3 9.5-34-1.8-9.9-2.8-20-3.1-30.1 0-11-13.6-20.9-16.1-22.6-.3-.2-.4-.4-.6-.7-1.4-3.2-10.5-23.4-16.8-26.6s-25.1-30.4-27.4-33.9c-.2-.2-.3-.5-.3-.8-.3-5.9-2.5-11.6-6.3-16.2-6.2-8.2-12-16.8-17.1-25.8 0-.1-.1-.1-.1-.2-2.7-3.4-1.4-6-5.6-25.9-.2-1-.5-2.1-.8-3 0-.5-.3-.8-.5-1.3zm17.2 214.3c-7.4 3.1-14.4 20.4-14.7 25.6s-8.1 28-16.1 30.8c-7.1 2.4-20.3 14.4-23.5 17.3-.3.2-.6.4-1 .4-1.7.2-3.6.4-5.5.7-.9.1-1.7-.5-1.9-1.4-3-21.1-5.9-38.3-7.8-41.9-5.4-9.9 5.1-40.4 6.1-43.4.1-.2.1-.3.1-.5.1-3 1.5-33.7 8.5-41.3 6.9-7.5 5.8-25.6 5.7-27.8v-.4c.3-1.3 1.8-8.4 2.4-11.9.7-3.8 10.4 0 10.5 0s18.9 10.4 21.7 25.9c2.6 14.1 19.8 37.7 23 41.9.3.4.4.9.3 1.4-.7 2.3-2.4 9.4.2 13.3 3.2 4.9-.7 8.1-8 11.3z" fill="url(#d)"/><path d="m1714.44 1203.3c11.7-19.4 34.1-29.9 56.5-26.6v40.4h-24.5l-19.2-4.9z" fill="#4c4981"/><path d="m1714.44 1203.3c11.7-19.4 34.1-29.9 56.5-26.6v40.4h-24.5l-19.2-4.9z" fill-opacity=".098039"/><path d="m1772.75 1187.4-30.1 21.1s-.3-4.2-1-10c-1.5-10.9-4.9-27.2-12.1-30.4-11-4.9-133.9-51.1-90.3-66.7s110.5 35.4 110.5 35.4 3.4 1.2 8.9 12.6c2.8 6 6.7 16.2 9.6 24.5 2.7 7.6 4.5 13.5 4.5 13.5z" fill="#ffc0c7"/><path d="m2012.94 1219.9 3.4-1.6 9.6 11-7.8 16.7-13.4-5.4 3.1-13.4z" fill="#4c4981"/><path d="m1967.44 2200.4s-8.6-1-12.1 12.5c-3.4 13.5-8.6 50.8-8.6 50.8s-2.1 22.8-6.2 28c-4.2 5.2-8.3 37.6 21.1 41.8 29.3 4.1 42.1-15.8 42.1-15.8l-1-90.5zm102.41 4.1s18.5 19.8 18.1 42.2c-.3 22.4-2.1 53.2-2.1 53.2s-1.7 12.5 2.1 15.9 0 20.7 0 20.7-32.5 30.1-59.7-2.5c0 0-5.3-18.7-3.1-30.7s8.4-66.1 8.4-66.1z" fill="#444053"/><path d="m2115.64 1791.6s-18.6 52.1-26.6 64.2-13.4 33.9-13.4 33.9l-7.3 44.5c-1.4 10-2.2 20-2.4 30 .3 10-18 156-18 156l-29 37s-12.8 25.9-10.7 36.7-1.4 28-5.6 33.1c0 0-.7 33.9-1.7 41.4s3.8 29 0 32.8-54.5 2.1-55.9-4.2c-1.4-6.2 6.2-36.3 6.2-36.3l4.5-29s9-15.9 6.9-21.1 3.8-17.3 4.1-18.3 9.7-18 8-24.5c-1.7-6.6 10.9-145.9 10.9-145.9l35.5-249.6z" fill="#ffc0c7"/><path d="m2115.64 1791.6s-2.8 7.8-6.7 18.2c-6.2 16.3-15 38.7-19.9 46-7.9 12.1-13.5 33.9-13.5 33.9l-7.3 44.6c-1.4 10-2.2 20-2.4 30 0 4-2.7 29.2-6 58.2-5.2 44.4-11.9 97.8-11.9 97.8l-29 37s-1.5 2.8-3.3 7.3c-3.6 8.5-8.8 22.2-7.4 29.3 2.1 10.7-1.4 28-5.6 33.1 0 0-.7 33.9-1.7 41.4s3.8 29 0 32.8-54.5 2.1-55.9-4.1 6.2-36.3 6.2-36.3l4.5-29s9-15.9 6.9-21.1 3.8-17.3 4.2-18.3 9.7-18 8-24.5c-1.3-5 5.6-86.8 8.9-125.6 1.1-12.2 1.8-20.1 1.8-20.1l30.6-214.7 2.5-17.3 2.5-17.6z" fill-opacity=".098039"/><path d="m2084.55 2310.9c.3 3.8-48.7 9.3-55.7 5.2-7-4.2 0-55.6 0-55.6l3.2-23.5c-3.4-.4-8.6-19-6.2-23.5s-2.1-23.5-2.1-23.5l-8.1-25.4-5-15.6c-8.1-17.8-19.8-68.6-27-106.6-4.6-23.8-7.5-42.6-6.8-45 1.7-6.2-2.8-51.4-2.8-51.4s-5.6-45.9-13.1-60.4c-5.1-9.6-14.9-45.7-21-68.9-3.1-11.9-5.3-20.5-5.3-20.5s52.2-4.4 83.8-5.9c14.5-.7 24.8-.8 23.6.4s-1.5 7.5-1.4 16.7c.1 23.7 3.4 65.4 6.9 76.6 4.8 15.5 9.7 62.1 7.6 66.6s-1.4 34.5-1.4 34.5c3.6 12.2 5.6 24.8 6.1 37.5 1.1 22.5.7 45-1.2 67.4s5.2 83.9 3.8 91.8 11 32.8 11 37.6 3.4 37.6 3.4 37.6 7.5 50.1 7.7 53.9zm27.19-1008.5-5.9 6.4-3.9 4.2-22.6 24.3-58.4 6.6-31.1-8.3-7.7-2.1s0-15.6 1.4-34.3c2-24 6.7-53.1 18-61 5.6-4.4 10.1-10.1 13.1-16.6 2.3-4.5 4.1-9.2 5.6-13.9l.6-1.8c2.5-8.4 4.4-16.9 5.5-25.6s7.5-4.1 17.8-8.9c27-12.6 73.7-30 57.5 8.9-2.4 5.7-4.4 11.6-6.1 17.5-.3.9-.5 1.8-.7 2.6-5.4 21.7-1.8 34.8 2.2 42.1.7 1.3 1.5 2.5 2.3 3.6 1.1 1.5 2.4 2.9 3.9 4l6.7 42.7.6 3.5z" fill="#ffc0c7"/><path d="m2101.74 1182.3c-3 7.4 1.5-6.1 0 0-12.3 8.8-41.3 33.7-57.6 33.7-11 0-14.3-2-23.7-6.3 2.9-8.9 4.9-18.1 6.1-27.4s97.7-53.9 75.2 0z" fill-opacity=".098039"/><path d="m2126.64 1136.9c0 38.3-29.3 70.8-67.4 74.8-2.6.3-5.2.4-7.9.4-41.3 0-75.3-34-75.3-75.3s34-75.3 75.3-75.3c41.3.1 75.3 34.1 75.3 75.4z" fill="#ffc0c7"/><path d="m2137.35 1470.5-10.7 28s-8.7.4-22.3.8c-45.9 1.5-147.2 3.3-151.7-8.5-1-3-1.5-6.1-1.6-9.3-.6-18 7.8-45.6 7.8-45.6s4.8-55.3 4.8-57.7-4.2-41.1-4.2-41.1l8.3-31.1 23.1-16.2s10.4 15.9 16.6 17.3 14.5 9 14.5 9 20.4 12.4 26.9 5.5c6.6-6.9 57.7-37.3 57.7-37.3l26.9 29.7z" fill-opacity=".098039"/><path d="m2137.35 1474.8-10.7 28s-8.7.4-22.3.8h-1.3c-5.9.2-12.6.4-19.8.5-36.5.8-86.8 1.1-113.1-2.8-9.9-1.4-16.3-3.4-17.4-6.2-.6-1.7-1-3.4-1.2-5.1-.2-1.3-.3-2.8-.3-4.2-.6-18 7.8-45.6 7.8-45.6s4.8-55.3 4.8-57.7-4.2-41.1-4.2-41.1l8.3-31.1 15.9-11.1 7.2-5.1c2.4 3.6 5.1 7.1 7.9 10.4 2.2 3 5.2 5.3 8.6 6.8 6.2 1.4 14.5 9 14.5 9s20.4 12.4 26.9 5.5c5-5.3 36.1-24.3 50.4-32.9 4.4-2.7 7.3-4.3 7.3-4.3l3.6 4 23.3 25.7z" fill="#fff"/><path d="m1772.75 1187.4-30.1 21.1s-.3-4.2-1-10c14.9-6.3 23.9-20.1 26.5-24.6 2.8 7.6 4.6 13.5 4.6 13.5z" fill-opacity=".098039"/><path d="m1878.44 1258.9-6.6-1.8s-10.7 11.3-16.9 12.8-19.3 10-19.3 10l-15.2 12.1s-11.3 1.8-7.9-6.2-6.2-18-6.2-18-19.3-39.7-19.3-48-16-43.1-16-43.1-20 39-56.6 26.6c0 0 26.6 59.7 27.3 74.6s18.3 56.3 18.3 56.3 6.6 30.7 42.1 29c0 0 49 9.1 59.7 0s20.4-16.3 25.4-17.3c5.1-1 9.7-6.9 9.7-6.9v-41.1z" fill="#0c69a3"/><path d="m1816.94 1297.9s8.6 32.1 3.1 35.6zm287.41 205.6c-45.9 1.5-147.2 3.3-151.7-8.5-1-3-1.5-6.1-1.6-9.3l150.1 7.9zm14.29 528.2s-.9 10.3-4.8 20.6c-19.1-1.2-43.2-4.8-67.1-4.9-8.5 0-16.8 0-24.6.3-16.7.5-31.1 1.9-40.2 4.5-11.6 3.6-23.7 5.1-35.9 4.6-3.1-11.9-5.3-20.5-5.3-20.5s52.2-4.4 83.8-5.9l2.5-17.6 89.6 19z" fill-opacity=".098039"/><path d="m2154.55 1668.4-4 8.4c-.3.6-.5 1.3-.6 1.9-.3 1.5-.9 4.5-1.6 8.6-2.2 12.6-11.6 171.8-10.3 190 1.5 23.7-10.3 109.3-14.2 157.4-.4 5-4.9 8.6-9.8 7.9-27.1-3.7-107.5-13.5-138.2-4.7-14.7 4.2-24.3 7-30.5 8.8-5.5 1.6-11.1-2.5-11.1-8.3-.3-40.1-3.6-139.8-10.4-195.6 0-.3-.2-.6-.4-.8-7.6-16.5-22.6-172.3-22.7-213.4 0-19.1 1-33.6 3.4-36.5 6.4-7.9 30.5-75.5 37.9-96.4 1.3-3.6 4.8-6 8.7-5.8h.9l19.8 1 112.4 5.9 11.7.6c3.6.2 6.7 2.6 7.8 6l51.9 158.6c.4 2.1.2 4.4-.7 6.4z" fill="#444053"/><path d="m2211.95 1623.8 1 11.1s-55.6-18.1-52.8-40.4 0-19.8 0-19.8l44.7 3.8z" fill="#4c4981"/><path d="m2211.95 1623.8 1 11.1s-55.6-18.1-52.8-40.4 0-19.8 0-19.8l44.7 3.8zm-357.9-317c5.7 4.8 12.4 8.3 19.6 10.2-2.1-.5-4-1.4-5.6-2.8-4-2.8-7.8-5.9-11.6-8.9-3.1-2.4-7-6.5-10.8-7.5 2.5 3.3 5.3 6.3 8.4 9zm.89 14.6c1.8 2 3.2 4.3 4.3 6.8 1.8 7 1.7 14.4-.3 21.4l-8.9-21.5c-1.6-3.7-3.1-7.3-5-10.8-.8-1.5-6-7.7-5.4-9 1.6-3.8 13.6 11 15.3 13.1zm248.91 119.1c6.1-.7 11.8-3.4 16.2-7.6-9.2 1.2-17.9 4.8-26.9 6.7-8.4 1.9-17.2 1.1-25.1-2.3 10.5 5 24.7 5.2 35.8 3.2zm-25.9-63.2c-1.6.2-3.3-.2-4.7-1.2-6.9-4-13.7-8.1-20.4-12.4-6.5-4.2-14.4-8.5-20-13.8 13.7 12.5 26.5 22.9 45.1 27.4zm19.1 73.2c3.6.2 7.2-.1 10.8-.9 3.6-.7 6.8-2.8 8.9-5.8-1.3-.3-2.6-.1-3.8.6-10.9 4.6-23 6-34.7 4.2 5.6 2.4 12.8 1.9 18.8 1.9zm-65.41 160.3c-7.2 2.2-14.6 3.6-22.1 4.3-5.8.3-11.6.2-17.4-.3l-28.2-1.8-14.1-.9c-1.7 0-8.5 0-5.1-3.4 1.7-1.6 11.1-.6 13.6-.7l14.1-.3c9.3 0 18.7 0 28.1.6 10.4.6 20.7 1.4 31.1 2.5zm-32.7 14c-4.8-.2-11 2.7-15.9 3.3-5.5.7-11.1.9-16.7.6-11-.3-21.9-2.5-32.1-6.6 21.5 1.2 43.1 1.8 64.7 2.7zm-60.5 14.8c2.1.4 4.1 1 6.2 1.7 11.9 3.4 24.6.4 36.7-2.6-3 4.5-8.5 6.5-13.9 7.7-8.9 2.2-18.1 2.6-27.1 1-2.8-.6-9.9-1.6-11.3-4.5-2.4-4.3 6.8-3.7 9.4-3.3zm66.81 22.3c3.6.7 7.1 1.7 10.6 2.8 13.4 3.3 27.3-1.2 40.8-4.3 16.2-3.7 32.8-5.2 49.4-4.6-3 0-7.7 2.6-10.6 3.5-3.8 1.2-7.7 2.2-11.5 3.2-7.6 1.9-15.3 3.4-23.1 4.5-15.7 2.3-31.5 3-47.3 2.1-7.2-.4-19.8.3-25.9-3.3 5.2-3.2 11.4-4.6 17.6-3.9zm5.1-425.8s.7 31.8-4.5 46.3c-1.6 4.5-4.2 12.8-6.9 22.2-3 10.4-6.3 22-8.9 31.1-2.5 9.1-4.2 15.2-4.2 15.2s-11.7 95-14.7 140.2c0 .8 0 1.6-.2 2.4-.2 2.5-.5 5.2-.9 7.9-6.7 44.9-45.5 114.3-58.5 119.8-4.1 1.9-7.8 4.4-11 7.5 0-19.1 1-33.6 3.4-36.5 7.6-9.3 40-102.5 40-102.5l7.4.4c-.2-1.3-.3-2.8-.3-4.2-.6-18 7.8-45.6 7.8-45.6s4.8-55.3 4.8-57.7-4.2-41.1-4.2-41.1l8.3-31.1 15.9-11.1c2-24 6.7-53.1 18-61 5.6-4.4 10.1-10.1 13.1-16.6 2.2.3-1.8-1.7-1.8-1.7z" fill-opacity=".098039"/><path d="m2016.35 1218.3c-5.8-2-12.2-1.3-17.5 2-8 5.6-23.5 5.2-27.6 4.2-4.2-1-47.3-6.6-50.8-5.2s-10.4-4.8-14.9 3.5-6.6 12.8-11 14.8c-4.5 2.1-12.5 8.6-11.3 10s-11.3 9.7-11.3 9.7l25.2 81.9s-16.2 103.6-24.2 112.5-78.4 125.3-53.2 146.1c20 15.7 41.1 29.9 63.2 42.4 2.8 1.4 12.8-17.3 26.6-23.1 13.8-5.9 56.6-83.6 59.3-127.8s14.9-142.6 14.9-142.6 14.9-53.9 20-68.4c5.2-14.5 4.5-46.3 4.5-46.3z" fill="#0c69a3"/><path d="m2156.05 1665.3-5.9 12.4s-.8 3.7-1.9 9.6c-1-.1-2-.6-2.8-1.3-8.6-6.9-59.3-59-61.8-105.3-1.8-34.1-.9-63.6-.4-76.7.2-4.1.3-6.6.3-7.1s39.4-47.7 34.9-64.5c-4.5-16.9-14.9-107.3-14.9-107.3l-1.5-11.9-2.6-20-6.3-48.5 6.5 1.5c1.1 1.5 2.4 2.9 3.9 4l6.7 42.7 23.3 25.7 3.8 156.4-10.7 28s-8.7.4-22.3.8h-1.3z" fill-opacity=".098039"/><path d="m2177.74 1407.1s-9.7-3.8-10.3 0c-.7 3.8-2.4 12.1-2.4 12.1s1.7 20-5.6 28-8.5 41.4-8.5 41.4-11.6 33.1-6.1 43.5c2 3.8 5.1 22.6 8.2 45.2 2 14.1 3.9 29.6 5.6 43.8 3.1 25.7 5.5 47.1 5.5 47.1s-6.2 22.8-14.9 15.9c-8.6-6.9-59.3-59-61.8-105.3-1.7-32.5-1-60.7-.5-74.6.2-5.9.5-9.2.5-9.2s39.4-47.7 34.9-64.6-14.9-107.3-14.9-107.3l-1.8-14-1.9-15-.5-3.3-6.2-48c1.1.3 39.8 9 44.9 14.1s36.7 12.4 36.7 12.4c9.7 2.6 17.2 10.3 19.6 20.1.3 1 .5 2 .8 3 4.2 20 2.8 22.4 5.6 25.9 2.8 3.3-26.9 88.8-26.9 88.8z" fill="#0c69a3"/><path d="m2158.85 1621c-14.1-2.8-35.1-9.3-34.6-23.7.4-13.5 16.6-18.3 28.9-20 2 13.9 3.9 29.5 5.7 43.7z" fill-opacity=".098039"/><path d="m2202.64 1613.8c-.6 1.2-2.8 2.3-6 3.2-7.6 1.8-15.2 3.1-23 3.8-7.7.7-48-3.8-47.3-25.6.5-15.6 22.2-19.8 34.4-20.7 2.7-.3 5.4-.4 8.1-.3 2.6 0 35.8 35.1 33.8 39.6z" fill="#ffc0c7"/><path d="m2202.64 1613.8c-.6 1.2-2.8 2.3-6 3.2-12.5-16.7-30-38.2-38.5-40.1l2.6-2.4c2.7-.3 5.4-.4 8.1-.3 2.6 0 35.8 35.1 33.8 39.6z" fill-opacity=".098039"/><path d="m2190.55 1315.9 14.1 2.1c5.1 9 10.8 17.6 16.9 25.9 3.8 4.7 6 10.5 6.2 16.6s20.7 30.7 27.3 34.2c6.6 3.4 16.6 26.9 16.6 26.9s16.2 10.7 16.2 22.8c.3 10.1 1.3 20.1 3.1 30 .4 1.7-2.4 23.2-9.3 33.9s-13.8 34.4-13.5 38.6c.4 4.2-19.3 26.3-24.8 33.1-4.6 6.4-8.6 13.3-12.1 20.4l-18.3 34.5s-38.7-57-52.8-60.1c0 0 15.9-15.2 23.8-18s15.6-25.4 15.9-30.7 7.3-22.4 14.5-25.4 11.1-6.2 8-11.1 0-14.1 0-14.1-20.4-26.9-23.2-42.4c-2.8-15.4-21.4-25.9-21.4-25.9l-10.7-26.3z" fill="#0c69a3"/><path d="m2241.85 1444.7c7.8-6.6 17.6-10.3 27.9-10.6-6.6 1.1-13.4 2.6-18.2 7.1-1.9 2-3.6 4.1-5.1 6.4-1.6 2.3-15 19.3-16.9 16.6-3.3-3.8 9.7-17.2 12.3-19.5zm-31.21-16.3c4.3-.4 8.1-3 9.9-7 1.7-3.9 2.7-8 3.1-12.3 1-7.1 2.4-14.1 4.3-21 1.1-2.8.9-5.9-.6-8.5-.8-2.2-1.8-4.3-3-6.3-2.5 2.8-3.3 9.4-4.3 13.2-1.3 4.7-2.5 9.4-3.6 14.1-.8 2.4-5.5 27.8-5.8 27.8z" fill-opacity=".098039"/><path d="m1762.94 1136.9h-195.3v-192.4h195.4zm-2.8-290.2h-189.6c0-299 284.3-281.6 284.3-470.8 0-104.2-85.3-187.7-189.5-187.7s-189.5 90-189.5 190.7h-189.5v-.6c0-207.5 170.8-378.3 378.3-378.3h.6c209.3 0 379 167 379 376 0 236.6-284.2 263.5-284.2 470.8h.1z" fill="#0967d2"/><path d="m788.945 1079.6h-50.4v-49.7h50.4zm-.8-74.8h-48.8c0-77.1 73.3-72.6 73.3-121.4-.1-26.6-22-48.4-48.6-48.4h-.2c-26.6.6-48.3 22.5-48.7 49.1h-49c.7-53.1 44.6-96.5 97.7-96.5 52.9 0 96.6 42.9 97.7 95.7-.1 61-73.4 67.9-73.4 121.3zm382.105 420.4h-50.4v-49.6h50.4zm-.7-74.8h-48.8c0-77.1 73.3-72.6 73.3-121.4-.1-26.6-22-48.4-48.6-48.4h-.3c-26.8.5-48.6 22.4-49 49.2h-48.8c.7-53.1 44.6-96.5 97.7-96.5 52.9 0 96.6 42.9 97.7 95.7 0 61-73.2 68-73.2 121.4zm232.59-537h-36.5v-35.9h36.5zm-.5-54.3h-35.4c0-55.8 53.1-52.6 53.1-87.9-.1-19.3-16-35.1-35.2-35.1h-.2c-19.4.4-35.1 16.3-35.4 35.6h-35.4v-.3c0-38.8 32-70.8 70.8-70.8 38.7 0 70.7 31.8 70.8 70.5 0 44.3-53.1 49.3-53.1 88zm624.11 104.9h-20.6v-20.3h20.6zm-.4-30.6h-20.1c0-31.6 30-29.7 30-49.7 0-10.8-8.9-19.8-19.8-19.8h-.2c-10.9.2-19.9 9.2-20 20.1h-20c.5-21.6 18.4-39.1 40-39.1 21.5 0 39.4 17.3 40 38.8.2 24.8-29.9 27.8-29.9 49.7zm315.89 955.2h-20.6v-20.4h20.6zm-.3-30.7h-20c0-31.6 30-29.7 30-49.7-.1-10.9-9.1-19.8-20-19.8-10.9.2-19.9 9.2-20 20.1h-20c.5-21.6 18.4-39.1 40-39.1 21.5 0 39.4 17.3 40 38.8.1 24.9-29.9 27.8-29.9 49.7z" fill="#0967d2" fill-opacity=".098039"/><path d="m1999.75 1109.1c-3.4-.9-7.3-1.2-9.4-4.4-1.2-1.9-1.4-4.4-1.6-6.8-.6-10.4-.5-21.5 4.2-30.5 7.6-14.8 24.7-18.6 39.1-16.4s28.2 8.9 42.7 9.1c10.7.1 21.5-3.4 32-1.3 8.3 1.6 15.8 6.5 23 11.5 6.8 4.7 13.6 9.7 18.1 17.2 6.6 11.1 6.8 25.6 6 39.3-1 16-3.3 32.5-10.9 46-10.9 19.7-32.8 30.2-51.9 25.1-2.6-.5-5-1.8-7-3.6-1.9-2.1-3.3-4.7-4.2-7.4-3.4-9.4-4.7-20.1-9.8-28.3s-16.5-12.5-22.6-5c-3.3 4.1-4.4 10.7-8.6 13.4-5.1 3.2-11.1-1.5-14.5-6.9-9.9-15.9-3.8-45.2-24.6-51z" fill="#9aa5b1"/><path d="m2154.05 1126.4c-1.5 13-4.3 25.9-10.6 36.9-11.2 19.5-33.1 29.8-52.2 24.5-2.6-.6-5-1.8-7-3.7-1.9-2.1-3.3-4.7-4.1-7.5-3.3-9.5-4.5-20.1-9.5-28.4s-16.3-12.7-22.6-5.2c-3.4 4.1-4.5 10.7-8.7 13.3-5.1 3.2-11.1-1.6-14.4-7.1-9.7-16-3.3-45.3-24.1-51.3-3.4-1-7.3-1.2-9.4-4.5-1.2-1.9-1.4-4.5-1.5-6.9-.1-2.8-.2-5.7-.1-8.6-.9 6.3-1.2 12.7-.8 19 .1 2.4.3 4.9 1.5 6.9 2 3.3 6 3.5 9.4 4.5 20.7 6 14.3 35.2 24.1 51.3 3.3 5.4 9.2 10.2 14.4 7.1 4.3-2.6 5.3-9.3 8.7-13.3 6.2-7.5 17.5-3.1 22.6 5.2s6.2 19 9.5 28.4c.8 2.8 2.2 5.3 4.1 7.5 2 1.8 4.4 3.1 7 3.7 19.1 5.4 41.1-4.9 52.2-24.5 7.7-13.5 10.2-29.9 11.4-45.9 0-.5 0-1 .1-1.4z" fill-opacity=".098039"/></g></svg>