<svg clip-rule="evenodd" fill-rule="evenodd" stroke-miterlimit="10" viewBox="0 0 2833 1879" xmlns="http://www.w3.org/2000/svg" xmlns:xlink="http://www.w3.org/1999/xlink"><linearGradient id="a" gradientTransform="matrix(412.263 0 0 412.263 1930.17 1334.15)" gradientUnits="userSpaceOnUse" x2="1"><stop offset="0" stop-color="#808080" stop-opacity=".247059"/><stop offset=".54" stop-color="#808080" stop-opacity=".113725"/><stop offset="1" stop-color="#808080" stop-opacity=".094118"/></linearGradient><path d="m1622.1 358.3c-174.4-6.1-340.5-62.4-499.1-123.9-158.6-61.6-315.8-129.8-485.9-162.5-109.5-21-234.7-24-322.9 34.7-84.9 56.6-112.3 154-127.1 244.5-11.1 68.1-17.6 139.7 12.8 203.4 21.1 44.2 58.6 81.4 84.5 123.8 90.2 147.4 26.4 329.3-71.3 473.2-45.8 67.6-99 132-134.4 203.9s-51.6 154.3-20.7 227.6c30.7 72.8 103.8 127.3 183 165.7 160.8 78 350.3 100.3 535.2 113 409.1 28 820.4 15.9 1230.5 3.7 151.8-4.5 304.3-9.1 453.6-32.5 82.9-13 168.5-33.7 228.7-83.7 76.4-63.4 95.4-170.8 44.2-250.3-85.9-133.4-323.3-166.5-383.5-309.6-33.1-78.8.9-166.5 48.9-239.6 103-156.7 275.7-294.2 284.8-473.3 6.3-123.1-76.8-246.3-205.1-304.5-134.6-61-321.1-53.4-420.3 47.7-102.3 104-281.9 144.1-435.9 138.7z" fill="#0967d2" fill-opacity=".098039" fill-rule="nonzero"/><path d="m696.1 662.1s-74.1-131.2-185.6-169c-46.8-15.6-87.4-45.9-115.5-86.5-13.2-19.4-24.6-39.9-34.1-61.4" fill="none" stroke="#535461" stroke-width="2"/><path d="m290.6 321c12.7 12.3 71.9 25.1 71.9 25.1s-14.5-58.8-27.2-71.1c-6-6-14.2-9.4-22.7-9.4-17.6 0-32.1 14.5-32.1 32.1 0 8.8 3.7 17.2 10.1 23.3zm33.5 106.4c17.4 3.4 74-18 74-18s-44.1-41.4-61.5-44.9c-2.1-.4-4.1-.6-6.2-.6-17.6 0-32.1 14.5-32.1 32.1 0 15.2 10.8 28.5 25.8 31.4zm121.9 115.1c16.7-5.8 54.8-52.9 54.8-52.9s-59-13.5-75.8-7.7c-12.9 4.5-21.6 16.7-21.6 30.3 0 17.6 14.5 32.1 32.1 32.1 3.6-.1 7.1-.7 10.5-1.8zm111.9 66.3c17.5-2.9 62.9-42.9 62.9-42.9s-55.9-23.3-73.4-20.4c-15.4 2.5-26.9 16-26.9 31.6 0 17.6 14.5 32.1 32.1 32.1 1.8 0 3.6-.1 5.3-.4zm-110.4-245.4c0 17.7-32 69.1-32 69.1s-32.1-51.2-32.1-69.1c0-17.6 14.5-32.1 32.1-32.1 17.5.1 32 14.6 32 32.1zm129.8 79.2c-5.4 16.9-51.2 56.3-51.2 56.3s-15.3-58.6-10-75.4c4.2-13.3 16.6-22.5 30.6-22.5 17.6 0 32.1 14.5 32.1 32.1 0 3.3-.5 6.5-1.5 9.5zm115.6 94.3c-2.3 17.6-41 64.2-41 64.2s-25-55.2-22.6-72.8c2.1-15.8 15.8-27.8 31.8-27.8 17.6 0 32.1 14.5 32.1 32.1 0 1.5-.1 2.9-.3 4.3z" fill="#3ebd93" fill-rule="nonzero"/><path d="m290.6 321c12.7 12.3 71.9 25.1 71.9 25.1s-14.5-58.8-27.2-71.1c-6-6-14.2-9.4-22.7-9.4-17.6 0-32.1 14.5-32.1 32.1 0 8.8 3.7 17.2 10.1 23.3zm33.5 106.4c17.4 3.4 74-18 74-18s-44.1-41.4-61.5-44.9c-2.1-.4-4.1-.6-6.2-.6-17.6 0-32.1 14.5-32.1 32.1 0 15.2 10.8 28.5 25.8 31.4zm121.9 115.1c16.7-5.8 54.8-52.9 54.8-52.9s-59-13.5-75.8-7.7c-12.9 4.5-21.6 16.7-21.6 30.3 0 17.6 14.5 32.1 32.1 32.1 3.6-.1 7.1-.7 10.5-1.8zm111.9 66.3c17.5-2.9 62.9-42.9 62.9-42.9s-55.9-23.3-73.4-20.4c-15.4 2.5-26.9 16-26.9 31.6 0 17.6 14.5 32.1 32.1 32.1 1.8 0 3.6-.1 5.3-.4zm-110.4-245.4c0 17.7-32 69.1-32 69.1s-32.1-51.2-32.1-69.1c0-17.6 14.5-32.1 32.1-32.1 17.5.1 32 14.6 32 32.1zm129.8 79.2c-5.4 16.9-51.2 56.3-51.2 56.3s-15.3-58.6-10-75.4c4.2-13.3 16.6-22.5 30.6-22.5 17.6 0 32.1 14.5 32.1 32.1 0 3.3-.5 6.5-1.5 9.5zm115.6 94.3c-2.3 17.6-41 64.2-41 64.2s-25-55.2-22.6-72.8c2.1-15.8 15.8-27.8 31.8-27.8 17.6 0 32.1 14.5 32.1 32.1 0 1.5-.1 2.9-.3 4.3z" fill="#3ebd93" fill-opacity=".247059" fill-rule="nonzero"/><path d="m691.8 659.5s-14.6-150-101.2-229.7c-36.5-33.2-61.3-77.4-70.7-125.9-4.3-23.1-6.4-46.5-6.4-69.9" fill="none" stroke="#535461" stroke-width="2"/><path d="m459.4 183.3c6.6 16.4 55.6 52.1 55.6 52.1s10.6-59.6 3.9-76.1c-4.9-12.1-16.7-20.1-29.7-20.1-17.6 0-32.1 14.5-32.1 32.1-.1 4.2.7 8.2 2.3 12zm-12.5 110.9c14.5 10.2 74.9 13.5 74.9 13.5s-23.6-55.8-38-66c-5.4-3.8-11.8-5.8-18.4-5.8-17.6 0-32.1 14.5-32.1 32.1 0 10.3 5.1 20.1 13.6 26.2zm64.8 154.6c17.6 1.5 71.5-26.2 71.5-26.2s-48.5-36.2-66.2-37.7c-.9-.1-1.8-.1-2.7-.1-17.6 0-32.1 14.5-32.1 32.1.1 16.5 13 30.5 29.5 31.9zm75.4 106c17.2 4.4 74.9-13.7 74.9-13.7s-41.7-43.9-58.8-48.5c-3.1-1-6.4-1.5-9.6-1.5-17.6 0-32.1 14.5-32.1 32.1 0 15.1 10.7 28.3 25.5 31.4zm-1.5-269.1c-7.2 16.2-57.3 50.2-57.3 50.2s-8.5-59.9-1.4-76.1c5.1-11.6 16.7-19.1 29.3-19.1 17.6 0 32.1 14.5 32.1 32.1 0 4.4-.9 8.8-2.7 12.9zm86.6 125c-11.7 13.3-69.7 30.7-69.7 30.7s9.8-59.7 21.6-73c6.1-6.9 14.9-10.9 24.1-10.9 17.6 0 32.1 14.5 32.1 32.1-.1 7.8-2.9 15.3-8.1 21.1zm67.4 133.1c-9.3 15.1-63.5 42.1-63.5 42.1s-.5-60.5 8.8-75.7c5.8-9.5 16.2-15.3 27.3-15.3 17.6 0 32.1 14.5 32.1 32.1.1 5.9-1.5 11.7-4.7 16.8z" fill="#3ebd93" fill-rule="nonzero"/><g stroke="#33313f"><path d="m397.1 446.9s396.1 16.2 450 0c0 0-29.6 662.9-18.9 684.4 0 0-439.2 24.3-471.5 0-32.4-24.2 40.4-684.4 40.4-684.4zm59.2 124s183.2 291 245.2 318m0-318s-175.1 229-202.1 307.2" fill="#fff" fill-rule="nonzero" stroke-width="3"/><path d="m685.4 999.3h-212.9c-16.2 0-16.2 75.4-16.2 75.4h229v-75.4zm455.4-552.4s379.9-18.9 450 0c0 0-29.6 662.9-18.9 684.4 0 0-485.4 38-471.5 0 29.6-80.8 40.4-684.4 40.4-684.4zm148 50.6s84.6 134.3 113.2 146.7m0-146.7s-80.8 105.7-93.3 141.8" fill="#fff" fill-rule="nonzero" stroke-width="3"/><path d="m1498.5 729.9h-285.6c-21.6 0-21.6 75.4-21.6 75.4h307.2zm-39 239.8h-212.9c-16.2 0-16.2 75.4-16.2 75.4h229v-75.4zm39-129.4c21.7 0-260.3 24.3-285.6 0-13.3-12.7-21.6 75.4-21.6 75.4h307.2z" fill="#fff" fill-rule="nonzero" stroke-width="3"/><path d="m1317.3 1006.1 16.2 16.2 29.6-40.4m502.7-529.7s377.2 45.8 450 0c0 0-29.6 662.9-18.9 684.4 0 0-500.6 28.1-471.5 0 72.7-70 40.4-684.4 40.4-684.4zm52.2 117.3s54.3 86.2 72.8 94.3m-.1-94.3s-52 68.1-59.8 91.1" fill="#fff" fill-rule="nonzero" stroke-width="3"/><path d="m2228.7 747.4h-285.6c-21.6 0-21.6 39.9-21.6 39.9h307.2zm-155.7 118.5h148.8c21.6 0 21.6 39.9 21.6 39.9h.6m-15.3-100c21.7 0-260.3 12.8-285.6 0-13.3-6.7-21.6 39.9-21.6 39.9h307.2zm-360.9-302.9s418.2 30.9 445.1 10.4" fill="#fff" fill-rule="nonzero" stroke-width="3"/><path d="m2260.3 483.8c5.7-1.2 11.6.5 17.4 1.4s12.4.8 16.6-3.3m-36.9 12.5c12.1 2.1 24.4 2.8 36.6 2m-36.6 13.1c10.4-1.8 20.8-2.9 31.3-3.5m-397.3-16.6c5.1 2.3 10.6 3.5 16.2 3.3 3.5.5 7.1-.3 10.1-2.2 3.5-2.9 3.8-8.1 3.8-12.6.1-1.4-.1-2.8-.6-4.1-.7-1.2-1.7-2.3-2.9-3-6.7-4.6-19-6.5-26.8-3.4-10.7 4.3-9 17 .2 22z" fill="#fff" fill-rule="nonzero" stroke-width="2"/><path d="m2010.6 552.7c-1.6 19.9 3.2 39.7 6.4 59.5 4 24.9 5.7 50.2 4.8 75.4-42.5 2.6-85.1 3.2-127.7 1.9 4 .1 3-90.1 3.3-98.4.5-10.6-1.8-28.9 10.5-32.9 12.9-4.2 31.1-1.6 44.7-2.3 19.4-.9 38.7-1.9 58-3.2z" fill="#fff" fill-rule="nonzero" stroke-width="3"/><path d="m909 756.8s105.1-5.4 123.9 0m.1-56.6s45.8 45.8 45.8 56.6-59.3 48.5-59.3 48.5m617-48.5s105.1-5.4 123.9 0" fill="none" stroke-width="3"/><path d="m1760.5 700.2s45.8 45.8 45.8 56.6-59.3 48.5-59.3 48.5" fill="none" stroke-width="3"/></g><circle cx="1016.7" cy="58.3" fill="#0967d2" fill-opacity=".098039" r="58.3"/><circle cx="1903.5" cy="138.8" fill="#0967d2" fill-opacity=".098039" r="58.3"/><circle cx="2526.3" cy="1002.2" fill="#0967d2" fill-opacity=".098039" r="58.3"/><path d="m2638.46 726.728c8.639-53.227 58.865-89.427 112.091-80.788 53.227 8.638 89.427 58.864 80.789 112.091-8.639 53.226-58.865 89.426-112.092 80.788-53.226-8.638-89.426-58.865-80.788-112.091z" fill="#0967d2" fill-opacity=".098039"/><circle cx="2605.5" cy="1216.4" fill="#0967d2" fill-opacity=".098039" r="97.7"/><circle cx="97.7" cy="911" fill="#0967d2" fill-opacity=".098039" r="97.7"/><path d="m2339.1 1042.2c-.1-3.3-.5-6.5-1.2-9.7-2.5-9.1-7.9-20.1-16.9-22.8-9.3-2.9-18.2-6.6-26.8-11.3-.9-.7-7.5-2.8-15-5.9-4.1-1.7-7.4-9.1-10.9-13.4-1.5-1.8.1-12.9-1.3-14.6-1.6-1.9-7.8 2.4-10.8.2-5.1-3.5-6.7-12.3-6.7-14 .6-14.5 46-24.7 42.4-38.7-2.7-10.2-7.1-20-8.3-30.6-1.5-13 2.1-26.9-3.1-39-4.1-9.5-13.1-16.2-22.8-19.7s-20.1-4.4-30.4-5.4c-12.9-1.1-54.8-6-69.4 5.6-1 .8-1.9 1.7-2.7 2.7-.3.4-.6.9-.9 1.4v.2c-.3.6-.5 1.2-.7 1.8s-.4 1.3-.4 2v4.9c.2 2.4.6 4.9.6 7.2 0 1.2-.1 2.4-.3 3.6-.9 3.2-2.4 6.1-4.5 8.7l-.5.7-.9 1.3-.7 1.1-.6 1c-.3.5-.5.9-.7 1.4l-.4.8c-.3.7-.6 1.5-.8 2.3-.6 2.3-.6 4.8 0 7.1.7 3 2 5.9 3.7 8.5.7 1.1 1.4 2.2 2.2 3.3s1.2 1.7 1.9 2.5c-.4 2.5-.6 5-.6 7.6 0 17.1 7.9 33.2 21.3 43.8 2.7 2.4 14.3 8.8 14.3 8.8s3.7 10.3 2.6 20.3c-.3 2.4-2.1 14.4-2.4 16.8s-16.3-.6-16.6 1.4c-4 .6-8 .2-11.8-.9-1.8-.8-3.6-1.5-5.4-2.1-7.9-1.9-15.9 5.9-23.6 3.5 0 .4-.2.7-.4 1.1-1.6-1-3.5-1.5-5.4-1.6-4.6-.2-8.4-3.6-11.7-6.7l-10.2-9.7c-.7-.6-1.3-1.3-1.8-2-.6-1-1-2.2-1.2-3.3-2.2-5.5-5.6-10.3-9.9-14.3-.8-1-1.8-1.7-3-2.1-.4-.1-.9-.1-1.3 0-.3-.4-.6-.8-.9-1.1-.7-.8-1.5-1.5-2.3-2.2-4.9-4.5-5.4-8.4-9.6-13.5-3.7-4.8-7.1-9.9-10.1-15.2-.4-2.7-.9-5.7-1.5-8.7-1.3-6.7-3.3-13.3-5.9-19.6l3.7-4v-4l6.6-7.7-.5-.4 8.1-7.6-8.1-.3-3.8 5.2-.3-.3-6.7 6.7-4.7.5-.6.6c-3.9-5.8-8.1-9-11.8-8.2-6.3 1.3-9.4 13.5-8.4 29.4l-18.7 19.5-2.1 2.2-9.6 12.4 7.6 7.3 11.6-10.8 1.9-2 11.6-12.5c0 .4.2.8.3 1.2-.4 1.9-.6 3.9-.6 5.8 0 2.3 2.1 3.9 3.2 6 1.8 2.7 2.7 5.9 2.7 9.2 0 1.1-.5 2.2-.5 3.4.1 2.5 1 4.9 2.5 7 4.5 7.5 9 15.1 13.5 22.6.9 1.6 1.9 3.2 2.7 4.7v.2c.9 1.6 2.1 3.1 3.6 4.1.5 5.7 2 11.2 4.4 16.4l1.5 3c3.6 5.9 7.9 11.5 12.7 16.5l6.4 7.2c6.3 7.1 12.6 14.1 19.5 20.7 2.5 2.6 5.4 4.7 8.8 6.1 3.3 1.3 7 .8 9.8-1.4v10c1.9.3 3.6 1.4 4.7 3.1.7 1.9.6 4-.5 5.8-5.6 14.5-11.3 29.2-19.9 42.2 6.1 3.6 11.7 7.8 16.7 12.7 3.3 3.6 6.2 7.6 8.7 11.8.2 2 .4 4 .5 5.9 2 32.1-10.4 64-21.6 94.6-3.2 8.6-6.7 17.8-6.4 26.8-2.1 1.3-4.1 2.8-6.1 4.4 2.2 5.7 1.3 10.8 1.1 17.1-.1 3.7-.9 7.4-2.3 10.8-1.1 2.4-2.7 4.6-3.9 6.9-7 12.3-8.5 26.9-9.9 41-.8 8.5 2.5 18.9-1.4 26.5-6.6 13.1-12.5 26.9-13.6 41.4 0 3.3-.4 6.5-1.2 9.7-.8 2.7-2.3 5-3.1 7.6-.8 3.5-.9 7.2-.5 10.8.5 12.9-1.4 25.8-5.7 38-3.4 9.6-7.1 19.9-4.4 29.8-6.5 6.8-10.5 15.6-11.4 25-.1 2.4-.4 4.8-.9 7.1-.8 2.4-1.9 4.7-3.2 6.9-5.4 9.9-8 21.1-7.4 32.3-8.1 10.9-12.1 24.5-14.5 37.9s-3.5 27.1-6.5 40.4c-4.1 17.6-11.5 35.4-13 53.3-8.7 5.6-12.5 16.4-14.2 26.6s-1.9 20.9-6.2 30.4c-2.2 4.9-5.4 9.3-7.5 14.3-1.5 4-2.6 8.1-3.3 12.3-1.3 6.6-2.4 13.9-.8 20.2-2.3 2.4-4.9 4.5-7.9 6 .4-1.7.8-3.4 1.1-5.1-7 6.3-19.5 4.1-25.1 11.7-3.4 5-2.2 12 2.7 15.6 1.7 1.1 3.6 1.9 5.6 2.4 13.3 4.3 27.3 8.6 41.1 6.4 1.6-.2 3.2-.7 4.7-1.5 1.8-1.3 3.3-3 4.3-5l6.2-9.9c5 1.5 10 2.7 15.1 3.6.5 4.3.9 8.6 1.1 12.9 2.7.5 6.3.7 7.6-1.8.4-.9.6-2 .5-3 0-1.9.2-4.5.4-7.1h.5c8.2.3 16.4-1.3 23.8-4.9-2.9-23.8 6.6-47.2 14.9-69.8 8.7-23.8 16.2-48 23.7-72.2 5.4-17 11.4-33.5 16.6-50.5 6.7-21.6 13.4-43.1 20-64.7 2.9-9.5 5.8-18.9 9.2-28.3 7-19.1 15.4-37.7 25-55.6 2.7-5.1 5.4-10.1 7.6-15.4 2.7-6.4 4.6-13.2 6.7-19.8 4.7-13.7 10.4-27 16.9-39.9l.5-1c2.2 8.9 4.4 18 5.8 26.9 2 11 2.1 22.3.5 33.3-1.3 7.5-3.7 15-3.4 22.6.4 10.6 6 20.1 8.8 30.3 1.8 7.6 2.8 15.4 3 23.2.7 12.1 7.3 25.7 2.7 36.9-14.4 35.6-7.4 75.8-15.7 113.2-4.2 19.2-17.2 37.2-16.2 56.9.7 13.9 1.9 27.8 3.7 41.7.3 4.2 1.3 8.4 2.9 12.3 1.1 2.1 2.3 4.1 3.7 6-1.2.5-2.2 1.7-3 4.3-2.5 6.9-.1 14.7 6 18.9 2.4 1.3 5 2.2 7.8 2.7 3.7 1 7.5 1.6 11.3 1.6 1.2-.1 2.4-.2 3.5-.5 4.2 1.8 8.4 3.3 12.8 4.6 0 1.1.1 2.2.3 3.3 0 1.2.5 2.3 1.4 3 .7.3 1.4.5 2.2.4h14.6v-3.7c3.4.4 6.8-.7 9.3-3 1.3-1.6 2.2-3.5 2.7-5.6 4-13.5 8-27.1 11.9-40.6 1.8-5.7 3.2-11.6 4.2-17.5 1.7-9.5 2.2-19.2 1.6-28.9-5.2-49.7 6.3-99.5 2.5-149.3-2.3-29.9-.7-60 4.6-89.5 1.2-6.7 2.7-13.5 3.2-20.1 1.2-12.6-.3-25.2.6-37.7.3-4.4.9-8.7 1.5-13 3.9-26.9 6-54.1 6.3-81.3-.1-9-.6-18-1.6-26.9 2.8-.7 5.3-2.2 7.3-4.3 2.4-3.2 1.8-7.5 1.8-11.5 0-9.5 4-18.6 7.2-27.6 4.1-12.4 7.6-25 10.2-37.7 2.8-10.3 4.3-21 4.5-31.7 0-1.1 0-2.2-.2-3.3 1-.7 1.9-1.6 2.5-2.7.7-1.6 1.2-3.3 1.3-5l3-20.7c.7-4.9 1.4-9.9 2.1-14.8 2.9-19.9 5.7-39.8 8.5-59.8.8-5.2 1.5-10.4 2.2-15.6l2.2-15.4c.3-1.8.5-3.7.7-5.5 7.1-10.6.8-25.3.1-37.8zm-71.4 223.8c-3.2-7.5-6.2-15.3-5.4-23.4h-.3c.7-2.5.6-5.2-.4-7.6-.8-2-2.3-3.7-3.2-5.6-1-2.4-1.5-5-1.5-7.6-.7-16.4.6-32.8 3.8-48.9.4-1.9.7-3.8 1.1-5.7 1.1-.6 2.1-1.4 3-2.4 1.4-1.6 2.6-3.4 3.5-5.4 3-6.1 5.8-12.3 8.4-18.7.8-2.1 2-4.4 4.1-4.9-.4 15.8 1.2 31.8-5.4 46.1-1.2 2.3-2.1 4.7-2.7 7.3-.6 4 1.1 8.1.5 12.1-.3 2-1.2 4-1.6 6-.5 2 .1 4.2 1.6 5.7.3.3.7.5 1.1.6-.2 1.1-.3 2.2-.4 3.2-.2 2.2-.3 4.3-.5 5.6-.6 6.6-.9 13.2-.8 19.8 0 7.1.3 14.3.2 21.6.1 2.1-.2 4.2-1 6.1-.5 1-1.2 1.9-2 2.7-.4-2.3-1.3-4.5-2.1-6.6z" fill="url(#a)" fill-rule="nonzero"/><path d="m2064 873.4 9.1-8.4-8.1-.3-4.2 6.5z" fill="#33313f" fill-rule="nonzero"/><path d="m1998.9 932.5 9.6-12.3 2.1-2.2 29.4-30.7 10-10.5 4.7-.5 6.7-6.7 4 3.5-6.5 7.7.1 4-10.2 11.1-28.8 31.3-1.9 2-11.6 10.7z" fill="#65617d" fill-rule="nonzero"/><path d="m2010.6 918 29.4-30.7 8.7 8.5-28.8 31.3z" fill="#33313f" fill-rule="nonzero"/><path d="m2037.6 869.1c8.2-1.7 18.8 15.8 23.5 39.1 4.8 23.3 2 43.5-6.3 45.2-8.2 1.7-18.8-15.8-23.5-39.1s-1.9-43.5 6.3-45.2z" fill="#fbbebe"/><path d="m2180.5 1819.5c-2.4 6.8 0 14.5 6 18.7 2.4 1.3 5 2.2 7.8 2.7 3.6 1 7.4 1.6 11.2 1.6 4.7-.2 9.2-2 13.8-2.7.5-.1 1.1 0 1.6.2.5.5.7 1.2.6 1.9 0 2.7.2 5.3.6 7.9v.4c0 1.7 1.4 3 3 3h15.1c.3-12.8-1.1-25.7-4.2-38.1-.2-1-.6-1.9-1.1-2.7-1.2-1.4-2.8-2.3-4.6-2.7-3.6-1.5-7.4-2.2-11.3-2-4.7.6-8.6 3.7-12.7 6.2-4 2.5-9.5 4.8-14.4 3.4s-9-5.3-11.4 2.2z" fill="#3f3d56" fill-rule="nonzero"/><path d="m1965.9 1807.7c-4.1 4.4-9.1 7.8-14.7 10l-2.5 1.2c-.4.1-.6.3-.8.7-.1.4 0 .9.2 1.2 4.2 6.5 12.3 9.5 19.8 7.2 1.6-.4 3.1-1.2 4.4-2.3 2-2.5 3.2-5.5 3.3-8.7.8-3.3.6-6.7-.4-9.9-3.6-8.5-5-4.7-9.3.6z" fill="#fbbebe" fill-rule="nonzero"/><path d="m2022 1840.9c.1 1-.1 2-.5 3-1.2 2.5-4.8 2.3-7.5 1.8-.4-9.2-1.5-18.3-3.3-27.2-5.2-.2-9 4.7-11.8 9.2l-7.2 11.5c-1 2-2.5 3.7-4.3 5-1.4.8-3 1.3-4.6 1.5-13.8 2.3-27.7-2.1-41-6.4-2-.5-3.8-1.3-5.6-2.4-4.9-3.6-6.1-10.5-2.7-15.6 5.6-7.5 18.1-5.4 25-11.6-.7 4.4-1.9 8.7-3.6 12.9 9.3-1.4 15.5-9.9 23.1-15.6 1.9-1.6 4.1-2.7 6.6-3.2 1.8-.1 3.6.1 5.4.6 8.6 2.2 16.7 6.1 23.7 11.7 2.8 2.2 7.2 5.4 8.5 8.8 1.2 4-.2 11.6-.2 16z" fill="#3f3d56" fill-rule="nonzero"/><circle cx="2207.4" cy="896.1" fill="#fbbebe" r="55.7"/><g fill-rule="nonzero"><path d="m2317.1 1224.8c-.2 10.7-1.7 21.3-4.5 31.6-2.6 12.8-6 25.4-10.2 37.7-3.2 9-7.2 18-7.2 27.5 0 4 .6 8.3-1.8 11.5-2.2 2.2-4.9 3.7-7.9 4.5s-5.5 3-6.6 5.9c-2.5-3.8-4.4-7.9-5.6-12.3-4.8-14.8-9.3-29.7-13.5-44.6-.8-1.7-.6-3.8.4-5.4.7-.6 1.5-1.1 2.4-1.3 2.8-1.1 5.3-2.8 7.4-4.8 1-.9 1.9-2 2.5-3.2.8-1.9 1.1-4 1-6.1 0-7.1 0-14.3-.2-21.4-.1-6.6.1-13.2.7-19.8 0-1.3.2-3.4.5-5.6.4-4.3 1.2-9.1 3.5-10.8 3.4-2.3 13.6.8 17.5 1.3 6.7.9 13.3 2 20 3.3 1 3.9 1.5 8 1.6 12zm-224.9-266.3c-2.2 4.3-7.3 6.4-11.3 9.1l-13.7 9.4c-1.8 1.6-4.3 2.5-6.7 2.3-2.2-.8-4.1-2.5-5-4.7l-.2-.2-2.7-4.7-13.5-22.6c-1.5-2-2.4-4.5-2.5-7 0-1.1.4-2.2.5-3.4 0-3.2-.9-6.4-2.7-9.2-1.1-2-3.3-3.7-3.2-6-.1-3 .4-6 1.5-8.7 1.4-2.6 3.4-4.7 5.9-6.3 1.3-.9 2.7-1.8 3.9-2.7.7-.5 1.5-.8 2.4-1.1 2.2-.5 4.4 1.4 6.7 1.5 9.8 6.5 13.5 18.9 21.2 27.8 4.3 5 4.7 8.9 9.6 13.5.8.7 1.5 1.4 2.2 2.2 1 1 1.8 2.2 2.5 3.5.9 2.3 6.3 5.1 5.1 7.3z" fill="#fff"/><path d="m2187.8 952c4 8.5 7.1 17.8 6 27.1-.2 2.5-1 5-2.3 7.1-3.9 6-12 7-19.1 7.4-3-.2-6 .7-8.3 2.7-2 2.8-1.7 6.6.5 9.2 2.3 2.4 5.1 4.3 8.2 5.4 11.2 5 23.3 9 35.5 7.9 5.7-.5 11.2-2.2 16.8-3 6.1-.6 12.2-1 18.4-.9 7.3-.3 14.6-1 21.9-1.7l19.3-1.9c1.1 0 2.1-.4 2.9-1.1 1.5-1.7-.4-4.1-2.2-5.4-10.3-7.6-23.4-12.8-29.2-24.3-2.7-5.4-3.6-11.8-5.6-17.6s-5.2-11-6.4-17c-.7-5.2-1-10.4-.9-15.7s-1.8-10.4-5.4-14.3c-3.8-3.6-9.4-4.5-14.7-4.7-12.9-.5-26.6 2.5-35.7 11.6-2.5 2.5-4.5 5.3-7.1 7.6s-6 2.9-4.3 5.8 4.9 4.7 6.7 7.3c2 2.6 3.6 5.5 5 8.5z" fill="#fbbebe"/><path d="m2297.6 1030.2c-3.4 20.7-8.9 41.1-16.4 60.7-3.8 8.9-7.1 18-9.7 27.2-2.1 8.4-1.7 17.3-3.6 25.7-2.4 10.4-4.7 20.9-6.7 31.4-3.2 16-4.5 32.4-3.8 48.7 0 2.6.5 5.1 1.5 7.5.9 1.9 2.3 3.6 3.2 5.6 1.3 3.5 1 7.5-.7 10.8-1.4 3.1-3.3 5.9-5.6 8.4-25.1 7.5-52 5-78.1 6.6-24.3 1.5-48.5 6.4-72.3 2.3-2.7-10.8 1.8-22 5.7-32.5 11.2-30.5 23.6-62.3 21.6-94.3-.2-3.7-.6-7.4-1.3-11.1-3.9-22.7.4-46.1 7.2-68.1 4.3-13.7 4.1-28.3 3.1-42.5-.5-4.6-.5-9.3-.2-13.9.4-4.7 2.2-9.3 5.1-13l.4-.6c.3-.5 1.2-.2 2 0 .4.2.9.2 1.3 0 .1-.1.2-.2.3-.2.2-.1.5-.1.8 0 .6.4.9 1.7 2.3 1.9 2 .3 4 .5 6 .6 2.4.1 4.8.4 7.2 1h.3c3.5.6 7.1.3 10.5-.9 2.2-.6 4.4-1.4 6.4-2.5 1.7-.7 3.3-1.2 5.1-1.7 2.5-1.5 1.9-8.5 2.5-11.3.3-2.9.9-5.7 2-8.4 2.5-4 6.8-6.5 11.5-6.7 4.7-.1 9.3.3 13.8 1.2 10 1.4 20.3 1.2 30.2 3.5 5 1.2 10.3 2.9 14.9.7 1.2.3 1.4 1.4 1.4 2.7-.1 1.3-.3 2.5-.8 3.7-1.7 7.4 4.1 14.3 9.5 19.7 2.3 2.5 5.1 4.7 8.1 6.3 2.7 1.2 5.4 1.8 8.1 3.1 2.2 1.1 4 2.8 5.4 4.9 1.6 2.4 2.6 5 3.1 7.8.3 5.4-.1 10.6-1.3 15.7z" fill="#fff"/><path d="m2297.6 1030.2c-3.4 20.7-8.9 41.1-16.4 60.7-3.8 8.9-7.1 18-9.7 27.2-2.1 8.4-1.7 17.3-3.6 25.7-2.4 10.4-4.7 20.9-6.7 31.4-.6.3-1.1.6-1.7.9-3.4 1.6-6.9 2.8-10.6 3.4-6.6.8-13.2.6-19.8-.6l-38.5-5c-15.4-2-31.7-4.6-43.1-15-6.3-5.7-10.5-13.3-15-20.6-.2-3.7-.6-7.4-1.3-11.1-3.9-22.7.4-46.1 7.2-68.1 4.3-13.7 4.1-28.3 3.1-42.5-.5-4.6-.5-9.3-.2-13.9.4-4.7 2.2-9.3 5.1-13l2.4-.6c.5-.1 1.1-.2 1.6-.2h.8c.9 0 1.8.1 2.7.3 1.8.5 3.5 1.4 5.3 2.1h.3c2.3.7 4.7 1.1 7.2 1 3.6 0 7.2-.6 10.8-.8 4.4-.7 8.9.1 12.8 2.3 2.5 2 4.9 4.2 7.1 6.5 2.7 2.1 5.8 3.7 9 4.9 23.2 8.9 48.9 8.3 71.7-1.5 2.2-1.2 4.7-1.8 7.2-1.8 1.9.4 3.6 1.1 5.2 2.2 1.6.9 3.2 1.9 4.8 2.7 1.6 2.4 2.6 5 3.1 7.8.5 5.2.3 10.5-.8 15.6z" fill-opacity=".098039"/><path d="m2321 1012.4c-10.7-3.3-21-7.8-30.7-13.5-1.6-1.1-3.3-1.8-5.2-2.2-2.5 0-5 .6-7.2 1.8-22.8 9.8-48.5 10.4-71.7 1.5-3.2-1.1-6.3-2.8-9-4.9-2.2-2.3-4.6-4.5-7.1-6.5-8.9-5.7-21.1 1-31.1-2.7-1.7-.8-3.5-1.5-5.3-2.1-7.8-1.9-15.8 5.8-23.6 3.5-2.9 7.8-5 15.8-6.3 24-1.1 9.4-1.7 18.9-1.8 28.3-.2 5.7-.3 11.3 0 17 1.9.3 3.6 1.4 4.7 3.1.7 1.9.5 4-.5 5.8-5.6 14.5-11.3 29.1-19.9 42.1 6 3.6 11.6 7.8 16.7 12.7 9.5 10 14.1 23.9 24.3 33.1 11.5 10.4 27.9 12.9 43.1 15l38.5 5.3c6.5 1.2 13.2 1.4 19.8.6 3.7-.7 7.2-1.8 10.6-3.4 2.2-.9 4.2-2.2 5.9-3.9 1.4-1.6 2.6-3.4 3.5-5.4 3-6.1 5.8-12.3 8.4-18.6.9-2.2 2.3-4.9 4.7-5 14.3-12.9 27.8-26.1 42-39 5.7-4.8 10.9-10.2 15.3-16.2 7.1-10.5.6-25.4 0-38-.1-3.2-.5-6.5-1.2-9.6-2.5-9.1-7.9-20.1-16.9-22.8z" fill="#0c69a3"/><path d="m2092.2 958.5c-2.2 4.3-7.3 6.4-11.3 9.1l-13.7 9.4c-1.8 1.6-4.3 2.5-6.7 2.3-2.2-.8-4.1-2.5-5-4.7v-1.9c-.1-2.2.2-4.4.9-6.4 1.3-3 3.4-5.7 6-7.8 5.1-4.8 11.1-8.5 17.7-10.8 1-.4 2.2-.5 3.3-.3.4.1.8.3 1.2.5 1 1 1.8 2.2 2.5 3.5.9 2.1 6.3 4.9 5.1 7.1z" fill-opacity=".098039"/><path d="m2124.4 987c-4.6-.2-8.3-3.6-11.6-6.7l-10.2-9.6c-.7-.6-1.3-1.3-1.8-2-.5-1-.9-2.1-1.2-3.3-2.2-5.4-5.6-10.3-9.9-14.2-.8-1-1.8-1.7-3-2.1-1.1-.2-2.2-.1-3.3.4-6.6 2.3-12.6 6-17.7 10.8-2.6 2-4.7 4.7-6 7.8-.7 2.1-1 4.3-.9 6.4.1 7.2 1.7 14.2 4.7 20.7l1.5 3c3.6 5.9 7.9 11.4 12.7 16.4l6.4 7.2c6.3 7 12.6 14.1 19.5 20.6 2.4 2.6 5.4 4.7 8.7 6.1 3.4 1.4 7.3.7 10-1.6 1.3-1.5 2.3-3.2 2.9-5.1 4.2-10.8 8.1-22 8.3-33.6.1-4.7-.1-9.3-.6-13.9-.4-5.2-3.9-7.1-8.5-7.3z" fill="#0c69a3"/><path d="m2287.7 1364.2c-.1 27.1-2.1 54.2-5.7 81-.5 4.3-1.1 8.6-1.4 13-.9 12.6.5 25.2-.6 37.7-.6 6.7-2 13.5-3.2 20.1-5.3 29.5-6.8 59.5-4.6 89.3 3.7 49.7-7.7 99.3-2.5 148.9.6 9.6.1 19.3-1.6 28.8-1 5.9-2.4 11.7-4.2 17.4-4 13.5-7.9 27-11.9 40.4-.5 2-1.4 3.9-2.7 5.6-2.8 2.4-6.5 3.5-10.1 3-15.5-.5-30.2-7.2-44.3-13.8-1.6-.6-3.1-1.5-4.4-2.7-2.9-3-2.7-7.9-4-11.9s-4.8-7.8-6.8-11.9c-1.6-3.9-2.6-8-2.9-12.2-1.8-13.8-3-27.7-3.7-41.5-1-19.6 11.9-37.6 16.2-56.6 8.2-37.4 1.3-77.5 15.6-113 4.5-11.2-2-24.8-2.7-36.8-.2-7.8-1.2-15.5-3-23.1-2.7-10.2-8.4-19.7-8.8-30.2-.3-7.6 2.1-15 3.4-22.5 1.7-11 1.5-22.2-.5-33.2-1.4-9.1-3.6-18.1-5.8-26.9l-.5 1c-6.6 12.8-12.2 26.1-16.9 39.7-2.1 6.6-4 13.3-6.7 19.8-2.2 5.4-4.9 10.3-7.6 15.4-9.6 17.9-17.9 36.4-24.9 55.5-3.3 9.3-6.3 18.9-9.2 28.2-6.6 21.6-13.3 43.1-19.9 64.7-5.3 17-11.3 33.4-16.6 50.4-7.5 24.3-14.9 48.3-23.6 72-8.2 22.5-17.7 45.8-14.8 69.6-7.4 3.5-15.6 5.1-23.8 4.8-13.9-1.2-27.5-4.6-40.4-9.8-5.3-1.5-10.1-4.3-13.9-8.3-6-7.3-4.5-18-2.7-27.3.7-4.2 1.8-8.3 3.3-12.3 2-5 5.3-9.4 7.5-14.3 4.3-9.4 4.5-20.1 6.2-30.3s5.4-21 14.1-26.5c1.5-17.9 8.9-35.6 12.9-53.2 3.1-13.3 4.1-26.9 6.5-40.4s6.4-26.9 14.5-37.7c-.6-11.2 1.9-22.5 7.3-32.3 1.3-2.2 2.4-4.5 3.2-6.9.5-2.3.8-4.7.9-7.1.9-9.4 4.9-18.1 11.3-25-2.7-9.9 1.1-20.1 4.4-29.6 4.3-12.2 6.2-25 5.7-37.9-.4-3.6-.2-7.2.5-10.8.8-2.7 2.2-5 3.1-7.6.8-3.2 1.2-6.4 1.2-9.7 1.1-14.6 7-28.3 13.5-41.3 3.9-7.6.6-17.9 1.4-26.4 1.4-14.1 2.9-28.6 9.9-40.9 1.4-2.2 2.7-4.5 3.9-6.9 1.4-3.4 2.2-7.1 2.2-10.8.2-6.1 1.1-11.3-1.1-17 14.4-12 34.1-15.4 52.8-16 18.7-.7 37.7.9 56.1-3.1 5.4-1.2 10.8-2.9 16.5-3.7 12.9-1.9 26 1.1 38.7 4-.9 8.1 2.1 15.8 5.3 23.4 12.8 30.1 19.6 62.7 19.9 95.7z" fill="#33313f"/><path d="m2224.3 1370.3-30.9 69.6c-1.4-9.1-3.6-18.1-5.8-26.9l-.5 1 .1-1.5 16.9-37.1zm92.8-145.5c-1.8 1.3-3.9 2.1-6.1 2.3-3.4.1-6.8-.4-10.1-1.4l-24.1-6.1c-.8-.2-1.5-.4-2.2-.8.4-4.3 1.2-9.1 3.5-10.8 3.4-2.3 13.6.8 17.5 1.3 6.7.9 13.3 2 20 3.3.9 4.1 1.4 8.1 1.5 12.2z" fill-opacity=".098039"/><path d="m2337.5 1064.5c.5 2.2 1.3 4.4 1.7 6.7.7 5.5.5 11.2-.5 16.7l-2.2 15.4-2.2 15.5-8.5 59.6-2.1 14.8-2.9 20.6c-.2 1.7-.6 3.4-1.3 5-1.8 3-5 4.8-8.5 5-3.4.1-6.8-.4-10.1-1.4l-24.1-6.1c-1.1-.2-2.1-.6-2.9-1.2-1.5-1.5-2.1-3.6-1.6-5.7.4-2 1.2-4 1.6-6 .6-4-1.1-8.1-.5-12 .6-2.5 1.5-5 2.7-7.3 8.1-17.9 3.4-38.7 6.1-58.1 2.4-15.3 8.7-29.6 18.4-41.6 6-7.6 12.9-14.4 20.6-20.2 3-2.3 7.8-7.2 11.6-8.1 5-1.1 4 5 4.7 8.4z" fill="#0c69a3"/><path d="m2245.5 956c29.2-.4 40.1-15 44.2-25.5 2.1-5.5 2.3-11.5.5-17.1-2.5-7.9-5.4-15.7-6.3-23.9-1.5-13 2.1-26.9-3.1-38.9-4.1-9.4-13.1-16.2-22.7-19.6-9.8-3.2-20-5-30.3-5.4-14.8-1.3-67.5-7.6-73.7 11.7-1.8 5.6 1 11.9-.3 17.6-1.4 6.4-7.4 10.8-9.1 17.2-2.4 8.7 4 16.7 9.6 24.1 1.1 1.5 2.1 3.1 2.9 4.8 7 14.9 22.7 28.5 35.5 37.9 15.4 11.2 33.9 17.4 52.8 17.1z" fill-opacity=".098039"/><path d="m2245.5 951c29.2-.4 40.1-15 44.2-25.5 2.1-5.5 2.3-11.5.5-17.1-2.5-7.9-5.4-15.7-6.3-23.9-1.5-13 2.1-26.9-3.1-38.9-4.1-9.4-13.1-16.2-22.7-19.6-9.8-3.2-20-5-30.3-5.4-14.8-1.3-67.5-7.6-73.7 11.7-1.8 5.6 1 11.9-.3 17.6-1.4 6.4-7.4 10.8-9.1 17.2-2.4 8.7 4 16.7 9.6 24.1 1.1 1.5 2.1 3.1 2.9 4.8 7 14.9 22.7 28.5 35.5 37.9 15.4 11.2 33.9 17.4 52.8 17.1z" fill="#9aa5b1"/><path d="m2470.6 1550.8s16 20.9-7.4 52.5c-23.3 31.6-42.6 58.2-34.8 77.8 0 0 35.2-58.6 63.9-59.3 28.7-.6 9.8-35.7-21.7-71z" fill="#3ebd93"/><path d="m2470.6 1550.8c1.4 2 2.5 4.2 3.3 6.6 28 32.9 42.9 63.5 16 64.3-25.1.7-55.1 45.5-62.3 56.8.2.9.5 1.7.9 2.7 0 0 35.2-58.6 63.9-59.3 28.6-.6 9.7-35.8-21.8-71.1z" fill-opacity=".098039"/><path d="m2500.3 1577.5c0 7.4-.8 13.3-1.9 13.3s-1.8-6-1.8-13.3c0-7.4 1-3.9 2-3.9s1.7-3.5 1.7 3.9z" fill="#ffd037"/><path d="m2510.5 1586.3c-6.5 3.5-12.1 5.6-12.6 4.7s4.4-4.5 10.8-8.1 3.9-.9 4.4 0c.5 1 3.9-.2-2.6 3.4z" fill="#ffd037"/><path d="m2386.3 1550.8s-16 20.9 7.4 52.5 42.6 58.2 34.8 77.8c0 0-35.2-58.6-63.9-59.3-28.7-.6-10-35.7 21.7-71z" fill="#3ebd93"/><path d="m2386.3 1550.8c-1.4 2-2.5 4.2-3.3 6.6-28 32.9-42.9 63.5-16 64.3 25.1.7 55.1 45.5 62.3 56.8-.2.9-.5 1.7-.9 2.7 0 0-35.2-58.6-63.9-59.3-28.6-.6-9.9-35.8 21.8-71.1z" fill-opacity=".098039"/><path d="m2356.6 1577.5c0 7.4.8 13.3 1.8 13.3s1.8-6 1.8-13.3c0-7.4-1-3.9-2-3.9s-1.6-3.5-1.6 3.9z" fill="#ffd037"/><path d="m2346.3 1586.3c6.5 3.5 12.1 5.6 12.6 4.7s-4.4-4.5-10.8-8.1-3.9-.9-4.4 0c-.5 1-3.9-.2 2.6 3.4z" fill="#ffd037"/><path d="m2514.4 1653-.8 6.5-1.1 9.2-.5 3.8-1.1 9.2-.5 3.8-1.1 9.2-12.8 104.8c-1.1 9.3-16.4 16.7-34.9 16.7h-66.4c-18.4 0-33.7-7.3-34.8-16.7l-12.8-104.8-1.1-9.2-.5-3.8-1.2-9.2-.5-3.8-1.1-9.2-.8-6.5c-.6-5.4 7.6-9.8 18.1-9.8h135.9c10.3 0 18.6 4.5 18 9.8z" fill="#444053"/><path d="m2513.6 1659.5-1.1 9.2h-168.1l-1.1-9.2zm-1.6 13.1-1.1 9.2h-164.9l-1.1-9.2zm-1.6 13-1.1 9.2h-161.8l-1.1-9.2z" fill="#9d9cb5"/></g></svg>