<svg clip-rule="evenodd" fill-rule="evenodd" stroke-linejoin="round" stroke-miterlimit="1.41421" viewBox="0 0 2835 1547" xmlns="http://www.w3.org/2000/svg"><path d="m2804.6 1434.94c-11 27.1-24.5 53.2-40.4 77.8-7.5 11.7-15.6 23-24.5 33.7l-.3.3h-2739.4l.4-.3c2.5-1.9 16.9-13.6 39.4-33.7 16.1-14.4 36.4-33.1 59.2-55.5 186.1-183 543.5-616.2 245.8-1013.1-276.8-369 21.2-435.9 217.7-443.7 75.5-3 150.9 9.4 221.5 36.2 90.8 34.5 256.8 87.4 473 111.7 7.1.8 14.2 1.6 21.5 2.3 114.5 11.7 229.7 13.7 344.5 6.3 3.4-.2 6.8-.4 10.2-.7 113.6-8 226.3-25.4 337-52.1 7.2-1.8 14.2-3.4 21.3-5.1 368.8-85.3 708.8 205.5 623.8 534.2-31.4 121.6-23.4 251.1 81.3 356 171.7 171 150.9 339.5 108 445.7z" fill="#0967d2" fill-opacity=".094118" fill-rule="nonzero"/><path d="m2804.8 1434.64c-11 27.1-24.5 53.2-40.4 77.8-7.5 11.7-15.6 23-24.5 33.7h-2739.3c2.5-1.9 16.9-13.6 39.4-33.7 16.1-14.4 36.4-33.1 59.2-55.5l288.7-59.7c3.7-.8 7.5-1.2 11.3-1.2l307.8-.4h.3l152.5-.2h.3l128.7-.1h170.5l353.5-.5h152.1l60.7-.7h20.1l176.6-.2h83.5l204-.3h60.7l193.2-.3 163.1-.2c4.5 0 9.1.5 13.5 1.6z" fill="#454b69" fill-rule="nonzero"/><path d="m40 1512.44h2724.3c-7.5 11.7-15.6 23-24.5 33.7h-2739.2c2.4-2.1 16.9-13.8 39.4-33.7z" fill="none"/><path d="m40 1512.44h2724.3c-7.5 11.7-15.6 23-24.5 33.7h-2739.2c2.4-2.1 16.9-13.8 39.4-33.7z" fill-opacity=".4" fill-rule="nonzero"/><path d="m1184 594.638c-30.2-4-52.5-30.3-51.2-60.7 1.2-27.3.2-54.7-5.2-81.4-1.9-9.8-4.5-19.5-7.7-28.9-8.8-26.1-22.6-53.2-15.2-79.7 5.9-21 23.9-36 40.7-49.9 32.9-27.1 66.6-57.5 79.6-98.2 6.4-19.7 7.6-40.9 14.5-60.5 13.1-37.2 46-65 82.5-79.8 36.6-14.7 76.8-17.9 116.3-17.9 34.8 0 69.7 2.3 104.2 6.9 37.7 4.9 75.7 13 108.8 31.7s61 49.3 68.7 86.6c10.9 52.8-19.4 109-3.1 160.2 8.2 25.9 27.1 46.8 40.3 70.5 21.1 39.1 25.9 85 13.3 127.6-.5 1.6-.9 3.3-1.3 4.9-3.3 15.4-32.3 118.8-211.9 56.9-77.4-26.7-127.8-38.7-160.5-43.6-24.4-3.6-48.6 8.1-60.2 29.8-10.5 19.6-45.5 39.6-152.6 25.5z" fill="#9aa5b1" fill-rule="nonzero"/><path d="m1338.6 617.638c2.7 15.3 4.1 32-3.7 45.4-10.4 17.8-33 23.5-53.2 27.6l-70.2 14.1c-4.8 1-9.9 2-13.4 5.3-4.2 3.8-5.6 9.7-6.3 15.4-2.8 25.4 6.2 50.5 14.4 74.7 16.6 49.1 30.5 99.2 51.5 146.5 21 47.4 49.8 92.6 90.9 124.2s95.5 48.5 145.8 36.1c43.8-10.8 79.8-41.7 110.7-74.5 25.6-27.1 49.5-56.7 61.9-91.9 8.6-24.2 11.3-49.9 14-75.4 4.2-39.1 8.3-78.2 12.5-117.2 1.9-18.3 3.2-39-8.7-53-5.2-6.2-12.3-10.3-19.6-14.1-27-14.3-55.4-26.2-80.5-43.4-25.1-17.3-47.4-41-55-70.5-4.6-17.7-3.7-37-11.5-53.5-8.7-18.5-27.1-31-46.8-36.5s-40.5-4.8-60.8-2.5-98.6 8.2-107 31.1c-4.5 12.3 14.2 38.8 18.6 50.9 7.3 19.8 12.8 40.3 16.4 61.2z" fill="#efb7b9" fill-rule="nonzero"/><path d="m1338.6 617.738c2.7 15.3 4.1 32-3.7 45.4-10.4 17.8-33 23.5-53.2 27.6l-70.2 14c-4.8 1-9.9 2-13.4 5.3-4.2 3.8-5.6 9.7-6.3 15.4-2.8 25.4 6.2 50.5 14.4 74.7 16.6 49.1 30.5 99.2 51.5 146.5 21 47.4 49.8 92.6 90.9 124.2s95.5 48.5 145.8 36.1c43.8-10.8 79.8-41.7 110.7-74.5 25.6-27.1 49.5-56.7 61.9-91.9 8.6-24.2 11.3-49.9 14-75.4 4.2-39.1 8.3-78.2 12.5-117.2 1.9-18.3 3.2-39-8.7-53-5.2-6.2-12.3-10.3-19.6-14.1-27-14.3-55.4-26.2-80.5-43.4-25.1-17.3-47.4-41-55-70.5-4.6-17.7-3.7-37-11.5-53.5-8.7-18.5-27.1-31-46.8-36.5s-40.5-4.8-60.8-2.5-98.6 8.2-107 31.1c-4.5 12.3 14.2 38.8 18.6 50.9 7.3 19.9 12.8 40.4 16.4 61.3z" fill-opacity=".094118" fill-rule="nonzero"/><path d="m1507.7 885.638 41.2-87.2c19.3-40.9 39-83.8 37-128.9-.4-9-.5-20.2 7.4-24.3 3.4-1.4 7.2-1.9 10.8-1.4 43.4 2.2 86.2 10.9 127 25.7 7.9 2.9 16 6.2 21.6 12.5s7.8 14.8 9.7 22.9c6.5 27.5 11.2 55.4 14.1 83.5 7.4 69.6 3.7 139.7 0 209.5l-10.9 213c.1 3-.6 6-1.8 8.8-2.7 4.9-8.8 6.6-14.3 7.5-21.2 3.6-42.8 2.9-64.3 2.1-150.9-5.7-302.5-14.5-452.4 3.8.7-22.2.3-44.4-1.1-66.6-5.9-95.9-30.8-189.4-55.2-282.3-14.2-54.2-28-113.4-5.1-164.5 3.4-8.1 8.2-15.4 14.3-21.7 9.7-9.5 23-14.6 36.2-18.2 22.7-6.2 46.2-8.8 69.7-7.9l155.4 338.4c7.1 15.5 12.9 31.8 20 47.1 6.4-26.4-1.3-57.3 6.4-86 8.2-29.6 21.2-58 34.3-85.8z" fill="#fff" fill-rule="nonzero"/><path d="m1491.5 1118.44c27.8 1.8 54.8-12.5 73.9-32.6s31.7-45.7 42.4-71.5c15.3-36.8 27.5-74.8 36.5-113.7 7.4-33 12.6-67.2 7.5-100.7-7-46.2-33.2-88.2-37.7-134.8-.8-8.1-.3-17.6 6.3-22.6 4-3 9.4-3.5 14.4-3.7 46.5-2.8 97.6-2.2 133.6 27.3 11 9 19.9 20.2 30.6 29.4 25.5 22.2 61.6 33.5 78 62.9 5.7 10.3 8.5 21.9 12.4 32.9 9.4 26.1 25.7 49.1 41.9 71.7-15.7 66.3-33.7 132.6-49.4 198.8-9.2 38.9-18.5 77.9-32.9 115.1-9.5 24.4-21.4 49.3-18.5 75.4 1.2 10.3 4.6 20.1 7.6 30 10.5 34.8 15.4 71 14.5 107.3l-703.3 1.7c33.7-48.3 43.6-107.6 40.2-166.4-1.7-28.2-8-56.5-22.2-80.9-22.3-38.2-61.6-63.1-100.3-84.4-27.1-14.8-56.2 68.4-85.5 58.9 4.7-33.5 6.9-162.7 4.9-196.4-.6-11-1.6-22.4 1.8-32.9 2.3-7.2 6.6-13.7 9.5-20.7 11.6-28.1.5-64.1 19.2-88 12.9-16.6 35.6-21.4 54-31.6 18.9-10.5 33.5-27.1 50-41.3 32.3-27.4 71.8-45.1 113.8-50.8 12.3 19.3 19.7 41.3 21.7 64.1 1.3 14.3.3 28.8 2.3 43.1 2.7 19.3 10.7 37.4 18.6 55.3 33 74.4 66 149.1 107.8 218.9 11.8 19.7 24.6 39.4 41.8 54.8 17 15.6 41.6 26.5 64.6 25.4z" fill="#0c69a3" fill-rule="nonzero"/><path d="m1491.5 1118.44c27.8 1.8 54.8-12.5 73.9-32.6s31.7-45.7 42.4-71.5c15.3-36.8 27.5-74.8 36.5-113.7 7.4-33 12.6-67.2 7.5-100.7-7-46.2-33.2-88.2-37.7-134.8-.8-8.1-.3-17.6 6.3-22.6 4-3 9.4-3.5 14.4-3.7 46.5-2.8 97.6-2.2 133.6 27.3 11 9 19.9 20.2 30.6 29.4 25.5 22.2 61.6 33.5 78 62.9 5.7 10.3 8.5 21.9 12.4 32.9 9.4 26.1 25.7 49.1 41.9 71.7-15.7 66.3-33.7 132.6-49.4 198.8-9.2 38.9-18.5 77.9-32.9 115.1-9.5 24.4-21.4 49.3-18.5 75.4 1.2 10.3 4.6 20.1 7.6 30 10.5 34.8 15.4 71 14.5 107.3l-703.3 1.7c33.7-48.3 43.6-107.6 40.2-166.4-1.7-28.2-8-56.5-22.2-80.9-22.3-38.2-61.6-63.1-100.3-84.4-27.1-14.8-56.2 68.4-85.5 58.9 4.7-33.5 6.9-162.7 4.9-196.4-.6-11-1.6-22.4 1.8-32.9 2.3-7.2 6.6-13.7 9.5-20.7 11.6-28.1.5-64.1 19.2-88 12.9-16.6 35.6-21.4 54-31.6 18.9-10.5 33.5-27.1 50-41.3 32.3-27.4 71.8-45.1 113.8-50.8 12.3 19.3 19.7 41.3 21.7 64.1 1.3 14.3.3 28.8 2.3 43.1 2.7 19.3 10.7 37.4 18.6 55.3 33 74.4 66 149.1 107.8 218.9 11.8 19.7 24.6 39.4 41.8 54.8 17 15.6 41.6 26.5 64.6 25.4z" fill-opacity=".094118" fill-rule="nonzero"/><circle cx="1454.3" cy="400.738" fill="#efb7b9" r="211.3"/><path d="m1633.5 579.938c37.3-25.1 65.3-61.9 78.8-104.7 1.2-3.8 2.3-7.6 3.1-11.4 11.9-51.4-7.9-104.4-27.4-153.5l-58.3-146.5c-8.9-22.4-19-46.3-39.4-59-13.8-8.6-30.5-10.8-46.7-12.3-52.1-4.6-106-3.1-154.5 16.3-88.3 35.3-143.7 122.2-187.6 206.6-13.2 25.3-26.2 52.1-25.6 80.6.3 15.6 4.7 30.8 8.2 46.1 10 43.1 13.5 87.3 14.9 131.6.8 24.4 28.6 37.8 48.2 23.2l44.9-33.4c11.8-8.8 15.4-24.8 8.5-37.8-12.3-23.2-25.5-46.4-31.7-71.9s-4.4-54.4 11.4-75.4c13.5-17.8 34.8-27.5 54.5-38 55.5-29.4 106.2-72.6 130.8-130.4.1-.3-.2-.5-.4-.4-12.9 8-9.2 29.8 2.8 39.5 12.2 9.9 28.9 11.9 43.9 16.6 54.8 17.3 87.7 71.9 114.1 123 4.3 8.3 8.7 17.1 8.7 26.5s-4.3 17.7-8.8 25.7c-13 23.2-28.9 45.4-34.9 71.3-3.7 16.1-3.3 32.7-.6 49.1 3.4 20.1 26.3 29.9 43.1 18.6z" fill="#9aa5b1" fill-rule="nonzero"/><path d="m1200.1 630.838c.1-7 .1-14 0-21.1-.7-63.7-1.5-127.9-16-189.9-3.2-12-5.7-24.2-7.5-36.6-.5 4.2-.7 8.4-.7 12.7.3 15.6 4.7 30.8 8.2 46.1 14.4 61.6 15.3 125.5 16 188.8zm515.4-167.1c3.2-14.3 4.3-29.1 3.2-43.7-.5 7.2-1.6 14.5-3.2 21.5-6.3 27.1-21 51.5-26.4 78.7-2.3 11.9-3 24.1-2 36.3.4-4.7 1-9.4 2-14.1 5.4-27.2 20.1-51.7 26.4-78.7zm-82.7-59.9c0 .1.1.1 0 0 1.2-3.5 1.9-7.1 1.9-10.8 0-9.4-4.3-18.2-8.7-26.5-26.4-51.1-59.2-105.7-114.1-123-15-4.7-31.7-6.7-43.9-16.6-6.4-5.5-10.2-13.3-10.8-21.6-26.7 49-72.6 86.5-122.3 112.9-19.7 10.5-41.1 20.1-54.5 38-12.6 16.7-16.3 38.5-14.1 59.5 1.3-13.5 6.1-26.4 14.1-37.3 13.5-17.8 34.8-27.5 54.5-38 49.7-26.3 95.6-63.8 122.3-112.9.5 8.4 4.4 16.2 10.8 21.6 12.3 9.9 28.9 11.9 43.9 16.6 54.8 17.3 87.7 71.9 114.1 123 2.8 4.8 5 9.9 6.8 15.1z" fill-opacity=".25098" fill-rule="nonzero"/><path d="m1280.2 576.238c-23.8 1.8-51.9-6.8-74.5-12-2.5 6.9-5.3 13.7-8.4 20.3 29.3 5.8 52 19.8 69.3 14.3l1.2-.1c20.8-2 22.6-2.8 30.9-4.8 20.9-5 30.8-15.5 30.8-15.5s-2.9-9.2-2.9-9.3c0 0-.7-.4-1.3-1l-4.3-3.4-6.5-5.5-6.8-6.3-4.7-4.7c-.2.7-.9 4.1-.9 4.1l-1.3 5.6c-2 10-10.4 17.5-20.6 18.3z" fill-opacity=".25098" fill-rule="nonzero"/><path d="m1642.1 1271.24c-38.1-6-76.7-17.7-114.5-9.9-21.9 4.5-41.9 15.4-60.1 28.6 10 8 21.7 15.2 28.1 26.3 3.9 7.7 6.9 15.9 8.8 24.3 4 14.8 8 29.9 8.6 45.3s-2.5 31.4-11.6 43.8c48 4.7 94.6-7.1 141.4-18.7 5.4-.9 10.5-3 15-6 7.4-5.8 9.6-16.2 9.6-25.6 0-16.9-4.7-33.3-9.5-49.5-5.8-19.3-10.1-39.3-15.8-58.6z" fill="#fff" fill-rule="nonzero"/><path d="m1899.2 855.538c18.9 2.5 33.6 17.7 44.4 33.4 30.3 43.6 43.4 96.5 57.9 147.6 18.1 63.5 39.3 126.1 63.8 187.6 5.3 14.2 11.7 28 19.1 41.2 6.1 10.2 13.5 20 16.2 31.5 6.5 28-16.5 54.2-40.6 69.8-12.8 8.6-26.8 15.4-41.5 20-14.3 4.3-29.3 5.9-44.2 7.5l-136.8 14.8c-63 6.9-126.5 13.7-189.5 7.1-4-13.8 3.8-23.6 3.3-37.9-.4-10.3-4.9-19.8-9-29.3-7.5-16.9-12.4-34.7-14.6-53-.7-6.7-1-13.6-3.5-19.9-2.6-6.3-8.1-11.9-14.8-12.3 37-3.7 65-10.6 102-14.3 13.7-1.4 28-2.9 39.7-10.2 14.5-9 22.7-25.4 29.1-41.2 16-39.2 26.3-82.4 17.9-123.9-6.9-34-26.2-65.7-26.1-100.5 0-20.7 7-40.7 15.4-59.7 8.8-20 20.3-40.5 39.7-50.6s50.3-10.7 72.1-7.7z" fill="#0c69a3" fill-rule="nonzero"/><path d="m1899.2 855.538c18.9 2.5 33.6 17.7 44.4 33.4 30.3 43.6 43.4 96.5 57.9 147.6 18.1 63.5 39.3 126.1 63.8 187.6 5.3 14.2 11.7 28 19.1 41.2 6.1 10.2 13.5 20 16.2 31.5 6.5 28-16.5 54.2-40.6 69.8-12.8 8.6-26.8 15.4-41.5 20-14.3 4.3-29.3 5.9-44.2 7.5l-136.8 14.8c-63 6.9-126.5 13.7-189.5 7.1-4-13.8 3.8-23.6 3.3-37.9-.4-10.3-4.9-19.8-9-29.3-7.5-16.9-12.4-34.7-14.6-53-.7-6.7-1-13.6-3.5-19.9-2.6-6.3-8.1-11.9-14.8-12.3 37-3.7 65-10.6 102-14.3 13.7-1.4 28-2.9 39.7-10.2 14.5-9 22.7-25.4 29.1-41.2 16-39.2 26.3-82.4 17.9-123.9-6.9-34-26.2-65.7-26.1-100.5 0-20.7 7-40.7 15.4-59.7 8.8-20 20.3-40.5 39.7-50.6s50.3-10.7 72.1-7.7z" fill-opacity=".078431" fill-rule="nonzero"/><path d="m1042.4 823.538c8.9-21.2 18-43.2 18.3-66.2.3-24.9-9.9-48.6-17.6-72.2-9.6-29-15.9-58.9-19-89.2-.6-2.9-.2-5.9 1.2-8.6 2-2.9 6-3.5 9.5-4.2 17.1-3.9 29.9-17.7 40.6-31.6 16.5-21.4 30.5-44.7 41.6-69.4 8.2-18.2 19.2-40.3 39.1-40.5-8 37.7-18 74.9-29.8 111.5 20.8-5.3 40.6-13.1 61.5-18.4 4.1-1.3 8.3-1.9 12.6-1.7 12.5 1.3 20.1 18.2 12.9 28.4 10.2 11.9 27.1 15.1 40.4 23.3s22.9 28.4 11 38.7c-2.3 2-5.3 3.4-6.9 6-5.7 8.8 8.3 19 7.1 29.4-.9 8.6-11.9 12.5-20.2 10.3-8.3-2.3-14.8-8.5-22.2-13-7.4-4.6-17.1-7.4-24.2-2.7-1.9 23.2-4 46.8-14 68-3.7 7.7-8.4 14.9-11.3 22.9-2.8 8.7-4.6 17.8-5.2 26.9l-8.9 81.8c-42.9 8.6-81.2-4.2-116.5-29.5z" fill="#efb7b9" fill-rule="nonzero"/><path d="m1032 896.838-7.9-53.2c-.8-4.3-1.2-8.7-1.3-13.1 0-12.3 5.4-24.1 10.7-35.3 43.5 20.3 90.5 27.5 138.5 27.6 6.3 0 13.6-.6 17.5-5.5 8.2 9.4 8.4 24.5 4.9 36.4s-10.2 22.7-14.6 34.3c-2.2 5.9-4.1 12.3-8.4 16.9-6.7 7.2-17.5 8.4-27.3 8.4-10.3-.1-20.6-1-30.8-2.9-26.1-5.1-55.1-18.3-81.3-13.6z" fill="#fff" fill-rule="nonzero"/><path d="m1194.2 894.638c-33.8-3.8-67.3-9.3-100.6-16.3-16.3-3.4-32.8-7.2-49.5-6.6-10.8.4-22.5 2.6-32-2.8 9.3 31.6 9.9 65-1.3 96-6.6 18.5-16.6 35.7-21.4 54.7-10.1 39.8 3.7 83.2-8.8 122.3-1.3 5.1-3.9 9.8-7.6 13.6-3.8 3.5-9.1 5.3-12.6 9.2-5.2 5.6-5.5 14.1-5.6 21.7l-.2 67.9c-.1 43.2.4 89.1 23.2 125.7 26 41.9 80.8 63.6 128.5 50.9 12.7-3.2 24.6-9.1 34.9-17.1 16.6-13.2 27.1-32.2 37.4-50.7 12.3-22.2 24.6-44.9 28.6-69.8 2.8-17.7 1.2-35.7-.8-53.5-11.1-98.6-35.3-196.4-30.1-295.3.8-18 7-35.4 17.9-49.9z" fill="#0c69a3" fill-rule="nonzero"/><path d="m1335.4 1303.84c-17.1 1-34.4 2-51.4 0-12.3-1.5-24.4-4.5-36.6-6.6-67.5-10.9-136.6 8.3-188.8 52.5-9.5 8.1-19 20.5-13.8 31.8 5.6 12.2 22.8 11.8 36 9.6-14.3 6.8-26.9 16.7-37 28.9-3.7 4.5-7.2 9.9-6.5 15.7 1.5 12.2 18.1 14.4 30.3 13.4-4 4.3-1.3 11.9 3.8 14.8s11.4 2.3 17.1 1.3c12.7-2.3 25-6.6 36.4-12.6-2.3 6 1.7 13.1 7.4 16.1s12.6 2.8 19 1.8c30.1-4.9 55.3-25.9 84.6-34.1 47-13.1 96.1 7.8 145 9.3 15.3.5 31-1.1 44.9-7.4 17.1-7.8 30.9-22.3 48.9-27.5 20-5.7 43 .9 61.4-9 13.3-7.2 1.3-62.5-2.1-73.1-6.2-19.5-12.5-32.4-33.3-34.4-52.5-5.3-112.4 6.4-165.3 9.5z" fill="#efb7b9" fill-rule="nonzero"/><path d="m1466.5 1288.74s79.6 67.4 33.7 140.9l88.7-30.6v-64.3c0-3.1-33.7-49-33.7-49l-39.8-6.1z" fill="#fff" fill-rule="nonzero"/><path d="m633.2 1284.54h29.8c33.8 0 61.6 27.8 61.6 61.6v91.5h-153.1v-91.4c0-33.8 27.9-61.7 61.7-61.7z" fill="#3f3d56" fill-rule="nonzero"/><path d="m633.2 1284.54h29.8c33.8 0 61.6 27.8 61.6 61.6v91.5h-153.1v-91.4c0-33.8 27.9-61.7 61.7-61.7z" fill-opacity=".094118" fill-rule="nonzero"/><g fill="#3f3d56"><circle cx="642" cy="1306.04" r="12.3"/><circle cx="642" cy="1290.74" r="12.3"/><circle cx="642" cy="1275.44" r="12.3"/><circle cx="642" cy="1260.04" r="12.3"/><circle cx="642" cy="1244.74" r="12.3"/><circle cx="642" cy="1229.44" r="12.3"/><circle cx="642" cy="1214.14" r="12.3"/><circle cx="660.4" cy="1220.24" r="12.3"/><circle cx="672.6" cy="1214.14" r="12.3"/><circle cx="684.9" cy="1208.04" r="12.3"/><circle cx="642" cy="1198.84" r="12.3"/><circle cx="642" cy="1183.54" r="12.3"/><circle cx="642" cy="1168.24" r="12.3"/><circle cx="642" cy="1152.94" r="12.3"/></g><path d="m692.8 1113.44c-3.1.4-6.1.8-9.2 1 2.8-2.5 5.5-5.2 7.9-8.1-1.7-5.1-4.2-10-7.4-14.4-3 1.7-6.4 2.8-9.9 3.1-3 .4-6.1.8-9.1 1 4-3.3 7.8-8.2 11.7-12.3-9.6-8.7-22-13.5-34.9-13.5-28.5 0-52 23.5-52 52s23.5 52 52 52 52-23.5 52-52v-.1c0-3-.3-6-.8-8.9zm40.9 60.8c-3.1 1.9-6.7 3.1-10.3 3.4-3 .4-6.1.8-9.1 1 3.2-2.9 6.3-6.1 9.1-9.4-2.5-.7-5.1-1-7.7-1-16.8 0-30.7 13.8-30.7 30.7 0 16.8 13.8 30.7 30.7 30.7 16.8 0 30.7-13.8 30.7-30.7-.2-9.8-4.8-19-12.7-24.7z" fill="#3ebd93" fill-rule="nonzero"/><circle cx="623.6" cy="1220.24" fill="#3f3d56" r="12.3"/><circle cx="611.3" cy="1214.14" fill="#3f3d56" r="12.3"/><circle cx="599.1" cy="1208.04" fill="#3f3d56" r="12.3"/><path d="m550.3 1174.24c3.1 1.9 6.7 3.1 10.3 3.4 3 .4 6.1.8 9.1 1-3.3-2.9-6.3-6.1-9.1-9.4 2.5-.7 5.1-1 7.7-1 16.8 0 30.7 13.8 30.7 30.7 0 16.8-13.8 30.7-30.7 30.7-16.8 0-30.7-13.8-30.7-30.7.1-9.8 4.8-19 12.7-24.7z" fill="#3ebd93" fill-rule="nonzero"/><path d="m633.2 1293.64h29.8c33.8 0 61.6 27.8 61.6 61.6v81c0 5.7-4.7 10.5-10.5 10.5h-132.2c-5.7 0-10.5-4.7-10.5-10.5v-81c.1-33.8 27.9-61.6 61.8-61.6-.1 0-.1 0 0 0z" fill="#3f3d56" fill-rule="nonzero"/><path d="m693.7 1116.74c-1.2 1.3-2.6 2.6-3.9 3.7 1.4 0 2.8-.2 4.2-.4-.1-1-.2-2.2-.3-3.3zm-22.4-14.6c3.1-.2 6.1-.5 9.2-1 2.7-.3 5.4-1.1 8-2.2-1.2-2.5-2.7-4.8-4.3-7.1-1.5.9-3.2 1.6-4.9 2.1-2.5 3-5.1 5.7-8 8.2zm-75.3 26.3v-.1c0-28.5 23.5-52 52-52 10 0 19.8 2.9 28.1 8.3l.8-.8c-9.5-8.5-21.8-13.2-34.6-13.2-28.5 0-52 23.5-52 52 0 15.1 6.6 29.5 18 39.4-7.9-9.4-12.3-21.3-12.3-33.6zm118.2 56.3c3.1-.2 6.1-.5 9.1-1 3.7-.3 7.2-1.5 10.3-3.5 7 5.2 11.5 13 12.3 21.7.1-1.1.2-2.1.2-3.2 0-9.7-4.5-18.9-12.3-24.6-3.1 1.9-6.7 3.1-10.3 3.4l-2.5.3c-2 2.5-4.3 4.8-6.8 6.9zm1.3-10.4c1 0 2 .1 3.1.2 1.6-1.7 3.2-3.5 4.8-5.3-2.6-.7-5.2-1-7.9-1-16.8 0-30.6 13.8-30.6 30.6 0 1 0 2 .1 3.1 1.6-15.6 14.8-27.6 30.5-27.6zm-145.8 10.4c-3.1-.2-6.1-.5-9.1-1-3.7-.3-7.2-1.5-10.3-3.5-7 5.2-11.5 13-12.3 21.7-.1-1.1-.2-2.1-.2-3.2 0-9.7 4.5-18.9 12.3-24.6 3.1 1.9 6.7 3.1 10.3 3.4l2.5.3c2.1 2.6 4.3 4.9 6.8 6.9zm-1.2-10.4c-1 0-2.1.1-3.1.2-1.6-1.7-3.2-3.5-4.8-5.3 2.6-.7 5.2-1 7.9-1 16.8 0 30.6 13.8 30.6 30.6 0 1 0 2-.1 3.1-1.6-15.6-14.9-27.6-30.5-27.6z" fill-opacity=".25098" fill-rule="nonzero"/><path d="m485.4 1476.34h-240.8c-5.6 0-10.2-4.6-10.2-10.2v-114c0-5.6 4.6-10.2 10.2-10.2 1.5 0 3 .3 4.4 1 69.2 32.8 143.7 44.1 231.7.5 1.4-.7 3-1.1 4.5-1.1 5.6 0 10.2 4.6 10.3 10.2v113.6c0 5.6-4.5 10.1-10.1 10.2z" fill="#5e5e61" fill-rule="nonzero"/><path d="m485.4 1476.34h-240.8c-5.6 0-10.2-4.6-10.2-10.2v-114c0-5.6 4.6-10.2 10.2-10.2 1.5 0 3 .3 4.4 1 69.2 32.8 143.7 44.1 231.7.5 1.4-.7 3-1.1 4.5-1.1 5.6 0 10.2 4.6 10.3 10.2v113.6c0 5.6-4.5 10.1-10.1 10.2z" fill-opacity=".094118" fill-rule="nonzero"/><ellipse cx="363.3" cy="1371.04" fill="#3f3d56" rx="14.2" ry="18.7"/><ellipse cx="363.3" cy="1348.24" fill="#3f3d56" rx="14.2" ry="18.7"/><ellipse cx="363.3" cy="1325.44" fill="#3f3d56" rx="14.2" ry="18.7"/><ellipse cx="363.3" cy="1302.64" fill="#3f3d56" rx="14.2" ry="18.7"/><ellipse cx="363.3" cy="1279.84" fill="#3f3d56" rx="14.2" ry="18.7"/><ellipse cx="363.3" cy="1257.04" fill="#3f3d56" rx="14.2" ry="18.7"/><ellipse cx="363.3" cy="1234.24" fill="#3f3d56" rx="14.2" ry="18.7"/><path d="m416.8 1078.04c1.9-2.5 3.7-5.1 5.3-7.8l-37.5-6.2 40.5.3c7.9-17.1 8.4-36.8 1.3-54.2l-54.4 28.2 50.1-37c-12.2-21.1-34.8-34.1-59.1-34.1-37.5 0-68.3 30.8-68.3 68.3 0 15.3 5.1 30.2 14.6 42.2-3 3.9-5.7 8-7.8 12.4l48.6 25.5-51.8-17.5c-7.4 21.8-3.2 46 11 64.1-9.5 12-14.6 26.9-14.6 42.2 0 37.5 30.8 68.3 68.3 68.3s68.3-30.8 68.3-68.3c0-15.3-5.1-30.2-14.6-42.2 19.4-24.7 19.4-59.8 0-84.4z" fill="#3ebd93" fill-rule="nonzero"/><path d="m294.7 1120.34c0 15.3 5.1 30.2 14.6 42.2-9.5 12-14.6 26.9-14.6 42.2 0 37.5 30.8 68.3 68.3 68.3s68.3-30.8 68.3-68.3c0-15.3-5.1-30.2-14.6-42.2 9.2-11.6-122-49.9-122-42.2z" fill-opacity=".094118" fill-rule="nonzero"/><path d="m485.4 1482.44h-240.8c-5.6 0-10.2-4.6-10.2-10.2v-120c0-5.6 4.6-10.2 10.2-10.2 1.5 0 3 .3 4.4 1 69.2 32.8 124.1 71.1 231.7.5 6.4-4.2 14.8 1.5 14.8 9.1v119.5c0 5.6-4.5 10.2-10.1 10.3z" fill="#727276" fill-rule="nonzero"/><path d="m2272.4 1448.44-355.3 47-17.8 2.3-173.7-92.8v-21.7l542.8-59.2z" fill="#9c9ca1" fill-rule="nonzero"/><path d="m1826.3 1414.94 384.9-45.4-3.9 71.1-299.8 22z" fill="#939498" fill-rule="nonzero"/><path d="m1917.1 1472.14v23.3l-17.8 2.5-173.7-92.9v-21.7l165.8 88.7c.1 0 21.8 2.1 25.7.1z" fill-opacity=".4" fill-rule="nonzero"/><path d="m1985.3 1102.04-79.8 369.9c-.4 1.6-.5 3.3-.5 5 0 13 10.7 23.6 23.6 23.6 1 0 2.1-.1 3.1-.2l504.6-66.8c9-1.2 16.5-7.4 19.3-16l108.9-328.3c.8-2.4 1.2-4.9 1.2-7.4 0-13-10.7-23.7-23.7-23.7h-1.1l-533.7 25.3c-10.5.6-19.6 8.2-21.9 18.6z" fill="#727276" fill-rule="nonzero"/><path d="m2235.2 1235.64c1.2-11.8 8.4-20.7 15.9-19.9 7.6.8 12.7 11 11.5 22.8s-8.4 20.7-15.9 19.9c-7.6-.9-12.7-11.1-11.5-22.8z" fill="#fff"/><path d="m1614.1 578.538c-6.9-3.1-13-7.3-18.1-13.1-4.2-7.2-5.7-15.8-6.5-24.2-.6-5.1-.5-15.4.1-20.5-1.4 6.9-1.4 19.1-.8 26.3.5 5.2.7 10.3 1.8 15.2l-13.7 10.6-17 11s41.9 13.9 67.5 16.5c20.9 2.1 36.6 4.3 63-.9 5.4-1.1 12.6-3.8 19.1-5.7 0 0 16-4.6 34-22 15.5-15.1-70.8 27-123.8 8.9z" fill-opacity=".098039" fill-rule="nonzero"/></svg>