<svg clip-rule="evenodd" fill-rule="evenodd" stroke-linejoin="round" stroke-miterlimit="1.41421" viewBox="0 0 49 40" xmlns="http://www.w3.org/2000/svg"><path d="m18.792 0c1.728 5.724 2.592 11.556 2.592 17.496 0 7.02-1.701 12.501-5.103 16.443s-8.451 5.913-15.147 5.913v-9.072c2.808 0 4.887-.81 6.237-2.43s2.025-4.158 2.025-7.614v-3.078h-9.396v-17.658h18.792zm27.378 0c1.836 6.156 2.754 11.988 2.754 17.496 0 6.912-1.728 12.366-5.184 16.362s-8.532 5.994-15.228 5.994v-9.072c2.808 0 4.887-.81 6.237-2.43s2.025-4.158 2.025-7.614v-3.078h-9.396v-17.658h18.792z" fill="#3f4851" fill-rule="nonzero"/></svg>