<svg clip-rule="evenodd" fill-rule="evenodd" stroke-linejoin="round" stroke-miterlimit="1.414" viewBox="0 0 24 24" xmlns="http://www.w3.org/2000/svg"><g fill-rule="nonzero"><path d="m9 22h-4c-.549 0-1-.451-1-1v-10l8-8 8 8v10c0 .549-.451 1-1 1h-4c-.549 0-1-.451-1-1v-4c0-.549-.451-1-1-1h-2c-.549 0-1 .451-1 1v4c0 .549-.451 1-1 1zm3-9c1.097 0 2-.903 2-2s-.903-2-2-2-2 .903-2 2 .903 2 2 2z" fill="#fff"/><path d="m12.01 4.42-8.3 8.3c-.188.189-.444.296-.71.296-.549 0-1.001-.452-1.001-1.001 0-.264.105-.518.291-.705l9.02-9.02c.387-.385 1.023-.385 1.41 0l8.99 9.02c.186.187.291.441.291.705 0 .549-.452 1.001-1.001 1.001-.266 0-.522-.107-.71-.296z" fill="#bae3ff"/></g></svg>