<svg xmlns="http://www.w3.org/2000/svg" width="671" height="671" fill="none">
  <g clip-path="url(#clip0)">
    <path fill="#38A89D" d="M335.412 670.824c185.243 0 335.412-150.169 335.412-335.412C670.824 150.169 520.655 0 335.412 0 150.169 0 0 150.169 0 335.412c0 185.243 150.169 335.412 335.412 335.412z"/>
    <path fill="#fff" d="M335.417 602.737l201.24-100.62V367.949l-67.08-33.54 67.08-33.54V166.705L335.417 66.082v469.575l-134.168-67.08V133.164l-67.082 33.541v335.412l201.25 100.62z"/>
    <path fill="#38A89D" d="M402.497 502.117l67.08-33.54v-67.088l-67.08-33.54v134.168zm0-201.248l67.08-33.541v-67.082l-67.08-33.541"/>
  </g>
  <defs>
    <clipPath id="clip0">
      <path fill="#fff" d="M0 0h670.824v670.824H0z"/>
    </clipPath>
  </defs>
</svg>
