<svg clip-rule="evenodd" fill-rule="evenodd" stroke-linejoin="round" stroke-miterlimit="1.414" viewBox="0 0 278 270" xmlns="http://www.w3.org/2000/svg" xmlns:xlink="http://www.w3.org/1999/xlink"><radialGradient id="a" cx="0" cy="0" gradientTransform="matrix(138.876 0 0 15.3455 138.877 254.286)" gradientUnits="userSpaceOnUse" r="1"><stop offset="0" stop-color="#1b4590"/><stop offset=".05" stop-color="#1c438a" stop-opacity=".937"/><stop offset=".38" stop-color="#1d356b" stop-opacity=".62"/><stop offset=".65" stop-color="#182a54" stop-opacity=".337"/><stop offset=".87" stop-color="#132246" stop-opacity=".122"/><stop offset="1" stop-color="#101e41" stop-opacity="0"/></radialGradient><linearGradient id="b" gradientTransform="matrix(49.1325 -82.6984 82.6984 49.1325 17498.8 10585.9)" gradientUnits="userSpaceOnUse" x2="1"><stop offset="0" stop-color="#194087"/><stop offset=".11" stop-color="#1b3b7c" stop-opacity=".886"/><stop offset=".4" stop-color="#193062" stop-opacity=".604"/><stop offset=".65" stop-color="#15264f" stop-opacity=".349"/><stop offset=".86" stop-color="#112045" stop-opacity=".137"/><stop offset="1" stop-color="#0f1e41" stop-opacity="0"/></linearGradient><linearGradient id="c" gradientTransform="matrix(-123.473 -150.151 150.151 -123.473 8656.32 -6901.42)" gradientUnits="userSpaceOnUse" x2="1"><stop offset="0" stop-color="#0f1e41" stop-opacity="0"/><stop offset=".26" stop-color="#0f1e41" stop-opacity="0"/><stop offset=".36" stop-color="#112045" stop-opacity=".137"/><stop offset=".5" stop-color="#15264f" stop-opacity=".349"/><stop offset=".68" stop-color="#193062" stop-opacity=".604"/><stop offset=".88" stop-color="#1b3b7c" stop-opacity=".886"/><stop offset=".96" stop-color="#194087"/><stop offset="1" stop-color="#194087"/></linearGradient><path d="m16.996 126.792c0-41.617 21.283-78.551 53.631-100.767 3.22-2.555 6.563-4.962 10.03-7.196-38.873 20.812-65.424 61.475-65.424 107.963 0 67.497 55.962 122.725 124.359 122.725.343 0 .681-.016 1.018-.016-68.054-.403-123.614-55.458-123.614-122.709z" fill="#1e4079" fill-rule="nonzero"/><path d="m137.738 0c-67.984 0-123.608 54.89-123.608 121.98 0 .573.037 1.136.042 1.705.938-66.303 56.165-120.271 123.566-120.271 67.407 0 122.628 53.968 123.566 120.275.006-.568.043-1.136.043-1.704 0-67.089-55.623-121.985-123.609-121.985z" fill="#007cc4" fill-rule="nonzero"/><ellipse cx="138.874" cy="254.269" fill="url(#a)" rx="138.874" ry="15.346"/><g fill-rule="nonzero"><path d="m139.367 246.96h-3.252c-67.091 0-121.98-54.889-121.98-121.979-.005-67.095 54.889-121.985 121.98-121.985h3.252c67.091 0 121.98 54.89 121.98 121.979 0 67.091-54.889 121.985-121.98 121.985z" fill="#1b4590"/><path d="m139.555 246.248h-3.242c-66.843 0-121.535-54.691-121.535-121.535s54.692-121.535 121.535-121.535h3.242c66.844 0 121.535 54.691 121.535 121.535s-54.691 121.535-121.535 121.535z" fill="#1a4690"/><path d="m139.737 245.541h-3.231c-66.603 0-121.091-54.494-121.091-121.091 0-66.602 54.493-121.09 121.091-121.09h3.231c66.602 0 121.09 54.493 121.09 121.09s-54.488 121.091-121.09 121.091z" fill="#194691"/><path d="m139.925 244.828h-3.221c-66.356 0-120.646-54.289-120.646-120.645 0-66.357 54.29-120.646 120.646-120.646h3.221c66.356 0 120.645 54.289 120.645 120.646 0 66.356-54.289 120.645-120.645 120.645z" fill="#184791"/><path d="m140.106 244.121h-3.203c-66.111 0-120.202-54.091-120.202-120.201s54.091-120.201 120.202-120.201h3.203c66.111 0 120.202 54.091 120.202 120.201s-54.091 120.201-120.202 120.201z" fill="#174791"/><path d="m140.294 243.408h-3.193c-65.863 0-119.756-53.888-119.756-119.756 0-65.863 53.887-119.756 119.756-119.756h3.193c65.863 0 119.756 53.887 119.756 119.756 0 65.868-53.893 119.756-119.756 119.756z" fill="#164892"/><path d="m140.476 242.701h-3.182c-65.622 0-119.312-53.689-119.312-119.311 0-65.623 53.69-119.312 119.312-119.312h3.182c65.623 0 119.312 53.689 119.312 119.312 0 65.622-53.689 119.311-119.312 119.311z" fill="#154892"/><path d="m140.664 241.994h-3.172c-65.376 0-118.861-53.491-118.861-118.862 0-65.375 53.491-118.861 118.861-118.861h3.172c65.376 0 118.861 53.491 118.861 118.861.006 65.371-53.485 118.862-118.861 118.862z" fill="#144993"/><path d="m140.852 241.281h-3.162c-65.129 0-118.416-53.288-118.416-118.416 0-65.13 53.287-118.417 118.416-118.417h3.162c65.128 0 118.416 53.287 118.416 118.417 0 65.128-53.288 118.416-118.416 118.416z" fill="#134993"/><path d="m141.033 240.574h-3.145c-64.882 0-117.971-53.089-117.971-117.972s53.089-117.972 117.971-117.972h3.145c64.883 0 117.973 53.089 117.973 117.972s-53.084 117.972-117.973 117.972z" fill="#124a93"/><path d="m141.221 239.861h-3.135c-64.641 0-117.526-52.886-117.526-117.527 0-64.642 52.885-117.527 117.526-117.527h3.135c64.642 0 117.527 52.885 117.527 117.527 0 64.641-52.885 117.527-117.527 117.527z" fill="#114a94"/><path d="m141.403 239.154h-3.123c-64.396 0-117.083-52.688-117.083-117.083s52.687-117.082 117.083-117.082h3.123c64.395 0 117.083 52.687 117.083 117.082s-52.688 117.083-117.083 117.083z" fill="#0f4b94"/><path d="m141.591 238.441h-3.113c-64.149 0-116.638-52.489-116.638-116.638 0-64.148 52.489-116.637 116.638-116.637h3.113c64.148 0 116.637 52.489 116.637 116.637 0 64.155-52.489 116.638-116.637 116.638z" fill="#0e4b95"/><path d="m141.778 237.734h-3.102c-63.907 0-116.193-52.286-116.193-116.193s52.286-116.193 116.193-116.193h3.102c63.908 0 116.194 52.286 116.194 116.193-.006 63.907-52.291 116.193-116.194 116.193z" fill="#0c4c95"/><path d="m141.96 237.027h-3.086c-63.661 0-115.748-52.088-115.748-115.749s52.087-115.748 115.748-115.748h3.086c63.661 0 115.749 52.087 115.749 115.748s-52.088 115.749-115.749 115.749z" fill="#0a4c95"/><path d="m142.148 236.314h-3.075c-63.415 0-115.304-51.883-115.304-115.303 0-63.415 51.884-115.304 115.304-115.304h3.075c63.415 0 115.303 51.884 115.303 115.304-.005 63.42-51.888 115.303-115.303 115.303z" fill="#094d96"/><path d="m142.33 235.607h-3.065c-63.168 0-114.853-51.686-114.853-114.854s51.685-114.853 114.853-114.853h3.065c63.168 0 114.854 51.685 114.854 114.853.005 63.168-51.68 114.854-114.854 114.854z" fill="#074e96"/><path d="m142.518 234.894h-3.054c-62.927 0-114.409-51.487-114.409-114.408 0-62.927 51.487-114.409 114.409-114.409h3.054c62.927 0 114.409 51.487 114.409 114.409 0 62.926-51.482 114.408-114.409 114.408z" fill="#054e97"/><path d="m142.7 234.187h-3.038c-62.681 0-113.964-51.283-113.964-113.964s51.283-113.964 113.964-113.964h3.038c62.68 0 113.964 51.283 113.964 113.964.005 62.681-51.278 113.964-113.964 113.964z" fill="#034f97"/><path d="m142.887 233.474h-3.027c-62.434 0-113.519-51.085-113.519-113.519s51.085-113.519 113.519-113.519h3.027c62.435 0 113.52 51.085 113.52 113.519 0 62.439-51.085 113.519-113.52 113.519z" fill="#014f97"/><path d="m143.075 232.767h-3.016c-62.194 0-113.075-50.882-113.075-113.075s50.881-113.074 113.075-113.074h3.016c62.193 0 113.075 50.881 113.075 113.074s-50.888 113.075-113.075 113.075z" fill="#005098"/><path d="m143.257 232.06h-3.006c-61.946 0-112.629-50.684-112.629-112.63 0-61.947 50.683-112.63 112.629-112.63h3.006c61.947 0 112.63 50.683 112.63 112.63 0 61.946-50.683 112.63-112.63 112.63z" fill="#005098"/><path d="m143.445 231.347h-2.995c-61.7 0-112.185-50.485-112.185-112.185s50.485-112.185 112.185-112.185h2.995c61.7 0 112.185 50.485 112.185 112.185-.005 61.705-50.485 112.185-112.185 112.185z" fill="#005199"/><path d="m143.627 230.64h-2.979c-61.454 0-111.74-50.282-111.74-111.741 0-61.453 50.281-111.74 111.74-111.74h2.979c61.454 0 111.74 50.281 111.74 111.74s-50.282 111.741-111.74 111.741z" fill="#005199"/><path d="m143.814 229.927h-2.968c-61.212 0-111.29-50.083-111.29-111.29 0-61.212 50.083-111.291 111.29-111.291h2.968c61.213 0 111.291 50.084 111.291 111.291 0 61.212-50.078 111.29-111.291 111.29z" fill="#005299"/><path d="m144.002 229.22h-2.958c-60.966 0-110.845-49.88-110.845-110.846s49.879-110.845 110.845-110.845h2.958c60.966 0 110.846 49.879 110.846 110.845s-49.88 110.846-110.846 110.846z" fill="#00529a"/><path d="m144.184 228.507h-2.947c-60.719 0-110.401-49.682-110.401-110.401s49.682-110.401 110.401-110.401h2.947c60.72 0 110.401 49.682 110.401 110.401 0 60.725-49.681 110.401-110.401 110.401z" fill="#00539a"/><path d="m144.371 227.8h-2.93c-60.479 0-109.956-49.478-109.956-109.956 0-60.479 49.477-109.956 109.956-109.956h2.93c60.479 0 109.957 49.477 109.957 109.956 0 60.473-49.483 109.956-109.957 109.956z" fill="#00539b"/><path d="m144.554 227.092h-2.92c-60.232 0-109.512-49.279-109.512-109.511 0-60.231 49.28-109.511 109.512-109.511h2.92c60.232 0 109.512 49.28 109.512 109.511 0 60.227-49.28 109.511-109.512 109.511z" fill="#00549b"/><path d="m144.741 226.379h-2.909c-59.986 0-109.067-49.081-109.067-109.066s49.081-109.066 109.067-109.066h2.909c59.986 0 109.067 49.081 109.067 109.066s-49.081 109.066-109.067 109.066z" fill="#00549b"/><path d="m144.924 225.672h-2.899c-59.739 0-108.622-48.877-108.622-108.621 0-59.739 48.878-108.622 108.622-108.622h2.899c59.738 0 108.621 48.878 108.621 108.622 0 59.739-48.877 108.621-108.621 108.621z" fill="#00559c"/><path d="m145.111 224.96h-2.888c-59.497 0-108.177-48.679-108.177-108.177s48.68-108.177 108.177-108.177h2.888c59.498 0 108.177 48.679 108.177 108.177s-48.679 108.177-108.177 108.177z" fill="#00559c"/><path d="m145.299 224.252h-2.872c-59.251 0-107.727-48.475-107.727-107.726s48.476-107.727 107.727-107.727h2.872c59.251 0 107.727 48.476 107.727 107.727 0 59.245-48.476 107.726-107.727 107.726z" fill="#00569d"/><path d="m145.481 223.54h-2.861c-59.005 0-107.282-48.277-107.282-107.283 0-59.004 48.277-107.281 107.282-107.281h2.861c59.004 0 107.282 48.277 107.282 107.281.006 59.006-48.278 107.283-107.282 107.283z" fill="#00569d"/><path d="m145.669 222.832h-2.851c-58.764 0-106.837-48.079-106.837-106.837 0-58.763 48.079-106.838 106.837-106.838h2.851c58.763 0 106.837 48.08 106.837 106.838s-48.079 106.837-106.837 106.837z" fill="#00579e"/><path d="m145.851 222.125h-2.84c-58.517 0-106.393-47.875-106.393-106.393 0-58.517 47.876-106.392 106.393-106.392h2.84c58.517 0 106.393 47.875 106.393 106.392 0 58.512-47.876 106.393-106.393 106.393z" fill="#00579e"/><path d="m146.039 221.413h-2.83c-58.271 0-105.948-47.678-105.948-105.948 0-58.271 47.677-105.949 105.948-105.949h2.83c58.27 0 105.947 47.678 105.947 105.949 0 58.27-47.677 105.948-105.947 105.948z" fill="#00589e"/><path d="m146.226 220.705h-2.814c-58.023 0-105.502-47.473-105.502-105.503 0-58.024 47.473-105.503 105.502-105.503h2.814c58.024 0 105.503 47.474 105.503 105.503-.006 58.024-47.479 105.503-105.503 105.503z" fill="#00589f"/><path d="m146.408 219.993h-2.802c-57.783 0-105.059-47.276-105.059-105.059s47.276-105.059 105.059-105.059h2.802c57.783 0 105.059 47.276 105.059 105.059s-47.276 105.059-105.059 105.059z" fill="#00599f"/><path d="m146.596 219.285h-2.792c-57.537 0-104.614-47.077-104.614-104.613 0-57.537 47.077-104.614 104.614-104.614h2.792c57.536 0 104.613 47.077 104.613 104.614-.005 57.536-47.077 104.613-104.613 104.613z" fill="#0059a0"/><path d="m146.778 218.573h-2.781c-57.29 0-104.164-46.874-104.164-104.164s46.874-104.164 104.164-104.164h2.781c57.29 0 104.163 46.874 104.163 104.164.006 57.29-46.868 104.164-104.163 104.164z" fill="#005aa0"/><path d="m146.966 217.866h-2.766c-57.049 0-103.719-46.676-103.719-103.719 0-57.049 46.676-103.719 103.719-103.719h2.766c57.048 0 103.718 46.675 103.718 103.719 0 57.043-46.675 103.719-103.718 103.719z" fill="#005aa1"/><path d="m147.147 217.158h-2.754c-56.802 0-103.274-46.472-103.274-103.274 0-56.803 46.472-103.274 103.274-103.274h2.754c56.803 0 103.275 46.471 103.275 103.274.005 56.797-46.472 103.274-103.275 103.274z" fill="#005ba1"/><path d="m147.335 216.446h-2.744c-56.556 0-102.829-46.274-102.829-102.83s46.273-102.829 102.829-102.829h2.744c56.556 0 102.829 46.273 102.829 102.829s-46.273 102.83-102.829 102.83z" fill="#005ba1"/><path d="m147.523 215.739h-2.733c-56.31 0-102.385-46.076-102.385-102.386 0-56.309 46.075-102.385 102.385-102.385h2.733c56.309 0 102.385 46.076 102.385 102.385 0 56.31-46.076 102.386-102.385 102.386z" fill="#005ba2"/><path d="m147.705 215.026h-2.723c-56.067 0-101.94-45.872-101.94-101.94 0-56.069 45.873-101.941 101.94-101.941h2.723c56.068 0 101.94 45.872 101.94 101.941 0 56.068-45.872 101.94-101.94 101.94z" fill="#005ca2"/><path d="m147.892 214.319h-2.705c-55.823 0-101.496-45.674-101.496-101.496s45.673-101.496 101.496-101.496h2.705c55.822 0 101.495 45.674 101.495 101.496s-45.673 101.496-101.495 101.496z" fill="#005ca3"/><path d="m148.074 213.606h-2.695c-55.575 0-101.05-45.47-101.05-101.051 0-55.575 45.47-101.051 101.05-101.051h2.695c55.576 0 101.051 45.47 101.051 101.051s-45.47 101.051-101.051 101.051z" fill="#005da3"/><path d="m148.262 212.899h-2.684c-55.335 0-100.606-45.272-100.606-100.606s45.271-100.606 100.606-100.606h2.684c55.334 0 100.606 45.272 100.606 100.606-.006 55.334-45.277 100.606-100.606 100.606z" fill="#005da4"/><path d="m148.45 212.186h-2.674c-55.088 0-100.156-45.073-100.156-100.156 0-55.088 45.073-100.156 100.156-100.156h2.674c55.087 0 100.155 45.074 100.155 100.156 0 55.088-45.073 100.156-100.155 100.156z" fill="#005ea4"/><path d="m148.632 211.479h-2.658c-54.842 0-99.711-44.87-99.711-99.711 0-54.842 44.869-99.711 99.711-99.711h2.658c54.841 0 99.711 44.869 99.711 99.711 0 54.841-44.87 99.711-99.711 99.711z" fill="#005ea4"/><path d="m148.819 210.772h-2.647c-54.6 0-99.271-44.672-99.271-99.273 0-54.594 44.671-99.266 99.266-99.266h2.647c54.595 0 99.266 44.672 99.266 99.266.006 54.601-44.666 99.273-99.261 99.273z" fill="#005fa5"/><path d="m149.001 210.059h-2.636c-54.353 0-98.822-44.468-98.822-98.822s44.469-98.821 98.822-98.821h2.636c54.354 0 98.822 44.467 98.822 98.821s-44.468 98.822-98.822 98.822z" fill="#005fa5"/><path d="m149.189 209.352h-2.626c-54.107 0-98.377-44.27-98.377-98.378 0-54.107 44.27-98.376 98.377-98.376h2.626c54.107 0 98.376 44.269 98.376 98.376 0 54.108-44.269 98.378-98.376 98.378z" fill="#0060a6"/><path d="m149.371 208.639h-2.615c-53.86 0-97.932-44.072-97.932-97.932 0-53.861 44.072-97.932 97.932-97.932h2.615c53.861 0 97.932 44.071 97.932 97.932 0 53.866-44.066 97.932-97.932 97.932z" fill="#0060a6"/><path d="m149.559 207.931h-2.599c-53.62 0-97.488-43.867-97.488-97.487s43.868-97.487 97.488-97.487h2.599c53.619 0 97.487 43.867 97.487 97.487s-43.868 97.487-97.487 97.487z" fill="#0061a7"/><path d="m149.746 207.218h-2.588c-53.373 0-97.043-43.669-97.043-97.042s43.67-97.042 97.043-97.042h2.588c53.373 0 97.043 43.669 97.043 97.042-.006 53.379-43.675 97.042-97.043 97.042z" fill="#0061a7"/><path d="m149.928 206.511h-2.577c-53.127 0-96.593-43.465-96.593-96.592s43.466-96.593 96.593-96.593h2.577c53.127 0 96.593 43.466 96.593 96.593.005 53.127-43.466 96.592-96.593 96.592z" fill="#0062a7"/><path d="m150.116 205.804h-2.567c-52.88 0-96.148-43.267-96.148-96.148 0-52.88 43.268-96.147 96.148-96.147h2.567c52.88 0 96.148 43.267 96.148 96.147 0 52.881-43.268 96.148-96.148 96.148z" fill="#0062a8"/><path d="m150.298 205.091h-2.556c-52.639 0-95.703-43.069-95.703-95.702 0-52.639 43.069-95.704 95.703-95.704h2.556c52.639 0 95.703 43.069 95.703 95.704.005 52.639-43.064 95.702-95.703 95.702z" fill="#0062a8"/><path d="m150.485 204.384h-2.539c-52.393 0-95.258-42.866-95.258-95.258 0-52.393 42.865-95.258 95.258-95.258h2.539c52.394 0 95.259 42.865 95.259 95.258 0 52.392-42.865 95.258-95.259 95.258z" fill="#0063a9"/><path d="m150.673 203.671h-2.529c-52.146 0-94.813-42.667-94.813-94.813s42.667-94.814 94.813-94.814h2.529c52.146 0 94.814 42.668 94.814 94.814-.006 52.151-42.668 94.813-94.814 94.813z" fill="#0063a9"/><path d="m150.855 202.964h-2.518c-51.905 0-94.369-42.463-94.369-94.369 0-51.905 42.464-94.368 94.369-94.368h2.518c51.905 0 94.369 42.463 94.369 94.368 0 51.906-42.464 94.369-94.369 94.369z" fill="#0064aa"/><path d="m151.043 202.252h-2.508c-51.658 0-93.924-42.266-93.924-93.924 0-51.653 42.266-93.919 93.924-93.919h2.508c51.659 0 93.924 42.266 93.924 93.924-.005 51.658-42.271 93.919-93.924 93.919z" fill="#0064aa"/><path d="m151.225 201.544h-2.491c-51.413 0-93.48-42.067-93.48-93.479s42.067-93.479 93.48-93.479h2.491c51.412 0 93.48 42.067 93.48 93.479 0 51.417-42.068 93.479-93.48 93.479z" fill="#0065ab"/><path d="m151.412 200.837h-2.48c-51.166 0-93.03-41.863-93.03-93.029s41.864-93.03 93.03-93.03h2.48c51.166 0 93.03 41.864 93.03 93.03s-41.864 93.029-93.03 93.029z" fill="#0065ab"/><path d="m151.595 200.124h-2.47c-50.925 0-92.585-41.665-92.585-92.584 0-50.925 41.665-92.585 92.585-92.585h2.47c50.924 0 92.585 41.666 92.585 92.585.005 50.919-41.661 92.584-92.585 92.584z" fill="#0066ab"/><path d="m151.782 199.417h-2.459c-50.678 0-92.14-41.462-92.14-92.14s41.462-92.14 92.14-92.14h2.459c50.678 0 92.14 41.462 92.14 92.14 0 50.673-41.462 92.14-92.14 92.14z" fill="#0066ac"/><path d="m151.97 198.705h-2.449c-50.432 0-91.695-41.264-91.695-91.695 0-50.432 41.263-91.696 91.695-91.696h2.449c50.431 0 91.695 41.264 91.695 91.696 0 50.431-41.264 91.695-91.695 91.695z" fill="#0067ac"/><path d="m152.152 197.997h-2.433c-50.185 0-91.25-41.06-91.25-91.25 0-50.185 41.06-91.251 91.25-91.251h2.433c50.185 0 91.251 41.06 91.251 91.251 0 50.185-41.06 91.25-91.251 91.25z" fill="#0067ad"/><path d="m152.339 197.285h-2.422c-49.943 0-90.805-40.862-90.805-90.806s40.862-90.806 90.805-90.806h2.422c49.944 0 90.806 40.862 90.806 90.806s-40.862 90.806-90.806 90.806z" fill="#0068ad"/><path d="m152.522 196.577h-2.412c-49.697 0-90.361-40.663-90.361-90.361 0-49.697 40.664-90.361 90.361-90.361h2.412c49.697 0 90.361 40.664 90.361 90.361 0 49.698-40.664 90.361-90.361 90.361z" fill="#0068ae"/><path d="m152.709 195.87h-2.401c-49.45 0-89.916-40.46-89.916-89.916 0-49.451 40.461-89.916 89.916-89.916h2.401c49.451 0 89.916 40.46 89.916 89.916 0 49.451-40.465 89.916-89.916 89.916z" fill="#0069ae"/><path d="m152.892 195.158h-2.385c-49.21 0-89.466-40.263-89.466-89.466 0-49.211 40.261-89.467 89.466-89.467h2.385c49.209 0 89.466 40.262 89.466 89.467.005 49.203-40.257 89.466-89.466 89.466z" fill="#0069af"/><path d="m153.079 194.45h-2.374c-48.963 0-89.021-40.058-89.021-89.021s40.058-89.022 89.021-89.022h2.374c48.963 0 89.021 40.059 89.021 89.022 0 48.958-40.058 89.021-89.021 89.021z" fill="#0069af"/><path d="m153.266 193.738h-2.362c-48.718 0-88.577-39.86-88.577-88.577s39.859-88.577 88.577-88.577h2.362c48.718 0 88.577 39.86 88.577 88.577s-39.859 88.577-88.577 88.577z" fill="#006ab0"/><path d="m153.449 193.03h-2.353c-48.47 0-88.131-39.662-88.131-88.132s39.661-88.132 88.131-88.132h2.353c48.47 0 88.132 39.662 88.132 88.132s-39.657 88.132-88.132 88.132z" fill="#006ab0"/><path d="m153.636 192.318h-2.341c-48.229 0-87.687-39.458-87.687-87.687 0-48.23 39.458-87.688 87.687-87.688h2.341c48.229 0 87.687 39.458 87.687 87.688 0 48.229-39.458 87.687-87.687 87.687z" fill="#006bb1"/><path d="m153.819 191.611h-2.326c-47.983 0-87.243-39.26-87.243-87.243s39.26-87.243 87.243-87.243h2.326c47.982 0 87.242 39.26 87.242 87.243s-39.26 87.243-87.242 87.243z" fill="#006bb1"/><path d="m154.006 190.903h-2.315c-47.736 0-86.798-39.056-86.798-86.798 0-47.736 39.057-86.798 86.798-86.798h2.315c47.737 0 86.798 39.056 86.798 86.798 0 47.736-39.061 86.798-86.798 86.798z" fill="#006cb2"/><path d="m154.193 190.191h-2.304c-47.495 0-86.353-38.858-86.353-86.354 0-47.495 38.858-86.353 86.353-86.353h2.304c47.496 0 86.354 38.858 86.354 86.353-.006 47.496-38.864 86.354-86.354 86.354z" fill="#006cb2"/><path d="m154.376 189.483h-2.293c-47.249 0-85.909-38.659-85.909-85.908s38.66-85.909 85.909-85.909h2.293c47.248 0 85.908 38.66 85.908 85.909s-38.66 85.908-85.908 85.908z" fill="#006db3"/><path d="m154.563 188.77h-2.282c-47.003 0-85.459-38.456-85.459-85.457 0-47.003 38.456-85.459 85.459-85.459h2.282c47.002 0 85.459 38.456 85.459 85.459 0 47.001-38.457 85.457-85.459 85.457z" fill="#006db3"/><path d="m154.746 188.063h-2.267c-46.756 0-85.014-38.257-85.014-85.013s38.258-85.014 85.014-85.014h2.267c46.755 0 85.013 38.258 85.013 85.014.005 46.756-38.253 85.013-85.013 85.013z" fill="#006eb4"/><path d="m154.933 187.35h-2.256c-46.515 0-84.569-38.054-84.569-84.568 0-46.515 38.054-84.569 84.569-84.569h2.256c46.515 0 84.568 38.054 84.568 84.569 0 46.514-38.053 84.568-84.568 84.568z" fill="#006eb4"/><path d="m155.115 186.643h-2.245c-46.268 0-84.124-37.856-84.124-84.124s37.856-84.123 84.124-84.123h2.245c46.269 0 84.124 37.855 84.124 84.123.005 46.268-37.855 84.124-84.124 84.124z" fill="#006fb4"/><path d="m155.303 185.936h-2.235c-46.021 0-83.679-37.657-83.679-83.68 0-46.021 37.658-83.679 83.679-83.679h2.235c46.021 0 83.679 37.658 83.679 83.679 0 46.023-37.658 83.68-83.679 83.68z" fill="#006fb5"/><path d="m155.49 185.223h-2.218c-45.781 0-83.235-37.454-83.235-83.234 0-45.781 37.454-83.235 83.235-83.235h2.218c45.781 0 83.235 37.454 83.235 83.235-.006 45.78-37.46 83.234-83.235 83.234z" fill="#006fb5"/><path d="m155.673 184.516h-2.208c-45.534 0-82.79-37.256-82.79-82.79s37.256-82.79 82.79-82.79h2.208c45.534 0 82.789 37.256 82.789 82.79s-37.255 82.79-82.789 82.79z" fill="#0070b6"/><path d="m155.86 183.803h-2.197c-45.288 0-82.345-37.051-82.345-82.345 0-45.287 37.052-82.345 82.345-82.345h2.197c45.287 0 82.345 37.052 82.345 82.345-.005 45.294-37.058 82.345-82.345 82.345z" fill="#0070b6"/><path d="m156.042 183.096h-2.186c-45.041 0-81.895-36.854-81.895-81.895s36.854-81.895 81.895-81.895h2.186c45.041 0 81.895 36.854 81.895 81.895.005 45.041-36.848 81.895-81.895 81.895z" fill="#0071b7"/><path d="m156.23 182.383h-2.176c-44.8 0-81.45-36.655-81.45-81.449 0-44.801 36.655-81.451 81.45-81.451h2.176c44.8 0 81.45 36.656 81.45 81.451 0 44.799-36.65 81.449-81.45 81.449z" fill="#0071b7"/><path d="m156.417 181.676h-2.16c-44.553 0-81.005-36.451-81.005-81.005s36.452-81.006 81.005-81.006h2.16c44.554 0 81.006 36.452 81.006 81.006s-36.452 81.005-81.006 81.005z" fill="#0072b8"/><path d="m156.599 180.969h-2.148c-44.308 0-80.561-36.254-80.561-80.561s36.253-80.561 80.561-80.561h2.148c44.307 0 80.561 36.254 80.561 80.561s-36.254 80.561-80.561 80.561z" fill="#0072b9"/><path d="m156.787 180.256h-2.138c-44.066 0-80.116-36.05-80.116-80.116 0-44.065 36.05-80.116 80.116-80.116h2.138c44.066 0 80.116 36.051 80.116 80.116 0 44.066-36.055 80.116-80.116 80.116z" fill="#0073b9"/><path d="m156.969 179.549h-2.127c-43.82 0-79.672-35.852-79.672-79.672 0-43.819 35.852-79.67 79.672-79.67h2.127c43.819 0 79.672 35.851 79.672 79.67 0 43.82-35.853 79.672-79.672 79.672z" fill="#0073ba"/><path d="m157.157 178.836h-2.112c-43.573 0-79.226-35.653-79.226-79.226s35.653-79.227 79.226-79.227h2.112c43.573 0 79.226 35.654 79.226 79.227 0 43.578-35.653 79.226-79.226 79.226z" fill="#0074ba"/><path d="m157.339 178.129h-2.101c-43.326 0-78.782-35.45-78.782-78.782 0-43.326 35.451-78.782 78.782-78.782h2.101c43.326 0 78.781 35.45 78.781 78.782s-35.449 78.782-78.781 78.782z" fill="#0074bb"/><path d="m157.526 177.416h-2.09c-43.085 0-78.331-35.251-78.331-78.331 0-43.086 35.251-78.332 78.331-78.332h2.09c43.085 0 78.332 35.252 78.332 78.332 0 43.085-35.247 78.331-78.332 78.331z" fill="#0075bb"/><path d="m157.714 176.709h-2.079c-42.839 0-77.887-35.048-77.887-77.887s35.048-77.887 77.887-77.887h2.079c42.839 0 77.887 35.048 77.887 77.887s-35.048 77.887-77.887 77.887z" fill="#0075bc"/><path d="m157.896 176.002h-2.068c-42.593 0-77.443-34.85-77.443-77.443 0-42.592 34.85-77.442 77.443-77.442h2.068c42.593 0 77.442 34.85 77.442 77.442 0 42.593-34.849 77.443-77.442 77.443z" fill="#0076bc"/><path d="m158.084 175.289h-2.053c-42.351 0-76.997-34.651-76.997-76.997 0-42.352 34.651-76.998 76.997-76.998h2.053c42.351 0 76.997 34.651 76.997 76.998 0 42.351-34.652 76.997-76.997 76.997z" fill="#0076bd"/><path d="m158.266 174.582h-2.042c-42.104 0-76.552-34.448-76.552-76.553s34.448-76.553 76.552-76.553h2.042c42.104 0 76.553 34.448 76.553 76.553s-34.449 76.553-76.553 76.553z" fill="#0077be"/><path d="m158.453 173.869h-2.031c-41.858 0-76.107-34.25-76.107-76.108 0-41.859 34.249-76.108 76.107-76.108h2.031c41.859 0 76.108 34.249 76.108 76.108 0 41.864-34.249 76.108-76.108 76.108z" fill="#0077be"/><path d="m158.641 173.162h-2.02c-41.612 0-75.664-34.046-75.664-75.664 0-41.611 34.047-75.663 75.664-75.663h2.02c41.611 0 75.663 34.046 75.663 75.663-.005 41.613-34.052 75.664-75.663 75.664z" fill="#0078bf"/><path d="m158.823 172.45h-2.01c-41.37 0-75.218-33.848-75.218-75.219s33.848-75.219 75.218-75.219h2.01c41.371 0 75.219 33.848 75.219 75.219s-33.848 75.219-75.219 75.219z" fill="#0078bf"/><path d="m159.011 171.742h-1.994c-41.124 0-74.768-33.65-74.768-74.768 0-41.125 33.65-74.769 74.768-74.769h1.994c41.124 0 74.768 33.65 74.768 74.769 0 41.118-33.644 74.768-74.768 74.768z" fill="#0079c0"/><path d="m159.193 171.034h-1.983c-40.878 0-74.324-33.445-74.324-74.323s33.446-74.324 74.324-74.324h1.983c40.878 0 74.324 33.446 74.324 74.324.005 40.873-33.441 74.323-74.324 74.323z" fill="#0079c1"/><path d="m159.38 170.322h-1.971c-40.637 0-73.88-33.247-73.88-73.879 0-40.637 33.248-73.879 73.88-73.879h1.971c40.637 0 73.879 33.248 73.879 73.879 0 40.632-33.248 73.879-73.879 73.879z" fill="#007ac1"/><path d="m159.562 169.615h-1.961c-40.39 0-73.434-33.044-73.434-73.435 0-40.389 33.044-73.434 73.434-73.434h1.961c40.391 0 73.435 33.045 73.435 73.434.005 40.385-33.044 73.435-73.435 73.435z" fill="#007ac2"/><path d="m159.75 168.902h-1.945c-40.144 0-72.99-32.846-72.99-72.989 0-40.144 32.846-72.99 72.99-72.99h1.945c40.144 0 72.989 32.846 72.989 72.99 0 40.143-32.845 72.989-72.989 72.989z" fill="#007bc2"/><path d="m159.938 168.195h-1.935c-39.897 0-72.545-32.642-72.545-72.545 0-39.897 32.648-72.545 72.545-72.545h1.935c39.897 0 72.545 32.643 72.545 72.545-.006 39.897-32.648 72.545-72.545 72.545z" fill="#007bc3"/><path d="m160.119 167.482h-1.923c-39.656 0-72.1-32.444-72.1-72.1s32.444-72.1 72.1-72.1h1.923c39.657 0 72.101 32.444 72.101 72.1s-32.444 72.1-72.101 72.1z" fill="#007cc4"/><path d="m160.307 166.775h-1.913c-39.409 0-71.655-32.246-71.655-71.656 0-39.409 32.246-71.655 71.655-71.655h1.913c39.41 0 71.655 32.246 71.655 71.655-.004 39.41-32.245 71.656-71.655 71.656z" fill="#007cc4"/><path d="m145.031 234.83c-67.985 0-123.609-54.89-123.609-121.98 0-16.659 3.435-32.562 9.634-47.062-10.496 17.913-16.546 38.639-16.546 60.709 0 67.091 55.624 121.98 123.609 121.98 51.107 0 95.215-31.019 113.974-74.919-21.416 36.533-61.437 61.272-107.062 61.272z" fill="url(#b)"/><path d="m128.078 216.81c-11.719.959-23.759-1.131-34.802-5.567-11.092-4.405-21.187-11.183-29.685-19.51-4.206-4.206-8.048-8.776-11.386-13.679-3.284-4.935-6.189-10.132-8.391-15.614-4.495-10.898-6.612-22.783-5.637-34.351.965 11.547 4.024 22.686 8.943 32.915 2.502 5.09 5.342 10.015 8.691 14.591 3.295 4.608 6.982 8.943 11.049 12.902 8.048 8 17.51 14.607 27.857 19.483 10.369 4.865 21.658 7.881 33.361 8.83z" fill="#fff" fill-opacity=".149"/><path d="m239.18 133.575c-3.118 27.467-17.741 51.247-38.413 67.123 0 0 1.886 1.147 3.183 4.03 1.131 2.518.428 5.347.428 5.347 24.129-17.441 40.953-44.42 44.409-75.814zm4.919-3.616c-2.32-.07-4.367 1.5-4.919 3.606l9.613.696c-.241-2.347-2.224-4.227-4.694-4.302z" fill="#fff" fill-opacity=".047"/><path d="m137.969 250.17c67.979 0 123.598-54.884 123.598-121.969 0-.573-.037-1.136-.043-1.704-.938 66.303-56.155 120.265-123.55 120.265-67.401 0-122.617-53.962-123.55-120.265-.005.568-.043 1.136-.043 1.704-.01 67.085 55.608 121.969 123.588 121.969z" fill="#08255e"/><path d="m139.442 108.027c51.455 0 93.174 54.772 93.174 5.707s-41.714-95.36-93.174-95.36-93.174 46.295-93.174 95.36 41.719-5.707 93.174-5.707z" fill="#fff" fill-opacity=".149"/><path d="m20.152 130.918c0-67.091 55.624-121.98 123.609-121.98 31.185 0 59.75 11.574 81.557 30.552-22.429-22.284-53.448-36.135-87.591-36.135-67.984 0-123.608 54.889-123.608 121.979 0 36.318 16.321 69.036 42.051 91.433-22.231-22.087-36.018-52.452-36.018-85.849z" fill="url(#c)"/></g></svg>