<svg clip-rule="evenodd" fill-rule="evenodd" stroke-linejoin="round" stroke-miterlimit="1.41421" viewBox="0 0 49 40" xmlns="http://www.w3.org/2000/svg"><path d="m2.754 39.852c-1.836-6.156-2.754-12.042-2.754-17.658 0-6.912 1.728-12.339 5.184-16.281 3.456-3.942 8.532-5.913 15.228-5.913v8.91c-2.808 0-4.887.837-6.237 2.511s-2.025 4.239-2.025 7.695v2.916h9.396v17.82h-18.792zm27.378 0c-1.836-6.156-2.754-12.042-2.754-17.658 0-6.912 1.728-12.339 5.184-16.281 3.456-3.942 8.532-5.913 15.228-5.913v8.91c-2.808 0-4.887.837-6.237 2.511s-2.025 4.239-2.025 7.695v2.916h9.396v17.82z" fill="#3f4851" fill-rule="nonzero"/></svg>