<svg clip-rule="evenodd" fill-rule="evenodd" stroke-linejoin="round" stroke-miterlimit="1.414" viewBox="0 0 20 20" xmlns="http://www.w3.org/2000/svg"><g fill-rule="nonzero"><path d="m2 0h4c.473 0 .885.336.98.8l1 5c.065.326-.036.664-.27.9l-2.52 2.52a12.052 12.052 0 0 0 5.59 5.59l2.51-2.52c.236-.234.574-.335.9-.27l5 1c.47.1.81.5.81.98v4c0 1.097-.903 2-2 2h-2c-8.777 0-16-7.223-16-16v-2c0-1.1.9-2 2-2z" fill="#fff"/><path d="m12.7 8.7a1 1 0 0 1 -1.4-1.4l4.28-4.3h-2.58c-.549 0-1-.451-1-1s.451-1 1-1h5c.549 0 1 .451 1 1v5c0 .549-.451 1-1 1s-1-.451-1-1v-2.59l-4.3 4.3z" fill="#bae3ff"/></g></svg>