<svg enable-background="new 0 0 1087 800.5" viewBox="0 0 1087 800.5" xmlns="http://www.w3.org/2000/svg" xmlns:xlink="http://www.w3.org/1999/xlink"><linearGradient id="a" gradientTransform="matrix(412.2631 0 0 -412.2631 -200411.2656 1170389)" gradientUnits="userSpaceOnUse" x1="493.5072" x2="494.5072" y1="2838.9067" y2="2838.9067"><stop offset="0" stop-color="#808080" stop-opacity=".2471"/><stop offset=".54" stop-color="#808080" stop-opacity=".1176"/><stop offset="1" stop-color="#808080" stop-opacity=".098039"/></linearGradient><path d="m117.5 105.5h910v490h-910z" fill="#0967d2" fill-opacity=".1"/><path d="m205.5 189.5h294v361h-294z" fill="#0c69a3" opacity=".1"/><g fill="#3f3d56"><path d="m612.5 215.5h235v13h-235z"/><path d="m612.5 239.5h342v13h-342z"/><path d="m612.5 297.5h235v13h-235z"/><path d="m612.5 393.5h235v13h-235z"/><path d="m612.5 321.5h342v13h-342z"/><path d="m612.5 345.5h342v13h-342z"/><path d="m612.5 369.5h342v13h-342z"/></g><path d="m612.5 451.5h123v34h-123z" fill="#0c69a3"/><path d="m224.5 170h294v361h-294z" fill="#3f3d56"/><path d="m476.5 369.6c0 70.1-41.7 94.6-93.1 94.6s-93.1-24.5-93.1-94.6 93.1-159.3 93.1-159.3 93.1 89.2 93.1 159.3z" fill="#3ebd93" fill-opacity=".25"/><path d="m380 453.5 1-58.7 39.6-72.6-39.5 63.4.4-26.4 27.4-52.5-27.2 45.5.7-47.4 29.3-41.8-29.1 34.3.4-87-3 115.2.3-4.8-29.8-45.5 29.3 54.7-2.8 53-.1-1.5-34.3-47.9 34.2 52.9-.3 6.6-.1.1v.6l-7 134.4h9.4l1.1-69.4 34.2-52.8z" fill="#3f3d56"/><ellipse cx="131.5" cy="783.5" fill="#3f3d56" opacity=".5" rx="131" ry="17"/><path d="m69.6 312.9-4.4 10.3 4.9 66.9s-2.7 3.8 0 6.5 2.2 3.8 2.2 3.8-4.4 0-2.2 3.3 2.2 4.9 2.2 4.9l-1.1 3.3s2.2 2.7 2.2 4.9 14.1 69.1 14.1 69.1l13.6-26.7-7.6-106.1z" fill="#0c69a3"/><path d="m212.7 480.2s23.9 17.6 24.8 31.7-30.8-21-31.1-24.9 6.3-6.8 6.3-6.8z" fill="#ffb9b9"/><path d="m62.6 746.9-6 19.6s-8.7 19 3.3 21.8 23.4-7.6 23.4-7.6v-13.1l4.4-20.7z" fill="#2f2e41"/><path d="m160.5 746.9s-2.7 37 3.3 39.2 27.2 2.7 27.7 0 7.1-5.4 2.2-9.2-8.2-26.1-8.2-26.1z" fill="#2f2e41"/><path d="m105.5 396.6v16.4s-17.9 37.5-24.5 96.8-28.8 239.9-23.3 243.1 64.2 5.4 65.8 1.1 3.3-131.6 3.3-131.6l20.1-89.8s3.8 32.1 7.1 37.5-5.4 182.2 0 184.9 78.9 7.6 77.8-1.1-25.6-244.8-25.6-244.8-12.5-111.5-16.3-112.6-38.6-2.2-44.1-1.1-40.3 1.2-40.3 1.2z" fill="#33313f"/><circle cx="146.9" cy="230.7" fill="#ffb9b9" r="31"/><path d="m153.4 256.9s-15.8 24.5-12 31-40.3-6.5-40.3-6.5 26.7-32.6 26.1-36.4 26.2 11.9 26.2 11.9z" fill="#ffb9b9"/><path d="m186 293.3s-28.8-9.2-32.6-13.1c-2.4-2.5-4.6-5.2-6.5-8.2 0 0-34.8-4.9-35.9-4.9s-9.2 9.8-11.4 12-30 16.9-30 20.7-4.4 23.4-4.4 23.4 9.8 20.1 15.8 24.5 7.6 3.3 8.2 10.3 8.2 18.5 8.2 18.5 4.9 12.5 3.8 16.3-6 7.1 5.4 6 68 2.2 68-3.8-10.9-63.1-10.9-63.1z" fill="#0c69a3"/><path d="m175.7 294.4 10.3-1.1s3.8 2.2 4.4 23.4.5 72.3 4.4 76.7 19.6 71.8 19.6 71.8 4.4 1.1 4.4 4.9 4.9 7.1 2.7 11.4 2.2 3.3-.5 6-15.8 8.2-16.3 4.9 1.6-3.8-.5-4.9-2.2-1.6-2.7-5.4-5.4-7.6-4.9-9.2-23.9-49-23.9-50.6-1.6-7.6-3.8-8.7-5.4-2.2-3.8-4.9-4.4-84.3-4.4-84.3z" fill="#0c69a3"/><path d="m173.1 211.1c-9.5-10.3-24.4-15.8-38.1-12.7s-25.2 15.2-26.3 29.2c-.2 2.9 0 5.8-.8 8.6-1.2 4.7-5 8.4-6.3 13-.3 1.2-.5 2.4-.6 3.7-.1.8.1 1.7.5 2.4.2.3.8.8 1 1.2 1.7 1.6 2.8 3.6 4.2 5.6 1.6 2.3 3.3 2.8 6 3.5 6.4 1.8 13.2 2.9 19.8 3.4 5.4.5 10.2-.7 14.5-4.2.1-.1.2-.2.4-.3 1.5-1.1 2.1-3.1 1.5-4.8-.7-2-1.3-3.9-1.9-5.9-1.3-5-1.7-10.7 1.2-15 3.9-5.6 12-6.3 17.4-10.7 2-1.6 2.9-3.6 4.4-5.6 1.3-1.9 1.7-1.2 3.7-1.3 5.6-.3 1.5-7.8-.6-10.1z" fill="#9aa5b1"/><ellipse cx="146" cy="241.5" fill="#ffb9b9" rx="2.5" ry="6"/><circle cx="674" cy="694" fill="#0967d2" fill-opacity=".1" r="32"/><circle cx="32" cy="64" fill="#0967d2" fill-opacity=".1" r="32"/><circle cx="1055" cy="32" fill="#0967d2" fill-opacity=".1" r="32"/><g fill="#fff" stroke="#33313f" stroke-miterlimit="10"><g stroke-width="3"><path d="m3031.4-752s54.3 86.2 72.8 94.3"/><path d="m3104.1-752s-52 68.1-59.8 91.1"/><path d="m3342.1-574.1h-285.6c-21.6 0-21.6 39.9-21.6 39.9h307.2z"/><path d="m3186.4-455.6h148.8c21.6 0 21.6 39.9 21.6 39.9h.6"/><path d="m3342.1-515.7c21.7 0-260.3 12.8-285.6 0-13.3-6.7-21.6 39.9-21.6 39.9h307.2z"/><path d="m2981.2-818.6s418.2 30.9 445.1 10.4"/></g><path d="m3373.7-837.7c5.7-1.2 11.6.5 17.4 1.4s12.4.8 16.6-3.3" stroke-width="2"/><path d="m3370.8-827.1c12.1 2.1 24.4 2.8 36.6 2" stroke-width="2"/><path d="m3370.8-812c10.4-1.8 20.8-2.9 31.3-3.5" stroke-width="2"/><path d="m3004.8-832.1c5.1 2.3 10.6 3.5 16.2 3.3 3.5.5 7.1-.3 10.1-2.2 3.5-2.9 3.8-8.1 3.8-12.6.1-1.4-.1-2.8-.6-4.1-.7-1.2-1.7-2.3-2.9-3-6.7-4.6-19-6.5-26.8-3.4-10.7 4.3-9 17 .2 22z" stroke-width="2"/><path d="m3124-768.8c-1.6 19.9 3.2 39.7 6.4 59.5 4 24.9 5.7 50.2 4.8 75.4-42.5 2.6-85.1 3.2-127.7 1.9 4 .1 3-90.1 3.3-98.4.5-10.6-1.8-28.9 10.5-32.9 12.9-4.2 31.1-1.6 44.7-2.3 19.4-.9 38.7-1.9 58-3.2z" stroke-width="3"/></g><circle clip-rule="evenodd" cx="3016.9" cy="-1182.7" fill="#0967d2" fill-opacity=".1" fill-rule="evenodd" r="58.3"/><circle clip-rule="evenodd" cx="3639.7" cy="-319.3" fill="#0967d2" fill-opacity=".1" fill-rule="evenodd" r="58.3"/><ellipse clip-rule="evenodd" cx="3848.3" cy="-579.1" fill="#0967d2" fill-opacity=".1" fill-rule="evenodd" rx="97.7" ry="97.7"/><circle clip-rule="evenodd" cx="3718.9" cy="-105.1" fill="#0967d2" fill-opacity=".1" fill-rule="evenodd" r="97.7"/><path d="m3452.5-279.3c-.1-3.3-.5-6.5-1.2-9.7-2.5-9.1-7.9-20.1-16.9-22.8-9.3-2.9-18.2-6.6-26.8-11.3-.9-.7-7.5-2.8-15-5.9-4.1-1.7-7.4-9.1-10.9-13.4-1.5-1.8.1-12.9-1.3-14.6-1.6-1.9-7.8 2.4-10.8.2-5.1-3.5-6.7-12.3-6.7-14 .6-14.5 46-24.7 42.4-38.7-2.7-10.2-7.1-20-8.3-30.6-1.5-13 2.1-26.9-3.1-39-4.1-9.5-13.1-16.2-22.8-19.7s-20.1-4.4-30.4-5.4c-12.9-1.1-54.8-6-69.4 5.6-1 .8-1.9 1.7-2.7 2.7-.3.4-.6.9-.9 1.4v.2c-.3.6-.5 1.2-.7 1.8s-.4 1.3-.4 2v.7 1.4 2.2.6c.2 2.4.6 4.9.6 7.2 0 1.2-.1 2.4-.3 3.6-.9 3.2-2.4 6.1-4.5 8.7l-.5.7-.9 1.3-.7 1.1-.6 1c-.3.5-.5.9-.7 1.4l-.4.8c-.3.7-.6 1.5-.8 2.3-.6 2.3-.6 4.8 0 7.1.7 3 2 5.9 3.7 8.5.7 1.1 1.4 2.2 2.2 3.3s1.2 1.7 1.9 2.5c-.4 2.5-.6 5-.6 7.6 0 17.1 7.9 33.2 21.3 43.8 2.7 2.4 14.3 8.8 14.3 8.8s3.7 10.3 2.6 20.3c-.3 2.4-2.1 14.4-2.4 16.8s-16.3-.6-16.6 1.4c-4 .6-8 .2-11.8-.9-1.8-.8-3.6-1.5-5.4-2.1-7.9-1.9-15.9 5.9-23.6 3.5 0 .4-.2.7-.4 1.1-1.6-1-3.5-1.5-5.4-1.6-4.6-.2-8.4-3.6-11.7-6.7l-10.2-9.7c-.7-.6-1.3-1.3-1.8-2-.6-1-1-2.2-1.2-3.3-2.2-5.5-5.6-10.3-9.9-14.3-.8-1-1.8-1.7-3-2.1-.4-.1-.9-.1-1.3 0-.3-.4-.6-.8-.9-1.1-.7-.8-1.5-1.5-2.3-2.2-4.9-4.5-5.4-8.4-9.6-13.5-3.7-4.8-7.1-9.9-10.1-15.2-.4-2.7-.9-5.7-1.5-8.7-1.3-6.7-3.3-13.3-5.9-19.6l3.7-4v-4l6.6-7.7-.5-.4 8.1-7.6-8.1-.3-3.8 5.2-.3-.3-6.7 6.7-4.7.5-.6.6c-3.9-5.8-8.1-9-11.8-8.2-6.3 1.3-9.4 13.5-8.4 29.4l-18.7 19.5-2.1 2.2-9.6 12.4 7.6 7.3 11.6-10.8 1.9-2 11.6-12.5c0 .4.2.8.3 1.2-.4 1.9-.6 3.9-.6 5.8 0 2.3 2.1 3.9 3.2 6 1.8 2.7 2.7 5.9 2.7 9.2 0 1.1-.5 2.2-.5 3.4.1 2.5 1 4.9 2.5 7 4.5 7.5 9 15.1 13.5 22.6.9 1.6 1.9 3.2 2.7 4.7v.2c.9 1.6 2.1 3.1 3.6 4.1.5 5.7 2 11.2 4.4 16.4.5 1 1 2 1.5 3 3.6 5.9 7.9 11.5 12.7 16.5l6.4 7.2c6.3 7.1 12.6 14.1 19.5 20.7 2.5 2.6 5.4 4.7 8.8 6.1 3.3 1.3 7 .8 9.8-1.4v10c1.9.3 3.6 1.4 4.7 3.1.7 1.9.6 4-.5 5.8-5.6 14.5-11.3 29.2-19.9 42.2 6.1 3.6 11.7 7.8 16.7 12.7 3.3 3.6 6.2 7.6 8.7 11.8.2 2 .4 4 .5 5.9 2 32.1-10.4 64-21.6 94.6-3.2 8.6-6.7 17.8-6.4 26.8-2.1 1.3-4.1 2.8-6.1 4.4 2.2 5.7 1.3 10.8 1.1 17.1-.1 3.7-.9 7.4-2.3 10.8-1.1 2.4-2.7 4.6-3.9 6.9-7 12.3-8.5 26.9-9.9 41-.8 8.5 2.5 18.9-1.4 26.5-6.6 13.1-12.5 26.9-13.6 41.4 0 3.3-.4 6.5-1.2 9.7-.8 2.7-2.3 5-3.1 7.6-.8 3.5-.9 7.2-.5 10.8.5 12.9-1.4 25.8-5.7 38-3.4 9.6-7.1 19.9-4.4 29.8-6.5 6.8-10.5 15.6-11.4 25-.1 2.4-.4 4.8-.9 7.1-.8 2.4-1.9 4.7-3.2 6.9-5.4 9.9-8 21.1-7.4 32.3-8.1 10.9-12.1 24.5-14.5 37.9s-3.5 27.1-6.5 40.4c-4.1 17.6-11.5 35.4-13 53.3-8.7 5.6-12.5 16.4-14.2 26.6s-1.9 20.9-6.2 30.4c-2.2 4.9-5.4 9.3-7.5 14.3-1.5 4-2.6 8.1-3.3 12.3-1.3 6.6-2.4 13.9-.8 20.2-2.3 2.4-4.9 4.5-7.9 6 .4-1.7.8-3.4 1.1-5.1-7 6.3-19.5 4.1-25.1 11.7-3.4 5-2.2 12 2.7 15.6 1.7 1.1 3.6 1.9 5.6 2.4 13.3 4.3 27.3 8.6 41.1 6.4 1.6-.2 3.2-.7 4.7-1.5 1.8-1.3 3.3-3 4.3-5l6.2-9.9c5 1.5 10 2.7 15.1 3.6.5 4.3.9 8.6 1.1 12.9 2.7.5 6.3.7 7.6-1.8.4-.9.6-2 .5-3 0-1.9.2-4.5.4-7.1h.5c8.2.3 16.4-1.3 23.8-4.9-2.9-23.8 6.6-47.2 14.9-69.8 8.7-23.8 16.2-48 23.7-72.2 5.4-17 11.4-33.5 16.6-50.5 6.7-21.6 13.4-43.1 20-64.7 2.9-9.5 5.8-18.9 9.2-28.3 7-19.1 15.4-37.7 25-55.6 2.7-5.1 5.4-10.1 7.6-15.4 2.7-6.4 4.6-13.2 6.7-19.8 4.7-13.7 10.4-27 16.9-39.9l.5-1c2.2 8.9 4.4 18 5.8 26.9 2 11 2.1 22.3.5 33.3-1.3 7.5-3.7 15-3.4 22.6.4 10.6 6 20.1 8.8 30.3 1.8 7.6 2.8 15.4 3 23.2.7 12.1 7.3 25.7 2.7 36.9-14.4 35.6-7.4 75.8-15.7 113.2-4.2 19.2-17.2 37.2-16.2 56.9.7 13.9 1.9 27.8 3.7 41.7.3 4.2 1.3 8.4 2.9 12.3 1.1 2.1 2.3 4.1 3.7 6-1.2.5-2.2 1.7-3 4.3-2.5 6.9-.1 14.7 6 18.9 2.4 1.3 5 2.2 7.8 2.7 3.7 1 7.5 1.6 11.3 1.6 1.2-.1 2.4-.2 3.5-.5 4.2 1.8 8.4 3.3 12.8 4.6 0 1.1.1 2.2.3 3.3 0 1.2.5 2.3 1.4 3 .7.3 1.4.5 2.2.4h14.6c0-1.2 0-2.5 0-3.7 3.4.4 6.8-.7 9.3-3 1.3-1.6 2.2-3.5 2.7-5.6 4-13.5 8-27.1 11.9-40.6 1.8-5.7 3.2-11.6 4.2-17.5 1.7-9.5 2.2-19.2 1.6-28.9-5.2-49.7 6.3-99.5 2.5-149.3-2.3-29.9-.7-60 4.6-89.5 1.2-6.7 2.7-13.5 3.2-20.1 1.2-12.6-.3-25.2.6-37.7.3-4.4.9-8.7 1.5-13 3.9-26.9 6-54.1 6.3-81.3-.1-9-.6-18-1.6-26.9 2.8-.7 5.3-2.2 7.3-4.3 2.4-3.2 1.8-7.5 1.8-11.5 0-9.5 4-18.6 7.2-27.6 4.1-12.4 7.6-25 10.2-37.7 2.8-10.3 4.3-21 4.5-31.7 0-1.1 0-2.2-.2-3.3 1-.7 1.9-1.6 2.5-2.7.7-1.6 1.2-3.3 1.3-5 1-6.9 2-13.8 3-20.7.7-4.9 1.4-9.9 2.1-14.8 2.9-19.9 5.7-39.8 8.5-59.8.8-5.2 1.5-10.4 2.2-15.6l2.2-15.4c.3-1.8.5-3.7.7-5.5 7.1-10.6.8-25.3.1-37.8zm-71.4 223.8c-3.2-7.5-6.2-15.3-5.4-23.4h-.3c.7-2.5.6-5.2-.4-7.6-.8-2-2.3-3.7-3.2-5.6-1-2.4-1.5-5-1.5-7.6-.7-16.4.6-32.8 3.8-48.9.4-1.9.7-3.8 1.1-5.7 1.1-.6 2.1-1.4 3-2.4 1.4-1.6 2.6-3.4 3.5-5.4 3-6.1 5.8-12.3 8.4-18.7.8-2.1 2-4.4 4.1-4.9-.4 15.8 1.2 31.8-5.4 46.1-1.2 2.3-2.1 4.7-2.7 7.3-.6 4 1.1 8.1.5 12.1-.3 2-1.2 4-1.6 6-.5 2 .1 4.2 1.6 5.7.3.3.7.5 1.1.6-.2 1.1-.3 2.2-.4 3.2-.2 2.2-.3 4.3-.5 5.6-.6 6.6-.9 13.2-.8 19.8 0 7.1.3 14.3.2 21.6.1 2.1-.2 4.2-1 6.1-.5 1-1.2 1.9-2 2.7-.4-2.3-1.3-4.5-2.1-6.6z" fill="url(#a)"/><path d="m3177.4-448.1 9.1-8.4-8.1-.3-4.2 6.5z" fill="#33313f"/><path d="m3112.3-389 9.6-12.3 2.1-2.2 29.4-30.7 10-10.5 4.7-.5 6.7-6.7 4 3.5-6.5 7.7.1 4-10.2 11.1-28.8 31.3-1.9 2-11.6 10.7z" fill="#65617d"/><path d="m3124-403.5 29.4-30.7 8.7 8.5-28.8 31.3z" fill="#33313f"/><path clip-rule="evenodd" d="m3151-452.4c8.2-1.7 18.8 15.8 23.5 39.1 4.8 23.3 2 43.5-6.3 45.2-8.2 1.7-18.8-15.8-23.5-39.1s-1.9-43.5 6.3-45.2z" fill="#fbbebe" fill-rule="evenodd"/><path d="m3293.9 498c-2.4 6.8 0 14.5 6 18.7 2.4 1.3 5 2.2 7.8 2.7 3.6 1 7.4 1.6 11.2 1.6 4.7-.2 9.2-2 13.8-2.7.5-.1 1.1 0 1.6.2.5.5.7 1.2.6 1.9 0 2.7.2 5.3.6 7.9v.4c0 1.7 1.4 3 3 3h.5 14.6c.3-12.8-1.1-25.7-4.2-38.1-.2-1-.6-1.9-1.1-2.7-1.2-1.4-2.8-2.3-4.6-2.7-3.6-1.5-7.4-2.2-11.3-2-4.7.6-8.6 3.7-12.7 6.2-4 2.5-9.5 4.8-14.4 3.4s-9-5.3-11.4 2.2z" fill="#3f3d56"/><path d="m3079.3 486.2c-4.1 4.4-9.1 7.8-14.7 10l-2.5 1.2c-.4.1-.6.3-.8.7-.1.4 0 .9.2 1.2 4.2 6.5 12.3 9.5 19.8 7.2 1.6-.4 3.1-1.2 4.4-2.3 2-2.5 3.2-5.5 3.3-8.7.8-3.3.6-6.7-.4-9.9-3.6-8.5-5-4.7-9.3.6z" fill="#fbbebe"/><path d="m3135.4 519.4c.1 1-.1 2-.5 3-1.2 2.5-4.8 2.3-7.5 1.8-.4-9.2-1.5-18.3-3.3-27.2-5.2-.2-9 4.7-11.8 9.2l-7.2 11.5c-1 2-2.5 3.7-4.3 5-1.4.8-3 1.3-4.6 1.5-13.8 2.3-27.7-2.1-41-6.4-2-.5-3.8-1.3-5.6-2.4-4.9-3.6-6.1-10.5-2.7-15.6 5.6-7.5 18.1-5.4 25-11.6-.7 4.4-1.9 8.7-3.6 12.9 9.3-1.4 15.5-9.9 23.1-15.6 1.9-1.6 4.1-2.7 6.6-3.2 1.8-.1 3.6.1 5.4.6 8.6 2.2 16.7 6.1 23.7 11.7 2.8 2.2 7.2 5.4 8.5 8.8 1.2 4-.2 11.6-.2 16z" fill="#3f3d56"/><circle clip-rule="evenodd" cx="3320.8" cy="-425.4" fill="#fbbebe" fill-rule="evenodd" r="55.7"/><path d="m3430.5-96.7c-.2 10.7-1.7 21.3-4.5 31.6-2.6 12.8-6 25.4-10.2 37.7-3.2 9-7.2 18-7.2 27.5 0 4 .6 8.3-1.8 11.5-2.2 2.2-4.9 3.7-7.9 4.5s-5.5 3-6.6 5.9c-2.5-3.8-4.4-7.9-5.6-12.3-4.8-14.8-9.3-29.7-13.5-44.6-.8-1.7-.6-3.8.4-5.4.7-.6 1.5-1.1 2.4-1.3 2.8-1.1 5.3-2.8 7.4-4.8 1-.9 1.9-2 2.5-3.2.8-1.9 1.1-4 1-6.1 0-7.1 0-14.3-.2-21.4-.1-6.6.1-13.2.7-19.8 0-1.3.2-3.4.5-5.6.4-4.3 1.2-9.1 3.5-10.8 3.4-2.3 13.6.8 17.5 1.3 6.7.9 13.3 2 20 3.3 1 3.9 1.5 8 1.6 12z" fill="#fff"/><path d="m3205.6-363c-2.2 4.3-7.3 6.4-11.3 9.1l-13.7 9.4c-1.8 1.6-4.3 2.5-6.7 2.3-2.2-.8-4.1-2.5-5-4.7l-.2-.2-2.7-4.7-13.5-22.6c-1.5-2-2.4-4.5-2.5-7 0-1.1.4-2.2.5-3.4 0-3.2-.9-6.4-2.7-9.2-1.1-2-3.3-3.7-3.2-6-.1-3 .4-6 1.5-8.7 1.4-2.6 3.4-4.7 5.9-6.3 1.3-.9 2.7-1.8 3.9-2.7.7-.5 1.5-.8 2.4-1.1 2.2-.5 4.4 1.4 6.7 1.5 9.8 6.5 13.5 18.9 21.2 27.8 4.3 5 4.7 8.9 9.6 13.5.8.7 1.5 1.4 2.2 2.2 1 1 1.8 2.2 2.5 3.5.9 2.3 6.3 5.1 5.1 7.3z" fill="#fff"/><path d="m3301.2-369.5c4 8.5 7.1 17.8 6 27.1-.2 2.5-1 5-2.3 7.1-3.9 6-12 7-19.1 7.4-3-.2-6 .7-8.3 2.7-2 2.8-1.7 6.6.5 9.2 2.3 2.4 5.1 4.3 8.2 5.4 11.2 5 23.3 9 35.5 7.9 5.7-.5 11.2-2.2 16.8-3 6.1-.6 12.2-1 18.4-.9 7.3-.3 14.6-1 21.9-1.7l19.3-1.9c1.1 0 2.1-.4 2.9-1.1 1.5-1.7-.4-4.1-2.2-5.4-10.3-7.6-23.4-12.8-29.2-24.3-2.7-5.4-3.6-11.8-5.6-17.6s-5.2-11-6.4-17c-.7-5.2-1-10.4-.9-15.7s-1.8-10.4-5.4-14.3c-3.8-3.6-9.4-4.5-14.7-4.7-12.9-.5-26.6 2.5-35.7 11.6-2.5 2.5-4.5 5.3-7.1 7.6s-6 2.9-4.3 5.8 4.9 4.7 6.7 7.3c2 2.6 3.6 5.5 5 8.5z" fill="#fbbebe"/><path d="m3411-291.3c-3.4 20.7-8.9 41.1-16.4 60.7-3.8 8.9-7.1 18-9.7 27.2-2.1 8.4-1.7 17.3-3.6 25.7-2.4 10.4-4.7 20.9-6.7 31.4-3.2 16-4.5 32.4-3.8 48.7 0 2.6.5 5.1 1.5 7.5.9 1.9 2.3 3.6 3.2 5.6 1.3 3.5 1 7.5-.7 10.8-1.4 3.1-3.3 5.9-5.6 8.4-25.1 7.5-52 5-78.1 6.6-24.3 1.5-48.5 6.4-72.3 2.3-2.7-10.8 1.8-22 5.7-32.5 11.2-30.5 23.6-62.3 21.6-94.3-.2-3.7-.6-7.4-1.3-11.1-3.9-22.7.4-46.1 7.2-68.1 4.3-13.7 4.1-28.3 3.1-42.5-.5-4.6-.5-9.3-.2-13.9.4-4.7 2.2-9.3 5.1-13l.4-.6c.3-.5 1.2-.2 2 0 .4.2.9.2 1.3 0 .1-.1.2-.2.3-.2.2-.1.5-.1.8 0 .6.4.9 1.7 2.3 1.9 2 .3 4 .5 6 .6 2.4.1 4.8.4 7.2 1h.3c3.5.6 7.1.3 10.5-.9 2.2-.6 4.4-1.4 6.4-2.5 1.7-.7 3.3-1.2 5.1-1.7 2.5-1.5 1.9-8.5 2.5-11.3.3-2.9.9-5.7 2-8.4 2.5-4 6.8-6.5 11.5-6.7 4.7-.1 9.3.3 13.8 1.2 10 1.4 20.3 1.2 30.2 3.5 5 1.2 10.3 2.9 14.9.7 1.2.3 1.4 1.4 1.4 2.7-.1 1.3-.3 2.5-.8 3.7-1.7 7.4 4.1 14.3 9.5 19.7 2.3 2.5 5.1 4.7 8.1 6.3 2.7 1.2 5.4 1.8 8.1 3.1 2.2 1.1 4 2.8 5.4 4.9 1.6 2.4 2.6 5 3.1 7.8.3 5.4-.1 10.6-1.3 15.7z" fill="#fff"/><path d="m3411-291.3c-3.4 20.7-8.9 41.1-16.4 60.7-3.8 8.9-7.1 18-9.7 27.2-2.1 8.4-1.7 17.3-3.6 25.7-2.4 10.4-4.7 20.9-6.7 31.4-.6.3-1.1.6-1.7.9-3.4 1.6-6.9 2.8-10.6 3.4-6.6.8-13.2.6-19.8-.6l-38.5-5c-15.4-2-31.7-4.6-43.1-15-6.3-5.7-10.5-13.3-15-20.6-.2-3.7-.6-7.4-1.3-11.1-3.9-22.7.4-46.1 7.2-68.1 4.3-13.7 4.1-28.3 3.1-42.5-.5-4.6-.5-9.3-.2-13.9.4-4.7 2.2-9.3 5.1-13 .8-.2 1.6-.4 2.4-.6.5-.1 1.1-.2 1.6-.2h.8c.9 0 1.8.1 2.7.3 1.8.5 3.5 1.4 5.3 2.1h.3c2.3.7 4.7 1.1 7.2 1 3.6 0 7.2-.6 10.8-.8 4.4-.7 8.9.1 12.8 2.3 2.5 2 4.9 4.2 7.1 6.5 2.7 2.1 5.8 3.7 9 4.9 23.2 8.9 48.9 8.3 71.7-1.5 2.2-1.2 4.7-1.8 7.2-1.8 1.9.4 3.6 1.1 5.2 2.2 1.6.9 3.2 1.9 4.8 2.7 1.6 2.4 2.6 5 3.1 7.8.5 5.2.3 10.5-.8 15.6z" fill-opacity=".1"/><path d="m3205.6-363c-2.2 4.3-7.3 6.4-11.3 9.1l-13.7 9.4c-1.8 1.6-4.3 2.5-6.7 2.3-2.2-.8-4.1-2.5-5-4.7 0-.6 0-1.3 0-1.9-.1-2.2.2-4.4.9-6.4 1.3-3 3.4-5.7 6-7.8 5.1-4.8 11.1-8.5 17.7-10.8 1-.4 2.2-.5 3.3-.3.4.1.8.3 1.2.5 1 1 1.8 2.2 2.5 3.5.9 2.1 6.3 4.9 5.1 7.1z" fill-opacity=".1"/><path d="m3237.8-334.5c-4.6-.2-8.3-3.6-11.6-6.7l-10.2-9.6c-.7-.6-1.3-1.3-1.8-2-.5-1-.9-2.1-1.2-3.3-2.2-5.4-5.6-10.3-9.9-14.2-.8-1-1.8-1.7-3-2.1-1.1-.2-2.2-.1-3.3.4-6.6 2.3-12.6 6-17.7 10.8-2.6 2-4.7 4.7-6 7.8-.7 2.1-1 4.3-.9 6.4.1 7.2 1.7 14.2 4.7 20.7.5 1 1 2 1.5 3 3.6 5.9 7.9 11.4 12.7 16.4l6.4 7.2c6.3 7 12.6 14.1 19.5 20.6 2.4 2.6 5.4 4.7 8.7 6.1 3.4 1.4 7.3.7 10-1.6 1.3-1.5 2.3-3.2 2.9-5.1 4.2-10.8 8.1-22 8.3-33.6.1-4.7-.1-9.3-.6-13.9-.4-5.2-3.9-7.1-8.5-7.3z" fill="#0c69a3"/><path d="m3401.1 42.7c-.1 27.1-2.1 54.2-5.7 81-.5 4.3-1.1 8.6-1.4 13-.9 12.6.5 25.2-.6 37.7-.6 6.7-2 13.5-3.2 20.1-5.3 29.5-6.8 59.5-4.6 89.3 3.7 49.7-7.7 99.3-2.5 148.9.6 9.6.1 19.3-1.6 28.8-1 5.9-2.4 11.7-4.2 17.4-4 13.5-7.9 27-11.9 40.4-.5 2-1.4 3.9-2.7 5.6-2.8 2.4-6.5 3.5-10.1 3-15.5-.5-30.2-7.2-44.3-13.8-1.6-.6-3.1-1.5-4.4-2.7-2.9-3-2.7-7.9-4-11.9s-4.8-7.8-6.8-11.9c-1.6-3.9-2.6-8-2.9-12.2-1.8-13.8-3-27.7-3.7-41.5-1-19.6 11.9-37.6 16.2-56.6 8.2-37.4 1.3-77.5 15.6-113 4.5-11.2-2-24.8-2.7-36.8-.2-7.8-1.2-15.5-3-23.1-2.7-10.2-8.4-19.7-8.8-30.2-.3-7.6 2.1-15 3.4-22.5 1.7-11 1.5-22.2-.5-33.2-1.4-9.1-3.6-18.1-5.8-26.9l-.5 1c-6.6 12.8-12.2 26.1-16.9 39.7-2.1 6.6-4 13.3-6.7 19.8-2.2 5.4-4.9 10.3-7.6 15.4-9.6 17.9-17.9 36.4-24.9 55.5-3.3 9.3-6.3 18.9-9.2 28.2-6.6 21.6-13.3 43.1-19.9 64.7-5.3 17-11.3 33.4-16.6 50.4-7.5 24.3-14.9 48.3-23.6 72-8.2 22.5-17.7 45.8-14.8 69.6-7.4 3.5-15.6 5.1-23.8 4.8-13.9-1.2-27.5-4.6-40.4-9.8-5.3-1.5-10.1-4.3-13.9-8.3-6-7.3-4.5-18-2.7-27.3.7-4.2 1.8-8.3 3.3-12.3 2-5 5.3-9.4 7.5-14.3 4.3-9.4 4.5-20.1 6.2-30.3s5.4-21 14.1-26.5c1.5-17.9 8.9-35.6 12.9-53.2 3.1-13.3 4.1-26.9 6.5-40.4s6.4-26.9 14.5-37.7c-.6-11.2 1.9-22.5 7.3-32.3 1.3-2.2 2.4-4.5 3.2-6.9.5-2.3.8-4.7.9-7.1.9-9.4 4.9-18.1 11.3-25-2.7-9.9 1.1-20.1 4.4-29.6 4.3-12.2 6.2-25 5.7-37.9-.4-3.6-.2-7.2.5-10.8.8-2.7 2.2-5 3.1-7.6.8-3.2 1.2-6.4 1.2-9.7 1.1-14.6 7-28.3 13.5-41.3 3.9-7.6.6-17.9 1.4-26.4 1.4-14.1 2.9-28.6 9.9-40.9 1.4-2.2 2.7-4.5 3.9-6.9 1.4-3.4 2.2-7.1 2.2-10.8.2-6.1 1.1-11.3-1.1-17 14.4-12 34.1-15.4 52.8-16 18.7-.7 37.7.9 56.1-3.1 5.4-1.2 10.8-2.9 16.5-3.7 12.9-1.9 26 1.1 38.7 4-.9 8.1 2.1 15.8 5.3 23.4 12.8 30.1 19.6 62.7 19.9 95.7z" fill="#33313f"/><path d="m3337.7 48.8-30.9 69.6c-1.4-9.1-3.6-18.1-5.8-26.9l-.5 1 .1-1.5 16.9-37.1z" fill-opacity=".1"/><path d="m3430.5-96.7c-1.8 1.3-3.9 2.1-6.1 2.3-3.4.1-6.8-.4-10.1-1.4l-24.1-6.1c-.8-.2-1.5-.4-2.2-.8.4-4.3 1.2-9.1 3.5-10.8 3.4-2.3 13.6.8 17.5 1.3 6.7.9 13.3 2 20 3.3.9 4.1 1.4 8.1 1.5 12.2z" fill-opacity=".1"/><path d="m3450.9-257c.5 2.2 1.3 4.4 1.7 6.7.7 5.5.5 11.2-.5 16.7l-2.2 15.4-2.2 15.5-8.5 59.6-2.1 14.8-2.9 20.6c-.2 1.7-.6 3.4-1.3 5-1.8 3-5 4.8-8.5 5-3.4.1-6.8-.4-10.1-1.4l-24.1-6.1c-1.1-.2-2.1-.6-2.9-1.2-1.5-1.5-2.1-3.6-1.6-5.7.4-2 1.2-4 1.6-6 .6-4-1.1-8.1-.5-12 .6-2.5 1.5-5 2.7-7.3 8.1-17.9 3.4-38.7 6.1-58.1 2.4-15.3 8.7-29.6 18.4-41.6 6-7.6 12.9-14.4 20.6-20.2 3-2.3 7.8-7.2 11.6-8.1 5-1.1 4 5 4.7 8.4z" fill="#0c69a3"/><path d="m3358.9-365.5c29.2-.4 40.1-15 44.2-25.5 2.1-5.5 2.3-11.5.5-17.1-2.5-7.9-5.4-15.7-6.3-23.9-1.5-13 2.1-26.9-3.1-38.9-4.1-9.4-13.1-16.2-22.7-19.6-9.8-3.2-20-5-30.3-5.4-14.8-1.3-67.5-7.6-73.7 11.7-1.8 5.6 1 11.9-.3 17.6-1.4 6.4-7.4 10.8-9.1 17.2-2.4 8.7 4 16.7 9.6 24.1 1.1 1.5 2.1 3.1 2.9 4.8 7 14.9 22.7 28.5 35.5 37.9 15.4 11.2 33.9 17.4 52.8 17.1z" fill-opacity=".1"/><path d="m3584 229.3s16 20.9-7.4 52.5c-23.3 31.6-42.6 58.2-34.8 77.8 0 0 35.2-58.6 63.9-59.3 28.7-.6 9.8-35.7-21.7-71z" fill="#3ebd93"/><path d="m3584 229.3c1.4 2 2.5 4.2 3.3 6.6 28 32.9 42.9 63.5 16 64.3-25.1.7-55.1 45.5-62.3 56.8.2.9.5 1.7.9 2.7 0 0 35.2-58.6 63.9-59.3 28.6-.6 9.7-35.8-21.8-71.1z" fill-opacity=".1"/><path d="m3613.7 256c0 7.4-.8 13.3-1.9 13.3s-1.8-6-1.8-13.3c0-7.4 1-3.9 2-3.9s1.7-3.5 1.7 3.9z" fill="#ffd037"/><path d="m3623.9 264.8c-6.5 3.5-12.1 5.6-12.6 4.7s4.4-4.5 10.8-8.1 3.9-.9 4.4 0c.5 1 3.9-.2-2.6 3.4z" fill="#ffd037"/><path d="m3499.7 229.3s-16 20.9 7.4 52.5 42.6 58.2 34.8 77.8c0 0-35.2-58.6-63.9-59.3-28.7-.6-10-35.7 21.7-71z" fill="#3ebd93"/><path d="m3499.7 229.3c-1.4 2-2.5 4.2-3.3 6.6-28 32.9-42.9 63.5-16 64.3 25.1.7 55.1 45.5 62.3 56.8-.2.9-.5 1.7-.9 2.7 0 0-35.2-58.6-63.9-59.3-28.6-.6-9.9-35.8 21.8-71.1z" fill-opacity=".1"/><path d="m3470 256c0 7.4.8 13.3 1.8 13.3s1.8-6 1.8-13.3c0-7.4-1-3.9-2-3.9s-1.6-3.5-1.6 3.9z" fill="#ffd037"/><path d="m3459.7 264.8c6.5 3.5 12.1 5.6 12.6 4.7s-4.4-4.5-10.8-8.1-3.9-.9-4.4 0c-.5 1-3.9-.2 2.6 3.4z" fill="#ffd037"/><path d="m3627.8 331.5-.8 6.5-1.1 9.2-.5 3.8-1.1 9.2-.5 3.8-1.1 9.2-12.8 104.8c-1.1 9.3-16.4 16.7-34.9 16.7h-66.4c-18.4 0-33.7-7.3-34.8-16.7l-12.8-104.8-1.1-9.2-.5-3.8-1.2-9.2-.5-3.8-1.1-9.2-.8-6.5c-.6-5.4 7.6-9.8 18.1-9.8h135.9c10.3 0 18.6 4.5 18 9.8z" fill="#444053"/><path d="m3627 338-1.1 9.2h-168.1l-1.1-9.2z" fill="#9d9cb5"/><path d="m3625.4 351.1-1.1 9.2h-164.9l-1.1-9.2z" fill="#9d9cb5"/><path d="m3623.8 364.1-1.1 9.2h-161.8l-1.1-9.2z" fill="#9d9cb5"/></svg>