<svg enable-background="new 0 0 1149.1 755.5" viewBox="0 0 1149.1 755.5" xmlns="http://www.w3.org/2000/svg" xmlns:xlink="http://www.w3.org/1999/xlink"><linearGradient id="a"><stop offset="0" stop-color="#808080" stop-opacity=".25"/><stop offset=".54" stop-color="#808080" stop-opacity=".12"/><stop offset="1" stop-color="#808080" stop-opacity=".1"/></linearGradient><linearGradient id="b" gradientTransform="matrix(1 0 0 -1 -25.44 683.65)" gradientUnits="userSpaceOnUse" x1="974.1525" x2="974.1525" xlink:href="#a" y1="-36.8399" y2="550.4218"/><linearGradient id="c" gradientTransform="matrix(1 0 0 -1 -25.44 683.65)" gradientUnits="userSpaceOnUse" x1="215.5429" x2="215.5429" xlink:href="#a" y1="51.99" y2="445.9175"/><path d="m1065.6 619.9c-3.6 3.2-7.3 6.2-11 9.2-.6.5-1.3 1-1.9 1.5-13.4 10.4-27.4 19.8-42 28.4l-2.7 1.6c-.7.4-1.3.8-2 1.1-15.3 8.8-31.1 16.9-47.1 24.6l-.2.1-1.2.6c-12.9 6.2-26 12.1-39.3 17.8l-.3.1c-6 2.5-12 5-18 7.4-2.5 1-4.9 1.9-7.4 2.9-4.6 1.8-9.3 3.5-14 5.2l-.6.2-1 .3-1.2.5c-12.2 4.4-24.6 8.4-37.1 12.1l-.2.1c-8.7 2.5-17.5 4.9-26.4 7.1l-1.2.3c-13 3.1-26.2 5.8-39.5 8l-3.1.5c-9.7 1.5-19.5 2.8-29.4 3.7-55.4 5.3-111.4 1-166.5-6.5-111.2-15.1-220.9-43.3-320.9-87.7-19.2-8.5-38-17.6-56.5-27.3-.1-.1-.3-.2-.4-.2-11-5.8-21.9-11.9-32.7-18.2-3.1-1.8-6.3-3.7-9.4-5.5-3.8-2.3-7.6-4.6-11.4-7-5-3.1-10-6.3-15-9.6l-2.3-1.6-.9-.6c-1.3-.8-2.5-1.7-3.8-2.6-47-32-88.9-70.8-108.7-119.3-22.9-56-8.2-127 48.4-160.1 19.5-11.4 42.1-17.6 65-22.7l2.3-.5c3.9-.9 7.7-1.7 11.6-2.5 13.5-2.9 27.1-5.7 40.5-8.9 7-1.6 13.9-3.4 20.8-5.2l2.8-.8c16.6-4.5 32.9-10.2 48.6-17.1h.1c1.7-.8 3.4-1.5 5-2.3 1.1-.5 2.1-1 3.2-1.5 17-8.5 35-20.2 48.9-34.2 1.1-1.1 2.2-2.3 3.2-3.4.8-.9 1.6-1.8 2.4-2.7 9.7-11.3 16.4-23.9 17.7-37.2.4-4.5.2-9-.6-13.4-1.6-8.4-3.1-16.6-4.2-24.6-2.1-15.1-2.8-29.4.1-43.3 3-14.1 9.6-27.8 22.4-40.9 1.9-2 4-4 6.2-6 10.3-9.1 22-16.4 34.6-21.9 1.6-.7 3.1-1.3 4.7-2 35.2-14.3 77.3-17.3 116.7-15.3 36.8 1.9 73.3 7 109.3 15.2 2.8.6 5.7 1.3 8.5 2 30.5 7.4 60.6 16.7 90 27.8 76.4 28.7 148.5 68.6 215.8 112.6.7.4 1.3.9 2 1.3 2.8 1.8 5.6 3.7 8.4 5.5 5.4 3.6 10.7 7.2 16 10.8l3.6 2.4c1.8 1.2 3.5 2.4 5.2 3.6l5.4 3.7c.3.2.5.3.7.5l4.6 3.2c2.6 1.8 5.3 3.7 7.9 5.5l5.6 4c1.2.8 2.3 1.7 3.5 2.5l6 4.4 1.3 1c.3.2.6.4.8.6l.2.1c16.3 11.9 32.1 24.3 47 37.4l1.9 1.7.2.2c1.6 1.4 3.2 2.9 4.8 4.4 19.4 17.7 36.8 36.7 51 57.7 65.5 97.1 46.1 231.4-44.8 311.2z" fill="#0967d2" opacity=".1"/><path d="m1108.4 340.7c.6-1.7-4.1-11.4-4.1-11.9s-5-5.9-5-8.9-6.5-9.5-6.5-9.5-8.8-3.6-9.7-11.6-10.2-8.1-10.5-8.1c0 0 0-.7.1-1.8 0-2.5-.1-6.9-1.2-9.3-1.1-2.2-3.1-3.8-5.4-4.6 0 0-1-6.2-2.9-8.1-2.2-2.3-3-5.5-2.2-8.6.5-1.7.1-4.8-1.2-7.4-1-2.1-2.6-3.8-4.7-4.3h-.2c-4.6-1.1-9.7-2.8-9.7-2.8s-.5.1-1.3.2l-.6-.2c-1.1.2-2.2.3-3.3.4-1 0-1.9-.3-2.7-.9-1.6-1.8-14.5-5.1-16.9-5.1s-9.3-3.2-9.3-3.2l-6.8-5.2c-1.9-1.5-5.5-7.4-6-8.3l-.1-.1c-.5-1.1-.9-2.3-1.3-3.5-.1-.2-.1-.4-.2-.7 1.4-1.5 2.7-3 3.8-4.7.3-.4.6-.9.9-1.4.4-.7.8-1.4 1.2-2.1.2-.3.3-.6.5-.9.3 0 .7-.1 1-.2l.4-.2c.4-.2.8-.4 1.1-.7l.3-.3c.9-.9 1.6-1.9 2-3.1.1-.3.2-.7.3-1 0-.1.1-.2.1-.4s.1-.5.2-.7l.1-.4c0-.2.1-.5.1-.7s0-.3 0-.4c0-.3.1-.6.1-.9.1-1.1.3-2.2.5-3.3.5-2.1 1.3-4.2 2.4-6.1 1-1.9 2.1-3.8 3-5.8.3-.6.5-1.1.7-1.7s.4-1.3.6-1.9c0-.2.1-.4.1-.6.1-.5.2-.9.3-1.4.1-.2.1-.4.1-.6.1-.7.2-1.3.3-2 .3-3.8-.2-7.6-1.6-11.1-1.2-3-3-5.6-4.2-8.6-1.8-4.5-2.3-9.6-4.6-13.9-3.8-7.2-12.6-10.8-19.9-8.1-3.5 1.3-6.5 3.8-10 4.9-4.7 1.5-9.8.4-14.6-.3s-10.3-.7-14.2 2.4c-4.5 3.7-5.8 10.6-10 14.6-1 .9-2.1 1.8-3.3 2.5-.9.6-1.7 1.2-2.5 1.8-1.3 1-2.3 2.4-3 4 0 .1-.1.2-.1.3s-.1.3-.1.4 0 .3-.1.5 0 .2 0 .3v.7.1c0 .3.1.5.1.8v.2s.1.4.2.7v.1c.1.2.2.5.3.7 0 .1.1.2.1.4.1.1.1.2.1.3.6 1.2 1.1 2.4 1.5 3.7.2.8.1 1.7-.2 2.4-.2.4-.4.7-.6 1.1-.3.4-.7.9-1.1 1.2-3.2 3.3-5.6 7.2-7.2 11.5-.2.5-.3 1-.5 1.5l.2.1h.2c.4.1.8.2 1.2.2.3 0 .5.1.8.1 1.1.1 2.2 0 3.3-.3.2 0 .4-.1.5-.1h.2.1c.9-.2 1.8-.5 2.6-.9.2-.1.4-.2.6-.3v1s0 .4 0 .5v1.3s0 .6 0 .9c.8 12.8 8 24.3 19.2 30.6.6.3 1.1.6 1.7.9 0 .3.1.7.1 1s.1.6.1.9l-.4-.4c-.4-.2-.8-.2-1.2-.2-.7 0-1.3.2-1.9.5-1 .6-1.9 1.4-2.5 2.4-2.7 4.1-7.8 6-7.8 6s-29 4.6-30.1 8.4l-13.6.8s-4.8.6-5.3 10.6v.1.1c-.1 1.2-.2 2.2-.3 3.2v.1c-.8 6.6-2.7 7.4-2.7 7.4s-5.6 9.8-5.1 14.9v.1c.1.7 0 1.4-.1 2-.6 2.3-2.1 4.2-4.2 5.4l-.6 9s-5.3-.8-6.7 5.4-4 9-4 9-8.8 7.3-9.2 13.5l-5.4 3.3s-12.6-2.9-15.5-7.9c0 0-.3-.3-.9-.8l-.1-.1v.1c-1.9-1.8-5.9-5.5-5.3-4.6.4.8.5 1.7.3 2.6l-.9-1-2.5-2.8s-3.6-3.4-8.6-7.4c-1.2-.9-2.4-1.9-3.7-2.8-6.5-4.8-14.2-9.6-20-10.4-.1-.2-.6-2-1.7-2-.5 0-.9.3-1.2.6-6.8 6.2-7.2 16.7-1 23.5.3.3.6.6.9.9l1.3 1.2 4.1 3.8 13.7 12.8c.2.1.3.2.5.4l.8 1 .6.8 1.1 1.4 1.6 2c-.1.2-.2.4-.2.6-.6 1.4-1.1 2.8-1.5 4.1v.1c-.1.3-.2.6-.3.9 0 .1-.1.2-.1.3-.1.3-.2.6-.3.9s-.1.4-.1.5-.1.2-.1.3c-.5 1.6-.7 2.8-.9 3.5l-1.1-.3 1 .5v.2l-.1.3c.3.1.6.3 1 .4l.2.1 3.9 1.7c.8.4 1.7.7 2.6 1.1s1.6.7 2.5 1.1c10.2 4.6 24.6 11.1 25.6 12.4 1.6 2.1 12.1 8.1 21.7 3s11.6-12.8 11.6-12.8 9.3-12.8 9.6-14.7c.2-1.5 4.5-3.1 6.5-3.8l.2-.1.8-.3v1.1 1.3c0 4.5-.1 14.2-1.5 21.2v.1c-.3 1.8-.8 3.6-1.6 5.3-3.7 7.8-10.5 42.1-10.5 42.1h.2c.4-.1.8-.1 1.2-.1-.1.6-.2 1.1-.3 1.5s-.1.5-.1.5h.1c.4-.1.8-.1 1.2-.1h.4c0 .2-.1.4-.1.7v.1s0 .1 0 .1-.1.3-.1.5c-.8 5.7-3.2 20.6-3.2 20.6s-1 8.2-2.6 11.1c-.7 1.2-1.1 4.6-1.3 8 0 .5-.1 1-.1 1.5-.3 4.2-.3 8.2-.3 8.2l-.1.3-2.3 10.7c0 .1.1.2.1.3.2.3.4.9.8 1.5l.1.3c1.4 2.9 3.3 5.5 5.5 7.8.5.5 1.1 1 1.7 1.4 0 .1 0 .2-.1.3s-.1.4-.1.6c-.2 1.4-.6 2.7-1.1 4-.6 1.4-1 2.9-1.1 4.4-.1 1.1-.2 2.2-.1 3.2l-.1.6c-.3 1.6-1.3 6.4-1.9 10.3-.1.9-.2 1.8-.3 2.6-.1.7-.1 1.5 0 2.2.1 1.3 0 2.5-.2 3.7 0 .4-.1.7-.1 1.1-.5 3.5-1.4 7.2-1.4 7.2l-2.9 27.5v.5.6s0 .4 0 .6 0 .5-.1.7c0 .7-.1 1.4-.2 2.3 0 .3 0 .7-.1 1 0 .3 0 .6-.1 1v.5s0 .5 0 .8 0 .5 0 .8 0 .5 0 .7c-.1 1.5-.2 3.1-.3 4.7v.8.8c0 .5 0 1-.1 1.5v1s0 .9 0 1.4v.3.9 2 .8 2.6 1.2c0 1.1.1 2.1.2 3.2.1.8.2 1.6.2 2.4v1.2.6.6s0 .5 0 .8v1.2.5s0 .6 0 .9v.5c-.2 3.4-.7 6.2-.8 6.7v.3s0 .2 0 .2 0 .2 0 .3 0 .1 0 .2c0 .2.1.6.1.9v.5c0 .2 0 .4.1.6s0 .2 0 .3c0 .4.1.7.1 1.1s.1.8.1 1.2l.1.8c0 .4.1.8.1 1.2v.4c0 .3.1.5.1.8l.1 1.2c0 .3.1.5.1.8s0 .3 0 .4l.1 1.6v.8c0 .4.1.8.1 1.2s0 .9.1 1.3 0 .8.1 1.2c.1 1.1.1 2.3 0 3.4-.3 1.1-1.1 4.3-1.6 7.8 0 .3-.1.6-.1.9s0 .4 0 .6l-.1.8c0 .6-.1 1.2-.1 1.8 0 1.3.1 2.7.5 4 .2.9.4 1.7.5 2.6v.4c0 .3.1.7.1 1s0 .7.1 1c0 .7.1 1.4.1 2.2v1.5c.1 4.2-.1 8.3-.2 9.4v.1.2s1 17.8 2.1 23.4c.1.8.2 1.5.3 2.3v.9c.1 3.3-.1 6.6-.7 9.8 0 0-1.1 12.2-1.6 12.2-.2 0-1.3 1.9-1.4 4.7v.1c-.1 3.2.8 7.5 5.2 11.8l.5.5.6-.2c4.7-1.7 9.3-3.4 14-5.2 2.5-1 4.9-1.9 7.4-2.9 6.1-2.4 12.1-4.9 18-7.4-.3-.1-.5-.4-.6-.7-.9-2.5.5-10 .7-11.2s2.9-25.8 2.9-25.8-1-7.8.3-11.1-1.6-16.2-1.6-16.2-1-1.6.8-3.5 1.1-18.8 1.1-18.8-.2-8.6-.2-10.8 1.9-10.3 3.7-13 .7-11.1.7-11.1l.1-.6c0-.2.1-.5.1-.9l.2-.8c.8-4.6 1.8-9.2 3.1-13.8 2.1-6.7 4.5-18.4 4.5-18.4l14-37.4.5-1.2.2-.5s6.8 12.7 6.8 24.4c0 0 1.8 14.1 1.3 17.9s1.4 21.7 1.4 21.7 2.1 25.7 2.1 26.8 2.6 20.8 4.2 23.8-1.6 12.2-2.5 13.2.3 24.2.3 24.2-2.4 18.4-2.9 22.2c-.1.7-.2 1.7-.4 3 16-7.7 31.8-15.8 47.1-24.6.7-.4 1.3-.7 2-1.1l.1-22.7s1.1-10.6-.2-14.9-2.6-12.5-.8-14.7.2-12.5.2-12.5 0-21.7 2.4-27.1 1.6-39.4 1.6-39.4l.6-22.3s5.1-4.8 4-29.8c0-.3 0-.6 0-.8 5.6-.3 11.8-.5 12.8.2 1.5 1.2 10.1 6.8 16.7 5.4 1.1-.2 2.1-.6 3.1-1.3 1.4-.6 8-6.2 8-6.2l-2.5-42.7-.3-4.8c.5.7.9 1.4 1.3 2 1 1.5 1.6 2.5 1.6 2.5 0-6.6 18.8-28.2 18.8-28.2s17.6-22.6 21.4-25.4 11.3-17 11.3-17c1.1-2.7 2.4-5.4 3.8-7.9s-4.4-10.1-3.8-11.8zm-56.1 30.4c-.3 1.6-1.1 3-2.1 4.3-.1-1-.2-1.9-.2-2.9 0-.1 0-.2 0-.3-1.1-13.9-2.3-30.8-1.8-32.5.4-1.3.6-4.8.7-8.2.1-3.8 0-7.5 0-7.5l.2-.2c3.2 10 13.2 21.7 13.2 21.7s1.8 5.1 3.8 5.2 1.3 6.6 1.3 6.6c-1 .2-1.9.5-2.7 1-1 .6-1.9 1.2-2.8 1.9-4.7 3.6-9.5 9.3-9.6 10.9z" fill="url(#b)"/><path d="m811.6 353.8s5.8-30.5 24.5-30.7l13.7 28.1-9.2 6.3s-19.8.6-29-3.7z" fill="#65617d"/><path d="m849.7 351.2-9.2 6.3s-13.9.4-23.9-2c-1.8-.4-3.5-1-5.1-1.7 0 0 0-.2.1-.5v-.1c.9-3.8 2-7.6 3.5-11.2.6-1.4 1.2-2.8 1.9-4.2 2.7-5.3 6.6-10.4 11.9-13 1.9-1 4.1-1.5 6.2-1.6h.6.3l.3.6 4.6 9.5z" opacity=".1"/><path d="m1005 477.9s19.7-1.9 21.4-.5 12.9 8.7 19.5 4.1 2.2-20.4 2.2-21.1-.6-23.1-.6-23.1l-11.8-15.9-14.8-27.8-30.2-3 .8 44.2-.2 22.6z" fill="#65617d"/><path d="m1005 477.9s19.7-1.9 21.4-.5 12.9 8.7 19.5 4.1 2.2-20.4 2.2-21.1-.6-23.1-.6-23.1l-11.8-15.9-14.8-27.8-30.2-3 .8 44.2-.2 22.6z" opacity=".1"/><path d="m832.1 322.3s-1.5 19.2-13.5 19.5c0 0-3.4-2-7.9-5.5-10.5-7.9-27.2-23-22.5-37 6.6-20.1 38.7 17 38.7 17l2.5 2.8z" fill="#a5636d"/><path d="m832.1 322.3s-1.5 19.2-13.5 19.5c0 0-3.4-2-7.9-5.5l-1-1.3c2 1.1 4.3 1.7 6.5 1.8 3 .1 6.4-1 8.5-5.4 1.3-2.5 2.4-5 3.3-7.6.6-1.5 1-3.1 1.2-4.7z" opacity=".1"/><path d="m826.9 357-2.7-3.5-9-11.6-4.7-6c2 1.1 4.3 1.7 6.5 1.8 3 .1 6.4-1 8.5-5.4 1.3-2.5 2.4-5 3.3-7.6 1.5-4.2 1.5-6.4.9-7.2s3.3 2.9 5.2 4.6l.1.1.9.8.3.6 4.5 9.1v.4c.6 3 2.1 21.3-13.8 23.9z" fill="#e7effd"/><path d="m918.2 704.8c-.3-.2-.6-.5-.9-.6h-.1c-1.9-.8-.2-10.5.2-11.8s2.8-25.6 2.8-25.6-.9-7.7.3-11-1.6-16-1.6-16-.9-1.6.8-3.5 1.1-18.7 1.1-18.7-.2-8.5-.2-10.7 1.9-10.2 3.6-12.9.6-11 .6-11l.1-.6c0-.2.1-.5.1-.9l.2-.8c0-.2.1-.4.1-.6.1-.5.2-1 .3-1.6.1-.4.1-.7.2-1.1.2-1.2.5-2.5.8-3.9.1-.4.2-.8.3-1.3s.2-1 .4-1.5c.1-.3.2-.6.2-.9.2-.9.5-1.8.8-2.7 2-6.6 4.4-18.2 4.4-18.2l14.6-38.4.2-.5.5.9c1.5 3.1 6.3 13.5 6.3 23.3 0 0 1.7 14 1.3 17.8s1.4 21.5 1.4 21.5 2 25.5 2 26.6 2.5 20.8 4.1 23.7-1.6 12.1-2.5 13 .3 24.1.3 24.1-2.4 18.2-2.8 22c-.1.9-.3 2.4-.5 4.3l1.2-.6.2-.1c16-7.7 31.8-15.8 47.1-24.6l.1-24.1s1.1-10.5-.2-14.8-2.5-12.4-.8-14.6.2-12.4.2-12.4 0-21.5 2.3-26.9 1.6-39.2 1.6-39.2l.6-22.2s5.1-4.9 3.9-30.4c-.1-2.7-.3-5.7-.6-8.9-.9-9.6-1.8-18.3-2.6-25.9-.1-.7-.1-1.3-.2-1.9-.1-.8-.2-1.7-.3-2.5-.2-1.7-.4-3.4-.6-4.9-.1-.5-.1-.9-.2-1.4-.3-2.2-.5-4.3-.7-6.2-.1-.7-.2-1.5-.3-2.2-.1-1-.2-2-.4-2.9 0-.2-.1-.4-.1-.7 0-.4-.1-.8-.1-1.1-.5-4.1-.8-6.3-.8-6.3h-.1l-15.8.1-34.5.3h-1l-18 .2h-1.1l-8.6.1h-1.5l-18 .2h-1.1l-7.4 30.5-15.1 34.6s-.2 3.8-.8 7.5v.2c0 .1 0 .2-.1.4s-.1.4-.1.6c-.2 1.7-.6 3.3-1.3 4.9-.5 1.1-.8 2.3-1 3.5-.2 1.3-.3 2.5-.2 3.8v.2s-1.2 5.5-1.9 10.1c-.1.9-.2 1.8-.3 2.6-.1 1-.2 2-.1 2.9.1 1 0 2-.1 3 0 .4-.1.7-.1 1.1-.5 3.7-1.5 7.8-1.5 7.8l-2.8 27.4v.1.6s0 .4 0 .6 0 .5-.1.7c0 .7-.1 1.4-.2 2.3 0 .3 0 .7-.1 1 0 .3 0 .6-.1 1v.5s0 .5 0 .8 0 .5 0 .8 0 .5 0 .7c-.1 1.5-.2 3.1-.2 4.7v.8.8c0 .5 0 1-.1 1.5v1s0 .9 0 1.4v.4.9 2 .8 2.6 1.2c0 1.1.1 2.2.2 3.3.1.7.2 1.5.2 2.3v1.2s0 .8 0 1.2 0 .5 0 .8v1.2.5s0 .6 0 .9v.5c-.2 3.4-.7 6.2-.8 6.7v.3s0 .2 0 .2 0 .2 0 .3 0 .1 0 .2c0 .2.1.6.1.9v.5c0 .2 0 .4.1.6s0 .2 0 .3c0 .4.1.7.1 1.1s.1.8.1 1.2l.1.8c0 .4.1.8.1 1.2v.4c0 .3.1.5.1.8l.1 1.2c0 .3.1.5.1.8v.4l.1 1.6v.8c0 .4.1.8.1 1.2s0 .9.1 1.3 0 .8.1 1.2c.1 1.1.1 2.2 0 3.3-.7 2.6-1.2 5.2-1.6 7.9 0 .3-.1.6-.1.9s0 .4 0 .6l-.1.8c0 .6-.1 1.2-.1 1.8 0 1.3.1 2.5.5 3.8.3 1.1.5 2.2.5 3.3.1.6.1 1.3.2 2s.1 1.4.1 2.2v1.5c.1 4.8-.2 9.3-.2 9.3v.1.1c.1 2 1 17.8 2 23.1.2.9.3 1.9.3 2.8v.9c.1 3.1-.2 6.2-.7 9.2 0 0-1.5 12.2-1.9 12.2-.2 0-1.4 2.2-1.4 5.5v.1c0 3.1 1.2 7 5.2 11l1.1 1.1c4.7-1.7 9.3-3.4 14-5.2 2.5-1 4.9-1.9 7.4-2.9 6.1-2.4 12.1-4.9 18-7.4z" fill="#3f3d56"/><path d="m1000.6 232.3-23.3 24.8s-29.9-12-26.7-16c1.2-1.6 1-6.6.3-12.1-1.1-8.7-3.5-18.7-3.5-18.7s52.2-8.5 47.8.3c-1.6 3.2-1.3 7-.3 10.4 1.3 4.2 3.3 7.9 5.7 11.3z" fill="#a5636d"/><path d="m995.3 210.7c-1.6 3.2-2.4 3.5-1.4 7-6.8 7.3-15.5 15.3-26.3 15.3-5.8 0-11.5-1.3-16.7-3.9-1.1-8.7-3.5-18.7-3.5-18.7s52.3-8.6 47.9.3z" opacity=".1"/><path d="m1005 194.6c0 20.7-16.7 37.4-37.4 37.5-20.7 0-37.4-16.7-37.5-37.4 0 0 0 0 0-.1 0-.2 0-.4 0-.5.5-20.7 17.6-37 38.2-36.6 20.4.4 36.6 16.9 36.7 37.1z" fill="#a5636d"/><path d="m1010.5 441.5c-5 0-21.5.2-39.9.5h-.2l-6.1.1h-.3c-21.9.3-43.4-3.9-52.1-3.1-18.4 1.7 6.6-17 6.6-17 13.7 3.3 27.8 4.8 41.9 4.2l5.3-.3c16.7-.9 33.5-2.5 42.3-5.1.7 4.8 1.6 11.9 2.5 20.7z" opacity=".1"/><path d="m1010.5 440.5c-5 0-21.5.2-39.9.5h-.2l-6.1.1h-.3c-21.9.3-43.4-3.9-52.1-3.1-18.4 1.7 6.6-17 6.6-17 13.7 3.3 27.8 4.7 41.9 4.2l5.3-.3c16.7-.9 33.5-2.5 42.3-5.1.7 4.9 1.6 12 2.5 20.7z" fill="#5f5d7e"/><path d="m957.6 242.8-28.9 13.5-22.3 172.6s13.2-6 20.8-2.2 30.8.3 30.8.3 17-1 19.5.9 32.1-7.9 32.1-7.9 5.3-12 1.2-13.8 1.3-20.5 1.3-20.5l-2.5-124.5-5-16-13.5-8.2-13.8 11-6.6 1z" opacity=".1"/><path d="m957.6 240.8-28.9 13.5-22.4 172.7s13.2-6 20.8-2.2 30.8.3 30.8.3 17-.9 19.5.9 32.1-7.9 32.1-7.9 5.3-11.9 1.2-13.8 1.3-20.4 1.3-20.4l-2.5-124.5-5-16-13.5-8.2-13.8 11-6.6.9z" fill="#e7effd"/><path d="m957.1 248.9s8.3 9.9 8.2 11.9-.5 6.9-.5 6.9l-6.2 12.7s-3.5 15.9-3.5 19.2-5.5 31.9-5.5 31.9l-6.6 44-8.3 57.7 8.5 14.6 10.1-8.5 13.4-102.8 2.8-20.3s3-36.5 3-40.2-1.7-13.7-1.7-13.7 2-9.4 10.5-11.6-.6-.5-.6-.5l-4.9-3.9-4.2 1.7c-.1.1-12-3.5-14.5.9z" opacity=".1"/><path d="m956.2 247.9s8.3 9.9 8.2 11.9-.5 6.9-.5 6.9l-6.3 12.7s-3.5 15.9-3.5 19.2-5.5 31.9-5.5 31.9l-6.6 44-8.3 57.7 8.5 14.6 10.1-8.5 13.4-102.8 2.8-20.3s3-36.5 3-40.2-1.7-13.7-1.7-13.7 2-9.4 10.5-11.6-.6-.5-.6-.5l-4.9-3.9-4.2 1.7c-.1.1-11.9-3.5-14.4.9z" fill="#0c69a3"/><path d="m950.7 231.4s-1.3.9-1.6 7.2-4.7 20.4-4.7 20.4 16.3-11.3 24.5-10.1z" opacity=".1"/><path d="m950.7 229.5s-1.3 1-1.6 7.2-4.7 20.4-4.7 20.4 16.3-11.3 24.5-10.1z" fill="#e7effd"/><path d="m995.3 226.4-25.7 22.6s21.7 12.9 24.5 16 5.7-30.8 5.7-30.8z" opacity=".1"/><path d="m996.2 224.5-25.8 22.6s21.7 12.9 24.5 16 5.7-30.8 5.7-30.8z" fill="#e7effd"/><path d="m951.6 231.4s-2.8-1.4-5.5 2.7-7.7 6-7.7 6-28.6 4.6-29.7 8.3l-13.4.8s-4.7.6-5.2 10.6c-.4 10-3 10.8-3 10.8s-5.5 9.8-5 14.8-4.2 7.5-4.2 7.5l19.7 51s.6 21.1-3 28.8-10.4 41.8-10.4 41.8 2.8-.6 2.7 1.3-3.5 22.5-3.5 22.5-.9 8.2-2.5 11-1.7 17.6-1.7 17.6l-2.6 10.7s6 13.4 15.1 11.5 25.6-37.6 25.6-37.6l10.5-38.5 8.2-38 2.4-25.8 3.8-57.1 5.5-37.7c-.1 0 6.1-20.3 3.9-23z" opacity=".1"/><path d="m950.7 229.5s-2.8-1.4-5.5 2.7-7.7 6-7.7 6-28.6 4.6-29.7 8.3l-13.4.8s-4.7.6-5.2 10.5-3 10.9-3 10.9-5.5 9.8-5 14.8-4.2 7.5-4.2 7.5l19.6 51.1s.6 21.1-3 28.8-10.4 41.8-10.4 41.8 2.8-.6 2.7 1.3-3.5 22.5-3.5 22.5-.9 8.2-2.5 11-1.7 17.6-1.7 17.6l-2.5 10.7s6 13.4 15.1 11.5 25.6-37.6 25.6-37.6l10.5-38.5 8.2-38 2.3-25.8 3.8-57.1 5.5-37.7s6.1-20.4 4-23.1z" fill="#65617d"/><path d="m849.7 351.2-9.2 6.3s-13.9.4-23.9-2l-5.1-2.2-1-.5 1 .3c5.3 1.6 9.4 1.5 12.6.5 12.9-4.3 11.5-25.6 11-30.5 0-.5-.1-.8-.1-.9 0 0 0 0 0-.1l.1.1c.2.3.4.6.6.8s.4.4.6.6l4.5 9.1v.4z" opacity=".1"/><path d="m881.3 289.8-4.4 1.3-.6 9s-5.2-.8-6.6 5.4-3.9 9-3.9 9-8.7 7.2-9.1 13.4l-5.3 3.3s-12.4-2.8-15.2-7.9c0 0 5.7 40.6-24.5 30.7 0 0 33.8 14.8 35.4 16.8s12 8 21.4 3 11.5-12.9 11.5-12.9 9.1-12.7 9.4-14.6 7.4-4.1 7.4-4.1l13.5-32.7z" fill="#65617d"/><path d="m991.7 245.2 4.6-20.8s2 6.8 4.1 8.3c2.1 1.6 6.8 5.2 6.8 5.2s6.8 3.1 9.1 3.1 15.1 3.3 16.7 5 7.9.5 7.9.5 5.2 1.7 9.8 2.8 6.8 8.6 5.8 11.6c-.8 3 .1 6.2 2.2 8.5 1.9 1.9 2.8 8 2.8 8 2.3.8 4.2 2.4 5.3 4.6 1.6 3.5 1.1 11 1.1 11l-23.4 33s.3 12.7-.6 15.6 3.3 50.9 3.3 50.9l4.9 82.7s-6.4 5.5-7.9 6.1-2.8-29.2-2.8-30.3-36.3-54.4-36.3-54.4-4.9-7.9-4.9-9.6-4.6-17.6-4.6-17.6l-6.9-30.6z" opacity=".1"/><path d="m1069.7 291.4c0 1.1-.1 1.8-.1 1.8l-23.4 33s.3 12.7-.6 15.6c-.6 1.6.7 18.6 1.8 32.5.8 10 1.5 18.5 1.5 18.5l2.1 35.1 2.8 47.6s-6.4 5.5-7.8 6.1-2.8-29.2-2.8-30.3-36.3-54.4-36.3-54.4-4.9-7.9-4.9-9.6-4.6-17.6-4.6-17.6l-6.9-30.6 3.1-93.7 2.7-20.8s3.9 6.8 6 8.3 6.8 5.2 6.8 5.2 6.8 3.1 9.1 3.1 15.1 3.3 16.7 5 7.9.5 7.9.5 5.2 1.7 9.7 2.8 6.8 8.6 5.8 11.6c-.8 3 .1 6.2 2.2 8.5 1.9 1.9 2.8 8 2.8 8 2.3.8 4.2 2.4 5.3 4.6 1.1 2.4 1.2 6.7 1.1 9.2z" fill="#65617d"/><path d="m899.8 712.3c-2.5 1-4.9 1.9-7.4 2.9-7.7-2.2-14.9-4.9-14.9-4.9 7.5.2 14.9.9 22.3 2z" opacity=".1"/><path d="m974.2 628.4s18.7 4.4 19.8 7.4z" opacity=".1"/><path d="m902.1 641.9s-9.8 2.8-.3 8.5.3-8.5.3-8.5z" opacity=".1"/><path d="m945.3 490.8c1.1 0 18.2-5.7 24.2-3.1s13.4 2.5 13.4 2.5z" opacity=".1"/><path d="m947.6 508.8-.2 1.6-14.7 38.3s-2.4 11.6-4.4 18.2c-1.3 4.5-2.3 9-3.1 13.7l13-80.5z" opacity=".1"/><path d="m970.3 441-6.1.1h-.2l-3.6-15.9c1.8-.1 3.5-.2 5.3-.3z" fill="#3f3d56"/><path d="m1044.5 421.8-3.9 3.2-13 10.8s-35.4 18.9-45.1.9c-8.6-15.8 31.5-27.1 41.2-29.5 1.3-.3 2.1-.5 2.1-.5z" fill="#a5636d"/><path d="m893.4 267.2s6.9 3.1 8.5 7.5-8.5-7.5-8.5-7.5z" opacity=".1"/><path d="m872 314.4s-10.1 12.3-6 17 6-17 6-17z" opacity=".1"/><path d="m1051.9 274.2s-9.4.9-9.8 9.1z" opacity=".1"/><path d="m964.5 403.1c1-.9 22.6-33 27.7-30.2z" opacity=".1"/><path d="m1005 194.6c0 6.2-1.5 12.2-4.4 17.7h-.3c-2.4-.5-3.6-3.3-5.4-5-2.3-2.2-5.7-2.6-8.5-1.2-2.8 1.7-4.4 4.8-4.2 8.1-1.2-5-.8-10.4-2-15.4s-4.7-10.1-9.5-10.2c-2.1 0-4.5.8-6-.8-.9-.9-1.1-2.4-1.8-3.6-3.5-5.6-13.9-2.8-18.2.1s-9.2 7.4-14.6 9.9c.5-20.7 17.6-37 38.2-36.6 20.4.4 36.6 16.8 36.7 37z" opacity=".1"/><path d="m963 183.2c.7 1.1.9 2.6 1.8 3.6 1.5 1.5 3.9.8 6 .8 4.8.1 8.3 5.2 9.5 10.2s.8 10.4 2 15.4c-.3-3.3 1.4-6.4 4.2-8.1 2.8-1.5 6.2-1 8.5 1.2 1.8 1.7 3 4.5 5.4 5s4.7-1.8 5.5-4.3.8-5.2 1.3-7.8c1.1-4.9 4.3-8.9 6-13.6 2.1-5.7 2.1-11.9-.2-17.6-1.2-3-2.9-5.6-4.1-8.6-1.8-4.5-2.3-9.5-4.5-13.8-3.7-7.1-12.4-10.7-19.6-8-3.4 1.3-6.4 3.8-9.9 4.9-4.6 1.5-9.6.4-14.4-.3s-10.1-.7-14 2.4c-4.5 3.6-5.7 10.5-9.8 14.5-1.8 1.7-3.9 2.8-5.8 4.3s-3.5 3.9-3.2 6.4c.3 3.3 3.5 6.2 2.3 9.2-.4.9-1 1.7-1.8 2.3-3.5 3.7-6.1 8.1-7.6 12.9 8.4 2.6 17.5-6.6 24.1-11 4.4-2.8 14.9-5.6 18.3 0z" fill="#4c3e42"/><path d="m1044.5 421.8-3.9 3.2c-3.4-5.8-17.6-17.2-17.6-17.2l.6-.6c1.3-.3 2.1-.5 2.1-.5z" opacity=".1"/><path d="m1048.3 416s-1.4 3.5-2.9 6.5-3 5.8-3.1 3.5c-.2-4.4-18.4-19.2-18.4-19.2l2.5-2.4 2.9-2.8z" fill="#e7effd"/><path d="m1048.9 392.7 2.1 35.1c-4.9-7.6-18.3-27.1-26.9-26.4l20.9-24c.9-1 1.7-2 2.4-3.1.8 9.9 1.5 18.4 1.5 18.4z" opacity=".1"/><path d="m1048.3 416s-1.4 3.5-2.9 6.5c-5.5-7.5-13-16.4-19-18l2.9-2.8z" opacity=".1"/><path d="m1064 288.8 5.7 4.4s9.4.2 10.4 8 9.6 11.5 9.6 11.5 6.4 6.4 6.4 9.4 4.9 8.3 4.9 8.8 4.7 10.1 4.1 11.8 5 9.3 3.3 12.1c-1.4 2.5-2.7 5.2-3.8 7.9 0 0-7.4 14.1-11.2 16.8s-21.1 25.1-21.1 25.1-18.6 21.4-18.6 28c0 0-18.1-30.2-28.8-29.4l20.9-24s3.6-3.9 3.8-6.3 10.1-13.2 14.8-13.7c0 0 .8-6.5-1.3-6.6s-3.8-5.2-3.8-5.2-13.8-16.4-14-26.7 18.7-31.9 18.7-31.9z" fill="#65617d"/><path d="m1072.3 303.8s-13.2 9.7-10.4 12.9 10.4-12.9 10.4-12.9z" opacity=".1"/><path d="m1073 344s24.5-7.9 27 0z" opacity=".1"/><path d="m900 301.8s0 35.8-3.1 39.4 3.1-39.4 3.1-39.4z" opacity=".1"/><path d="m1041.7 313.4 4.6 12.8c-.1 0 1.7-12.6-4.6-12.8z" opacity=".1"/><g opacity=".1"><path d="m930.6 176c1.2-2.9-1.9-5.8-2.3-9-.4.9-.6 1.9-.5 2.8.2 2.4 2 4.6 2.4 6.8.2-.2.3-.4.4-.6z"/><path d="m982.7 209.8c-1.1-5-.8-10.2-1.9-15.2s-4.7-10.2-9.5-10.2c-2.1 0-4.5.8-6-.8-.9-.9-1.1-2.4-1.8-3.6-3.4-5.6-13.9-2.8-18.2.1-6.4 4.3-15.3 13.2-23.5 11.2-.4 1-.8 1.9-1.1 2.9 8.4 2.6 17.5-6.6 24.1-11 4.3-2.9 14.8-5.7 18.2-.1.7 1.1.9 2.6 1.8 3.6 1.5 1.5 3.9.8 6 .8 4.8.1 8.3 5.2 9.5 10.2s.8 10.4 2 15.4c-.1-1 0-2.2.4-3.3z"/><path d="m1006.3 203.9c-.9 2.5-3.1 4.8-5.5 4.3s-3.6-3.3-5.4-5c-2.3-2.2-5.7-2.6-8.5-1.2-2.7 1.6-4.3 4.5-4.2 7.6.6-1.9 1.9-3.5 3.7-4.5 2.8-1.5 6.2-1 8.5 1.2 1.8 1.7 3 4.5 5.4 5s4.7-1.8 5.5-4.3c.4-1.5.7-3 .9-4.5-.1.5-.2 1-.4 1.4z"/><path d="m1013.7 182.5c-1.8 4.7-5 8.7-6 13.6-.2 1-.3 2-.5 3 1.1-4.9 4.3-8.9 6-13.5.8-2.1 1.3-4.3 1.4-6.5-.1 1.1-.5 2.3-.9 3.4z"/></g><circle cx="786.5" cy="296" fill="#e6e8ec" r=".4"/><path d="m470.9 515.9s-2.9 13.2 6 21.8c0 0 5-5.6-.7-18.6z" fill="#0967d2"/><path d="m307.4 437.3c-2.4 1-4.8 1.7-7.3 2.2-4.4.8-8.8 1.2-13.2 1.2.1 1.2.2 2.3.3 3.2.2 2.7.4 4.6.4 4.6l-4.7-.3-38.7-2.6-22.6-3.3c1.1 1.5 2.3 2.9 3.6 4.2 1.3 1.4 2.8 2.6 4.5 3.5 0 0 20.4 16.5 23.9 16.7.5 0 .7.5.6 1.3 8.6 0 35.3 1.2 27.9 16.1-1.2 2.7-3.4 4.8-6.1 5.9-8.6 3.6-21.5-2.9-28.2-6.9-.6 1.3-1.3 2.5-1.8 3.5-1.1 2.1-1.9 3.5-1.9 3.5l-.7-.5-34.3-24.4-7.5-6.4c-2.2-.1-4.4-.5-6.5-1.1l-1-.3c0 .1-.1.2-.1.3-.3.8-.5 1.6-.6 2.4v.4c-.1.9-.2 1.9-.3 2.8 0 .6-.1 1.3-.1 2-.1 13.6 5.4 35.5 5.4 35.5s14.1 36.1 9.1 44.4c-.3.4-.6.8-1 1.1-1.8 1.3-2.8 3.6-3.4 6.3-1.9 8.8 1.4 22.3 1.4 22.3s-.3.5-.8 1.3c-1.1 1.8-2.3 3.4-3.7 5-.2.2-.4.5-.7.7-.6.7-1.3 1.3-2 1.8.1.4.3.8.4 1.2s.3 1.1.5 1.7c1.1 4.9.7 10.1-1.2 14.7-1.3 3.4-2.2 6.9-2.5 10.6-.7 6.6-.5 13.3.5 19.9-.1-.1-.3-.2-.4-.2-11.1-5.8-22-11.8-32.7-18.1-3.1-1.8-6.3-3.7-9.4-5.5-3.8-2.3-7.6-4.6-11.4-7-5-3.1-10-6.3-15-9.6l-2.3-1.6-.9-.6c-1.3-.8-2.5-1.7-3.8-2.6-5.2-6.7-9.9-13.7-14.1-21-.7-1.3-1.4-2.5-1.9-3.6v-.1l-.3-.7-1.4-.5c-2.7-.9-4.3-1.6-4.3-1.6 1.2-4.5 1.8-9.1 1.7-13.7-.1-9-2.6-21-12.8-30.6-15.2-14.3-17.2-28.5-17.5-33.9 0-.4 0-.7 0-1 0-.5 0-.9.1-1.4l1.2-1.1c-2.9-.6-5.7-.9-5.7-.9s10.1-36.4 27-48.5c8.4-6 15.4-16 20.3-24.6 9-15.5 19.1-30.3 30.3-44.4l3.1-3.9.9-1.1.2-.2.2-.3c-.4-.6-.8-1.2-1.3-1.9l-.3-.4c-1.3-2-2.5-4-2.3-6.4 0 0 0 0 0-.1 0-.2 0-.3 0-.5 0-.4.1-.8.2-1.2 0 .1.1.1.1.2 1.4-4.2 6.9-6 11-8.3 9.6-5.4 13.6-17.1 15.7-28.1 1.6-8.5 2.9-18.1 9.5-23.5 4.3-3.5 10-4.7 14.3-8.2 2.5-2.2 4.6-4.9 6.1-7.8 1-1.7 1.9-3.5 2.8-5.2 4.3-7.7 9.9-14.9 17.3-19.5s16.8-6.4 24.9-3.3c3.1 1.2 6 3 9 4.3 1.9.8 3.8 1.4 5.7 1.8 6.1 1.4 12.5 1.8 18.3 4.4 9.3 4.1 15.4 13.3 20.9 22 2.9 4.5 7.4 11.1 9.9 17.7 0-.2 0-.5 0-.7 1.2 2.9 1.9 6 2 9.2 0 1.3-.1 2.7-.4 4-.9 3.4-3.3 5.5-6.2 7.1l-.5.2c-.6.3-1.3.6-1.9.9-.1.5-.2 1.1-.3 1.6 0 .2-.1.5-.2.7-.1.6-.3 1.1-.4 1.7-2.1 7.1-6.3 13.5-12 18.3-3.9 3.4-8.5 6-13.4 7.6-.4.1-.7.2-1.1.3-.3.8-.7 1.6-1.3 2.3-.4.5-.8.9-1.4 1.3-.3.2-.7.4-1 .6-.1.1-.2.1-.3.1-3.6 1.6-8.5.4-12-2.1-.2-.1-.4-.3-.5-.4 0 .6-.1 1.2-.2 1.8s-.2 1-.3 1.5-.1.8-.2 1.1-.1.6-.2.9l-.1.5c-2 9.7-5.8 18.8-11.1 27.1-.8 1.2-1.6 2.3-2.5 3.4l-2.5 3.8v.5c.5 8.7-2.4 16.8-6.4 23.8-1.4 2.3-2.8 4.5-4.4 6.7l.6.3c5.6 3.2 16.6 8.9 23.6 8.4 0 0 26.4 3.4 29.5 1.7.4-.2.8.1 1.2.8 4.3-2.6 14.1-8.1 21.8-8.8 5.4-.5 9.8 1.3 10.6 8s-3.4 11.2-9 13.6z" fill="url(#c)"/><path d="m162.8 574.8c3.4 5.8 4 12.9 1.4 19.2-2.4 6.1-2.7 13.7-2.4 19.2-3.1-1.8-6.3-3.7-9.4-5.5-3.8-2.3-7.6-4.6-11.4-7-5-3.1-10-6.3-15-9.6l-2.3-1.6-.9-.6c-.1-.1-.2-.3-.3-.4-1.3-1.4-9.1-12.6-13.8-21.1-.8-1.6-1.6-3-2.1-4.3v-.1c-1-2.2-1.5-4-1.2-4.8.7-2.6 2.5-4.7 4.9-6 5.8-3 15-.2 24.1 4.2 7.9 4 15.4 8.6 22.5 13.7l.8.6.1.1c3 2.1 4.7 3.5 4.7 3.5s.2.2.3.5z" fill="#fbbebe"/><path d="m161.3 573.5c3.4 5.8 4 13 1.4 19.2-2.4 6.1-2.7 13.7-2.4 19.3-3.1-1.8-6.3-3.7-9.4-5.6-3.8-2.3-7.6-4.6-11.4-7-5-3.1-10-6.3-14.9-9.6l-2.3-1.6-.9-.6c-.1-.1-.2-.3-.3-.4-1.3-1.4-9.1-12.6-13.8-21.1-.8-1.6-1.6-3-2.1-4.3v-.1c-1-2.2-1.5-4-1.2-4.8.7-2.6 2.5-4.7 4.9-6 5.8-3 15-.2 24.1 4.2 7.9 4 15.4 8.6 22.5 13.7l.8.6.1.1c3 2.1 4.7 3.5 4.7 3.5s0 .2.2.5z" opacity=".05"/><path d="m198.1 597.8c-.3 1.7-.8 3.4-1.4 5-1.1 2.9-1.9 5.9-2.3 9-.8 6.5-.8 13.1.1 19.7-11.1-5.8-22-11.8-32.7-18.1-3.1-1.8-6.3-3.7-9.4-5.5-.7-5.3-1.7-10-2.8-11.2-1.5-1.6-9.9-13.6-15.2-23.2-.7-1.2-1.3-2.4-1.8-3.5-.2-.4-.4-.9-.6-1.3-1.4-2.9-2.1-5.2-1.7-6.2.7-2.4 2.1-4.5 4.1-5.9 8.9-6.5 27.3 2.3 41.5 11l.4.2c2.7 1.7 5.2 3.3 7.5 4.9l1.3.9c5.9 4 9.8 7.1 9.8 7.1 1 1.5 1.7 3.1 2.3 4.8.3.9.6 1.9.8 2.9.7 3 .7 6.2.1 9.4z" fill="#fbbebe"/><path d="m108.8 567.5c7.3 2.5 18 5.9 23.8 6 .6 0 1.2 0 1.8-.1 4.1-.6 16.8.3 28.4 1.4 4.7.4 9.1.8 12.9 1.2l9.3 1v-3.6c-2.6-1.8-5.6-3.8-8.8-5.8-14.2-8.8-32.9-17.8-41.8-11.2-12.6-6.1-25.4-9-29 1.8-.5 1.5 1.1 5 3.4 9.3z" opacity=".1"/><path d="m73.8 483.7c.2 5.4 2.2 19.4 16.7 33.5 18.5 18 10.6 43.9 10.6 43.9s22 8.6 31.5 8.9c.6 0 1.2 0 1.8-.1 5.7-.8 28.3 1.3 41.3 2.6l9.3 1v-76.5l-101.9-24.8-9.2 9.2c-.1.7-.1 1.5-.1 2.3z" fill="#5c5c8e"/><g opacity=".1"><path d="m183.4 572.5 1.7.2v.8l-9.3-1c-9.3-.9-23.6-2.3-33-2.7 6.4-.6 28 1.4 40.6 2.7z"/><path d="m73.9 481.4 9.2-9.2 6.2 1.5-7.7 7.7v2.3c.2 5.4 2.2 19.4 16.7 33.5 18.5 18 10.6 43.9 10.6 43.9s18.2 7.2 28.6 8.6c-1 0-2 .1-3 .2-.6.1-1.2.1-1.8.1-9.5-.2-31.5-8.9-31.5-8.9s7.9-25.9-10.6-43.9c-14.6-14.1-16.6-28.1-16.8-33.4 0-.8 0-1.6.1-2.4z"/></g><path d="m277.6 429.6s30.8-21.4 33.1-2.1-33.1 16.5-33.1 16.5z" fill="#fbbebe"/><path d="m224.4 415.5s16.7 11 25.9 10.4c0 0 25.2 3.4 28.1 1.7s4.7 24.4 4.7 24.4l-41.4-2.9-26.6-4s-13.3-8.1-13.3-15.1 22.6-14.5 22.6-14.5z" fill="#f7cddd"/><path d="m224.4 415.5s16.7 11 25.9 10.4c0 0 25.2 3.4 28.1 1.7s4.7 24.4 4.7 24.4l-41.4-2.9-26.6-4s-13.3-8.1-13.3-15.1 22.6-14.5 22.6-14.5z" fill="#0c69a3"/><path d="m248.8 471.1s37.5-1.5 29.1 15.9-36.8-3.7-36.8-3.7z" fill="#fbbebe"/><path d="m211.1 433.9s30.4-22.7 26.1-50.4-26.1 21.2-26.1 21.2z" fill="#0c69a3"/><path d="m219.6 308.4c0 10 3.9 19.5 10.8 26.7 3.7 3.9 8.2 6.9 13.2 8.9 1.6.7 3.3 1.2 4.9 1.6 1.8.5 3.6.8 5.5 1 1.3.1 2.6.2 4 .2 4.3 0 8.6-.7 12.6-2.2 20-7 30.6-28.8 23.7-48.9-7-20-28.8-30.6-48.9-23.7-15.5 5.5-25.9 20.1-25.8 36.4z" fill="#fbbebe"/><path d="m73.8 483.7c3.4.6 7.7 1.8 7.7 3.6 0 3 48 19.2 48 19.2s-1.8 4.2 3 11.4 43.8 48.6 43.8 48.6l-.1 1.2-.5 4.8-2.4 22.8s15-5.4 19.8-4.8c1.6.2 3.2-.8 4.8-2.2-.6-2.7-1.6-5.3-3.1-7.7 0 0-3.9-3.1-9.8-7.1v-76.5l-101.9-24.8-9.2 9.2c-.1.7-.1 1.5-.1 2.3z" opacity=".1"/><path d="m69.5 479.4s12 1.2 12 4.2 48 19.2 48 19.2-1.8 4.2 3 11.4 43.8 48.6 43.8 48.6l-3 28.8s15-5.4 19.8-4.8c2.1.3 4.5-1.7 6.5-4 1.6-1.9 3.1-4 4.3-6.2 0 0-5.4-22.8 1.8-28.2s-7.8-45-7.8-45-6.8-28.2-4.8-40.2c.1-.8.3-1.6.6-2.4 0-.1.1-.2.1-.3 4.3-11.5 50.3-108.4 50.3-108.4 0-2.7-.2-5.5-.6-8.2-.1-.8-.2-1.5-.4-2.3-.2-1.4-.5-2.9-.9-4.3-.3-.9-.5-1.8-.9-2.6-1.4-3.7-3.6-6.5-6.9-6.5 0 0-3.6-4-12-5.1-6.2-.8-15 0-27 5.1-28.2 12-34.8 12.6-34.8 12.6l-14.2 18.6-2.9 3.8c-10.7 13.9-20.3 28.6-28.9 43.9-4.7 8.5-11.4 18.4-19.4 24.3-16.1 12-25.7 48-25.7 48z" fill="#0c69a3"/><path d="m174.7 410.1s-40.1 9.9-55.6 34.9z" opacity=".1"/><path d="m162.3 453.9s-7.6 50.9-5.5 54.7c2.1 3.9 5.5-54.7 5.5-54.7z" opacity=".1"/><path d="m165 480c2.9 3.8 14.8 33.3 14.8 33.3l-3.4 49.5-3 28.8s15-5.4 19.8-4.8c2.1.3 4.5-1.7 6.5-4-3.1-16.9-9.8-52.2-11-52.8-1.6-.9-9.7-29.3-10.1-37.1s-11.7-25.6-11.7-25.6-4.8 8.9-1.9 12.7z" opacity=".1"/><path d="m176.3 431.4c.7 2.2 1.9 15.3 1.9 15.3.8 11.5 9.5 15.3 14.9 16.5.1-.8.3-1.6.6-2.4 3.6-10.2 50.4-108.6 50.4-108.6 0-5-.7-10-1.9-14.8-10.2-3-26.3 1.6-26.3 1.6-4.7-.6-19.9 29.6-19.9 29.6s-10.1 23.2-11.2 26.3 0 8.3-.4 10.1-5.2 3.4-5.9 5.9-.2 7.4-.7 8.3-2.2 10-1.5 12.2z" opacity=".1"/><path d="m179.9 429.6c.7 2.2 1.9 15.3 1.9 15.3.7 9.6 6.8 13.8 12 15.6 2.3.8 4.7 1.3 7.2 1.4l7.2 6.3 33.4 24.7s12.5-23 9.1-23.2-22.9-16.5-22.9-16.5c-6-3.2-11.9-13.8-14.7-19.3.2-.7.3-1.3.4-2 1.2-10.2 26.4-49.2 26.4-49.2s9.7-11.5 13.5-32.7c.1-.5.2-1 .3-1.5.1-.7.2-1.3.2-2 .5-8.2-5.5-11.1-12.5-11.9-3.7-.3-7.4-.2-11 .3s-7.3 1.2-10.8 2.1c-3-.4-10.5 12.2-15.3 21-2.6 4.8-4.5 8.6-4.5 8.6s-10.2 23.2-11.3 26.3 0 8.3-.4 10.1-5.2 3.4-5.9 5.9-.2 7.4-.7 8.3-2.3 10.2-1.6 12.4z" fill="#0c69a3"/><path d="m141.2 377.8c6.3 6.5 16.7 6.5 24.9 3.2s15.3-9.4 22.9-14c5-3 10.2-5.5 15.1-8.7.7-.5 1.4-.9 2.1-1.4 5.7-4 10.6-9.1 16.4-12.8 3.9-2.6 8.5-4.1 13.2-4.2 2.2 0 4.3.4 6.3 1.3.3.1.7.3 1 .5 1.9 1.1 3.7 2.5 5.3 4s3.2 3.1 5 4.5l.3-1.5c.1-.7.2-1.3.2-2 1.3.1 2.6.2 4 .2 4.3 0 8.6-.8 12.6-2.2 0-.2.1-.3.1-.5 1.4-7.6 4-15.6 10.1-19.8 3.5-2.5 9.2-3.5 14-5.4 5.9-20.4-5.9-41.7-26.3-47.5-20.4-5.9-41.7 5.9-47.5 26.3-2.4 8.4-1.9 17.3 1.5 25.4-6.2-.8-15 0-27 5.1-28.2 12-34.8 12.6-34.8 12.6l-14.1 18.6c1.5 2.3 3.3 4.6 3.4 7.4.4 5-4.5 8.4-8.7 10.9z" opacity=".1"/><path d="m280.8 320.8c-6.1 4.3-8.7 12.3-10.1 19.8-.5 2.4-.9 4.9-2.3 6.7-3.2 4.2-9.7 3-14 0s-7.5-7.6-12.2-9.7c-6.3-2.8-13.6-.8-19.5 2.9s-10.8 8.8-16.4 12.8c-5.5 3.9-11.6 6.6-17.3 10.1-7.7 4.7-14.7 10.7-22.9 14s-18.6 3.3-24.9-3.2c4.2-2.4 9.1-5.9 8.8-10.9s-6.2-8.8-5.8-14 6.5-7.2 10.9-9.8c9.1-5.3 13-17 15-27.8 1.5-8.4 2.8-17.9 9.1-23.3 4.1-3.5 9.6-4.6 13.7-8.1 3.9-3.3 6-8.2 8.5-12.8 4.1-7.6 9.4-14.7 16.5-19.3s16.1-6.3 23.8-3.2c3 1.2 5.7 3 8.6 4.3 7.3 3.2 15.7 2.7 22.9 6.1 8.9 4.1 14.7 13.2 20 21.8 4.5 7.4 13.4 20.4 10.9 29.9-2.6 9.5-16.7 9-23.3 13.7z" fill="#9aa5b1"/><g opacity=".1"><path d="m144.2 348.6c0-.4.1-.8.2-1.2 1.6 2.5 3.6 5 3.8 8 0 .7 0 1.4-.2 2-1.8-2.8-4.1-5.5-3.8-8.8z"/><path d="m164.3 369.6c8.3-3.3 15.3-9.4 22.9-14 5.7-3.5 11.8-6.2 17.3-10.1 5.7-4 10.6-9.1 16.4-12.8s13.2-5.7 19.5-2.9c4.7 2.1 8 6.6 12.2 9.7s10.7 4.2 14 0c1.5-1.9 1.9-4.4 2.3-6.7 1.4-7.6 4-15.6 10.1-19.8 6.6-4.6 20.6-4.1 23.2-13.9.4-1.7.5-3.5.3-5.3 1.6 4.3 2.5 8.7 1.5 12.5-2.5 9.8-16.6 9.2-23.2 13.9-6.1 4.3-8.7 12.3-10.1 19.8-.5 2.4-.9 4.9-2.3 6.7-3.2 4.2-9.7 3-14 0s-7.5-7.6-12.2-9.7c-6.3-2.8-13.6-.8-19.5 2.9s-10.8 8.8-16.4 12.8c-5.5 3.9-11.6 6.6-17.3 10.1-7.7 4.7-14.7 10.7-22.9 14s-18.6 3.3-24.9-3.2c1.6-.9 3.2-1.9 4.6-3.1 5.8 2.1 12.7 1.4 18.5-.9z"/></g><path d="m815.6 271.4-41-41.2c-8.4-8.6-22.2-8.7-30.8-.3 0 0-.1.1-.1.1l-257.5 255.2-108.9-109.7c-8.4-8.5-22.2-8.6-30.7-.2l-41.4 41c-8.5 8.5-8.6 22.3-.2 30.9l165.3 166.6c8.5 8.5 22.3 8.6 30.9.2l314.1-311.8c8.6-8.4 8.8-22.2.4-30.8-.1.1-.1 0-.1 0z" fill="#3acc6c"/><g fill="#0967d2" fill-opacity=".1"><circle cx="210.1" cy="136.8" r="32"/><circle cx="622.5" cy="90.4" r="41.8"/><circle cx="478.9" cy="340.5" r="18.8"/><circle cx="393.9" cy="94.7" r="8.9"/><circle cx="506.7" cy="710.3" r="8.9"/><circle cx="1033.7" cy="48.6" r="8.9"/><circle cx="768.4" cy="591.7" r="29.4"/></g></svg>