<svg clip-rule="evenodd" fill-rule="evenodd" stroke-miterlimit="10" viewBox="0 0 1098 821" xmlns="http://www.w3.org/2000/svg"><ellipse cx="570.71" cy="801.97" fill="#0967d2" fill-opacity=".098039" rx="348.83" ry="18.88"/><path d="m768.3 727.95-3 4.4-18.55 27.6-15.75 4.75-11.75-11.5.57-7.59 2.93-39.41s-72.7-42.77-79.2-50.77-31.5-15.25-31.5-15.25-38.25-17.75-52.5-48.75 23.75-35.75 23.75-35.75l142.75 136.52z" fill="#ffc1c7" fill-rule="nonzero"/><path d="m785.8 743.95-45.25 42.25s-26 5-49.25 1.5c-14.86-2.24-12-10.39-8.09-16l.07-.1c2.341-3.208 5.767-5.461 9.64-6.34 19.24-4.64 25.88-18.57 25.88-18.57l14 12 24.25-28.26 17.93 8.42z" fill="#575988" fill-rule="nonzero"/><path d="m729.8 778.69 45.18-39.33" fill="#fff" fill-rule="nonzero"/><path d="m774.98 738.87-10.65-5 1-1.52 3-4.4-42.28-35.75-142.75-136.5s-38 4.73-23.75 35.73 52.5 48.75 52.5 48.75 25 7.25 31.5 15.25 79.25 50.75 79.25 50.75l-2.93 39.41-.14 1.88-.93-.79s-6.64 13.93-25.88 18.57c-3.873.879-7.299 3.132-9.64 6.34l-.07.1c-4 5.6-6.77 13.75 8.09 16 23.25 3.5 49.25-1.5 49.25-1.5l45.25-42.25z" fill-opacity=".098039" fill-rule="nonzero"/><path d="m11.85 429.98c17.36 74.2 54.11 138.34 112.18 169.45 120.71 64.62 392.92 31.29 596.07-7 102.638-19.275 195.854-72.564 264.54-151.23zm1065.35-349.26h-111.47c-5.169-.167-9.33-4.464-9.33-9.635s4.161-9.468 9.33-9.635h19.27c-5.283 0-9.63-4.347-9.63-9.63s4.347-9.63 9.63-9.63h-13.76c-5.169-.167-9.33-4.464-9.33-9.635s4.161-9.468 9.33-9.635h58.18c-12.91-6-28-10.27-45.39-12.51-158.64-20.37-215.28-6.9-235.26 7-24.65 17.1-52.15 29.68-81.54 35.74-97.88 20.19-280.93 44.48-446.84-7.78-82.46-26-143.74 17.92-180.48 91.28h1056.64c-1.38-21.32-5.51-41-13.09-58.24-1.743 1.493-3.965 2.312-6.26 2.31zm-1074.81 194.38c-4.281 43.155-2.829 86.687 4.32 129.46l978.68 35.79c27.248-31.336 50.123-66.22 68-103.7zm387.08 92.33h-19.27c.103-.003.207-.005.31-.005 5.289 0 9.64 4.352 9.64 9.64s-4.351 9.64-9.64 9.64c-.103 0-.207-.002-.31-.005h-111.47c-5.169-.167-9.33-4.464-9.33-9.635s4.161-9.468 9.33-9.635h19.27c-5.283 0-9.63-4.347-9.63-9.63s4.347-9.63 9.63-9.63h-13.76c-5.169-.167-9.33-4.464-9.33-9.635s4.161-9.468 9.33-9.635h111.47c5.169.167 9.33 4.464 9.33 9.635s-4.161 9.468-9.33 9.635h13.76c5.283 0 9.63 4.347 9.63 9.63s-4.347 9.63-9.63 9.63zm707.13-230.14-1068.48 26c-13 33.41-21.57 71.14-25.57 110.33h1075.33c7.019-22.998 12.211-46.515 15.53-70.33 3.2-23.01 4.48-45.27 3.19-66zm-877.13 85.14h-19.27c.103-.003.207-.005.31-.005 5.289 0 9.64 4.352 9.64 9.64s-4.351 9.64-9.64 9.64c-.103 0-.207-.002-.31-.005h-111.47c-5.169-.167-9.33-4.464-9.33-9.635s4.161-9.468 9.33-9.635h19.27c-5.283 0-9.63-4.347-9.63-9.63s4.347-9.63 9.63-9.63h-13.76c-5.169-.167-9.33-4.464-9.33-9.635s4.161-9.468 9.33-9.635h111.47c5.169.167 9.33 4.464 9.33 9.635s-4.161 9.468-9.33 9.635h13.76c5.283 0 9.63 4.347 9.63 9.63s-4.347 9.63-9.63 9.63z" fill="#0967d2" fill-opacity=".098039" fill-rule="nonzero"/><g opacity=".1"><path d="m797.31 493.62s28.2-69.5 80.86-95.28c22.154-10.669 40.257-28.248 51.57-50.08 5.292-10.406 9.62-21.275 12.93-32.47" fill="none" stroke="#535461" stroke-width="2"/><g fill-rule="nonzero"><path d="m975.76 299.35c-5.49 6.9-33.9 17-33.9 17s3.42-29.95 8.91-36.85c2.992-4.272 7.89-6.821 13.105-6.821 8.778 0 16 7.222 16 16 0 3.95-1.463 7.764-4.105 10.701zm-9.75 54.65c-8.36 2.81-37.68-4.18-37.68-4.18s19.15-23.28 27.51-26.09c1.926-.789 3.987-1.195 6.068-1.195 8.777 0 16 7.223 16 16 0 7.234-4.906 13.61-11.898 15.465zm-52.86 64.61c-8.63-1.8-30.42-22.63-30.42-22.63s28.29-10.43 36.92-8.64c6.934 1.897 11.779 8.244 11.779 15.433 0 8.777-7.223 16-16 16-.763 0-1.524-.054-2.279-.163zm-51 39.87c-8.81-.3-33.81-17.16-33.81-17.16s26.12-15.06 34.93-14.75c.167-.005.333-.008.5-.008 8.777 0 16 7.223 16 16 0 8.778-7.223 16-16 16-.541 0-1.082-.027-1.62-.082zm38.88-128.19c1.12 8.75 20.22 32.07 20.22 32.07s12.58-27.4 11.45-36.14c-1.467-7.477-8.081-12.919-15.701-12.919-8.777 0-16 7.222-16 16 0 .33.011.66.031.989zm-59.06 47.39c3.69 8 28.9 24.55 28.9 24.55s3.79-29.9.1-37.91c-2.797-5.143-8.202-8.356-14.056-8.356-8.777 0-16 7.223-16 16 0 1.954.358 3.891 1.056 5.716zm-51.08 53.94c2.29 8.52 24.33 29.08 24.33 29.08s8.8-28.83 6.52-37.35c-2.181-6.503-8.311-10.913-15.17-10.913-8.777 0-16 7.223-16 16 0 1.069.107 2.135.32 3.183z" fill="#0967d2"/><path d="m975.76 299.35c-5.49 6.9-33.9 17-33.9 17s3.42-29.95 8.91-36.85c2.992-4.272 7.89-6.821 13.105-6.821 8.778 0 16 7.222 16 16 0 3.95-1.463 7.764-4.105 10.701zm-9.75 54.65c-8.36 2.81-37.68-4.18-37.68-4.18s19.15-23.28 27.51-26.09c1.926-.789 3.987-1.195 6.068-1.195 8.777 0 16 7.223 16 16 0 7.234-4.906 13.61-11.898 15.465zm-52.86 64.61c-8.63-1.8-30.42-22.63-30.42-22.63s28.29-10.43 36.92-8.64c6.934 1.897 11.779 8.244 11.779 15.433 0 8.777-7.223 16-16 16-.763 0-1.524-.054-2.279-.163zm-51 39.87c-8.81-.3-33.81-17.16-33.81-17.16s26.12-15.06 34.93-14.75c.167-.005.333-.008.5-.008 8.777 0 16 7.223 16 16 0 8.778-7.223 16-16 16-.541 0-1.082-.027-1.62-.082zm38.88-128.19c1.12 8.75 20.22 32.07 20.22 32.07s12.58-27.4 11.45-36.14c-1.467-7.477-8.081-12.919-15.701-12.919-8.777 0-16 7.222-16 16 0 .33.011.66.031.989zm-59.06 47.39c3.69 8 28.9 24.55 28.9 24.55s3.79-29.9.1-37.91c-2.797-5.143-8.202-8.356-14.056-8.356-8.777 0-16 7.223-16 16 0 1.954.358 3.891 1.056 5.716zm-51.08 53.94c2.29 8.52 24.33 29.08 24.33 29.08s8.8-28.83 6.52-37.35c-2.181-6.503-8.311-10.913-15.17-10.913-8.777 0-16 7.223-16 16 0 1.069.107 2.135.32 3.183z" fill-opacity=".247059"/></g></g><g opacity=".1"><path d="m752.41 382.43s3.56-74.92 44.69-116.71c17.36-17.411 28.61-39.995 32.05-64.34 1.533-11.583 2.002-23.282 1.4-34.95" fill="none" stroke="#535461" stroke-width="2"/><path d="m856.34 139.93c-2.89 8.34-26.35 27.26-26.35 27.26s-6.7-29.39-3.82-37.72c2.495-5.917 8.321-9.784 14.743-9.784 8.777 0 16 7.223 16 16 0 1.434-.193 2.862-.573 4.244zm8.93 54.8c-7 5.42-36.94 8.56-36.94 8.56s10.35-28.32 17.3-33.74c2.655-1.809 5.795-2.777 9.008-2.777 8.778 0 16 7.223 16 16 0 4.567-1.955 8.922-5.368 11.957zm-28.44 78.48c-8.74 1.17-36.21-11.26-36.21-11.26s23.23-19.22 32-20.39c.364-.025.728-.037 1.092-.037 8.778 0 16 7.222 16 16 0 7.594-5.406 14.193-12.852 15.687zm-34.9 54.53c-8.41 2.64-37.58-5-37.58-5s19.64-22.86 28.06-25.49c1.855-.725 3.83-1.097 5.822-1.097 8.777 0 16 7.223 16 16 0 7.387-5.115 13.86-12.302 15.567zm-5.83-133.83c4 7.88 29.72 23.55 29.72 23.55s2.77-30-1.19-37.89c-2.871-4.884-8.129-7.893-13.794-7.893-8.777 0-16 7.223-16 16 0 2.142.43 4.261 1.264 6.233zm-40 64.3c6.14 6.33 35.4 13.58 35.4 13.58s-6.33-29.48-12.47-35.81c-2.945-2.678-6.785-4.163-10.765-4.163-8.778 0-16 7.222-16 16 0 3.809 1.36 7.497 3.835 10.393zm-30.3 67.82c5 7.28 32.6 19.37 32.6 19.37s-1.27-30.12-6.24-37.4c-3.033-3.827-7.657-6.063-12.54-6.063-8.777 0-16 7.223-16 16 0 2.833.752 5.616 2.18 8.063z" fill="#0967d2" fill-rule="nonzero"/></g><path d="m431.01 85.5s-23.83-1.43-21 15.27c-.297 1.734.563 3.472 2.12 4.29s0-1.24 2.44-.82c.855.149 1.725.192 2.59.13 1.171-.081 2.284-.541 3.17-1.31s6.7-2.77 9.3-13.72c0 0 1.93-2.39 1.85-3l-4 1.72s1.37 2.9.29 5.31c0 0-.13-5.21-.9-5.09-.16 0-2.09 1-2.09 1s2.37 5.06.58 8.73c0 0 .68-6.23-1.32-8.36l-2.83 1.65s2.76 5.22.89 9.48c0 0 .48-6.53-1.48-9.08l-2.57 2s2.6 5.15 1 8.68c0 0-.2-7.61-1.57-8.18-.97.822-1.836 1.759-2.58 2.79s1.77 3.74.67 5.71c0 0-.67-5.07-1.23-5.09 0 0-2.24 3.36-2.47 5.66.108-2.134.773-4.203 1.93-6-1.291.245-2.483.86-3.43 1.77s.35-2.37 4-2.58c0 0 1.85-2.55 2.34-2.7 0 0-3.61-.31-5.79.67 0 0 1.92-2.24 6.45-1.23l2.54-2.06s-4.75-.65-6.77.06c0 0 2.32-2 7.45-.53l2.76-1.65c-2.123-.47-4.298-.658-6.47-.56s2.55-1.37 7.28.11l2-.88s-3-.58-3.84-.68-.91-.33-.91-.33c1.878-.313 3.807-.098 5.57.62s4.11-1.53 4.03-1.8zm-62.58 81.27s-8.14 22.45 8.67 24.5c1.581.774 3.493.442 4.72-.82s-1.18-.39-.09-2.57c.371-.781.647-1.603.82-2.45.256-1.144.133-2.342-.35-3.41s-.75-7.21-10.51-12.81c0 0-1.75-2.53-2.36-2.63l.51 4.34s3.17-.49 5.18 1.23c0 0-5-1.35-5.14-.58 0 .16.37 2.29.37 2.29s5.52-.83 8.54 1.92c0 0-5.78-2.41-8.39-1.11l.78 3.19s5.79-1.17 9.34 1.84c0 0-6.13-2.32-9.13-1.16l1.19 3s5.67-1 8.61 1.49c0 0-7.35-2-8.29-.81.513 1.166 1.168 2.265 1.95 3.27s4.08-.64 5.66 1c0 0-5.05-.79-5.23-.26 0 0 2.58 3.1 4.72 4-2.006-.707-3.793-1.928-5.18-3.54-.121 1.291.132 2.59.73 3.74s-2.17-1-1.34-4.54c0 0-1.92-2.5-1.93-3 0 0-1.31 3.38-1 5.75 0 0-1.6-2.48.66-6.54l-1.26-3s-2 4.37-1.86 6.5c0 0-1.24-2.78 1.6-7.29l-.8-3.11c-1.044 1.89-1.841 3.907-2.37 6s-.59-2.84 2.18-6.94l-.29-2.15s-1.4 2.68-1.74 3.49-.58.78-.58.78c.237-1.891.991-3.68 2.18-5.17s-.29-4.43-.57-4.44zm158.04-18.91s-8.15 22.44 8.67 24.49c1.576.775 3.484.447 4.71-.81s-1.17-.39-.09-2.58c.384-.779.673-1.602.86-2.45.258-1.142.131-2.338-.36-3.4s-.75-7.21-10.51-12.82c0 0-1.74-2.53-2.35-2.63l.5 4.35s3.18-.5 5.18 1.22c0 0-5-1.35-5.13-.57 0 .15.37 2.29.37 2.29s5.52-.84 8.53 1.92c0 0-5.77-2.42-8.39-1.11l.78 3.18s5.79-1.17 9.35 1.84c0 0-6.13-2.32-9.13-1.15l1.19 3s5.67-1 8.61 1.49c0 0-7.35-2-8.29-.82.512 1.164 1.164 2.262 1.94 3.27s4.09-.64 5.67 1c0 0-5.06-.79-5.23-.27 0 0 2.58 3.1 4.72 4-2.009-.711-3.799-1.935-5.19-3.55-.132 1.307.121 2.625.73 3.79s-2.18-1-1.35-4.55c0 0-1.91-2.49-1.92-3 0 0-1.32 3.37-1 5.75 0 0-1.6-2.49.67-6.54l-1.27-3s-2 4.37-1.85 6.51c0 0-1.24-2.79 1.6-7.3l-.8-3.11c-1.047 1.889-1.843 3.906-2.37 6s-.6-2.83 2.17-6.94l-.29-2.14s-1.4 2.68-1.73 3.48-.58.79-.58.79c.231-1.893.986-3.683 2.18-5.17s-.33-4.46-.6-4.46zm-258.23-28.12s-8.15 22.45 8.67 24.49c1.575.782 3.487.453 4.71-.81s-1.17-.39-.09-2.57c.38-.781.669-1.603.86-2.45.253-1.145.126-2.343-.36-3.41s-.75-7.21-10.51-12.82c0 0-1.74-2.52-2.35-2.62l.5 4.34s3.17-.49 5.18 1.23c0 0-5-1.36-5.13-.58 0 .16.37 2.29.37 2.29s5.52-.83 8.53 1.92c0 0-5.78-2.42-8.39-1.11l.78 3.19s5.79-1.17 9.34 1.84c0 0-6.12-2.32-9.12-1.16l1.19 3s5.67-1 8.61 1.49c0 0-7.36-2-8.29-.82.512 1.168 1.163 2.269 1.94 3.28s4.09-.65 5.66 1c0 0-5.05-.79-5.23-.26 0 0 2.59 3.09 4.73 4-2.012-.707-3.802-1.932-5.19-3.55-.132 1.307.121 2.625.73 3.79s-2.18-1-1.35-4.54c0 0-1.92-2.5-1.92-3 0 0-1.32 3.38-1 5.75 0 0-1.6-2.48.66-6.54l-1.26-3s-2 4.38-1.86 6.51c0 0-1.24-2.78 1.6-7.29l-.79-3.12c-1.047 1.889-1.843 3.906-2.37 6s-.6-2.83 2.17-6.94l-.29-2.14s-1.4 2.68-1.73 3.49-.58.78-.58.78c.23-1.891.982-3.681 2.17-5.17s-.28-4.48-.59-4.49zm250.36 152.28s6.29 23 21.21 15c1.735-.276 3.104-1.645 3.38-3.38s-1.18.35-1.56-2.06c-.136-.855-.374-1.692-.71-2.49-.452-1.08-1.242-1.985-2.25-2.58s-4.77-5.45-16-4.41c0 0-2.88-1.06-3.44-.79l2.92 3.26s2.3-2.23 4.93-2c0 0-4.89 1.79-4.52 2.48.07.14 1.62 1.66 1.62 1.66s4-3.86 8.08-3.35c0 0-6.11 1.36-7.5 3.93l2.48 2.16s4.06-4.3 8.69-3.89c0 0-6.34 1.64-8.12 4.32l2.72 1.79s4-4.11 7.89-3.75c0 0-7.13 2.64-7.24 4.11 1.093.659 2.261 1.183 3.48 1.56s3-2.88 5.18-2.47c0 0-4.58 2.26-4.42 2.8 0 0 3.89 1 6.15.52-2.049.58-4.215.611-6.28.09.643 1.144 1.606 2.075 2.77 2.68s-2.36.43-3.72-2.94c0 0-3-.93-3.31-1.35 0 0 .87 3.51 2.5 5.27 0 0-2.74-1.1-3.23-5.72l-2.75-1.71s.9 4.71 2.23 6.39c0 0-2.62-1.56-2.9-6.88l-2.45-2.08c.244 2.158.765 4.275 1.55 6.3s-2.12-2-2.22-6.93l-1.48-1.58s.4 3 .6 3.85 0 1 0 1c-.903-1.679-1.322-3.577-1.21-5.48s-2.84-3.49-3.07-3.33z" fill="#0967d2" fill-opacity=".098039" fill-rule="nonzero"/><path d="m815.078 407.102c2.181 2.521 4.588 4.837 7.19 6.92l19.48 16.6c3.47 2.95 7 6 11.4 7.39 5.273 1.657 11.028.774 15.56-2.39l-.33-.11.33-.22c-3.29-1.06-6.66-2.16-9.37-4.29-2.253-1.688-3.738-4.211-4.12-7v-.41c.007-.379.044-.757.11-1.13 4.197-.358 8.235-1.779 11.73-4.13l-.34-.12.34-.21c-10.38-3.33-17.57-13.07-20.83-23.38s-3.27-21.29-3.62-32.08-1.15-21.88-5.81-31.64c-1.75-3.66-4-7.14-4.85-11.1-.234-1.175-.344-2.372-.33-3.57.07-3.85 1.19-7.72 2.22-11.48 2.289-8.397 4.119-16.913 5.48-25.51.536-3.056.833-6.148.89-9.25.094-3.027-.391-6.045-1.43-8.89-4.58-11.9-20.5-17.51-22.93-30-.285-1.681-.406-3.386-.36-5.09v-2.8c0-.93 0-2-.08-2.92-.69-8.79-6.13-16.42-11.38-23.55-6.32-8.58-13-17.5-22.71-22.07-7.54-3.57-17.62-4.75-26.61-3.95-4.034-3.481-8.457-6.484-13.18-8.95-6.87-3.82-14-7.58-21.61-8.42-9.65-1.06-19.19 2.64-28.87 3.26-13.16.85-26.08-4-39.24-5s-28.31 3.43-34.19 16.68c-1.378 3.217-2.216 6.64-2.48 10.13-.06.67-.1 1.33-.13 2v.07c-.098 2.705-.021 5.414.23 8.11v.31c0 .54.1 1.08.16 1.62 0 .16 0 .31.05.47 0 .5.11 1 .17 1.5l.06.47c.08.63.17 1.26.25 1.89.152 1.297.43 2.577.83 3.82.245.719.603 1.394 1.06 2 1.43 1.82 3.58 2.36 5.8 2.7l1.75.25c-.18.36-.37.72-.54 1.09-3.968 8.365-6.018 17.512-6 26.77 0 31.46 23.29 57.54 53.72 62.28l1.83 2.28c11.22 14.06 25.3 32.83 32 46.34-7.74 9.61-16.8 26.65-19.38 55.23l-3.83 8.94c-8.03 11.55-10.1 28.21-8.03 43.71-2.26 8.38-4.84 18.91-6.63 27.62-13.31-2.95-58.74-10.25-69.48-17.34l-31.5-14.84s-41-28.64-63.06-19.08c-8.43-10.36-21.15-21.21-26.63-25.31-9.4-7.05-32.78-34.59-32.78-34.59l-36.63-48.62c-.1-5.63-.7-10.44-2.24-12.51-4.32-5.78-27.19-18.61-31.76-15.84s-8.39-6-8.39-6l-.35-.19c-.86-.5-3.3-1.88-6.69-3.7-.178-4.059-.078-8.125.3-12.17.07-.68.16-1.36.26-2 24.876-.898 46.278-18.353 52.16-42.54.16-.63.27-1.28.4-1.92 3.33.773 6.832-.244 9.23-2.68 3.2-3.44 3.34-8.73 2.32-13.29s-3-8.93-3.5-13.59c-.63-6.35 1.61-13-.45-19-1.73-5.12-6.29-8.84-11.15-11.27s-10.18-3.85-15.15-6.06c-4.74-2.1-9.15-4.92-14.07-6.58-6.38-2.15-13.24-2.23-20-2.07-4.24-1.71-8.56-3.34-13.1-3.85-5-.57-10.5.4-14.31 3.73-3 2.66-5.44 6.93-9.51 7.07-2 .07-3.8-.92-5.58-1.77-5.05-2.42-11.44-3.79-16-.58-3.66 2.56-5 7.27-5.63 11.66s-.74 9-2.86 12.93c-1.31 2.42-3.3 4.39-4.95 6.59-4.175 5.583-6.145 12.516-5.53 19.46v.2c-.24-1-.47-1.93-.64-2.91 0 .74 0 1.47.1 2.21.435 3.431 1.181 6.815 2.23 10.11l4.14 14.5c2.1 7.36 4.25 14.83 8.25 21.38 1.56 2.581 3.446 4.95 5.61 7.05 3.409 3.579 7.771 6.109 12.57 7.29 1.686.378 3.421.483 5.14.31 0 .21-.05.41-.09.62-.37-.07-.75-.15-1.1-.2-1.624-.339-3.306-.294-4.91.13-7.9 2.81-10.3 11.36-11 14.72-.16.86-.21 1.38-.21 1.38s.13.5.28 1.35l-.07.29c-.16.85-.21 1.38-.21 1.38s.13.5.28 1.37l-2.06.05-34.45 4.5c-7.87-.54-15.36-.67-19.37.29-.339.075-.673.172-1 .29-5 1.73-27.91 17.54-48.47 32.09 0-.4 0-.79-.06-1.17l-5.85 4.16v1.21c-1.46 1-2.91 2.06-4.31 3.07-6.29 4.5-12 8.56-16.25 11.67-5.18 3.72-8.39 6.07-8.39 6.07s-1.9.62-3.16 3.55c-1.62 3.75-2.18 11.29 3.67 26.13 10.42 26.41 12.7 44.27 12.7 44.27-2.827.295-5.602.968-8.25 2-3.61 1.44-7.38 3.88-8.95 8-1.008 2.877-1.032 6.008-.07 8.9 4.82 17.1 84.61 114.2 84.61 114.2l1 .09c4.092.36 8.208.36 12.3 0 3.73-.39 7.22-1.28 8.82-3.16 0 0 17.69 22.71 43.67 7.24-.18 20.6-.7 35.71 2.57 43.32 5.09 11.82 5.09 38.73 5.09 38.73l4.84.17c-.26 1-.55 2-.86 3-2.23 7.37-5.52 16.28-9 18.41-5.86 3.6-3.08 65.48-2.84 70.82v.32l-.34 25v2c-.726-.976-1.378-2.006-1.95-3.08s-9.42 9-9.59 28 .17 19.64.17 19.64 38-1.47 45.13 1.15 66.76-2.28 66.76-2.28 2.21-5.74-4.15-10.15c10.14-.73 21.2-2.67 27.68-7.37 14.25-10.29-28.75-18.31-31.75-19.94s-17.86-14.74-24-19.65c-1.856-1.355-4.05-2.172-6.34-2.36l.77-22.41c9.15-10.31 19.06-67.16 19.06-67.16 3.24-2.7 4.65-9.27 5.23-13.28 2.419-.802 4.09-3.042 4.17-5.59 10.47.35 23.64.27 26.17-2.24 4.32-4.28 3.81-18.87 3.81-18.87l-6.1-154.44-.4-.59c1.009-7.069 1.029-14.245.06-21.32 13.7 3.91 24.36 6.57 24.36 6.57s20.62 3.8 35.09 7c-2.368 2.515-4.157 5.519-5.24 8.8-13 37 60.73 35.47 60.73 35.47l34.81 16.1 81.94 26.78c-26.33-7.77-56.41-16.91-76.88-23.18-2.016-.617-4.066-1.114-6.14-1.49-18.78-3.4-38.29 3.44-50.25 18.53-.14.19-.27.36-.42.54-5.863 7.627-6.074 18.256-.52 26.11 3.13 4.43 7.32 10.32 12.23 17.17-10.39 3.14-27.58 11.89-17.13 34.39 14.48 31.19 53.35 49 53.35 49s25.41 7.3 32 15.35c1.85 2.26 9 7.27 18.35 13.31 6 6.35 10.7 10.5 13.49 11.42 11.14 3.67 32.83 21.28 48.09 34.49l-2.29 31.56-.15 1.9-.94-.8s-6.75 14-26.31 18.69c-3.922.882-7.399 3.148-9.79 6.38l-.07.09-.58.84-.44-.33c-4 5.63-5.86 13.83 9.24 16.09 23.63 3.52 50-1.51 50-1.51l23.56-21.78c2.618 2.203 5.692 3.798 9 4.67 17.61 4 67.07 23.14 67.07 23.14 0-5.37 43.71-74.45 43.71-74.45 59-111.68-5.16-195.14-12.25-203.83l-.63-.76-.55-9.28-.12-2.13s31.84-14.08 19.64-20.78-19-38.91-30.49-52.32c-9-10.46-8.48-34.74-9.43-55.43 1.032 5.108 3.248 9.904 6.47 14 .07.09.15.16.22.25l-.85-.74c.21.32.41.6.63.87zm-392.33-8.58c4.1 4.41 11.26 10.05 16 13.63-5.68-2.77-10.1-5.11-13.51-7-.8-2.22-1.64-4.44-2.49-6.63zm-121.29-104.65c-.98 2.936-2.764 5.538-5.15 7.51l-2-8.63c2.62.42 5.06.81 7.15 1.12zm399.68 237.11c.79-1.7 1.61-3.37 2.44-5 3.506-1.141 6.599-3.291 8.89-6.18 1.743 6.049 3.033 12.219 3.86 18.46v.45c-.043 2.516-.423 5.015-1.13 7.43-.92 2.92-2.6 5.67-5.65 6-1.27.13-7.52-1.38-16.87-3.93-2.71-.74-5.69-1.57-8.87-2.47 4.99-.33 11.93-3.14 17.33-14.76zm78.25-211c-1.87-3-5.77-4.92-10.54-6.05-.87-.58-2.22-1.5-3.94-2.75-8.4-6.15-25.17-20-32.86-37.69 2.144-.598 4.237-1.363 6.26-2.29 3.141-1.44 6.107-3.235 8.84-5.35.92-.72 1.82-1.47 2.68-2.25 2.204-1.988 4.213-4.181 6-6.55.71-1 1.4-1.95 2-3 .981-1.539 1.869-3.135 2.66-4.78 1.821-3.839 3.225-7.862 4.19-12 .39-1.66.73-3.35 1-5.05s.53-3.41.72-5.13c.621-6.069.858-12.171.71-18.27v-1.2c-.029-6.183-.699-12.346-2-18.39.45.17.9.34 1.33.54.723.354 1.412.773 2.06 1.25-.16-.23-.34-.46-.51-.69 2.9 1.88 5.06 4.81 7 7.73 17.988 28.043 22.344 62.773 11.84 94.39-1.46 4.29-3.21 8.56-3.6 13.07-1.41 16.11 14 28.4 19.73 43.54 2.87 7.59 3.32 16 3.7 24.32-4.32-21.07-20.11-41.81-27.24-53.36z" fill="none"/><path d="m397.55 633.2s-.75 12.5-5.5 16.5c0 0-9.75 56.5-18.75 66.75l-1.5 5.75-37.5-4.25 7.5-50 7-46z" fill="#ffc1c8" fill-rule="nonzero"/><path d="m397.55 633.2s-.75 12.5-5.5 16.5c0 0-9.75 56.5-18.75 66.75l-1.5 5.75-37.5-4.25 7.5-50 7-46z" fill-opacity=".027451" fill-rule="nonzero"/><path d="m357.14 717.15 16.16-.71-.86 25.44-12.37 8.29-22.28-4.88 8.13-34z" fill="#ff748f" fill-rule="nonzero"/><path d="m357.14 717.15 16.16-.71-.86 25.44-12.37 8.29-22.28-4.88 8.13-34z" fill-opacity=".027451" fill-rule="nonzero"/><path d="m360.07 739.93s12.69-3.74 18.71 1.14 20.66 17.89 23.59 19.52 45.18 9.6 31.23 19.84-49.77 7.32-49.77 7.32-23.43-6.84-24.08-7.16-15-7.32-15.45-7.81 4.06-33 4.06-33z" fill="#5d618c" fill-rule="nonzero"/><path d="m360.07 739.93s12.69-3.74 18.71 1.14 20.66 17.89 23.59 19.52 45.18 9.6 31.23 19.84-49.77 7.32-49.77 7.32-23.43-6.84-24.08-7.16-15-7.32-15.45-7.81 4.06-33 4.06-33z" fill-opacity=".027451" fill-rule="nonzero"/><path d="m323.3 401.95-.75 46.48-1.7 99.15-1 .87c-29.75 25.75-50.75-1.5-50.75-1.5-1.58 1.87-5 2.76-8.68 3.14-4.025.36-8.075.36-12.1 0l-1-.09s-78.52-96.57-83.27-113.57c-.942-2.875-.917-5.98.07-8.84 1.55-4.06 5.26-6.48 8.81-7.91 2.604-1.029 5.336-1.702 8.12-2s-2.25-17.75-12.5-44c-5.76-14.75-5.2-22.24-3.61-26 1.24-2.91 3.11-3.53 3.11-3.53s3.16-2.33 8.25-6c4.23-3.09 9.8-7.13 16-11.6l5.75-4.12c21.21-15.22 46.77-33.14 52-35 .326-.119.66-.216 1-.29 10.73-2.59 46.74 2.79 46.74 2.79z" fill="#7b8794" fill-rule="nonzero"/><path d="m323.3 401.95-.75 46.48c-35.57-10.49-68.64-80-73-85.48-3.73-4.76.1-57.77 1.51-75.79 10.73-2.59 46.74 2.79 46.74 2.79z" fill="none"/><g fill-rule="nonzero"><path d="m323.3 401.95-.75 46.48c-35.57-10.49-68.64-80-73-85.48-3.73-4.76.1-57.77 1.51-75.79 10.73-2.59 46.74 2.79 46.74 2.79z" fill-opacity=".098039"/><path d="m731.55 311.43s-27.75 14.25-31.25 70.25c0 0-4.5 28.5-7 33.5s-14.5 52.25-13 58c0 0-2.5 5.75-11.75 3.25s-59.25-10.25-70.5-17.75l-31-14.75s-60.5-42.75-73.25-6 59.75 35.27 59.75 35.27l34.25 16 103.75 34.23s13.75 6.25 23-13.75c5.918-12.599 12.946-24.647 21-36s21-59 20.75-69 22.5-33.75 22.5-33.75 4.5-63-32.5-61.75z" fill="#ffc1c7"/><path d="m731.55 311.43s-27.75 14.25-31.25 70.25c0 0-4.5 28.5-7 33.5s-14.5 52.25-13 58c0 0-2.5 5.75-11.75 3.25s-59.25-10.25-70.5-17.75l-31-14.75s-60.5-42.75-73.25-6 59.75 35.27 59.75 35.27l34.25 16 103.75 34.23s13.75 6.25 23-13.75c5.918-12.599 12.946-24.647 21-36s21-59 20.75-69 22.5-33.75 22.5-33.75 4.5-63-32.5-61.75z" fill-opacity=".027451"/><path d="m438.05 360.07c1.5 1.75 8.5 5.36 8.5 5.36s23 27.37 32.25 34.37 39.5 33.75 33.38 43.88-13 7.87-13 7.87l-54.13-37.5s-19-13.62-22.87-20.12-8.63-20.11-8.63-20.11z" fill="#ffc1c8"/><path d="m438.05 360.07c1.5 1.75 8.5 5.36 8.5 5.36s23 27.37 32.25 34.37 39.5 33.75 33.38 43.88-13 7.87-13 7.87l-54.13-37.5s-19-13.62-22.87-20.12-8.63-20.11-8.63-20.11z" fill-opacity=".027451"/><path d="m407.68 313.32 38.87 52.12-35 13.63-14.5-43.63z" fill="#dce6f2"/><path d="m407.68 313.32 38.87 52.12-35 13.63-14.5-43.63z" fill-opacity=".027451"/><path d="m417.8 446.2 7 10.25 6 153.5s.5 14.5-3.75 18.75-39 1.5-39 1.5 1.25-156.5 1.75-159.5 28-24.5 28-24.5z" fill="#575988"/><path d="m417.8 446.2 7 10.25 6 153.5s.5 14.5-3.75 18.75-39 1.5-39 1.5 1.25-156.5 1.75-159.5 28-24.5 28-24.5z" fill-opacity=".098039"/><path d="m370.99 640.24c-2.277 5.597-4.95 11.024-8 16.24s-6.5 37.09-9.27 40.51c-2 2.5-2.92 21.16-3.25 30.89-.12 3.52-.17 5.87-.17 5.87l-38.22 18.22-.17-24.08v-.32c-.24-5.31-3-66.81 2.79-70.39 3.4-2.11 6.64-11 8.83-18.29 1.67-5.63 2.72-10.34 2.72-10.34s42.46-2.76 46 1.79c1.3 1.62.4 5.56-1.26 9.9z" fill="#ffc1c8"/><path d="m370.99 640.24c-17.22-.36-38.8-1.09-47.52-1.4 1.67-5.63 2.72-10.34 2.72-10.34s42.46-2.76 46 1.79c1.36 1.67.46 5.61-1.2 9.95z" fill-opacity=".098039"/><path d="m320.8 412.7s-11.75 62.5-9.5 102.75-1.75 69.98 3.25 81.75 5 38.5 5 38.5 68 2.5 75 1.5 6.75-6.25 6.75-6.25-4.75-41.52-.25-54.52 3.75-52.75 3.75-52.75l19-64s5.75-28.75-6.25-40.5-96.75-6.48-96.75-6.48z" fill="#575988"/><path d="m724.3 742.95-3 4.4-18.55 27.6-15.75 4.75-11.75-11.5.57-7.59 2.93-39.41s-72.7-42.77-79.2-50.77-31.5-15.25-31.5-15.25-38.25-17.75-52.5-48.75 23.75-35.75 23.75-35.75l142.75 136.52z" fill="#ffc1c7"/><path d="m721.35 747.34-18.55 27.6-15.75 4.75-11.75-11.5.57-7.59 12.93 11.09 24.25-28.25z" fill-opacity=".098039"/><path d="m741.8 758.95-45.25 42.25s-26 5-49.25 1.5c-14.86-2.24-12-10.39-8.09-16l.07-.1c2.341-3.208 5.767-5.461 9.64-6.34 19.24-4.64 25.88-18.57 25.88-18.57l14 12 24.25-28.26 17.93 8.42z" fill="#575988"/><path d="m741.8 759.43-45.25 42.27s-26 5-49.25 1.5c-14.86-2.24-13-10.39-9.09-16 4.496 3.564 9.893 5.811 15.59 6.49 12.75 1.25 32 0 32 0l45.18-39.33z" fill="#fff"/><path d="m368.22 253.03c-3.68 1.84-5.37 7.52-6.05 14-1.15 11.06.71 24.38.71 24.38s-50-13.67-44.66-16.34c3.07-1.53 4.7-12.67 5.53-21.84.62-6.78.8-12.49.8-12.49s53.67 7.29 43.67 12.29z" fill="#ffc1c8"/><path d="m766.22 313.7s-60.67 57.33-58.67 40.67c.28-2.32-.52-5.53-2.1-9.32-5.61-13.52-21.12-34.51-33.25-49.86-8.9-11.26-16-19.49-16-19.49s75.35-63.33 69.35-27.33c-1.25 8.208-.108 16.605 3.29 24.18 7.51 17.68 24.15 31.59 32.46 37.73 3 2.21 4.92 3.42 4.92 3.42z" fill="#ffc1c7"/><path d="m717.22 259.36c-1.09 1.35-5.13 6.09-6.33 7.34-11.4 11.87-12.92 29-30.67 29-2.675.002-5.347-.169-8-.51-8.9-11.26-16-19.49-16-19.49s75.33-63.33 69.33-27.33c-1.42 8.54-11.5 3.51-8.33 10.99z" fill-opacity=".098039"/><path d="m742.88 231.03v.01c0 34.38-28.29 62.67-62.67 62.67s-62.67-28.29-62.67-62.67 28.29-62.67 62.67-62.67h.25c34.243 0 62.42 28.177 62.42 62.42z" fill="#ffc1c7"/><path d="m766.22 313.7s-60.67 57.33-58.67 40.67c.28-2.32-.52-5.53-2.1-9.32l8.77-20.68c10.742-9.41 24.529-14.632 38.81-14.7 2.599-.002 5.195.175 7.77.53l.5.08c3 2.21 4.92 3.42 4.92 3.42z" fill-opacity=".098039"/><path d="m837.55 733.7s-43 68.66-43 74c0 0-48.67-19-66-23s-33.67-40.33-33.67-40.33-46-43.34-64-49.34c-15.27-5.09-88.65-108.6-110.51-139.83-5.476-7.821-5.265-18.355.52-25.95l.41-.53c11.772-14.811 30.846-21.918 49.44-18.42 2.028.373 4.031.867 6 1.48 31.48 9.73 86 26.45 113.5 34 9.2 2.53 15.35 4 16.6 3.91 3-.31 4.65-3 5.56-5.95.694-2.4 1.068-4.882 1.11-7.38v-.45c-.843-6.358-2.167-12.642-3.96-18.8-3.21-11-8.77-23.91-18-30.08-7.66-5.11-13.75-16.38-16.94-29.48-4.29-17.69-3.3-38.74 6.27-52.52l9.25-21.82 15.47-36.5 8.62-20.34c10.742-9.41 24.529-14.632 38.81-14.7 2.599-.002 5.195.175 7.77.53 6.63.92 12.36 2.91 14.75 6.83 7.33 12 24 34 27.33 56s-.66 58 10.67 71.34 18 45.33 30 52-19.33 20.66-19.33 20.66l.12 2.11.54 9.23s.22.25.62.75c6.98 8.64 70.05 91.59 12.05 202.58z" fill="#0c69a3"/><path d="m825.55 531.12c-13.14 2.75-41.88 8.74-54.7 11.37l-2.25.46c-.75.15-1.59.29-2.5.42-12.88 1.77-40.82.9-53.61.38.694-2.4 1.068-4.882 1.11-7.38v-.45c9.73-.63 32.79-2.47 52.55-6.53 1.61-.33 3.2-.68 4.75-1 2.24-.52 4.42-1.07 6.5-1.65 17.72-5 36.43-5.66 47-5.56l.54 9.23s.16.21.61.71z" fill="#575988"/><path d="m770.8 528.35v14.14l-2.25.46c-.75.15-1.59.29-2.5.42v-13.94c1.61-.37 3.2-.72 4.75-1.08z" fill="#ff6584"/><path d="m783.05 555.43s-26.75 61.25-43 67.25-56.75 27.25-56.75 27.25 23.25 20.5 47.5-2 59.25-82.5 52.25-92.5zm29.25-8.23s2.5 23.25-1 27.5 1-27.5 1-27.5zm14.5 15.23s13.5 141.5-53.5 142.25c0 .02 62.75-62.25 53.5-142.25zm17 34s19.25 74.25-6 82.75c0 .02 13.25-38.48 6-82.75zm-119.75-19c-1.25 0-52 8.75-41 15.75s41-15.75 41-15.75zm35-100.23s41.5 36.75 33.5 40.75m-37-29s24 29.5 21.25 31.25m30-35.77s11 13.75 9.25 16.75m1.75-23.98s15.75 12.23 12.25 17" fill-opacity=".098039"/><path d="m730.3 328.2s51.25 4 49 45.25-40.5 51.75-40.5 51.75l-49.75-14.25s22.25-80 41.25-82.75z" fill="#ffc1c7"/><path d="m576.78 511.78c31.48 9.73 86 26.45 113.5 34-3.643 1.856-7.904 2.092-11.73.65l-103.75-34.23-4.06-1.9c2.041.372 4.058.866 6.04 1.48zm175.57-101.96c-4.87 6.5-9.16 13.5-9 17.88.08 3.15-2 11.18-4.78 20.69-7.161 23.885-16.884 46.926-29 68.72-3.21-11-8.77-23.91-18-30.08-7.66-5.11-13.75-16.38-16.94-29.48 2.43-9.48 4.74-17.45 5.69-19.35 2.5-5 7-33.5 7-33.5.423-7.222 1.369-14.404 2.83-21.49 3.63-17.33 9.8-29 15.47-36.5 6.84-9.12 13-12.26 13-12.26l14.75-2.25c17-.57 25.2 12.36 29.15 26.53 4.84 17.61.79 36.45-10.17 51.09z" fill-opacity=".098039"/><path d="m715.55 330.43s-27.75 14.25-31.25 70.25c0 0-4.5 28.5-7 33.5s-14.5 52.25-13 58c0 0-2.5 5.75-11.75 3.25s-59.25-10.25-70.5-17.75l-31-14.75s-60.5-42.75-73.25-6 59.75 35.27 59.75 35.27l34.25 16 103.75 34.23s13.75 6.25 23-13.75c2.31-5 4.78-9.75 7.19-14.07 12.48-22.23 22.477-45.764 29.81-70.18 2.83-9.51 4.86-17.54 4.78-20.69-.11-4.38 4.19-11.39 9-17.88 11-14.64 15-33.48 10.1-51.1-3.95-14.17-12.19-27.1-29.15-26.52z" fill="#ffc1c7"/><path d="m368.22 253.03c-3.68 1.84-5.37 7.52-6.05 14h-1.95c-13.441.025-26.43-4.904-36.47-13.84.62-6.78.8-12.49.8-12.49s53.67 7.33 43.67 12.33z" fill-opacity=".098039"/><path d="m415.22 210.03c0 30.172-24.828 55-55 55s-55-24.828-55-55 24.828-55 55-55c30.147.066 54.934 24.853 55 55z" fill="#ffc1c8"/><path d="m433.8 425.43s-28.75 11.5-37.75 15.5-60.5-5.25-60.5-5.25-26.75-13.5-24.5-27-21.5-57.73-21.5-57.73-.75-39.25 9.75-46.75 6.5-23.25 6.5-23.25.05-.52.21-1.37c.65-3.34 3-11.84 10.79-14.63 1.577-.424 3.232-.469 4.83-.13 7.47 1.13 19.74 6.69 29.89 11.82 8.4 4.25 15.35 8.2 16.94 9.12l.34.19s3.75 8.75 8.25 6 27 10 31.25 15.75 1.25 32.75.5 39.5 4.25 26.75 9.75 38.23 15.25 40 15.25 40z" fill-opacity=".098039"/><path d="m433.8 422.43s-28.75 11.5-37.75 15.5-60.5-5.25-60.5-5.25-26.75-13.5-24.5-27-21.5-57.73-21.5-57.73-.75-39.25 9.75-46.75 6.5-23.25 6.5-23.25.05-.52.21-1.37c.65-3.34 3-11.84 10.79-14.63 1.577-.424 3.232-.469 4.83-.13 7.47 1.13 19.74 6.69 29.89 11.82 8.4 4.25 15.35 8.2 16.94 9.12l.34.19s3.75 8.75 8.25 6 27 10 31.25 15.75 1.25 32.75.5 39.5 4.25 26.75 9.75 38.23 15.25 40 15.25 40z" fill="#dce6f2"/><path d="m340.72 384.03s-24.67 40-28.67 42.17l1.5 14s35.17-7.34 37.34-17.17 1-39.5 1-39.5z" fill="#7b8794"/><path d="m340.72 384.03s-24.67 40-28.67 42.17l1.5 14s35.17-7.34 37.34-17.17 1-39.5 1-39.5z" fill="#7b8794" fill-opacity=".2"/><path d="m375.43 333.07s4.37 16.88 11.25 22.63-11.25-22.63-11.25-22.63z" fill-opacity=".098039"/><path d="m332.55 377.57c.63 1.13 21.75 29.88 44 40.5s71.88 23.13 71.88 23.13 40.25 7.5 47.12 10.37 15.63-10-27.5-28.37-51.5-26.5-51.5-26.5-37.5-18.27-43.5-27.27-40.5 8.14-40.5 8.14z" fill="#ffc1c8"/><path d="m348.3 517.43c.75-.5 18.75-19.75 21-11.5s-21 11.5-21 11.5zm10.5-38c-.25.75-2.75 22-10 24.5m17.5-18.73s-6.5 22.75-14.75 24.23m-18.25 44s11 .25 12.5-6.75m2.5 52.27c1.5.25 25 15.25 19 18.25s-19-18.25-19-18.25zm2.13 126.62v2.31c-.12 3.52-.17 5.87-.17 5.87l-38.22 18.22-.17-24.08v-1.95l15.3.49z" fill-opacity=".098039"/><path d="m357.58 760.58-31.88 12.2-14.31-8.46.15-11.58.33-24.86 15.3.49 23.26-.81v17.41z" fill="#ff748f"/><path d="m357.55 760.59-31.88 12.2-14.31-8.46.15-11.58c4.201 5.507 10.658 8.849 17.58 9.1s11.22-14 18.05-18.06c.98-.587 2.159-.746 3.26-.44v1.63z" fill-opacity=".098039"/><path d="m329.12 763.84s-13 .17-19.52-12.2c0 0-9.27 8.95-9.44 27.82s.17 19.52.17 19.52 37.41-1.46 44.41 1.14 65.72-2.28 65.72-2.28 3.9-10.25-13.83-13.83-32.37-22.45-32.86-23.26-9.76-19-16.59-15-18.06 18.09-18.06 18.09z" fill="#5d618c"/><path d="m363.6 149.27-3.73-.51 2.33-.06zm51.62 60.76c.002 4.266-.491 8.518-1.47 12.67-.835-.215-1.633-.552-2.37-1-1.07-.69-2.14-1.64-3.4-1.53-.739.116-1.431.435-2 .92-5.92 4.33-10.32 11.45-17.52 12.83.721-2.107.819-4.379.28-6.54-3.096 3.113-7.521 4.532-11.85 3.8.52-1.248.581-2.642.17-3.93-5.07 2.84-10.349 5.29-15.79 7.33-.19-1-.37-1.92-.56-2.88-7.66 3.74-7.06 16.43-14.72 20.17-4.56 2.23-11 .63-14.15 4.65-.12.16-.23.32-.34.49-16.319-9.982-26.3-27.788-26.3-46.918 0-30.172 24.828-55 55-55 30.168 0 54.993 24.82 55 54.988z" fill-opacity=".098039"/><path d="m363.6 147.26c-4.62-1.91-9.31-3.83-14.28-4.4s-10.33.4-14.08 3.71c-3 2.64-5.35 6.88-9.35 7-1.95.07-3.75-.91-5.5-1.76-5-2.4-11.25-3.76-15.76-.58-3.6 2.55-4.95 7.23-5.54 11.6s-.73 9-2.81 12.85c-1.29 2.4-3.25 4.36-4.87 6.55-4.116 5.563-6.053 12.447-5.44 19.34.418 3.41 1.147 6.774 2.18 10.05l4.08 14.41c2.07 7.32 4.18 14.74 8.12 21.25s10 12.11 17.4 13.79c4.46 1 9.86.18 12.36-3.65.64-1 1.05-2.07 1.75-3 3.1-4 9.59-2.41 14.15-4.64 7.66-3.74 7.06-16.43 14.72-20.17l.57 2.87c5.435-2.043 10.71-4.49 15.78-7.32.408 1.288.352 2.679-.16 3.93 4.325.722 8.743-.696 11.84-3.8.539 2.161.441 4.433-.28 6.54 7.2-1.39 11.6-8.51 17.52-12.84.572-.478 1.263-.793 2-.91 1.27-.11 2.33.84 3.4 1.52 3.803 2.309 8.738 1.68 11.84-1.51 3.15-3.42 3.29-8.68 2.28-13.22s-3-8.87-3.43-13.5c-.63-6.31 1.57-12.9-.45-18.9-1.71-5.09-6.19-8.78-11-11.2s-10-3.83-14.91-6c-4.66-2.09-9-4.89-13.84-6.54-7-2.39-14.61-2.2-22-2" fill="#794f6a"/><path d="m364.55 333.53s8-53.83-60.5-51.17l-34.5 4.59s32.91 5.92 40.83 6.79l.84.12c7.33 1.34 32.67-.33 53.33 39.67z" fill="#7b8794"/><path d="m320.8 548.2v-.62c28.09-24.29 0 .62 0 .62z" fill-opacity=".098039"/><path d="m260.37 550.09c-4.025.36-8.075.36-12.1 0l-84.15-122.48c1.55-4.06 5.26-6.48 8.81-7.91zm-54.57-131.14-4 4.75s-30.34-50.4-36.86-76c1.24-2.91 3.11-3.53 3.11-3.53s3.16-2.33 8.25-6c1.89 12.04 8.34 41.48 29.5 80.78zm22.25-15.52-8 4.5c-21.84-25.56-23.7-68.5-23.5-85.61l5.76-4.14c.78 22.47 25.74 85.25 25.74 85.25z" fill="#575988"/><path d="m249.05 398.95c-.25 3.25-9.5 36.25 4 41.75s-4-41.75-4-41.75zm29 56.75c.5 1.75 5 58.75 14.75 54.25s4.5-69.5 4.5-69.5zm464.83-224.67c.021 16.18-6.251 31.751-17.48 43.4-4.575.969-9.294 1.051-13.9.24-2.354-.298-4.593-1.197-6.5-2.61-1.836-1.694-3.274-3.774-4.21-6.09-3.65-7.85-5.52-16.92-10.64-23.64s-15.51-9.67-20.45-2.78c-2.69 3.74-3.14 9.49-6.73 12.08-4.31 3.12-10-.55-13.35-5-9.9-13-6.51-38.56-25.39-42.15l-.76-.13c10.303-21.968 32.476-36.06 56.74-36.06 34.38 0 62.67 28.29 62.67 62.67zm-452.46 112.76c4.68-30.76 43.13-41.87 63.54-18.36 5.9 6.82 11.13 14.29 14.09 21.76 10 25.25 10.75 27.5 10.75 27.5s-61.75 12-61.25 21l-28-44.75s.21-2.8.87-7.15z" fill-opacity=".098039"/><path d="m290.42 340.79c4.68-30.76 43.13-41.87 63.54-18.36 5.9 6.82 11.13 14.29 14.09 21.76 10 25.25 10.75 27.5 10.75 27.5s-61.75 12-61.25 21l-28-44.75s.21-2.8.87-7.15z" fill="#dce6f2"/><path d="m307.8 301.32c.75 1.25 30.25 37.25 45.75 42.38s-45.75-42.38-45.75-42.38zm-126.75 116.38s78 92 88 129.25" fill-opacity=".098039"/></g><path d="m184.05 332.7s17 88 50 125 67 100 67 100" fill="none" stroke="#000" stroke-opacity=".098039" stroke-width="2"/><path d="m425.06 204.67c.067 2.924-.944 5.773-2.84 8-3.102 3.19-8.037 3.819-11.84 1.51-1.07-.68-2.13-1.63-3.4-1.52-.737.117-1.428.432-2 .91-5.63 4.12-9.89 10.76-16.5 12.59.234 1.767.056 3.564-.52 5.25 7.2-1.39 11.6-8.51 17.52-12.84.572-.478 1.263-.793 2-.91 1.27-.11 2.33.84 3.4 1.52 3.803 2.309 8.738 1.68 11.84-1.51 3.09-3.4 3.28-8.52 2.34-13zm-3.99-18.76c.08.82.22 1.63.38 2.44 0-5 1.19-10.2 0-15 .02 4.08-.8 8.4-.38 12.56zm-33.31 33.92c-3.097 3.104-7.515 4.522-11.84 3.8.512-1.251.568-2.642.16-3.93-5.07 2.83-10.345 5.277-15.78 7.32l-.57-2.87c-7.66 3.74-7.06 16.43-14.72 20.17-4.56 2.23-11 .62-14.15 4.64-.7.91-1.11 2-1.75 3-2.5 3.83-7.9 4.66-12.36 3.65-7.42-1.68-13.47-7.28-17.4-13.79s-6.05-13.93-8.12-21.25l-4.08-14.41c-.67-2.4-1.35-4.8-1.79-7.25 0 .74 0 1.47.11 2.2.418 3.41 1.147 6.774 2.18 10.05l4.08 14.41c2.07 7.32 4.18 14.74 8.12 21.25s10 12.11 17.4 13.79c4.46 1 9.86.18 12.36-3.65.64-1 1.05-2.07 1.75-3 3.1-4 9.59-2.41 14.15-4.64 7.66-3.74 7.06-16.43 14.72-20.17l.57 2.87c5.425-2.044 10.69-4.491 15.75-7.32.408 1.288.352 2.679-.16 3.93 4.108.68 8.309-.568 11.38-3.38.427-1.782.423-3.64-.01-5.42zm-19.3 65.93c-5.38 3.1-17.88 10-20.41 8.82-2.7-1.25-32.16-11.56-42-15 .65-3.34 3-11.84 10.79-14.63 1.577-.424 3.232-.469 4.83-.13l29.88 11.82c8.37 4.25 15.32 8.2 16.91 9.12z" fill-opacity=".098039" fill-rule="nonzero"/><path d="m368.46 282.76c-5.38 3.1-17.88 10-20.41 8.82-2.7-1.25-32.16-11.56-42-15 .65-3.34 3-11.84 10.79-14.63 1.577-.424 3.232-.469 4.83-.13l29.88 11.82c8.37 4.25 15.32 8.2 16.91 9.12z" fill="#dce6f2" fill-rule="nonzero"/><path d="m763.55 207.43c-.29 11.27-1.82 22.54-6.51 32.39-8.38 17.59-27.07 28.06-44.49 24.91-2.354-.298-4.593-1.197-6.5-2.61-1.83-1.697-3.264-3.776-4.2-6.09-3.66-7.86-5.53-16.92-10.65-23.65s-15.51-9.66-20.45-2.77c-2.69 3.73-3.14 9.49-6.73 12.08-4.31 3.11-10-.56-13.35-5-9.9-13-6.51-38.57-25.39-42.15-3.06-.59-6.61-.51-8.66-3.15-1.21-1.56-1.56-3.72-1.85-5.77-.34-2.41-.63-4.87-.8-7.34-.348 5.459-.079 10.941.8 16.34.29 2.05.64 4.21 1.85 5.77 2.05 2.64 5.6 2.56 8.66 3.15 18.88 3.58 15.49 29.12 25.39 42.15 3.34 4.39 9 8.06 13.35 5 3.59-2.59 4-8.35 6.73-12.08 4.94-6.89 15.33-3.95 20.45 2.77s7 15.79 10.65 23.65c.936 2.314 2.37 4.393 4.2 6.09 1.907 1.413 4.146 2.312 6.5 2.61 17.42 3.15 36.11-7.32 44.49-24.91 5.78-12.12 6.75-26.42 6.53-40.19-.02-.44-.02-.84-.02-1.2zm-12.66-36.73s-6 10 11 18.33l1-2.67z" fill-opacity=".098039" fill-rule="nonzero"/><path d="m986.6 736.69s5.5 7.19-2.53 18-14.65 20-12 26.77c0 0 12.12-20.15 22-20.43s3.38-12.22-7.47-24.34z" fill="#3ebd93" fill-rule="nonzero"/><path d="m986.6 736.69c.48.694.86 1.451 1.13 2.25 9.62 11.31 14.74 21.86 5.49 22.12-8.61.25-18.94 15.65-21.42 19.54.08.3.18.59.29.89 0 0 12.12-20.15 22-20.43s3.36-12.25-7.49-24.37z" fill-opacity=".098039" fill-rule="nonzero"/><path d="m996.82 745.85c0 2.53-.29 4.58-.64 4.58s-.63-2-.63-4.58.35-1.34.7-1.34.57-1.19.57 1.34z" fill="#ffd037" fill-rule="nonzero"/><path d="m1000.32 748.87c-2.22 1.21-4.16 1.94-4.32 1.63s1.49-1.54 3.71-2.75 1.35-.33 1.52 0 1.32-.09-.91 1.12z" fill="#ffd037" fill-rule="nonzero"/><path d="m957.55 736.69s-5.5 7.19 2.53 18 14.65 20 12 26.77c0 0-12.11-20.15-22-20.43s-3.34-12.22 7.47-24.34z" fill="#3ebd93" fill-rule="nonzero"/><path d="m957.55 736.69c-.48.694-.86 1.451-1.13 2.25-9.62 11.31-14.74 21.86-5.49 22.12 8.61.25 18.94 15.65 21.42 19.54-.082.302-.182.6-.3.89s-12.11-20.15-22-20.43-3.31-12.25 7.5-24.37z" fill-opacity=".098039" fill-rule="nonzero"/><path d="m947.37 745.85c0 2.53.29 4.58.64 4.58s.63-2 .63-4.58-.35-1.34-.7-1.34-.57-1.19-.57 1.34z" fill="#ffd037" fill-rule="nonzero"/><path d="m943.87 748.87c2.22 1.21 4.15 1.94 4.32 1.63s-1.49-1.54-3.71-2.75-1.35-.33-1.52 0-1.31-.09.91 1.12z" fill="#ffd037" fill-rule="nonzero"/><path d="m949.12 780.55s15.36-.48 20-3.77 23.63-7.24 24.78-2 23.08 26.29 5.74 26.43-40.29-2.7-44.91-5.51-5.61-15.15-5.61-15.15z" fill="#a8a8a8" fill-rule="nonzero"/><path d="m999.94 799.43c-17.34.14-40.29-2.7-44.91-5.51-3.52-2.15-4.92-9.84-5.39-13.38h-.52s1 12.39 5.6 15.21 27.57 5.65 44.91 5.51c5 0 6.73-1.82 6.64-4.46-.72 1.63-2.61 2.63-6.33 2.63z" fill-opacity=".2" fill-rule="nonzero"/><path d="m262.64 762.92c1.836-1.493 3.175-3.509 3.84-5.78.49-2.3-.49-5.06-2.68-5.9-2.46-.94-5.09.77-7.08 2.49s-4.28 3.69-6.89 3.32c2.727-2.47 3.96-6.202 3.24-9.81-.114-.736-.425-1.427-.9-2-1.36-1.46-3.84-.83-5.48.32-5.2 3.65-6.65 10.72-6.67 17.07-.53-2.29-.09-4.68-.1-7s-.66-5-2.64-6.22c-1.223-.677-2.602-1.022-4-1-2.34-.09-4.94.15-6.54 1.86-2 2.12-1.47 5.69.26 8s4.35 3.81 6.76 5.42c1.939 1.153 3.594 2.729 4.84 4.61.146.265.266.543.36.83h14.59c3.297-1.65 6.355-3.739 9.09-6.21z" fill="#3ebd93" fill-rule="nonzero"/><path d="m146.21 778.69s-14-47.7 2.63-82.82c7.089-14.68 9.23-31.271 6.1-47.27-1.554-7.585-3.796-15.013-6.7-22.19" fill="none" stroke="#535461" stroke-width="2"/><path d="m158.63 604.22c0 5.84-10.59 22.8-10.59 22.8s-10.59-17-10.59-22.8c0-5.81 4.78-10.59 10.59-10.59s10.59 4.78 10.59 10.59zm17.5 32.38c-3.18 4.91-21.28 13.39-21.28 13.39s.32-20 3.5-24.89c1.969-2.903 5.257-4.646 8.764-4.646 5.81 0 10.59 4.781 10.59 10.59 0 1.962-.545 3.886-1.574 5.556zm-.77 55.35c-5.22 2.63-25.13.81-25.13.81s10.38-17.08 15.6-19.72c1.527-.809 3.229-1.231 4.956-1.231 5.81 0 10.59 4.78 10.59 10.59 0 4.069-2.346 7.793-6.016 9.551zm-10.01 41.74c-4.7 3.48-24.63 5-24.63 5s7.34-18.59 12-22.07c1.893-1.551 4.266-2.4 6.713-2.4 5.81 0 10.59 4.781 10.59 10.59 0 3.537-1.771 6.848-4.713 8.81zm-32.73-82.57c4.19 4.08 23.73 8.3 23.73 8.3s-4.79-19.41-9-23.49c-1.991-2.035-4.722-3.184-7.569-3.184-5.81 0-10.59 4.781-10.59 10.59 0 2.956 1.237 5.78 3.409 7.784zm-11.07 48.97c5.22 2.63 25.13.82 25.13.82s-10.37-17.09-15.6-19.72c-1.478-.745-3.11-1.133-4.765-1.133-5.806 0-10.583 4.777-10.583 10.583 0 3.99 2.256 7.654 5.818 9.45zm-4.26 49.08c4.7 3.47 24.63 5 24.63 5s-7.34-18.6-12-22.08c-1.74-1.161-3.785-1.78-5.877-1.78-5.809 0-10.59 4.78-10.59 10.59 0 3.171 1.425 6.18 3.877 8.19z" fill="#0967d2" fill-rule="nonzero"/><path d="m158.63 604.22c0 5.84-10.59 22.8-10.59 22.8s-10.59-17-10.59-22.8c0-5.81 4.78-10.59 10.59-10.59s10.59 4.78 10.59 10.59zm17.5 32.38c-3.18 4.91-21.28 13.39-21.28 13.39s.32-20 3.5-24.89c1.969-2.903 5.257-4.646 8.764-4.646 5.81 0 10.59 4.781 10.59 10.59 0 1.962-.545 3.886-1.574 5.556zm-.77 55.35c-5.22 2.63-25.13.81-25.13.81s10.38-17.08 15.6-19.72c1.527-.809 3.229-1.231 4.956-1.231 5.81 0 10.59 4.78 10.59 10.59 0 4.069-2.346 7.793-6.016 9.551zm-10.01 41.74c-4.7 3.48-24.63 5-24.63 5s7.34-18.59 12-22.07c1.893-1.551 4.266-2.4 6.713-2.4 5.81 0 10.59 4.781 10.59 10.59 0 3.537-1.771 6.848-4.713 8.81zm-32.73-82.57c4.19 4.08 23.73 8.3 23.73 8.3s-4.79-19.41-9-23.49c-1.991-2.035-4.722-3.184-7.569-3.184-5.81 0-10.59 4.781-10.59 10.59 0 2.956 1.237 5.78 3.409 7.784zm-11.07 48.97c5.22 2.63 25.13.82 25.13.82s-10.37-17.09-15.6-19.72c-1.478-.745-3.11-1.133-4.765-1.133-5.806 0-10.583 4.777-10.583 10.583 0 3.99 2.256 7.654 5.818 9.45zm-4.26 49.08c4.7 3.47 24.63 5 24.63 5s-7.34-18.6-12-22.08c-1.74-1.161-3.785-1.78-5.877-1.78-5.809 0-10.59 4.78-10.59 10.59 0 3.171 1.425 6.18 3.877 8.19z" fill="#3ebd93" fill-rule="nonzero"/><path d="m113 775.69s17.11-3.4 21.67-7.93 25.1-12.46 27.38-6.8 30.8 24.92 11.41 28.32-45.63 4.53-51.34 2.26-9.12-15.85-9.12-15.85z" fill="#a8a8a8" fill-rule="nonzero"/><path d="m173.46 787.17c-19.4 3.4-45.63 4.53-51.34 2.27-4.34-1.73-7.36-10-8.55-13.87l-.57.12s3.42 13.59 9.12 15.85 31.94 1.14 51.34-2.26c5.59-1 7.19-3.29 6.59-6.2-.5 1.9-2.43 3.35-6.59 4.09z" fill-opacity=".2" fill-rule="nonzero"/><path d="m625.23 203.55c-3.06-.59-6.61-.51-8.66-3.15-1.21-1.56-1.56-3.72-1.85-5.77-1.23-8.86-1.9-18.37 1.63-26.4 5.79-13.17 20.69-17.57 33.64-16.59s25.66 5.81 38.61 5c9.52-.62 18.91-4.3 28.4-3.25 7.51.84 14.51 4.57 21.26 8.38 6.32 3.56 12.78 7.39 17.26 13.57 6.58 9.05 7.82 21.55 8 33.28.22 13.77-.75 28.07-6.53 40.19-8.38 17.59-27.07 28.06-44.49 24.91-2.354-.298-4.593-1.197-6.5-2.61-1.83-1.697-3.264-3.776-4.2-6.09-3.66-7.86-5.53-16.92-10.65-23.65s-15.51-9.66-20.45-2.77c-2.69 3.73-3.14 9.49-6.73 12.08-4.31 3.11-10-.56-13.35-5-9.9-13.01-6.51-38.55-25.39-42.13z" fill="#9aa5b1" fill-rule="nonzero"/></svg>